<?xml version="1.0"?>
<!-- Generated by SVGo -->
<svg width="258.602mm" height="106.202mm"
     viewBox="0.000 0.000 258.602 106.202"
     xmlns="http://www.w3.org/2000/svg" 
     xmlns:xlink="http://www.w3.org/1999/xlink">
<polygon points="248.602,5.001 248.994,5.016 249.384,5.062 249.769,5.139 250.147,5.245 250.515,5.381 250.871,5.545 251.214,5.737 251.540,5.955 251.849,6.198 252.137,6.465 252.404,6.753 252.647,7.062 252.865,7.388 253.057,7.731 253.221,8.087 253.357,8.455 253.463,8.833 253.540,9.218 253.586,9.608 253.602,10.001 253.602,96.202 253.586,96.594 253.540,96.984 253.463,97.369 253.357,97.747 253.221,98.115 253.057,98.471 252.865,98.814 252.647,99.140 252.404,99.449 252.137,99.737 251.849,100.004 251.540,100.247 251.214,100.465 250.871,100.657 250.515,100.821 250.147,100.957 249.769,101.063 249.384,101.140 248.994,101.186 248.602,101.202 10.001,101.202 9.608,101.186 9.218,101.140 8.833,101.063 8.455,100.957 8.087,100.821 7.731,100.657 7.388,100.465 7.062,100.247 6.753,100.004 6.465,99.737 6.198,99.449 5.955,99.140 5.737,98.814 5.545,98.471 5.381,98.115 5.245,97.747 5.139,97.369 5.062,96.984 5.016,96.594 5.000,96.201 5.001,10.001 5.016,9.608 5.062,9.218 5.139,8.833 5.245,8.455 5.381,8.087 5.545,7.731 5.737,7.388 5.955,7.062 6.198,6.753 6.465,6.465 6.753,6.198 7.062,5.955 7.388,5.737 7.731,5.545 8.087,5.381 8.455,5.245 8.833,5.139 9.218,5.062 9.608,5.016 10.001,5.000" style="fill:none;stroke-width:0.050000mm;stroke:black"/>
<polygon points="248.138,94.775 247.720,94.988 247.388,95.320 247.175,95.738 247.102,96.202 247.175,96.665 247.388,97.083 247.720,97.415 248.138,97.628 248.602,97.702 249.065,97.628 249.483,97.415 249.815,97.083 250.028,96.665 250.102,96.202 250.028,95.738 249.815,95.320 249.483,94.988 249.065,94.775 248.602,94.702" style="fill:none;stroke-width:0.050000mm;stroke:black"/>
<polygon points="9.537,94.775 9.119,94.988 8.787,95.320 8.574,95.738 8.501,96.202 8.574,96.665 8.787,97.083 9.119,97.415 9.537,97.628 10.001,97.702 10.464,97.628 10.882,97.415 11.214,97.083 11.427,96.665 11.501,96.202 11.427,95.738 11.214,95.320 10.882,94.988 10.464,94.775 10.001,94.702" style="fill:none;stroke-width:0.050000mm;stroke:black"/>
<polygon points="14.999,14.999 14.999,91.202 243.602,91.202 243.602,14.999" style="fill:none;stroke-width:0.050000mm;stroke:black"/>
<polygon points="248.138,8.574 247.720,8.787 247.388,9.119 247.175,9.537 247.102,10.001 247.175,10.464 247.388,10.882 247.720,11.214 248.138,11.427 248.602,11.501 249.065,11.427 249.483,11.214 249.815,10.882 250.028,10.464 250.102,10.001 250.028,9.537 249.815,9.119 249.483,8.787 249.065,8.574 248.602,8.501" style="fill:none;stroke-width:0.050000mm;stroke:black"/>
<polygon points="9.537,8.574 9.119,8.787 8.787,9.119 8.574,9.537 8.501,10.001 8.574,10.464 8.787,10.882 9.119,11.214 9.537,11.427 10.001,11.501 10.464,11.427 10.882,11.214 11.214,10.882 11.427,10.464 11.501,10.001 11.427,9.537 11.214,9.119 10.882,8.787 10.464,8.574 10.001,8.501" style="fill:none;stroke-width:0.050000mm;stroke:black"/>
</svg>
