<?xml version="1.0"?>
<!-- Generated by SVGo -->
<svg width="258.602mm" height="106.202mm"
     viewBox="0.000 0.000 258.602 106.202"
     xmlns="http://www.w3.org/2000/svg" 
     xmlns:xlink="http://www.w3.org/1999/xlink">
<polygon points="248.602,5.001 248.994,5.016 249.384,5.062 249.769,5.139 250.147,5.245 250.515,5.381 250.871,5.545 251.214,5.737 251.540,5.955 251.849,6.198 252.137,6.465 252.404,6.753 252.647,7.062 252.865,7.388 253.057,7.731 253.221,8.087 253.357,8.455 253.463,8.833 253.540,9.218 253.586,9.608 253.602,10.001 253.602,96.202 253.586,96.594 253.540,96.984 253.463,97.369 253.357,97.747 253.221,98.115 253.057,98.471 252.865,98.814 252.647,99.140 252.404,99.449 252.137,99.737 251.849,100.004 251.540,100.247 251.214,100.465 250.871,100.657 250.515,100.821 250.147,100.957 249.769,101.063 249.384,101.140 248.994,101.186 248.602,101.202 10.001,101.202 9.608,101.186 9.218,101.140 8.833,101.063 8.455,100.957 8.087,100.821 7.731,100.657 7.388,100.465 7.062,100.247 6.753,100.004 6.465,99.737 6.198,99.449 5.955,99.140 5.737,98.814 5.545,98.471 5.381,98.115 5.245,97.747 5.139,97.369 5.062,96.984 5.016,96.594 5.000,96.201 5.001,10.001 5.016,9.608 5.062,9.218 5.139,8.833 5.245,8.455 5.381,8.087 5.545,7.731 5.737,7.388 5.955,7.062 6.198,6.753 6.465,6.465 6.753,6.198 7.062,5.955 7.388,5.737 7.731,5.545 8.087,5.381 8.455,5.245 8.833,5.139 9.218,5.062 9.608,5.016 10.001,5.000" style="fill:none;stroke-width:0.050000mm;stroke:black"/>
<polygon points="248.138,94.775 247.720,94.988 247.388,95.320 247.175,95.738 247.102,96.202 247.175,96.665 247.388,97.083 247.720,97.415 248.138,97.628 248.602,97.702 249.065,97.628 249.483,97.415 249.815,97.083 250.028,96.665 250.102,96.202 250.028,95.738 249.815,95.320 249.483,94.988 249.065,94.775 248.602,94.702" style="fill:none;stroke-width:0.050000mm;stroke:black"/>
<polygon points="9.537,94.775 9.119,94.988 8.787,95.320 8.574,95.738 8.501,96.202 8.574,96.665 8.787,97.083 9.119,97.415 9.537,97.628 10.001,97.702 10.464,97.628 10.882,97.415 11.214,97.083 11.427,96.665 11.501,96.202 11.427,95.738 11.214,95.320 10.882,94.988 10.464,94.775 10.001,94.702" style="fill:none;stroke-width:0.050000mm;stroke:black"/>
<polygon points="122.301,74.676 122.301,75.676 121.501,75.676 121.501,78.775 122.301,78.775 122.301,79.376 120.776,79.376 120.776,76.146 114.026,76.146 114.026,79.376 113.201,79.376 113.201,82.176 114.026,82.176 114.026,88.446 115.751,88.446 115.751,89.646 119.051,89.646 119.051,88.446 120.776,88.446 120.776,83.976 122.301,83.976 122.301,84.576 121.501,84.576 121.501,87.676 122.301,87.676 122.301,88.676 136.301,88.676 136.301,87.676 137.101,87.676 137.101,84.576 136.301,84.576 136.301,83.976 137.826,83.976 137.826,88.446 139.551,88.446 139.551,89.646 142.851,89.646 142.851,88.446 144.576,88.446 144.576,82.176 145.401,82.176 145.401,79.376 144.576,79.376 144.576,76.146 137.826,76.146 137.826,79.376 136.301,79.376 136.301,78.775 137.101,78.775 137.101,75.676 136.301,75.676 136.301,74.676" style="fill:none;stroke-width:0.050000mm;stroke:black"/>
<polygon points="17.526,74.676 17.526,75.676 16.725,75.676 16.725,78.775 17.526,78.775 17.526,84.576 16.725,84.576 16.725,87.676 17.526,87.676 17.526,88.676 31.526,88.676 31.526,87.676 32.324,87.676 32.324,84.576 31.526,84.576 31.526,78.775 32.324,78.775 32.324,75.676 31.526,75.676 31.526,74.676" style="fill:none;stroke-width:0.050000mm;stroke:black"/>
<polygon points="36.576,74.676 36.576,75.676 35.776,75.676 35.776,78.775 36.576,78.775 36.576,84.576 35.776,84.576 35.776,87.676 36.576,87.676 36.576,88.676 50.576,88.676 50.576,87.676 51.376,87.676 51.376,84.576 50.576,84.576 50.576,78.775 51.376,78.775 51.376,75.676 50.576,75.676 50.576,74.676" style="fill:none;stroke-width:0.050000mm;stroke:black"/>
<polygon points="55.626,74.676 55.626,75.676 54.826,75.676 54.826,78.775 55.626,78.775 55.626,84.576 54.826,84.576 54.826,87.676 55.626,87.676 55.626,88.676 69.626,88.676 69.626,87.676 70.426,87.676 70.426,84.576 69.626,84.576 69.626,78.775 70.426,78.775 70.426,75.676 69.626,75.676 69.626,74.676" style="fill:none;stroke-width:0.050000mm;stroke:black"/>
<polygon points="74.676,74.676 74.676,75.676 73.876,75.676 73.876,78.775 74.676,78.775 74.676,84.576 73.876,84.576 73.876,87.676 74.676,87.676 74.676,88.676 88.676,88.676 88.676,87.676 89.476,87.676 89.476,84.576 88.676,84.576 88.676,78.775 89.476,78.775 89.476,75.676 88.676,75.676 88.676,74.676" style="fill:none;stroke-width:0.050000mm;stroke:black"/>
<polygon points="93.726,74.676 93.726,75.676 92.926,75.676 92.926,78.775 93.726,78.775 93.726,84.576 92.926,84.576 92.926,87.676 93.726,87.676 93.726,88.676 107.726,88.676 107.726,87.676 108.525,87.676 108.525,84.576 107.726,84.576 107.726,78.775 108.525,78.775 108.525,75.676 107.726,75.676 107.726,74.676" style="fill:none;stroke-width:0.050000mm;stroke:black"/>
<polygon points="150.876,74.676 150.876,75.676 150.076,75.676 150.076,78.775 150.876,78.775 150.876,84.576 150.076,84.576 150.076,87.676 150.876,87.676 150.876,88.676 164.876,88.676 164.876,87.676 165.676,87.676 165.676,84.576 164.876,84.576 164.876,78.775 165.676,78.775 165.676,75.676 164.876,75.676 164.876,74.676" style="fill:none;stroke-width:0.050000mm;stroke:black"/>
<polygon points="169.926,74.676 169.926,75.676 169.126,75.676 169.126,78.775 169.926,78.775 169.926,84.576 169.126,84.576 169.126,87.676 169.926,87.676 169.926,88.676 183.926,88.676 183.926,87.676 184.726,87.676 184.726,84.576 183.926,84.576 183.926,78.775 184.726,78.775 184.726,75.676 183.926,75.676 183.926,74.676" style="fill:none;stroke-width:0.050000mm;stroke:black"/>
<polygon points="188.976,74.676 188.976,75.676 188.176,75.676 188.176,78.775 188.976,78.775 188.976,84.576 188.176,84.576 188.176,87.676 188.976,87.676 188.976,88.676 202.976,88.676 202.976,87.676 203.776,87.676 203.776,84.576 202.976,84.576 202.976,78.775 203.776,78.775 203.776,75.676 202.976,75.676 202.976,74.676" style="fill:none;stroke-width:0.050000mm;stroke:black"/>
<polygon points="208.026,74.676 208.026,75.676 207.226,75.676 207.226,78.775 208.026,78.775 208.026,84.576 207.226,84.576 207.226,87.676 208.026,87.676 208.026,88.676 222.026,88.676 222.026,87.676 222.826,87.676 222.826,84.576 222.026,84.576 222.026,78.775 222.826,78.775 222.826,75.676 222.026,75.676 222.026,74.676" style="fill:none;stroke-width:0.050000mm;stroke:black"/>
<polygon points="227.076,74.676 227.076,75.676 226.276,75.676 226.276,78.775 227.076,78.775 227.076,84.576 226.276,84.576 226.276,87.676 227.076,87.676 227.076,88.676 241.076,88.676 241.076,87.676 241.876,87.676 241.876,84.576 241.076,84.576 241.076,78.775 241.876,78.775 241.876,75.676 241.076,75.676 241.076,74.676" style="fill:none;stroke-width:0.050000mm;stroke:black"/>
<polygon points="17.526,55.626 17.526,56.626 16.725,56.626 16.725,59.726 17.526,59.726 17.526,65.526 16.725,65.526 16.725,68.626 17.526,68.626 17.526,69.626 31.526,69.626 31.526,68.626 32.324,68.626 32.324,65.526 31.526,65.526 31.526,59.726 32.324,59.726 32.324,56.626 31.526,56.626 31.526,55.626" style="fill:none;stroke-width:0.050000mm;stroke:black"/>
<polygon points="36.576,55.626 36.576,56.626 35.776,56.626 35.776,59.726 36.576,59.726 36.576,65.526 35.776,65.526 35.776,68.626 36.576,68.626 36.576,69.626 50.576,69.626 50.576,68.626 51.376,68.626 51.376,65.526 50.576,65.526 50.576,59.726 51.376,59.726 51.376,56.626 50.576,56.626 50.576,55.626" style="fill:none;stroke-width:0.050000mm;stroke:black"/>
<polygon points="55.626,55.626 55.626,56.626 54.826,56.626 54.826,59.726 55.626,59.726 55.626,65.526 54.826,65.526 54.826,68.626 55.626,68.626 55.626,69.626 69.626,69.626 69.626,68.626 70.426,68.626 70.426,65.526 69.626,65.526 69.626,59.726 70.426,59.726 70.426,56.626 69.626,56.626 69.626,55.626" style="fill:none;stroke-width:0.050000mm;stroke:black"/>
<polygon points="74.676,55.626 74.676,56.626 73.876,56.626 73.876,59.726 74.676,59.726 74.676,65.526 73.876,65.526 73.876,68.626 74.676,68.626 74.676,69.626 88.676,69.626 88.676,68.626 89.476,68.626 89.476,65.526 88.676,65.526 88.676,59.726 89.476,59.726 89.476,56.626 88.676,56.626 88.676,55.626" style="fill:none;stroke-width:0.050000mm;stroke:black"/>
<polygon points="93.726,55.626 93.726,56.626 92.926,56.626 92.926,59.726 93.726,59.726 93.726,65.526 92.926,65.526 92.926,68.626 93.726,68.626 93.726,69.626 107.726,69.626 107.726,68.626 108.525,68.626 108.525,65.526 107.726,65.526 107.726,59.726 108.525,59.726 108.525,56.626 107.726,56.626 107.726,55.626" style="fill:none;stroke-width:0.050000mm;stroke:black"/>
<polygon points="112.775,55.626 112.775,56.626 111.976,56.626 111.976,59.726 112.775,59.726 112.775,65.526 111.976,65.526 111.976,68.626 112.775,68.626 112.775,69.626 126.775,69.626 126.775,68.626 127.575,68.626 127.575,65.526 126.775,65.526 126.775,59.726 127.575,59.726 127.575,56.626 126.775,56.626 126.775,55.626" style="fill:none;stroke-width:0.050000mm;stroke:black"/>
<polygon points="131.826,55.626 131.826,56.626 131.025,56.626 131.025,59.726 131.826,59.726 131.826,65.526 131.025,65.526 131.025,68.626 131.826,68.626 131.826,69.626 145.826,69.626 145.826,68.626 146.626,68.626 146.626,65.526 145.826,65.526 145.826,59.726 146.626,59.726 146.626,56.626 145.826,56.626 145.826,55.626" style="fill:none;stroke-width:0.050000mm;stroke:black"/>
<polygon points="150.876,55.626 150.876,56.626 150.076,56.626 150.076,59.726 150.876,59.726 150.876,65.526 150.076,65.526 150.076,68.626 150.876,68.626 150.876,69.626 164.876,69.626 164.876,68.626 165.676,68.626 165.676,65.526 164.876,65.526 164.876,59.726 165.676,59.726 165.676,56.626 164.876,56.626 164.876,55.626" style="fill:none;stroke-width:0.050000mm;stroke:black"/>
<polygon points="169.926,55.626 169.926,56.626 169.126,56.626 169.126,59.726 169.926,59.726 169.926,65.526 169.126,65.526 169.126,68.626 169.926,68.626 169.926,69.626 183.926,69.626 183.926,68.626 184.726,68.626 184.726,65.526 183.926,65.526 183.926,59.726 184.726,59.726 184.726,56.626 183.926,56.626 183.926,55.626" style="fill:none;stroke-width:0.050000mm;stroke:black"/>
<polygon points="188.976,55.626 188.976,56.626 188.176,56.626 188.176,59.726 188.976,59.726 188.976,65.526 188.176,65.526 188.176,68.626 188.976,68.626 188.976,69.626 202.976,69.626 202.976,68.626 203.776,68.626 203.776,65.526 202.976,65.526 202.976,59.726 203.776,59.726 203.776,56.626 202.976,56.626 202.976,55.626" style="fill:none;stroke-width:0.050000mm;stroke:black"/>
<polygon points="208.026,55.626 208.026,56.626 207.226,56.626 207.226,59.726 208.026,59.726 208.026,65.526 207.226,65.526 207.226,68.626 208.026,68.626 208.026,69.626 222.026,69.626 222.026,68.626 222.826,68.626 222.826,65.526 222.026,65.526 222.026,59.726 222.826,59.726 222.826,56.626 222.026,56.626 222.026,55.626" style="fill:none;stroke-width:0.050000mm;stroke:black"/>
<polygon points="227.076,55.626 227.076,56.626 226.276,56.626 226.276,59.726 227.076,59.726 227.076,65.526 226.276,65.526 226.276,68.626 227.076,68.626 227.076,69.626 241.076,69.626 241.076,68.626 241.876,68.626 241.876,65.526 241.076,65.526 241.076,59.726 241.876,59.726 241.876,56.626 241.076,56.626 241.076,55.626" style="fill:none;stroke-width:0.050000mm;stroke:black"/>
<polygon points="17.526,36.576 17.526,37.576 16.725,37.576 16.725,40.676 17.526,40.676 17.526,46.476 16.725,46.476 16.725,49.576 17.526,49.576 17.526,50.576 31.526,50.576 31.526,49.576 32.324,49.576 32.324,46.476 31.526,46.476 31.526,40.676 32.324,40.676 32.324,37.576 31.526,37.576 31.526,36.576" style="fill:none;stroke-width:0.050000mm;stroke:black"/>
<polygon points="36.576,36.576 36.576,37.576 35.776,37.576 35.776,40.676 36.576,40.676 36.576,46.476 35.776,46.476 35.776,49.576 36.576,49.576 36.576,50.576 50.576,50.576 50.576,49.576 51.376,49.576 51.376,46.476 50.576,46.476 50.576,40.676 51.376,40.676 51.376,37.576 50.576,37.576 50.576,36.576" style="fill:none;stroke-width:0.050000mm;stroke:black"/>
<polygon points="55.626,36.576 55.626,37.576 54.826,37.576 54.826,40.676 55.626,40.676 55.626,46.476 54.826,46.476 54.826,49.576 55.626,49.576 55.626,50.576 69.626,50.576 69.626,49.576 70.426,49.576 70.426,46.476 69.626,46.476 69.626,40.676 70.426,40.676 70.426,37.576 69.626,37.576 69.626,36.576" style="fill:none;stroke-width:0.050000mm;stroke:black"/>
<polygon points="74.676,36.576 74.676,37.576 73.876,37.576 73.876,40.676 74.676,40.676 74.676,46.476 73.876,46.476 73.876,49.576 74.676,49.576 74.676,50.576 88.676,50.576 88.676,49.576 89.476,49.576 89.476,46.476 88.676,46.476 88.676,40.676 89.476,40.676 89.476,37.576 88.676,37.576 88.676,36.576" style="fill:none;stroke-width:0.050000mm;stroke:black"/>
<polygon points="93.726,36.576 93.726,37.576 92.926,37.576 92.926,40.676 93.726,40.676 93.726,46.476 92.926,46.476 92.926,49.576 93.726,49.576 93.726,50.576 107.726,50.576 107.726,49.576 108.525,49.576 108.525,46.476 107.726,46.476 107.726,40.676 108.525,40.676 108.525,37.576 107.726,37.576 107.726,36.576" style="fill:none;stroke-width:0.050000mm;stroke:black"/>
<polygon points="112.775,36.576 112.775,37.576 111.976,37.576 111.976,40.676 112.775,40.676 112.775,46.476 111.976,46.476 111.976,49.576 112.775,49.576 112.775,50.576 126.775,50.576 126.775,49.576 127.575,49.576 127.575,46.476 126.775,46.476 126.775,40.676 127.575,40.676 127.575,37.576 126.775,37.576 126.775,36.576" style="fill:none;stroke-width:0.050000mm;stroke:black"/>
<polygon points="131.826,36.576 131.826,37.576 131.025,37.576 131.025,40.676 131.826,40.676 131.826,46.476 131.025,46.476 131.025,49.576 131.826,49.576 131.826,50.576 145.826,50.576 145.826,49.576 146.626,49.576 146.626,46.476 145.826,46.476 145.826,40.676 146.626,40.676 146.626,37.576 145.826,37.576 145.826,36.576" style="fill:none;stroke-width:0.050000mm;stroke:black"/>
<polygon points="150.876,36.576 150.876,37.576 150.076,37.576 150.076,40.676 150.876,40.676 150.876,46.476 150.076,46.476 150.076,49.576 150.876,49.576 150.876,50.576 164.876,50.576 164.876,49.576 165.676,49.576 165.676,46.476 164.876,46.476 164.876,40.676 165.676,40.676 165.676,37.576 164.876,37.576 164.876,36.576" style="fill:none;stroke-width:0.050000mm;stroke:black"/>
<polygon points="169.926,36.576 169.926,37.576 169.126,37.576 169.126,40.676 169.926,40.676 169.926,46.476 169.126,46.476 169.126,49.576 169.926,49.576 169.926,50.576 183.926,50.576 183.926,49.576 184.726,49.576 184.726,46.476 183.926,46.476 183.926,40.676 184.726,40.676 184.726,37.576 183.926,37.576 183.926,36.576" style="fill:none;stroke-width:0.050000mm;stroke:black"/>
<polygon points="188.976,36.576 188.976,37.576 188.176,37.576 188.176,40.676 188.976,40.676 188.976,46.476 188.176,46.476 188.176,49.576 188.976,49.576 188.976,50.576 202.976,50.576 202.976,49.576 203.776,49.576 203.776,46.476 202.976,46.476 202.976,40.676 203.776,40.676 203.776,37.576 202.976,37.576 202.976,36.576" style="fill:none;stroke-width:0.050000mm;stroke:black"/>
<polygon points="208.026,36.576 208.026,37.576 207.226,37.576 207.226,40.676 208.026,40.676 208.026,46.476 207.226,46.476 207.226,49.576 208.026,49.576 208.026,50.576 222.026,50.576 222.026,49.576 222.826,49.576 222.826,46.476 222.026,46.476 222.026,40.676 222.826,40.676 222.826,37.576 222.026,37.576 222.026,36.576" style="fill:none;stroke-width:0.050000mm;stroke:black"/>
<polygon points="227.076,36.576 227.076,37.576 226.276,37.576 226.276,40.676 227.076,40.676 227.076,46.476 226.276,46.476 226.276,49.576 227.076,49.576 227.076,50.576 241.076,50.576 241.076,49.576 241.876,49.576 241.876,46.476 241.076,46.476 241.076,40.676 241.876,40.676 241.876,37.576 241.076,37.576 241.076,36.576" style="fill:none;stroke-width:0.050000mm;stroke:black"/>
<polygon points="17.526,17.526 17.526,18.526 16.725,18.526 16.725,21.626 17.526,21.626 17.526,27.425 16.725,27.425 16.725,30.526 17.526,30.526 17.526,31.526 31.526,31.526 31.526,30.526 32.324,30.526 32.324,27.425 31.526,27.425 31.526,21.626 32.324,21.626 32.324,18.526 31.526,18.526 31.526,17.526" style="fill:none;stroke-width:0.050000mm;stroke:black"/>
<polygon points="36.576,17.526 36.576,18.526 35.776,18.526 35.776,21.626 36.576,21.626 36.576,27.425 35.776,27.425 35.776,30.526 36.576,30.526 36.576,31.526 50.576,31.526 50.576,30.526 51.376,30.526 51.376,27.425 50.576,27.425 50.576,21.626 51.376,21.626 51.376,18.526 50.576,18.526 50.576,17.526" style="fill:none;stroke-width:0.050000mm;stroke:black"/>
<polygon points="55.626,17.526 55.626,18.526 54.826,18.526 54.826,21.626 55.626,21.626 55.626,27.425 54.826,27.425 54.826,30.526 55.626,30.526 55.626,31.526 69.626,31.526 69.626,30.526 70.426,30.526 70.426,27.425 69.626,27.425 69.626,21.626 70.426,21.626 70.426,18.526 69.626,18.526 69.626,17.526" style="fill:none;stroke-width:0.050000mm;stroke:black"/>
<polygon points="74.676,17.526 74.676,18.526 73.876,18.526 73.876,21.626 74.676,21.626 74.676,27.425 73.876,27.425 73.876,30.526 74.676,30.526 74.676,31.526 88.676,31.526 88.676,30.526 89.476,30.526 89.476,27.425 88.676,27.425 88.676,21.626 89.476,21.626 89.476,18.526 88.676,18.526 88.676,17.526" style="fill:none;stroke-width:0.050000mm;stroke:black"/>
<polygon points="93.726,17.526 93.726,18.526 92.926,18.526 92.926,21.626 93.726,21.626 93.726,27.425 92.926,27.425 92.926,30.526 93.726,30.526 93.726,31.526 107.726,31.526 107.726,30.526 108.525,30.526 108.525,27.425 107.726,27.425 107.726,21.626 108.525,21.626 108.525,18.526 107.726,18.526 107.726,17.526" style="fill:none;stroke-width:0.050000mm;stroke:black"/>
<polygon points="112.775,17.526 112.775,18.526 111.976,18.526 111.976,21.626 112.775,21.626 112.775,27.425 111.976,27.425 111.976,30.526 112.775,30.526 112.775,31.526 126.775,31.526 126.775,30.526 127.575,30.526 127.575,27.425 126.775,27.425 126.775,21.626 127.575,21.626 127.575,18.526 126.775,18.526 126.775,17.526" style="fill:none;stroke-width:0.050000mm;stroke:black"/>
<polygon points="131.826,17.526 131.826,18.526 131.025,18.526 131.025,21.626 131.826,21.626 131.826,27.425 131.025,27.425 131.025,30.526 131.826,30.526 131.826,31.526 145.826,31.526 145.826,30.526 146.626,30.526 146.626,27.425 145.826,27.425 145.826,21.626 146.626,21.626 146.626,18.526 145.826,18.526 145.826,17.526" style="fill:none;stroke-width:0.050000mm;stroke:black"/>
<polygon points="150.876,17.526 150.876,18.526 150.076,18.526 150.076,21.626 150.876,21.626 150.876,27.425 150.076,27.425 150.076,30.526 150.876,30.526 150.876,31.526 164.876,31.526 164.876,30.526 165.676,30.526 165.676,27.425 164.876,27.425 164.876,21.626 165.676,21.626 165.676,18.526 164.876,18.526 164.876,17.526" style="fill:none;stroke-width:0.050000mm;stroke:black"/>
<polygon points="169.926,17.526 169.926,18.526 169.126,18.526 169.126,21.626 169.926,21.626 169.926,27.425 169.126,27.425 169.126,30.526 169.926,30.526 169.926,31.526 183.926,31.526 183.926,30.526 184.726,30.526 184.726,27.425 183.926,27.425 183.926,21.626 184.726,21.626 184.726,18.526 183.926,18.526 183.926,17.526" style="fill:none;stroke-width:0.050000mm;stroke:black"/>
<polygon points="188.976,17.526 188.976,18.526 188.176,18.526 188.176,21.626 188.976,21.626 188.976,27.425 188.176,27.425 188.176,30.526 188.976,30.526 188.976,31.526 202.976,31.526 202.976,30.526 203.776,30.526 203.776,27.425 202.976,27.425 202.976,21.626 203.776,21.626 203.776,18.526 202.976,18.526 202.976,17.526" style="fill:none;stroke-width:0.050000mm;stroke:black"/>
<polygon points="208.026,17.526 208.026,18.526 207.226,18.526 207.226,21.626 208.026,21.626 208.026,27.425 207.226,27.425 207.226,30.526 208.026,30.526 208.026,31.526 222.026,31.526 222.026,30.526 222.826,30.526 222.826,27.425 222.026,27.425 222.026,21.626 222.826,21.626 222.826,18.526 222.026,18.526 222.026,17.526" style="fill:none;stroke-width:0.050000mm;stroke:black"/>
<polygon points="227.076,17.526 227.076,18.526 226.276,18.526 226.276,21.626 227.076,21.626 227.076,27.425 226.276,27.425 226.276,30.526 227.076,30.526 227.076,31.526 241.076,31.526 241.076,30.526 241.876,30.526 241.876,27.425 241.076,27.425 241.076,21.626 241.876,21.626 241.876,18.526 241.076,18.526 241.076,17.526" style="fill:none;stroke-width:0.050000mm;stroke:black"/>
<polygon points="248.138,8.574 247.720,8.787 247.388,9.119 247.175,9.537 247.102,10.001 247.175,10.464 247.388,10.882 247.720,11.214 248.138,11.427 248.602,11.501 249.065,11.427 249.483,11.214 249.815,10.882 250.028,10.464 250.102,10.001 250.028,9.537 249.815,9.119 249.483,8.787 249.065,8.574 248.602,8.501" style="fill:none;stroke-width:0.050000mm;stroke:black"/>
<polygon points="9.537,8.574 9.119,8.787 8.787,9.119 8.574,9.537 8.501,10.001 8.574,10.464 8.787,10.882 9.119,11.214 9.537,11.427 10.001,11.501 10.464,11.427 10.882,11.214 11.214,10.882 11.427,10.464 11.501,10.001 11.427,9.537 11.214,9.119 10.882,8.787 10.464,8.574 10.001,8.501" style="fill:none;stroke-width:0.050000mm;stroke:black"/>
</svg>
