  0
SECTION
  2
HEADER
  9
$ACADVER
  1
AC1009
  9
$EXTMIN
 10
0.0
 20
0.0
 30
0.0
  9
$EXTMAX
 10
1000.0
 20
1000.0
 30
0.0
  9
$FILLMODE
 70
 0
  9
$SPLFRAME
 70
 1
  0
ENDSEC
  0
SECTION
  2
TABLES
  0
TABLE
  2
LAYER
 70
1
  0
LAYER
  2
0
 70
     0
 62
     7
  6
CONTINUOUS
  0
ENDTAB
  0
ENDSEC
  0
SECTION
  2
ENTITIES
  0
LINE
  8
0
 62
     0
 10
243.696
 20
96.2794
 30
0.0
 11
244.088
 21
96.2642
 31
0.0
  0
LINE
  8
0
 62
     0
 10
244.088
 20
96.2642
 30
0.0
 11
244.478
 21
96.2187
 31
0.0
  0
LINE
  8
0
 62
     0
 10
244.478
 20
96.2187
 30
0.0
 11
244.862
 21
96.1415
 31
0.0
  0
LINE
  8
0
 62
     0
 10
244.862
 20
96.1415
 30
0.0
 11
245.241
 21
96.0356
 31
0.0
  0
LINE
  8
0
 62
     0
 10
245.241
 20
96.0356
 30
0.0
 11
245.609
 21
95.8991
 31
0.0
  0
LINE
  8
0
 62
     0
 10
245.609
 20
95.8991
 30
0.0
 11
245.965
 21
95.7351
 31
0.0
  0
LINE
  8
0
 62
     0
 10
245.965
 20
95.7351
 30
0.0
 11
246.308
 21
95.5435
 31
0.0
  0
LINE
  8
0
 62
     0
 10
246.308
 20
95.5435
 30
0.0
 11
246.634
 21
95.3258
 31
0.0
  0
LINE
  8
0
 62
     0
 10
246.634
 20
95.3258
 30
0.0
 11
246.943
 21
95.0831
 31
0.0
  0
LINE
  8
0
 62
     0
 10
246.943
 20
95.0831
 30
0.0
 11
247.231
 21
94.8161
 31
0.0
  0
LINE
  8
0
 62
     0
 10
247.231
 20
94.8161
 30
0.0
 11
247.498
 21
94.5279
 31
0.0
  0
LINE
  8
0
 62
     0
 10
247.498
 20
94.5279
 30
0.0
 11
247.741
 21
94.2192
 31
0.0
  0
LINE
  8
0
 62
     0
 10
247.741
 20
94.2192
 30
0.0
 11
247.959
 21
93.8925
 31
0.0
  0
LINE
  8
0
 62
     0
 10
247.959
 20
93.8925
 30
0.0
 11
248.15
 21
93.5496
 31
0.0
  0
LINE
  8
0
 62
     0
 10
248.15
 20
93.5496
 30
0.0
 11
248.314
 21
93.194
 31
0.0
  0
LINE
  8
0
 62
     0
 10
248.314
 20
93.194
 30
0.0
 11
248.451
 21
92.8261
 31
0.0
  0
LINE
  8
0
 62
     0
 10
248.451
 20
92.8261
 30
0.0
 11
248.557
 21
92.4472
 31
0.0
  0
LINE
  8
0
 62
     0
 10
248.557
 20
92.4472
 30
0.0
 11
248.634
 21
92.0627
 31
0.0
  0
LINE
  8
0
 62
     0
 10
248.634
 20
92.0627
 30
0.0
 11
248.679
 21
91.6725
 31
0.0
  0
LINE
  8
0
 62
     0
 10
248.679
 20
91.6725
 30
0.0
 11
248.696
 21
91.2798
 31
0.0
  0
LINE
  8
0
 62
     0
 10
248.696
 20
91.2798
 30
0.0
 11
248.696
 21
5.07806
 31
0.0
  0
LINE
  8
0
 62
     0
 10
248.696
 20
5.07806
 30
0.0
 11
248.679
 21
4.68672
 31
0.0
  0
LINE
  8
0
 62
     0
 10
248.679
 20
4.68672
 30
0.0
 11
248.634
 21
4.29673
 31
0.0
  0
LINE
  8
0
 62
     0
 10
248.634
 20
4.29673
 30
0.0
 11
248.557
 21
3.91223
 31
0.0
  0
LINE
  8
0
 62
     0
 10
248.557
 20
3.91223
 30
0.0
 11
248.451
 21
3.53328
 31
0.0
  0
LINE
  8
0
 62
     0
 10
248.451
 20
3.53328
 30
0.0
 11
248.314
 21
3.16536
 31
0.0
  0
LINE
  8
0
 62
     0
 10
248.314
 20
3.16536
 30
0.0
 11
248.15
 21
2.80982
 31
0.0
  0
LINE
  8
0
 62
     0
 10
248.15
 20
2.80982
 30
0.0
 11
247.959
 21
2.46669
 31
0.0
  0
LINE
  8
0
 62
     0
 10
247.959
 20
2.46669
 30
0.0
 11
247.741
 21
2.14009
 31
0.0
  0
LINE
  8
0
 62
     0
 10
247.741
 20
2.14009
 30
0.0
 11
247.498
 21
1.83141
 31
0.0
  0
LINE
  8
0
 62
     0
 10
247.498
 20
1.83141
 30
0.0
 11
247.231
 21
1.5434
 31
0.0
  0
LINE
  8
0
 62
     0
 10
247.231
 20
1.5434
 30
0.0
 11
246.943
 21
1.27606
 31
0.0
  0
LINE
  8
0
 62
     0
 10
246.943
 20
1.27606
 30
0.0
 11
246.634
 21
1.03353
 31
0.0
  0
LINE
  8
0
 62
     0
 10
246.634
 20
1.03353
 30
0.0
 11
246.308
 21
0.815799
 31
0.0
  0
LINE
  8
0
 62
     0
 10
246.308
 20
0.815799
 30
0.0
 11
245.965
 21
0.624251
 31
0.0
  0
LINE
  8
0
 62
     0
 10
245.965
 20
0.624251
 30
0.0
 11
245.609
 21
0.460266
 31
0.0
  0
LINE
  8
0
 62
     0
 10
245.609
 20
0.460266
 30
0.0
 11
245.241
 21
0.323839
 31
0.0
  0
LINE
  8
0
 62
     0
 10
245.241
 20
0.323839
 30
0.0
 11
244.862
 21
0.21773
 31
0.0
  0
LINE
  8
0
 62
     0
 10
244.862
 20
0.21773
 30
0.0
 11
244.478
 21
0.14056
 31
0.0
  0
LINE
  8
0
 62
     0
 10
244.478
 20
0.14056
 30
0.0
 11
244.088
 21
0.0950846
 31
0.0
  0
LINE
  8
0
 62
     0
 10
244.088
 20
0.0950846
 30
0.0
 11
243.696
 21
0.0785481
 31
0.0
  0
LINE
  8
0
 62
     0
 10
243.696
 20
0.0785481
 30
0.0
 11
5.0946
 21
0.0785481
 31
0.0
  0
LINE
  8
0
 62
     0
 10
5.0946
 20
0.0785481
 30
0.0
 11
4.70186
 21
0.0950846
 31
0.0
  0
LINE
  8
0
 62
     0
 10
4.70186
 20
0.0950846
 30
0.0
 11
4.3119
 21
0.14056
 31
0.0
  0
LINE
  8
0
 62
     0
 10
4.3119
 20
0.14056
 30
0.0
 11
3.9274
 21
0.21773
 31
0.0
  0
LINE
  8
0
 62
     0
 10
3.9274
 20
0.21773
 30
0.0
 11
3.54845
 21
0.323839
 31
0.0
  0
LINE
  8
0
 62
     0
 10
3.54845
 20
0.323839
 30
0.0
 11
3.18051
 21
0.460266
 31
0.0
  0
LINE
  8
0
 62
     0
 10
3.18051
 20
0.460266
 30
0.0
 11
2.82498
 21
0.624251
 31
0.0
  0
LINE
  8
0
 62
     0
 10
2.82498
 20
0.624251
 30
0.0
 11
2.48185
 21
0.815799
 31
0.0
  0
LINE
  8
0
 62
     0
 10
2.48185
 20
0.815799
 30
0.0
 11
2.15525
 21
1.03353
 31
0.0
  0
LINE
  8
0
 62
     0
 10
2.15525
 20
1.03353
 30
0.0
 11
1.84657
 21
1.27606
 31
0.0
  0
LINE
  8
0
 62
     0
 10
1.84657
 20
1.27606
 30
0.0
 11
1.55856
 21
1.5434
 31
0.0
  0
LINE
  8
0
 62
     0
 10
1.55856
 20
1.5434
 30
0.0
 11
1.29122
 21
1.83141
 31
0.0
  0
LINE
  8
0
 62
     0
 10
1.29122
 20
1.83141
 30
0.0
 11
1.04869
 21
2.14009
 31
0.0
  0
LINE
  8
0
 62
     0
 10
1.04869
 20
2.14009
 30
0.0
 11
0.830957
 21
2.46669
 31
0.0
  0
LINE
  8
0
 62
     0
 10
0.830957
 20
2.46669
 30
0.0
 11
0.63941
 21
2.80982
 31
0.0
  0
LINE
  8
0
 62
     0
 10
0.63941
 20
2.80982
 30
0.0
 11
0.475424
 21
3.16536
 31
0.0
  0
LINE
  8
0
 62
     0
 10
0.475424
 20
3.16536
 30
0.0
 11
0.338998
 21
3.53328
 31
0.0
  0
LINE
  8
0
 62
     0
 10
0.338998
 20
3.53328
 30
0.0
 11
0.232888
 21
3.91223
 31
0.0
  0
LINE
  8
0
 62
     0
 10
0.232888
 20
3.91223
 30
0.0
 11
0.155718
 21
4.29673
 31
0.0
  0
LINE
  8
0
 62
     0
 10
0.155718
 20
4.29673
 30
0.0
 11
0.110243
 21
4.68672
 31
0.0
  0
LINE
  8
0
 62
     0
 10
0.110243
 20
4.68672
 30
0.0
 11
0.0937066
 21
5.07944
 31
0.0
  0
LINE
  8
0
 62
     0
 10
0.0937066
 20
5.07944
 30
0.0
 11
0.0950846
 21
91.2798
 31
0.0
  0
LINE
  8
0
 62
     0
 10
0.0950846
 20
91.2798
 30
0.0
 11
0.110243
 21
91.6725
 31
0.0
  0
LINE
  8
0
 62
     0
 10
0.110243
 20
91.6725
 30
0.0
 11
0.155718
 21
92.0627
 31
0.0
  0
LINE
  8
0
 62
     0
 10
0.155718
 20
92.0627
 30
0.0
 11
0.232888
 21
92.4472
 31
0.0
  0
LINE
  8
0
 62
     0
 10
0.232888
 20
92.4472
 30
0.0
 11
0.338998
 21
92.8261
 31
0.0
  0
LINE
  8
0
 62
     0
 10
0.338998
 20
92.8261
 30
0.0
 11
0.475424
 21
93.194
 31
0.0
  0
LINE
  8
0
 62
     0
 10
0.475424
 20
93.194
 30
0.0
 11
0.63941
 21
93.5496
 31
0.0
  0
LINE
  8
0
 62
     0
 10
0.63941
 20
93.5496
 30
0.0
 11
0.830957
 21
93.8925
 31
0.0
  0
LINE
  8
0
 62
     0
 10
0.830957
 20
93.8925
 30
0.0
 11
1.04869
 21
94.2192
 31
0.0
  0
LINE
  8
0
 62
     0
 10
1.04869
 20
94.2192
 30
0.0
 11
1.29122
 21
94.5279
 31
0.0
  0
LINE
  8
0
 62
     0
 10
1.29122
 20
94.5279
 30
0.0
 11
1.55856
 21
94.8161
 31
0.0
  0
LINE
  8
0
 62
     0
 10
1.55856
 20
94.8161
 30
0.0
 11
1.84657
 21
95.0831
 31
0.0
  0
LINE
  8
0
 62
     0
 10
1.84657
 20
95.0831
 30
0.0
 11
2.15525
 21
95.3258
 31
0.0
  0
LINE
  8
0
 62
     0
 10
2.15525
 20
95.3258
 30
0.0
 11
2.48185
 21
95.5435
 31
0.0
  0
LINE
  8
0
 62
     0
 10
2.48185
 20
95.5435
 30
0.0
 11
2.82498
 21
95.7351
 31
0.0
  0
LINE
  8
0
 62
     0
 10
2.82498
 20
95.7351
 30
0.0
 11
3.18051
 21
95.8991
 31
0.0
  0
LINE
  8
0
 62
     0
 10
3.18051
 20
95.8991
 30
0.0
 11
3.54845
 21
96.0356
 31
0.0
  0
LINE
  8
0
 62
     0
 10
3.54845
 20
96.0356
 30
0.0
 11
3.9274
 21
96.1415
 31
0.0
  0
LINE
  8
0
 62
     0
 10
3.9274
 20
96.1415
 30
0.0
 11
4.3119
 21
96.2187
 31
0.0
  0
LINE
  8
0
 62
     0
 10
4.3119
 20
96.2187
 30
0.0
 11
4.70186
 21
96.2642
 31
0.0
  0
LINE
  8
0
 62
     0
 10
4.70186
 20
96.2642
 30
0.0
 11
5.0946
 21
96.2808
 31
0.0
  0
LINE
  8
0
 62
     0
 10
5.0946
 20
96.2808
 30
0.0
 11
243.696
 21
96.2794
 31
0.0
  0
LINE
  8
0
 62
     0
 10
243.232
 20
6.50572
 30
0.0
 11
242.813
 21
6.29211
 31
0.0
  0
LINE
  8
0
 62
     0
 10
242.813
 20
6.29211
 30
0.0
 11
242.483
 21
5.96138
 31
0.0
  0
LINE
  8
0
 62
     0
 10
242.483
 20
5.96138
 30
0.0
 11
242.269
 21
5.54246
 31
0.0
  0
LINE
  8
0
 62
     0
 10
242.269
 20
5.54246
 30
0.0
 11
242.196
 21
5.07806
 31
0.0
  0
LINE
  8
0
 62
     0
 10
242.196
 20
5.07806
 30
0.0
 11
242.269
 21
4.61504
 31
0.0
  0
LINE
  8
0
 62
     0
 10
242.269
 20
4.61504
 30
0.0
 11
242.483
 21
4.19749
 31
0.0
  0
LINE
  8
0
 62
     0
 10
242.483
 20
4.19749
 30
0.0
 11
242.813
 21
3.86539
 31
0.0
  0
LINE
  8
0
 62
     0
 10
242.813
 20
3.86539
 30
0.0
 11
243.232
 21
3.65319
 31
0.0
  0
LINE
  8
0
 62
     0
 10
243.232
 20
3.65319
 30
0.0
 11
243.696
 21
3.57875
 31
0.0
  0
LINE
  8
0
 62
     0
 10
243.696
 20
3.57875
 30
0.0
 11
244.159
 21
3.65319
 31
0.0
  0
LINE
  8
0
 62
     0
 10
244.159
 20
3.65319
 30
0.0
 11
244.577
 21
3.86539
 31
0.0
  0
LINE
  8
0
 62
     0
 10
244.577
 20
3.86539
 30
0.0
 11
244.909
 21
4.19749
 31
0.0
  0
LINE
  8
0
 62
     0
 10
244.909
 20
4.19749
 30
0.0
 11
245.121
 21
4.61504
 31
0.0
  0
LINE
  8
0
 62
     0
 10
245.121
 20
4.61504
 30
0.0
 11
245.196
 21
5.07806
 31
0.0
  0
LINE
  8
0
 62
     0
 10
245.196
 20
5.07806
 30
0.0
 11
245.121
 21
5.54246
 31
0.0
  0
LINE
  8
0
 62
     0
 10
245.121
 20
5.54246
 30
0.0
 11
244.909
 21
5.96138
 31
0.0
  0
LINE
  8
0
 62
     0
 10
244.909
 20
5.96138
 30
0.0
 11
244.577
 21
6.29211
 31
0.0
  0
LINE
  8
0
 62
     0
 10
244.577
 20
6.29211
 30
0.0
 11
244.159
 21
6.50572
 31
0.0
  0
LINE
  8
0
 62
     0
 10
244.159
 20
6.50572
 30
0.0
 11
243.696
 21
6.57874
 31
0.0
  0
LINE
  8
0
 62
     0
 10
243.696
 20
6.57874
 30
0.0
 11
243.232
 21
6.50572
 31
0.0
  0
LINE
  8
0
 62
     0
 10
4.63021
 20
6.50572
 30
0.0
 11
4.21266
 21
6.29211
 31
0.0
  0
LINE
  8
0
 62
     0
 10
4.21266
 20
6.29211
 30
0.0
 11
3.88056
 21
5.96138
 31
0.0
  0
LINE
  8
0
 62
     0
 10
3.88056
 20
5.96138
 30
0.0
 11
3.66832
 21
5.54246
 31
0.0
  0
LINE
  8
0
 62
     0
 10
3.66832
 20
5.54246
 30
0.0
 11
3.5953
 21
5.07806
 31
0.0
  0
LINE
  8
0
 62
     0
 10
3.5953
 20
5.07806
 30
0.0
 11
3.66832
 21
4.61504
 31
0.0
  0
LINE
  8
0
 62
     0
 10
3.66832
 20
4.61504
 30
0.0
 11
3.88056
 21
4.19749
 31
0.0
  0
LINE
  8
0
 62
     0
 10
3.88056
 20
4.19749
 30
0.0
 11
4.21266
 21
3.86539
 31
0.0
  0
LINE
  8
0
 62
     0
 10
4.21266
 20
3.86539
 30
0.0
 11
4.63021
 21
3.65319
 31
0.0
  0
LINE
  8
0
 62
     0
 10
4.63021
 20
3.65319
 30
0.0
 11
5.0946
 21
3.57875
 31
0.0
  0
LINE
  8
0
 62
     0
 10
5.0946
 20
3.57875
 30
0.0
 11
5.55763
 21
3.65319
 31
0.0
  0
LINE
  8
0
 62
     0
 10
5.55763
 20
3.65319
 30
0.0
 11
5.97517
 21
3.86539
 31
0.0
  0
LINE
  8
0
 62
     0
 10
5.97517
 20
3.86539
 30
0.0
 11
6.30728
 21
4.19749
 31
0.0
  0
LINE
  8
0
 62
     0
 10
6.30728
 20
4.19749
 30
0.0
 11
6.52089
 21
4.61504
 31
0.0
  0
LINE
  8
0
 62
     0
 10
6.52089
 20
4.61504
 30
0.0
 11
6.59529
 21
5.07806
 31
0.0
  0
LINE
  8
0
 62
     0
 10
6.59529
 20
5.07806
 30
0.0
 11
6.52089
 21
5.54246
 31
0.0
  0
LINE
  8
0
 62
     0
 10
6.52089
 20
5.54246
 30
0.0
 11
6.30728
 21
5.96138
 31
0.0
  0
LINE
  8
0
 62
     0
 10
6.30728
 20
5.96138
 30
0.0
 11
5.97517
 21
6.29211
 31
0.0
  0
LINE
  8
0
 62
     0
 10
5.97517
 20
6.29211
 30
0.0
 11
5.55763
 21
6.50572
 31
0.0
  0
LINE
  8
0
 62
     0
 10
5.55763
 20
6.50572
 30
0.0
 11
5.0946
 21
6.57874
 31
0.0
  0
LINE
  8
0
 62
     0
 10
5.0946
 20
6.57874
 30
0.0
 11
4.63021
 21
6.50572
 31
0.0
  0
LINE
  8
0
 62
     0
 10
117.395
 20
26.6044
 30
0.0
 11
117.395
 21
25.6053
 31
0.0
  0
LINE
  8
0
 62
     0
 10
117.395
 20
25.6053
 30
0.0
 11
116.594
 21
25.6053
 31
0.0
  0
LINE
  8
0
 62
     0
 10
116.594
 20
25.6053
 30
0.0
 11
116.594
 21
22.5061
 31
0.0
  0
LINE
  8
0
 62
     0
 10
116.594
 20
22.5061
 30
0.0
 11
117.395
 21
22.5061
 31
0.0
  0
LINE
  8
0
 62
     0
 10
117.395
 20
22.5061
 30
0.0
 11
117.395
 21
21.9053
 31
0.0
  0
LINE
  8
0
 62
     0
 10
117.395
 20
21.9053
 30
0.0
 11
115.87
 21
21.9053
 31
0.0
  0
LINE
  8
0
 62
     0
 10
115.87
 20
21.9053
 30
0.0
 11
115.87
 21
25.1354
 31
0.0
  0
LINE
  8
0
 62
     0
 10
115.87
 20
25.1354
 30
0.0
 11
109.12
 21
25.1354
 31
0.0
  0
LINE
  8
0
 62
     0
 10
109.12
 20
25.1354
 30
0.0
 11
109.12
 21
21.9053
 31
0.0
  0
LINE
  8
0
 62
     0
 10
109.12
 20
21.9053
 30
0.0
 11
108.295
 21
21.9053
 31
0.0
  0
LINE
  8
0
 62
     0
 10
108.295
 20
21.9053
 30
0.0
 11
108.295
 21
19.1051
 31
0.0
  0
LINE
  8
0
 62
     0
 10
108.295
 20
19.1051
 30
0.0
 11
109.12
 21
19.1051
 31
0.0
  0
LINE
  8
0
 62
     0
 10
109.12
 20
19.1051
 30
0.0
 11
109.12
 21
12.835
 31
0.0
  0
LINE
  8
0
 62
     0
 10
109.12
 20
12.835
 30
0.0
 11
110.845
 21
12.835
 31
0.0
  0
LINE
  8
0
 62
     0
 10
110.845
 20
12.835
 30
0.0
 11
110.845
 21
11.6348
 31
0.0
  0
LINE
  8
0
 62
     0
 10
110.845
 20
11.6348
 30
0.0
 11
114.144
 21
11.6348
 31
0.0
  0
LINE
  8
0
 62
     0
 10
114.144
 20
11.6348
 30
0.0
 11
114.144
 21
12.835
 31
0.0
  0
LINE
  8
0
 62
     0
 10
114.144
 20
12.835
 30
0.0
 11
115.87
 21
12.835
 31
0.0
  0
LINE
  8
0
 62
     0
 10
115.87
 20
12.835
 30
0.0
 11
115.87
 21
17.3054
 31
0.0
  0
LINE
  8
0
 62
     0
 10
115.87
 20
17.3054
 30
0.0
 11
117.395
 21
17.3054
 31
0.0
  0
LINE
  8
0
 62
     0
 10
117.395
 20
17.3054
 30
0.0
 11
117.395
 21
16.7046
 31
0.0
  0
LINE
  8
0
 62
     0
 10
117.395
 20
16.7046
 30
0.0
 11
116.594
 21
16.7046
 31
0.0
  0
LINE
  8
0
 62
     0
 10
116.594
 20
16.7046
 30
0.0
 11
116.594
 21
13.6054
 31
0.0
  0
LINE
  8
0
 62
     0
 10
116.594
 20
13.6054
 30
0.0
 11
117.395
 21
13.6054
 31
0.0
  0
LINE
  8
0
 62
     0
 10
117.395
 20
13.6054
 30
0.0
 11
117.395
 21
12.6049
 31
0.0
  0
LINE
  8
0
 62
     0
 10
117.395
 20
12.6049
 30
0.0
 11
131.395
 21
12.6049
 31
0.0
  0
LINE
  8
0
 62
     0
 10
131.395
 20
12.6049
 30
0.0
 11
131.395
 21
13.6054
 31
0.0
  0
LINE
  8
0
 62
     0
 10
131.395
 20
13.6054
 30
0.0
 11
132.195
 21
13.6054
 31
0.0
  0
LINE
  8
0
 62
     0
 10
132.195
 20
13.6054
 30
0.0
 11
132.195
 21
16.7046
 31
0.0
  0
LINE
  8
0
 62
     0
 10
132.195
 20
16.7046
 30
0.0
 11
131.395
 21
16.7046
 31
0.0
  0
LINE
  8
0
 62
     0
 10
131.395
 20
16.7046
 30
0.0
 11
131.395
 21
17.3054
 31
0.0
  0
LINE
  8
0
 62
     0
 10
131.395
 20
17.3054
 30
0.0
 11
132.92
 21
17.3054
 31
0.0
  0
LINE
  8
0
 62
     0
 10
132.92
 20
17.3054
 30
0.0
 11
132.92
 21
12.835
 31
0.0
  0
LINE
  8
0
 62
     0
 10
132.92
 20
12.835
 30
0.0
 11
134.645
 21
12.835
 31
0.0
  0
LINE
  8
0
 62
     0
 10
134.645
 20
12.835
 30
0.0
 11
134.645
 21
11.6348
 31
0.0
  0
LINE
  8
0
 62
     0
 10
134.645
 20
11.6348
 30
0.0
 11
137.944
 21
11.6348
 31
0.0
  0
LINE
  8
0
 62
     0
 10
137.944
 20
11.6348
 30
0.0
 11
137.944
 21
12.835
 31
0.0
  0
LINE
  8
0
 62
     0
 10
137.944
 20
12.835
 30
0.0
 11
139.67
 21
12.835
 31
0.0
  0
LINE
  8
0
 62
     0
 10
139.67
 20
12.835
 30
0.0
 11
139.67
 21
19.1051
 31
0.0
  0
LINE
  8
0
 62
     0
 10
139.67
 20
19.1051
 30
0.0
 11
140.495
 21
19.1051
 31
0.0
  0
LINE
  8
0
 62
     0
 10
140.495
 20
19.1051
 30
0.0
 11
140.495
 21
21.9053
 31
0.0
  0
LINE
  8
0
 62
     0
 10
140.495
 20
21.9053
 30
0.0
 11
139.67
 21
21.9053
 31
0.0
  0
LINE
  8
0
 62
     0
 10
139.67
 20
21.9053
 30
0.0
 11
139.67
 21
25.1354
 31
0.0
  0
LINE
  8
0
 62
     0
 10
139.67
 20
25.1354
 30
0.0
 11
132.92
 21
25.1354
 31
0.0
  0
LINE
  8
0
 62
     0
 10
132.92
 20
25.1354
 30
0.0
 11
132.92
 21
21.9053
 31
0.0
  0
LINE
  8
0
 62
     0
 10
132.92
 20
21.9053
 30
0.0
 11
131.395
 21
21.9053
 31
0.0
  0
LINE
  8
0
 62
     0
 10
131.395
 20
21.9053
 30
0.0
 11
131.395
 21
22.5061
 31
0.0
  0
LINE
  8
0
 62
     0
 10
131.395
 20
22.5061
 30
0.0
 11
132.195
 21
22.5061
 31
0.0
  0
LINE
  8
0
 62
     0
 10
132.195
 20
22.5061
 30
0.0
 11
132.195
 21
25.6053
 31
0.0
  0
LINE
  8
0
 62
     0
 10
132.195
 20
25.6053
 30
0.0
 11
131.395
 21
25.6053
 31
0.0
  0
LINE
  8
0
 62
     0
 10
131.395
 20
25.6053
 30
0.0
 11
131.395
 21
26.6044
 31
0.0
  0
LINE
  8
0
 62
     0
 10
131.395
 20
26.6044
 30
0.0
 11
117.395
 21
26.6044
 31
0.0
  0
LINE
  8
0
 62
     0
 10
12.6201
 20
26.6044
 30
0.0
 11
12.6201
 21
25.6053
 31
0.0
  0
LINE
  8
0
 62
     0
 10
12.6201
 20
25.6053
 30
0.0
 11
11.8194
 21
25.6053
 31
0.0
  0
LINE
  8
0
 62
     0
 10
11.8194
 20
25.6053
 30
0.0
 11
11.8194
 21
22.5061
 31
0.0
  0
LINE
  8
0
 62
     0
 10
11.8194
 20
22.5061
 30
0.0
 11
12.6201
 21
22.5061
 31
0.0
  0
LINE
  8
0
 62
     0
 10
12.6201
 20
22.5061
 30
0.0
 11
12.6201
 21
16.7046
 31
0.0
  0
LINE
  8
0
 62
     0
 10
12.6201
 20
16.7046
 30
0.0
 11
11.8194
 21
16.7046
 31
0.0
  0
LINE
  8
0
 62
     0
 10
11.8194
 20
16.7046
 30
0.0
 11
11.8194
 21
13.6054
 31
0.0
  0
LINE
  8
0
 62
     0
 10
11.8194
 20
13.6054
 30
0.0
 11
12.6201
 21
13.6054
 31
0.0
  0
LINE
  8
0
 62
     0
 10
12.6201
 20
13.6054
 30
0.0
 11
12.6201
 21
12.6049
 31
0.0
  0
LINE
  8
0
 62
     0
 10
12.6201
 20
12.6049
 30
0.0
 11
26.6196
 21
12.6049
 31
0.0
  0
LINE
  8
0
 62
     0
 10
26.6196
 20
12.6049
 30
0.0
 11
26.6196
 21
13.6054
 31
0.0
  0
LINE
  8
0
 62
     0
 10
26.6196
 20
13.6054
 30
0.0
 11
27.4175
 21
13.6054
 31
0.0
  0
LINE
  8
0
 62
     0
 10
27.4175
 20
13.6054
 30
0.0
 11
27.4175
 21
16.7046
 31
0.0
  0
LINE
  8
0
 62
     0
 10
27.4175
 20
16.7046
 30
0.0
 11
26.6196
 21
16.7046
 31
0.0
  0
LINE
  8
0
 62
     0
 10
26.6196
 20
16.7046
 30
0.0
 11
26.6196
 21
22.5061
 31
0.0
  0
LINE
  8
0
 62
     0
 10
26.6196
 20
22.5061
 30
0.0
 11
27.4175
 21
22.5061
 31
0.0
  0
LINE
  8
0
 62
     0
 10
27.4175
 20
22.5061
 30
0.0
 11
27.4175
 21
25.6053
 31
0.0
  0
LINE
  8
0
 62
     0
 10
27.4175
 20
25.6053
 30
0.0
 11
26.6196
 21
25.6053
 31
0.0
  0
LINE
  8
0
 62
     0
 10
26.6196
 20
25.6053
 30
0.0
 11
26.6196
 21
26.6044
 31
0.0
  0
LINE
  8
0
 62
     0
 10
26.6196
 20
26.6044
 30
0.0
 11
12.6201
 21
26.6044
 31
0.0
  0
LINE
  8
0
 62
     0
 10
31.6701
 20
26.6044
 30
0.0
 11
31.6701
 21
25.6053
 31
0.0
  0
LINE
  8
0
 62
     0
 10
31.6701
 20
25.6053
 30
0.0
 11
30.8694
 21
25.6053
 31
0.0
  0
LINE
  8
0
 62
     0
 10
30.8694
 20
25.6053
 30
0.0
 11
30.8694
 21
22.5061
 31
0.0
  0
LINE
  8
0
 62
     0
 10
30.8694
 20
22.5061
 30
0.0
 11
31.6701
 21
22.5061
 31
0.0
  0
LINE
  8
0
 62
     0
 10
31.6701
 20
22.5061
 30
0.0
 11
31.6701
 21
16.7046
 31
0.0
  0
LINE
  8
0
 62
     0
 10
31.6701
 20
16.7046
 30
0.0
 11
30.8694
 21
16.7046
 31
0.0
  0
LINE
  8
0
 62
     0
 10
30.8694
 20
16.7046
 30
0.0
 11
30.8694
 21
13.6054
 31
0.0
  0
LINE
  8
0
 62
     0
 10
30.8694
 20
13.6054
 30
0.0
 11
31.6701
 21
13.6054
 31
0.0
  0
LINE
  8
0
 62
     0
 10
31.6701
 20
13.6054
 30
0.0
 11
31.6701
 21
12.6049
 31
0.0
  0
LINE
  8
0
 62
     0
 10
31.6701
 20
12.6049
 30
0.0
 11
45.6696
 21
12.6049
 31
0.0
  0
LINE
  8
0
 62
     0
 10
45.6696
 20
12.6049
 30
0.0
 11
45.6696
 21
13.6054
 31
0.0
  0
LINE
  8
0
 62
     0
 10
45.6696
 20
13.6054
 30
0.0
 11
46.4704
 21
13.6054
 31
0.0
  0
LINE
  8
0
 62
     0
 10
46.4704
 20
13.6054
 30
0.0
 11
46.4704
 21
16.7046
 31
0.0
  0
LINE
  8
0
 62
     0
 10
46.4704
 20
16.7046
 30
0.0
 11
45.6696
 21
16.7046
 31
0.0
  0
LINE
  8
0
 62
     0
 10
45.6696
 20
16.7046
 30
0.0
 11
45.6696
 21
22.5061
 31
0.0
  0
LINE
  8
0
 62
     0
 10
45.6696
 20
22.5061
 30
0.0
 11
46.4704
 21
22.5061
 31
0.0
  0
LINE
  8
0
 62
     0
 10
46.4704
 20
22.5061
 30
0.0
 11
46.4704
 21
25.6053
 31
0.0
  0
LINE
  8
0
 62
     0
 10
46.4704
 20
25.6053
 30
0.0
 11
45.6696
 21
25.6053
 31
0.0
  0
LINE
  8
0
 62
     0
 10
45.6696
 20
25.6053
 30
0.0
 11
45.6696
 21
26.6044
 31
0.0
  0
LINE
  8
0
 62
     0
 10
45.6696
 20
26.6044
 30
0.0
 11
31.6701
 21
26.6044
 31
0.0
  0
LINE
  8
0
 62
     0
 10
50.7199
 20
26.6044
 30
0.0
 11
50.7199
 21
25.6053
 31
0.0
  0
LINE
  8
0
 62
     0
 10
50.7199
 20
25.6053
 30
0.0
 11
49.9195
 21
25.6053
 31
0.0
  0
LINE
  8
0
 62
     0
 10
49.9195
 20
25.6053
 30
0.0
 11
49.9195
 21
22.5061
 31
0.0
  0
LINE
  8
0
 62
     0
 10
49.9195
 20
22.5061
 30
0.0
 11
50.7199
 21
22.5061
 31
0.0
  0
LINE
  8
0
 62
     0
 10
50.7199
 20
22.5061
 30
0.0
 11
50.7199
 21
16.7046
 31
0.0
  0
LINE
  8
0
 62
     0
 10
50.7199
 20
16.7046
 30
0.0
 11
49.9195
 21
16.7046
 31
0.0
  0
LINE
  8
0
 62
     0
 10
49.9195
 20
16.7046
 30
0.0
 11
49.9195
 21
13.6054
 31
0.0
  0
LINE
  8
0
 62
     0
 10
49.9195
 20
13.6054
 30
0.0
 11
50.7199
 21
13.6054
 31
0.0
  0
LINE
  8
0
 62
     0
 10
50.7199
 20
13.6054
 30
0.0
 11
50.7199
 21
12.6049
 31
0.0
  0
LINE
  8
0
 62
     0
 10
50.7199
 20
12.6049
 30
0.0
 11
64.7196
 21
12.6049
 31
0.0
  0
LINE
  8
0
 62
     0
 10
64.7196
 20
12.6049
 30
0.0
 11
64.7196
 21
13.6054
 31
0.0
  0
LINE
  8
0
 62
     0
 10
64.7196
 20
13.6054
 30
0.0
 11
65.5204
 21
13.6054
 31
0.0
  0
LINE
  8
0
 62
     0
 10
65.5204
 20
13.6054
 30
0.0
 11
65.5204
 21
16.7046
 31
0.0
  0
LINE
  8
0
 62
     0
 10
65.5204
 20
16.7046
 30
0.0
 11
64.7196
 21
16.7046
 31
0.0
  0
LINE
  8
0
 62
     0
 10
64.7196
 20
16.7046
 30
0.0
 11
64.7196
 21
22.5061
 31
0.0
  0
LINE
  8
0
 62
     0
 10
64.7196
 20
22.5061
 30
0.0
 11
65.5204
 21
22.5061
 31
0.0
  0
LINE
  8
0
 62
     0
 10
65.5204
 20
22.5061
 30
0.0
 11
65.5204
 21
25.6053
 31
0.0
  0
LINE
  8
0
 62
     0
 10
65.5204
 20
25.6053
 30
0.0
 11
64.7196
 21
25.6053
 31
0.0
  0
LINE
  8
0
 62
     0
 10
64.7196
 20
25.6053
 30
0.0
 11
64.7196
 21
26.6044
 31
0.0
  0
LINE
  8
0
 62
     0
 10
64.7196
 20
26.6044
 30
0.0
 11
50.7199
 21
26.6044
 31
0.0
  0
LINE
  8
0
 62
     0
 10
69.7699
 20
26.6044
 30
0.0
 11
69.7699
 21
25.6053
 31
0.0
  0
LINE
  8
0
 62
     0
 10
69.7699
 20
25.6053
 30
0.0
 11
68.9695
 21
25.6053
 31
0.0
  0
LINE
  8
0
 62
     0
 10
68.9695
 20
25.6053
 30
0.0
 11
68.9695
 21
22.5061
 31
0.0
  0
LINE
  8
0
 62
     0
 10
68.9695
 20
22.5061
 30
0.0
 11
69.7699
 21
22.5061
 31
0.0
  0
LINE
  8
0
 62
     0
 10
69.7699
 20
22.5061
 30
0.0
 11
69.7699
 21
16.7046
 31
0.0
  0
LINE
  8
0
 62
     0
 10
69.7699
 20
16.7046
 30
0.0
 11
68.9695
 21
16.7046
 31
0.0
  0
LINE
  8
0
 62
     0
 10
68.9695
 20
16.7046
 30
0.0
 11
68.9695
 21
13.6054
 31
0.0
  0
LINE
  8
0
 62
     0
 10
68.9695
 20
13.6054
 30
0.0
 11
69.7699
 21
13.6054
 31
0.0
  0
LINE
  8
0
 62
     0
 10
69.7699
 20
13.6054
 30
0.0
 11
69.7699
 21
12.6049
 31
0.0
  0
LINE
  8
0
 62
     0
 10
69.7699
 20
12.6049
 30
0.0
 11
83.7696
 21
12.6049
 31
0.0
  0
LINE
  8
0
 62
     0
 10
83.7696
 20
12.6049
 30
0.0
 11
83.7696
 21
13.6054
 31
0.0
  0
LINE
  8
0
 62
     0
 10
83.7696
 20
13.6054
 30
0.0
 11
84.5704
 21
13.6054
 31
0.0
  0
LINE
  8
0
 62
     0
 10
84.5704
 20
13.6054
 30
0.0
 11
84.5704
 21
16.7046
 31
0.0
  0
LINE
  8
0
 62
     0
 10
84.5704
 20
16.7046
 30
0.0
 11
83.7696
 21
16.7046
 31
0.0
  0
LINE
  8
0
 62
     0
 10
83.7696
 20
16.7046
 30
0.0
 11
83.7696
 21
22.5061
 31
0.0
  0
LINE
  8
0
 62
     0
 10
83.7696
 20
22.5061
 30
0.0
 11
84.5704
 21
22.5061
 31
0.0
  0
LINE
  8
0
 62
     0
 10
84.5704
 20
22.5061
 30
0.0
 11
84.5704
 21
25.6053
 31
0.0
  0
LINE
  8
0
 62
     0
 10
84.5704
 20
25.6053
 30
0.0
 11
83.7696
 21
25.6053
 31
0.0
  0
LINE
  8
0
 62
     0
 10
83.7696
 20
25.6053
 30
0.0
 11
83.7696
 21
26.6044
 31
0.0
  0
LINE
  8
0
 62
     0
 10
83.7696
 20
26.6044
 30
0.0
 11
69.7699
 21
26.6044
 31
0.0
  0
LINE
  8
0
 62
     0
 10
88.8199
 20
26.6044
 30
0.0
 11
88.8199
 21
25.6053
 31
0.0
  0
LINE
  8
0
 62
     0
 10
88.8199
 20
25.6053
 30
0.0
 11
88.0195
 21
25.6053
 31
0.0
  0
LINE
  8
0
 62
     0
 10
88.0195
 20
25.6053
 30
0.0
 11
88.0195
 21
22.5061
 31
0.0
  0
LINE
  8
0
 62
     0
 10
88.0195
 20
22.5061
 30
0.0
 11
88.8199
 21
22.5061
 31
0.0
  0
LINE
  8
0
 62
     0
 10
88.8199
 20
22.5061
 30
0.0
 11
88.8199
 21
16.7046
 31
0.0
  0
LINE
  8
0
 62
     0
 10
88.8199
 20
16.7046
 30
0.0
 11
88.0195
 21
16.7046
 31
0.0
  0
LINE
  8
0
 62
     0
 10
88.0195
 20
16.7046
 30
0.0
 11
88.0195
 21
13.6054
 31
0.0
  0
LINE
  8
0
 62
     0
 10
88.0195
 20
13.6054
 30
0.0
 11
88.8199
 21
13.6054
 31
0.0
  0
LINE
  8
0
 62
     0
 10
88.8199
 20
13.6054
 30
0.0
 11
88.8199
 21
12.6049
 31
0.0
  0
LINE
  8
0
 62
     0
 10
88.8199
 20
12.6049
 30
0.0
 11
102.82
 21
12.6049
 31
0.0
  0
LINE
  8
0
 62
     0
 10
102.82
 20
12.6049
 30
0.0
 11
102.82
 21
13.6054
 31
0.0
  0
LINE
  8
0
 62
     0
 10
102.82
 20
13.6054
 30
0.0
 11
103.619
 21
13.6054
 31
0.0
  0
LINE
  8
0
 62
     0
 10
103.619
 20
13.6054
 30
0.0
 11
103.619
 21
16.7046
 31
0.0
  0
LINE
  8
0
 62
     0
 10
103.619
 20
16.7046
 30
0.0
 11
102.82
 21
16.7046
 31
0.0
  0
LINE
  8
0
 62
     0
 10
102.82
 20
16.7046
 30
0.0
 11
102.82
 21
22.5061
 31
0.0
  0
LINE
  8
0
 62
     0
 10
102.82
 20
22.5061
 30
0.0
 11
103.619
 21
22.5061
 31
0.0
  0
LINE
  8
0
 62
     0
 10
103.619
 20
22.5061
 30
0.0
 11
103.619
 21
25.6053
 31
0.0
  0
LINE
  8
0
 62
     0
 10
103.619
 20
25.6053
 30
0.0
 11
102.82
 21
25.6053
 31
0.0
  0
LINE
  8
0
 62
     0
 10
102.82
 20
25.6053
 30
0.0
 11
102.82
 21
26.6044
 31
0.0
  0
LINE
  8
0
 62
     0
 10
102.82
 20
26.6044
 30
0.0
 11
88.8199
 21
26.6044
 31
0.0
  0
LINE
  8
0
 62
     0
 10
145.97
 20
26.6044
 30
0.0
 11
145.97
 21
25.6053
 31
0.0
  0
LINE
  8
0
 62
     0
 10
145.97
 20
25.6053
 30
0.0
 11
145.169
 21
25.6053
 31
0.0
  0
LINE
  8
0
 62
     0
 10
145.169
 20
25.6053
 30
0.0
 11
145.169
 21
22.5061
 31
0.0
  0
LINE
  8
0
 62
     0
 10
145.169
 20
22.5061
 30
0.0
 11
145.97
 21
22.5061
 31
0.0
  0
LINE
  8
0
 62
     0
 10
145.97
 20
22.5061
 30
0.0
 11
145.97
 21
16.7046
 31
0.0
  0
LINE
  8
0
 62
     0
 10
145.97
 20
16.7046
 30
0.0
 11
145.169
 21
16.7046
 31
0.0
  0
LINE
  8
0
 62
     0
 10
145.169
 20
16.7046
 30
0.0
 11
145.169
 21
13.6054
 31
0.0
  0
LINE
  8
0
 62
     0
 10
145.169
 20
13.6054
 30
0.0
 11
145.97
 21
13.6054
 31
0.0
  0
LINE
  8
0
 62
     0
 10
145.97
 20
13.6054
 30
0.0
 11
145.97
 21
12.6049
 31
0.0
  0
LINE
  8
0
 62
     0
 10
145.97
 20
12.6049
 30
0.0
 11
159.97
 21
12.6049
 31
0.0
  0
LINE
  8
0
 62
     0
 10
159.97
 20
12.6049
 30
0.0
 11
159.97
 21
13.6054
 31
0.0
  0
LINE
  8
0
 62
     0
 10
159.97
 20
13.6054
 30
0.0
 11
160.77
 21
13.6054
 31
0.0
  0
LINE
  8
0
 62
     0
 10
160.77
 20
13.6054
 30
0.0
 11
160.77
 21
16.7046
 31
0.0
  0
LINE
  8
0
 62
     0
 10
160.77
 20
16.7046
 30
0.0
 11
159.97
 21
16.7046
 31
0.0
  0
LINE
  8
0
 62
     0
 10
159.97
 20
16.7046
 30
0.0
 11
159.97
 21
22.5061
 31
0.0
  0
LINE
  8
0
 62
     0
 10
159.97
 20
22.5061
 30
0.0
 11
160.77
 21
22.5061
 31
0.0
  0
LINE
  8
0
 62
     0
 10
160.77
 20
22.5061
 30
0.0
 11
160.77
 21
25.6053
 31
0.0
  0
LINE
  8
0
 62
     0
 10
160.77
 20
25.6053
 30
0.0
 11
159.97
 21
25.6053
 31
0.0
  0
LINE
  8
0
 62
     0
 10
159.97
 20
25.6053
 30
0.0
 11
159.97
 21
26.6044
 31
0.0
  0
LINE
  8
0
 62
     0
 10
159.97
 20
26.6044
 30
0.0
 11
145.97
 21
26.6044
 31
0.0
  0
LINE
  8
0
 62
     0
 10
165.02
 20
26.6044
 30
0.0
 11
165.02
 21
25.6053
 31
0.0
  0
LINE
  8
0
 62
     0
 10
165.02
 20
25.6053
 30
0.0
 11
164.219
 21
25.6053
 31
0.0
  0
LINE
  8
0
 62
     0
 10
164.219
 20
25.6053
 30
0.0
 11
164.219
 21
22.5061
 31
0.0
  0
LINE
  8
0
 62
     0
 10
164.219
 20
22.5061
 30
0.0
 11
165.02
 21
22.5061
 31
0.0
  0
LINE
  8
0
 62
     0
 10
165.02
 20
22.5061
 30
0.0
 11
165.02
 21
16.7046
 31
0.0
  0
LINE
  8
0
 62
     0
 10
165.02
 20
16.7046
 30
0.0
 11
164.219
 21
16.7046
 31
0.0
  0
LINE
  8
0
 62
     0
 10
164.219
 20
16.7046
 30
0.0
 11
164.219
 21
13.6054
 31
0.0
  0
LINE
  8
0
 62
     0
 10
164.219
 20
13.6054
 30
0.0
 11
165.02
 21
13.6054
 31
0.0
  0
LINE
  8
0
 62
     0
 10
165.02
 20
13.6054
 30
0.0
 11
165.02
 21
12.6049
 31
0.0
  0
LINE
  8
0
 62
     0
 10
165.02
 20
12.6049
 30
0.0
 11
179.02
 21
12.6049
 31
0.0
  0
LINE
  8
0
 62
     0
 10
179.02
 20
12.6049
 30
0.0
 11
179.02
 21
13.6054
 31
0.0
  0
LINE
  8
0
 62
     0
 10
179.02
 20
13.6054
 30
0.0
 11
179.82
 21
13.6054
 31
0.0
  0
LINE
  8
0
 62
     0
 10
179.82
 20
13.6054
 30
0.0
 11
179.82
 21
16.7046
 31
0.0
  0
LINE
  8
0
 62
     0
 10
179.82
 20
16.7046
 30
0.0
 11
179.02
 21
16.7046
 31
0.0
  0
LINE
  8
0
 62
     0
 10
179.02
 20
16.7046
 30
0.0
 11
179.02
 21
22.5061
 31
0.0
  0
LINE
  8
0
 62
     0
 10
179.02
 20
22.5061
 30
0.0
 11
179.82
 21
22.5061
 31
0.0
  0
LINE
  8
0
 62
     0
 10
179.82
 20
22.5061
 30
0.0
 11
179.82
 21
25.6053
 31
0.0
  0
LINE
  8
0
 62
     0
 10
179.82
 20
25.6053
 30
0.0
 11
179.02
 21
25.6053
 31
0.0
  0
LINE
  8
0
 62
     0
 10
179.02
 20
25.6053
 30
0.0
 11
179.02
 21
26.6044
 31
0.0
  0
LINE
  8
0
 62
     0
 10
179.02
 20
26.6044
 30
0.0
 11
165.02
 21
26.6044
 31
0.0
  0
LINE
  8
0
 62
     0
 10
184.07
 20
26.6044
 30
0.0
 11
184.07
 21
25.6053
 31
0.0
  0
LINE
  8
0
 62
     0
 10
184.07
 20
25.6053
 30
0.0
 11
183.269
 21
25.6053
 31
0.0
  0
LINE
  8
0
 62
     0
 10
183.269
 20
25.6053
 30
0.0
 11
183.269
 21
22.5061
 31
0.0
  0
LINE
  8
0
 62
     0
 10
183.269
 20
22.5061
 30
0.0
 11
184.07
 21
22.5061
 31
0.0
  0
LINE
  8
0
 62
     0
 10
184.07
 20
22.5061
 30
0.0
 11
184.07
 21
16.7046
 31
0.0
  0
LINE
  8
0
 62
     0
 10
184.07
 20
16.7046
 30
0.0
 11
183.269
 21
16.7046
 31
0.0
  0
LINE
  8
0
 62
     0
 10
183.269
 20
16.7046
 30
0.0
 11
183.269
 21
13.6054
 31
0.0
  0
LINE
  8
0
 62
     0
 10
183.269
 20
13.6054
 30
0.0
 11
184.07
 21
13.6054
 31
0.0
  0
LINE
  8
0
 62
     0
 10
184.07
 20
13.6054
 30
0.0
 11
184.07
 21
12.6049
 31
0.0
  0
LINE
  8
0
 62
     0
 10
184.07
 20
12.6049
 30
0.0
 11
198.07
 21
12.6049
 31
0.0
  0
LINE
  8
0
 62
     0
 10
198.07
 20
12.6049
 30
0.0
 11
198.07
 21
13.6054
 31
0.0
  0
LINE
  8
0
 62
     0
 10
198.07
 20
13.6054
 30
0.0
 11
198.87
 21
13.6054
 31
0.0
  0
LINE
  8
0
 62
     0
 10
198.87
 20
13.6054
 30
0.0
 11
198.87
 21
16.7046
 31
0.0
  0
LINE
  8
0
 62
     0
 10
198.87
 20
16.7046
 30
0.0
 11
198.07
 21
16.7046
 31
0.0
  0
LINE
  8
0
 62
     0
 10
198.07
 20
16.7046
 30
0.0
 11
198.07
 21
22.5061
 31
0.0
  0
LINE
  8
0
 62
     0
 10
198.07
 20
22.5061
 30
0.0
 11
198.87
 21
22.5061
 31
0.0
  0
LINE
  8
0
 62
     0
 10
198.87
 20
22.5061
 30
0.0
 11
198.87
 21
25.6053
 31
0.0
  0
LINE
  8
0
 62
     0
 10
198.87
 20
25.6053
 30
0.0
 11
198.07
 21
25.6053
 31
0.0
  0
LINE
  8
0
 62
     0
 10
198.07
 20
25.6053
 30
0.0
 11
198.07
 21
26.6044
 31
0.0
  0
LINE
  8
0
 62
     0
 10
198.07
 20
26.6044
 30
0.0
 11
184.07
 21
26.6044
 31
0.0
  0
LINE
  8
0
 62
     0
 10
203.12
 20
26.6044
 30
0.0
 11
203.12
 21
25.6053
 31
0.0
  0
LINE
  8
0
 62
     0
 10
203.12
 20
25.6053
 30
0.0
 11
202.319
 21
25.6053
 31
0.0
  0
LINE
  8
0
 62
     0
 10
202.319
 20
25.6053
 30
0.0
 11
202.319
 21
22.5061
 31
0.0
  0
LINE
  8
0
 62
     0
 10
202.319
 20
22.5061
 30
0.0
 11
203.12
 21
22.5061
 31
0.0
  0
LINE
  8
0
 62
     0
 10
203.12
 20
22.5061
 30
0.0
 11
203.12
 21
16.7046
 31
0.0
  0
LINE
  8
0
 62
     0
 10
203.12
 20
16.7046
 30
0.0
 11
202.319
 21
16.7046
 31
0.0
  0
LINE
  8
0
 62
     0
 10
202.319
 20
16.7046
 30
0.0
 11
202.319
 21
13.6054
 31
0.0
  0
LINE
  8
0
 62
     0
 10
202.319
 20
13.6054
 30
0.0
 11
203.12
 21
13.6054
 31
0.0
  0
LINE
  8
0
 62
     0
 10
203.12
 20
13.6054
 30
0.0
 11
203.12
 21
12.6049
 31
0.0
  0
LINE
  8
0
 62
     0
 10
203.12
 20
12.6049
 30
0.0
 11
217.12
 21
12.6049
 31
0.0
  0
LINE
  8
0
 62
     0
 10
217.12
 20
12.6049
 30
0.0
 11
217.12
 21
13.6054
 31
0.0
  0
LINE
  8
0
 62
     0
 10
217.12
 20
13.6054
 30
0.0
 11
217.92
 21
13.6054
 31
0.0
  0
LINE
  8
0
 62
     0
 10
217.92
 20
13.6054
 30
0.0
 11
217.92
 21
16.7046
 31
0.0
  0
LINE
  8
0
 62
     0
 10
217.92
 20
16.7046
 30
0.0
 11
217.12
 21
16.7046
 31
0.0
  0
LINE
  8
0
 62
     0
 10
217.12
 20
16.7046
 30
0.0
 11
217.12
 21
22.5061
 31
0.0
  0
LINE
  8
0
 62
     0
 10
217.12
 20
22.5061
 30
0.0
 11
217.92
 21
22.5061
 31
0.0
  0
LINE
  8
0
 62
     0
 10
217.92
 20
22.5061
 30
0.0
 11
217.92
 21
25.6053
 31
0.0
  0
LINE
  8
0
 62
     0
 10
217.92
 20
25.6053
 30
0.0
 11
217.12
 21
25.6053
 31
0.0
  0
LINE
  8
0
 62
     0
 10
217.12
 20
25.6053
 30
0.0
 11
217.12
 21
26.6044
 31
0.0
  0
LINE
  8
0
 62
     0
 10
217.12
 20
26.6044
 30
0.0
 11
203.12
 21
26.6044
 31
0.0
  0
LINE
  8
0
 62
     0
 10
222.17
 20
26.6044
 30
0.0
 11
222.17
 21
25.6053
 31
0.0
  0
LINE
  8
0
 62
     0
 10
222.17
 20
25.6053
 30
0.0
 11
221.369
 21
25.6053
 31
0.0
  0
LINE
  8
0
 62
     0
 10
221.369
 20
25.6053
 30
0.0
 11
221.369
 21
22.5061
 31
0.0
  0
LINE
  8
0
 62
     0
 10
221.369
 20
22.5061
 30
0.0
 11
222.17
 21
22.5061
 31
0.0
  0
LINE
  8
0
 62
     0
 10
222.17
 20
22.5061
 30
0.0
 11
222.17
 21
16.7046
 31
0.0
  0
LINE
  8
0
 62
     0
 10
222.17
 20
16.7046
 30
0.0
 11
221.369
 21
16.7046
 31
0.0
  0
LINE
  8
0
 62
     0
 10
221.369
 20
16.7046
 30
0.0
 11
221.369
 21
13.6054
 31
0.0
  0
LINE
  8
0
 62
     0
 10
221.369
 20
13.6054
 30
0.0
 11
222.17
 21
13.6054
 31
0.0
  0
LINE
  8
0
 62
     0
 10
222.17
 20
13.6054
 30
0.0
 11
222.17
 21
12.6049
 31
0.0
  0
LINE
  8
0
 62
     0
 10
222.17
 20
12.6049
 30
0.0
 11
236.17
 21
12.6049
 31
0.0
  0
LINE
  8
0
 62
     0
 10
236.17
 20
12.6049
 30
0.0
 11
236.17
 21
13.6054
 31
0.0
  0
LINE
  8
0
 62
     0
 10
236.17
 20
13.6054
 30
0.0
 11
236.97
 21
13.6054
 31
0.0
  0
LINE
  8
0
 62
     0
 10
236.97
 20
13.6054
 30
0.0
 11
236.97
 21
16.7046
 31
0.0
  0
LINE
  8
0
 62
     0
 10
236.97
 20
16.7046
 30
0.0
 11
236.17
 21
16.7046
 31
0.0
  0
LINE
  8
0
 62
     0
 10
236.17
 20
16.7046
 30
0.0
 11
236.17
 21
22.5061
 31
0.0
  0
LINE
  8
0
 62
     0
 10
236.17
 20
22.5061
 30
0.0
 11
236.97
 21
22.5061
 31
0.0
  0
LINE
  8
0
 62
     0
 10
236.97
 20
22.5061
 30
0.0
 11
236.97
 21
25.6053
 31
0.0
  0
LINE
  8
0
 62
     0
 10
236.97
 20
25.6053
 30
0.0
 11
236.17
 21
25.6053
 31
0.0
  0
LINE
  8
0
 62
     0
 10
236.17
 20
25.6053
 30
0.0
 11
236.17
 21
26.6044
 31
0.0
  0
LINE
  8
0
 62
     0
 10
236.17
 20
26.6044
 30
0.0
 11
222.17
 21
26.6044
 31
0.0
  0
LINE
  8
0
 62
     0
 10
12.6201
 20
45.6544
 30
0.0
 11
12.6201
 21
44.6553
 31
0.0
  0
LINE
  8
0
 62
     0
 10
12.6201
 20
44.6553
 30
0.0
 11
11.8194
 21
44.6553
 31
0.0
  0
LINE
  8
0
 62
     0
 10
11.8194
 20
44.6553
 30
0.0
 11
11.8194
 21
41.5548
 31
0.0
  0
LINE
  8
0
 62
     0
 10
11.8194
 20
41.5548
 30
0.0
 11
12.6201
 21
41.5548
 31
0.0
  0
LINE
  8
0
 62
     0
 10
12.6201
 20
41.5548
 30
0.0
 11
12.6201
 21
35.7547
 31
0.0
  0
LINE
  8
0
 62
     0
 10
12.6201
 20
35.7547
 30
0.0
 11
11.8194
 21
35.7547
 31
0.0
  0
LINE
  8
0
 62
     0
 10
11.8194
 20
35.7547
 30
0.0
 11
11.8194
 21
32.6554
 31
0.0
  0
LINE
  8
0
 62
     0
 10
11.8194
 20
32.6554
 30
0.0
 11
12.6201
 21
32.6554
 31
0.0
  0
LINE
  8
0
 62
     0
 10
12.6201
 20
32.6554
 30
0.0
 11
12.6201
 21
31.6549
 31
0.0
  0
LINE
  8
0
 62
     0
 10
12.6201
 20
31.6549
 30
0.0
 11
26.6196
 21
31.6549
 31
0.0
  0
LINE
  8
0
 62
     0
 10
26.6196
 20
31.6549
 30
0.0
 11
26.6196
 21
32.6554
 31
0.0
  0
LINE
  8
0
 62
     0
 10
26.6196
 20
32.6554
 30
0.0
 11
27.4175
 21
32.6554
 31
0.0
  0
LINE
  8
0
 62
     0
 10
27.4175
 20
32.6554
 30
0.0
 11
27.4175
 21
35.7547
 31
0.0
  0
LINE
  8
0
 62
     0
 10
27.4175
 20
35.7547
 30
0.0
 11
26.6196
 21
35.7547
 31
0.0
  0
LINE
  8
0
 62
     0
 10
26.6196
 20
35.7547
 30
0.0
 11
26.6196
 21
41.5548
 31
0.0
  0
LINE
  8
0
 62
     0
 10
26.6196
 20
41.5548
 30
0.0
 11
27.4175
 21
41.5548
 31
0.0
  0
LINE
  8
0
 62
     0
 10
27.4175
 20
41.5548
 30
0.0
 11
27.4175
 21
44.6553
 31
0.0
  0
LINE
  8
0
 62
     0
 10
27.4175
 20
44.6553
 30
0.0
 11
26.6196
 21
44.6553
 31
0.0
  0
LINE
  8
0
 62
     0
 10
26.6196
 20
44.6553
 30
0.0
 11
26.6196
 21
45.6544
 31
0.0
  0
LINE
  8
0
 62
     0
 10
26.6196
 20
45.6544
 30
0.0
 11
12.6201
 21
45.6544
 31
0.0
  0
LINE
  8
0
 62
     0
 10
31.6701
 20
45.6544
 30
0.0
 11
31.6701
 21
44.6553
 31
0.0
  0
LINE
  8
0
 62
     0
 10
31.6701
 20
44.6553
 30
0.0
 11
30.8694
 21
44.6553
 31
0.0
  0
LINE
  8
0
 62
     0
 10
30.8694
 20
44.6553
 30
0.0
 11
30.8694
 21
41.5548
 31
0.0
  0
LINE
  8
0
 62
     0
 10
30.8694
 20
41.5548
 30
0.0
 11
31.6701
 21
41.5548
 31
0.0
  0
LINE
  8
0
 62
     0
 10
31.6701
 20
41.5548
 30
0.0
 11
31.6701
 21
35.7547
 31
0.0
  0
LINE
  8
0
 62
     0
 10
31.6701
 20
35.7547
 30
0.0
 11
30.8694
 21
35.7547
 31
0.0
  0
LINE
  8
0
 62
     0
 10
30.8694
 20
35.7547
 30
0.0
 11
30.8694
 21
32.6554
 31
0.0
  0
LINE
  8
0
 62
     0
 10
30.8694
 20
32.6554
 30
0.0
 11
31.6701
 21
32.6554
 31
0.0
  0
LINE
  8
0
 62
     0
 10
31.6701
 20
32.6554
 30
0.0
 11
31.6701
 21
31.6549
 31
0.0
  0
LINE
  8
0
 62
     0
 10
31.6701
 20
31.6549
 30
0.0
 11
45.6696
 21
31.6549
 31
0.0
  0
LINE
  8
0
 62
     0
 10
45.6696
 20
31.6549
 30
0.0
 11
45.6696
 21
32.6554
 31
0.0
  0
LINE
  8
0
 62
     0
 10
45.6696
 20
32.6554
 30
0.0
 11
46.4704
 21
32.6554
 31
0.0
  0
LINE
  8
0
 62
     0
 10
46.4704
 20
32.6554
 30
0.0
 11
46.4704
 21
35.7547
 31
0.0
  0
LINE
  8
0
 62
     0
 10
46.4704
 20
35.7547
 30
0.0
 11
45.6696
 21
35.7547
 31
0.0
  0
LINE
  8
0
 62
     0
 10
45.6696
 20
35.7547
 30
0.0
 11
45.6696
 21
41.5548
 31
0.0
  0
LINE
  8
0
 62
     0
 10
45.6696
 20
41.5548
 30
0.0
 11
46.4704
 21
41.5548
 31
0.0
  0
LINE
  8
0
 62
     0
 10
46.4704
 20
41.5548
 30
0.0
 11
46.4704
 21
44.6553
 31
0.0
  0
LINE
  8
0
 62
     0
 10
46.4704
 20
44.6553
 30
0.0
 11
45.6696
 21
44.6553
 31
0.0
  0
LINE
  8
0
 62
     0
 10
45.6696
 20
44.6553
 30
0.0
 11
45.6696
 21
45.6544
 31
0.0
  0
LINE
  8
0
 62
     0
 10
45.6696
 20
45.6544
 30
0.0
 11
31.6701
 21
45.6544
 31
0.0
  0
LINE
  8
0
 62
     0
 10
50.7199
 20
45.6544
 30
0.0
 11
50.7199
 21
44.6553
 31
0.0
  0
LINE
  8
0
 62
     0
 10
50.7199
 20
44.6553
 30
0.0
 11
49.9195
 21
44.6553
 31
0.0
  0
LINE
  8
0
 62
     0
 10
49.9195
 20
44.6553
 30
0.0
 11
49.9195
 21
41.5548
 31
0.0
  0
LINE
  8
0
 62
     0
 10
49.9195
 20
41.5548
 30
0.0
 11
50.7199
 21
41.5548
 31
0.0
  0
LINE
  8
0
 62
     0
 10
50.7199
 20
41.5548
 30
0.0
 11
50.7199
 21
35.7547
 31
0.0
  0
LINE
  8
0
 62
     0
 10
50.7199
 20
35.7547
 30
0.0
 11
49.9195
 21
35.7547
 31
0.0
  0
LINE
  8
0
 62
     0
 10
49.9195
 20
35.7547
 30
0.0
 11
49.9195
 21
32.6554
 31
0.0
  0
LINE
  8
0
 62
     0
 10
49.9195
 20
32.6554
 30
0.0
 11
50.7199
 21
32.6554
 31
0.0
  0
LINE
  8
0
 62
     0
 10
50.7199
 20
32.6554
 30
0.0
 11
50.7199
 21
31.6549
 31
0.0
  0
LINE
  8
0
 62
     0
 10
50.7199
 20
31.6549
 30
0.0
 11
64.7196
 21
31.6549
 31
0.0
  0
LINE
  8
0
 62
     0
 10
64.7196
 20
31.6549
 30
0.0
 11
64.7196
 21
32.6554
 31
0.0
  0
LINE
  8
0
 62
     0
 10
64.7196
 20
32.6554
 30
0.0
 11
65.5204
 21
32.6554
 31
0.0
  0
LINE
  8
0
 62
     0
 10
65.5204
 20
32.6554
 30
0.0
 11
65.5204
 21
35.7547
 31
0.0
  0
LINE
  8
0
 62
     0
 10
65.5204
 20
35.7547
 30
0.0
 11
64.7196
 21
35.7547
 31
0.0
  0
LINE
  8
0
 62
     0
 10
64.7196
 20
35.7547
 30
0.0
 11
64.7196
 21
41.5548
 31
0.0
  0
LINE
  8
0
 62
     0
 10
64.7196
 20
41.5548
 30
0.0
 11
65.5204
 21
41.5548
 31
0.0
  0
LINE
  8
0
 62
     0
 10
65.5204
 20
41.5548
 30
0.0
 11
65.5204
 21
44.6553
 31
0.0
  0
LINE
  8
0
 62
     0
 10
65.5204
 20
44.6553
 30
0.0
 11
64.7196
 21
44.6553
 31
0.0
  0
LINE
  8
0
 62
     0
 10
64.7196
 20
44.6553
 30
0.0
 11
64.7196
 21
45.6544
 31
0.0
  0
LINE
  8
0
 62
     0
 10
64.7196
 20
45.6544
 30
0.0
 11
50.7199
 21
45.6544
 31
0.0
  0
LINE
  8
0
 62
     0
 10
69.7699
 20
45.6544
 30
0.0
 11
69.7699
 21
44.6553
 31
0.0
  0
LINE
  8
0
 62
     0
 10
69.7699
 20
44.6553
 30
0.0
 11
68.9695
 21
44.6553
 31
0.0
  0
LINE
  8
0
 62
     0
 10
68.9695
 20
44.6553
 30
0.0
 11
68.9695
 21
41.5548
 31
0.0
  0
LINE
  8
0
 62
     0
 10
68.9695
 20
41.5548
 30
0.0
 11
69.7699
 21
41.5548
 31
0.0
  0
LINE
  8
0
 62
     0
 10
69.7699
 20
41.5548
 30
0.0
 11
69.7699
 21
35.7547
 31
0.0
  0
LINE
  8
0
 62
     0
 10
69.7699
 20
35.7547
 30
0.0
 11
68.9695
 21
35.7547
 31
0.0
  0
LINE
  8
0
 62
     0
 10
68.9695
 20
35.7547
 30
0.0
 11
68.9695
 21
32.6554
 31
0.0
  0
LINE
  8
0
 62
     0
 10
68.9695
 20
32.6554
 30
0.0
 11
69.7699
 21
32.6554
 31
0.0
  0
LINE
  8
0
 62
     0
 10
69.7699
 20
32.6554
 30
0.0
 11
69.7699
 21
31.6549
 31
0.0
  0
LINE
  8
0
 62
     0
 10
69.7699
 20
31.6549
 30
0.0
 11
83.7696
 21
31.6549
 31
0.0
  0
LINE
  8
0
 62
     0
 10
83.7696
 20
31.6549
 30
0.0
 11
83.7696
 21
32.6554
 31
0.0
  0
LINE
  8
0
 62
     0
 10
83.7696
 20
32.6554
 30
0.0
 11
84.5704
 21
32.6554
 31
0.0
  0
LINE
  8
0
 62
     0
 10
84.5704
 20
32.6554
 30
0.0
 11
84.5704
 21
35.7547
 31
0.0
  0
LINE
  8
0
 62
     0
 10
84.5704
 20
35.7547
 30
0.0
 11
83.7696
 21
35.7547
 31
0.0
  0
LINE
  8
0
 62
     0
 10
83.7696
 20
35.7547
 30
0.0
 11
83.7696
 21
41.5548
 31
0.0
  0
LINE
  8
0
 62
     0
 10
83.7696
 20
41.5548
 30
0.0
 11
84.5704
 21
41.5548
 31
0.0
  0
LINE
  8
0
 62
     0
 10
84.5704
 20
41.5548
 30
0.0
 11
84.5704
 21
44.6553
 31
0.0
  0
LINE
  8
0
 62
     0
 10
84.5704
 20
44.6553
 30
0.0
 11
83.7696
 21
44.6553
 31
0.0
  0
LINE
  8
0
 62
     0
 10
83.7696
 20
44.6553
 30
0.0
 11
83.7696
 21
45.6544
 31
0.0
  0
LINE
  8
0
 62
     0
 10
83.7696
 20
45.6544
 30
0.0
 11
69.7699
 21
45.6544
 31
0.0
  0
LINE
  8
0
 62
     0
 10
88.8199
 20
45.6544
 30
0.0
 11
88.8199
 21
44.6553
 31
0.0
  0
LINE
  8
0
 62
     0
 10
88.8199
 20
44.6553
 30
0.0
 11
88.0195
 21
44.6553
 31
0.0
  0
LINE
  8
0
 62
     0
 10
88.0195
 20
44.6553
 30
0.0
 11
88.0195
 21
41.5548
 31
0.0
  0
LINE
  8
0
 62
     0
 10
88.0195
 20
41.5548
 30
0.0
 11
88.8199
 21
41.5548
 31
0.0
  0
LINE
  8
0
 62
     0
 10
88.8199
 20
41.5548
 30
0.0
 11
88.8199
 21
35.7547
 31
0.0
  0
LINE
  8
0
 62
     0
 10
88.8199
 20
35.7547
 30
0.0
 11
88.0195
 21
35.7547
 31
0.0
  0
LINE
  8
0
 62
     0
 10
88.0195
 20
35.7547
 30
0.0
 11
88.0195
 21
32.6554
 31
0.0
  0
LINE
  8
0
 62
     0
 10
88.0195
 20
32.6554
 30
0.0
 11
88.8199
 21
32.6554
 31
0.0
  0
LINE
  8
0
 62
     0
 10
88.8199
 20
32.6554
 30
0.0
 11
88.8199
 21
31.6549
 31
0.0
  0
LINE
  8
0
 62
     0
 10
88.8199
 20
31.6549
 30
0.0
 11
102.82
 21
31.6549
 31
0.0
  0
LINE
  8
0
 62
     0
 10
102.82
 20
31.6549
 30
0.0
 11
102.82
 21
32.6554
 31
0.0
  0
LINE
  8
0
 62
     0
 10
102.82
 20
32.6554
 30
0.0
 11
103.619
 21
32.6554
 31
0.0
  0
LINE
  8
0
 62
     0
 10
103.619
 20
32.6554
 30
0.0
 11
103.619
 21
35.7547
 31
0.0
  0
LINE
  8
0
 62
     0
 10
103.619
 20
35.7547
 30
0.0
 11
102.82
 21
35.7547
 31
0.0
  0
LINE
  8
0
 62
     0
 10
102.82
 20
35.7547
 30
0.0
 11
102.82
 21
41.5548
 31
0.0
  0
LINE
  8
0
 62
     0
 10
102.82
 20
41.5548
 30
0.0
 11
103.619
 21
41.5548
 31
0.0
  0
LINE
  8
0
 62
     0
 10
103.619
 20
41.5548
 30
0.0
 11
103.619
 21
44.6553
 31
0.0
  0
LINE
  8
0
 62
     0
 10
103.619
 20
44.6553
 30
0.0
 11
102.82
 21
44.6553
 31
0.0
  0
LINE
  8
0
 62
     0
 10
102.82
 20
44.6553
 30
0.0
 11
102.82
 21
45.6544
 31
0.0
  0
LINE
  8
0
 62
     0
 10
102.82
 20
45.6544
 30
0.0
 11
88.8199
 21
45.6544
 31
0.0
  0
LINE
  8
0
 62
     0
 10
107.869
 20
45.6544
 30
0.0
 11
107.869
 21
44.6553
 31
0.0
  0
LINE
  8
0
 62
     0
 10
107.869
 20
44.6553
 30
0.0
 11
107.069
 21
44.6553
 31
0.0
  0
LINE
  8
0
 62
     0
 10
107.069
 20
44.6553
 30
0.0
 11
107.069
 21
41.5548
 31
0.0
  0
LINE
  8
0
 62
     0
 10
107.069
 20
41.5548
 30
0.0
 11
107.869
 21
41.5548
 31
0.0
  0
LINE
  8
0
 62
     0
 10
107.869
 20
41.5548
 30
0.0
 11
107.869
 21
35.7547
 31
0.0
  0
LINE
  8
0
 62
     0
 10
107.869
 20
35.7547
 30
0.0
 11
107.069
 21
35.7547
 31
0.0
  0
LINE
  8
0
 62
     0
 10
107.069
 20
35.7547
 30
0.0
 11
107.069
 21
32.6554
 31
0.0
  0
LINE
  8
0
 62
     0
 10
107.069
 20
32.6554
 30
0.0
 11
107.869
 21
32.6554
 31
0.0
  0
LINE
  8
0
 62
     0
 10
107.869
 20
32.6554
 30
0.0
 11
107.869
 21
31.6549
 31
0.0
  0
LINE
  8
0
 62
     0
 10
107.869
 20
31.6549
 30
0.0
 11
121.868
 21
31.6549
 31
0.0
  0
LINE
  8
0
 62
     0
 10
121.868
 20
31.6549
 30
0.0
 11
121.868
 21
32.6554
 31
0.0
  0
LINE
  8
0
 62
     0
 10
121.868
 20
32.6554
 30
0.0
 11
122.669
 21
32.6554
 31
0.0
  0
LINE
  8
0
 62
     0
 10
122.669
 20
32.6554
 30
0.0
 11
122.669
 21
35.7547
 31
0.0
  0
LINE
  8
0
 62
     0
 10
122.669
 20
35.7547
 30
0.0
 11
121.868
 21
35.7547
 31
0.0
  0
LINE
  8
0
 62
     0
 10
121.868
 20
35.7547
 30
0.0
 11
121.868
 21
41.5548
 31
0.0
  0
LINE
  8
0
 62
     0
 10
121.868
 20
41.5548
 30
0.0
 11
122.669
 21
41.5548
 31
0.0
  0
LINE
  8
0
 62
     0
 10
122.669
 20
41.5548
 30
0.0
 11
122.669
 21
44.6553
 31
0.0
  0
LINE
  8
0
 62
     0
 10
122.669
 20
44.6553
 30
0.0
 11
121.868
 21
44.6553
 31
0.0
  0
LINE
  8
0
 62
     0
 10
121.868
 20
44.6553
 30
0.0
 11
121.868
 21
45.6544
 31
0.0
  0
LINE
  8
0
 62
     0
 10
121.868
 20
45.6544
 30
0.0
 11
107.869
 21
45.6544
 31
0.0
  0
LINE
  8
0
 62
     0
 10
126.92
 20
45.6544
 30
0.0
 11
126.92
 21
44.6553
 31
0.0
  0
LINE
  8
0
 62
     0
 10
126.92
 20
44.6553
 30
0.0
 11
126.119
 21
44.6553
 31
0.0
  0
LINE
  8
0
 62
     0
 10
126.119
 20
44.6553
 30
0.0
 11
126.119
 21
41.5548
 31
0.0
  0
LINE
  8
0
 62
     0
 10
126.119
 20
41.5548
 30
0.0
 11
126.92
 21
41.5548
 31
0.0
  0
LINE
  8
0
 62
     0
 10
126.92
 20
41.5548
 30
0.0
 11
126.92
 21
35.7547
 31
0.0
  0
LINE
  8
0
 62
     0
 10
126.92
 20
35.7547
 30
0.0
 11
126.119
 21
35.7547
 31
0.0
  0
LINE
  8
0
 62
     0
 10
126.119
 20
35.7547
 30
0.0
 11
126.119
 21
32.6554
 31
0.0
  0
LINE
  8
0
 62
     0
 10
126.119
 20
32.6554
 30
0.0
 11
126.92
 21
32.6554
 31
0.0
  0
LINE
  8
0
 62
     0
 10
126.92
 20
32.6554
 30
0.0
 11
126.92
 21
31.6549
 31
0.0
  0
LINE
  8
0
 62
     0
 10
126.92
 20
31.6549
 30
0.0
 11
140.92
 21
31.6549
 31
0.0
  0
LINE
  8
0
 62
     0
 10
140.92
 20
31.6549
 30
0.0
 11
140.92
 21
32.6554
 31
0.0
  0
LINE
  8
0
 62
     0
 10
140.92
 20
32.6554
 30
0.0
 11
141.72
 21
32.6554
 31
0.0
  0
LINE
  8
0
 62
     0
 10
141.72
 20
32.6554
 30
0.0
 11
141.72
 21
35.7547
 31
0.0
  0
LINE
  8
0
 62
     0
 10
141.72
 20
35.7547
 30
0.0
 11
140.92
 21
35.7547
 31
0.0
  0
LINE
  8
0
 62
     0
 10
140.92
 20
35.7547
 30
0.0
 11
140.92
 21
41.5548
 31
0.0
  0
LINE
  8
0
 62
     0
 10
140.92
 20
41.5548
 30
0.0
 11
141.72
 21
41.5548
 31
0.0
  0
LINE
  8
0
 62
     0
 10
141.72
 20
41.5548
 30
0.0
 11
141.72
 21
44.6553
 31
0.0
  0
LINE
  8
0
 62
     0
 10
141.72
 20
44.6553
 30
0.0
 11
140.92
 21
44.6553
 31
0.0
  0
LINE
  8
0
 62
     0
 10
140.92
 20
44.6553
 30
0.0
 11
140.92
 21
45.6544
 31
0.0
  0
LINE
  8
0
 62
     0
 10
140.92
 20
45.6544
 30
0.0
 11
126.92
 21
45.6544
 31
0.0
  0
LINE
  8
0
 62
     0
 10
145.97
 20
45.6544
 30
0.0
 11
145.97
 21
44.6553
 31
0.0
  0
LINE
  8
0
 62
     0
 10
145.97
 20
44.6553
 30
0.0
 11
145.169
 21
44.6553
 31
0.0
  0
LINE
  8
0
 62
     0
 10
145.169
 20
44.6553
 30
0.0
 11
145.169
 21
41.5548
 31
0.0
  0
LINE
  8
0
 62
     0
 10
145.169
 20
41.5548
 30
0.0
 11
145.97
 21
41.5548
 31
0.0
  0
LINE
  8
0
 62
     0
 10
145.97
 20
41.5548
 30
0.0
 11
145.97
 21
35.7547
 31
0.0
  0
LINE
  8
0
 62
     0
 10
145.97
 20
35.7547
 30
0.0
 11
145.169
 21
35.7547
 31
0.0
  0
LINE
  8
0
 62
     0
 10
145.169
 20
35.7547
 30
0.0
 11
145.169
 21
32.6554
 31
0.0
  0
LINE
  8
0
 62
     0
 10
145.169
 20
32.6554
 30
0.0
 11
145.97
 21
32.6554
 31
0.0
  0
LINE
  8
0
 62
     0
 10
145.97
 20
32.6554
 30
0.0
 11
145.97
 21
31.6549
 31
0.0
  0
LINE
  8
0
 62
     0
 10
145.97
 20
31.6549
 30
0.0
 11
159.97
 21
31.6549
 31
0.0
  0
LINE
  8
0
 62
     0
 10
159.97
 20
31.6549
 30
0.0
 11
159.97
 21
32.6554
 31
0.0
  0
LINE
  8
0
 62
     0
 10
159.97
 20
32.6554
 30
0.0
 11
160.77
 21
32.6554
 31
0.0
  0
LINE
  8
0
 62
     0
 10
160.77
 20
32.6554
 30
0.0
 11
160.77
 21
35.7547
 31
0.0
  0
LINE
  8
0
 62
     0
 10
160.77
 20
35.7547
 30
0.0
 11
159.97
 21
35.7547
 31
0.0
  0
LINE
  8
0
 62
     0
 10
159.97
 20
35.7547
 30
0.0
 11
159.97
 21
41.5548
 31
0.0
  0
LINE
  8
0
 62
     0
 10
159.97
 20
41.5548
 30
0.0
 11
160.77
 21
41.5548
 31
0.0
  0
LINE
  8
0
 62
     0
 10
160.77
 20
41.5548
 30
0.0
 11
160.77
 21
44.6553
 31
0.0
  0
LINE
  8
0
 62
     0
 10
160.77
 20
44.6553
 30
0.0
 11
159.97
 21
44.6553
 31
0.0
  0
LINE
  8
0
 62
     0
 10
159.97
 20
44.6553
 30
0.0
 11
159.97
 21
45.6544
 31
0.0
  0
LINE
  8
0
 62
     0
 10
159.97
 20
45.6544
 30
0.0
 11
145.97
 21
45.6544
 31
0.0
  0
LINE
  8
0
 62
     0
 10
165.02
 20
45.6544
 30
0.0
 11
165.02
 21
44.6553
 31
0.0
  0
LINE
  8
0
 62
     0
 10
165.02
 20
44.6553
 30
0.0
 11
164.219
 21
44.6553
 31
0.0
  0
LINE
  8
0
 62
     0
 10
164.219
 20
44.6553
 30
0.0
 11
164.219
 21
41.5548
 31
0.0
  0
LINE
  8
0
 62
     0
 10
164.219
 20
41.5548
 30
0.0
 11
165.02
 21
41.5548
 31
0.0
  0
LINE
  8
0
 62
     0
 10
165.02
 20
41.5548
 30
0.0
 11
165.02
 21
35.7547
 31
0.0
  0
LINE
  8
0
 62
     0
 10
165.02
 20
35.7547
 30
0.0
 11
164.219
 21
35.7547
 31
0.0
  0
LINE
  8
0
 62
     0
 10
164.219
 20
35.7547
 30
0.0
 11
164.219
 21
32.6554
 31
0.0
  0
LINE
  8
0
 62
     0
 10
164.219
 20
32.6554
 30
0.0
 11
165.02
 21
32.6554
 31
0.0
  0
LINE
  8
0
 62
     0
 10
165.02
 20
32.6554
 30
0.0
 11
165.02
 21
31.6549
 31
0.0
  0
LINE
  8
0
 62
     0
 10
165.02
 20
31.6549
 30
0.0
 11
179.02
 21
31.6549
 31
0.0
  0
LINE
  8
0
 62
     0
 10
179.02
 20
31.6549
 30
0.0
 11
179.02
 21
32.6554
 31
0.0
  0
LINE
  8
0
 62
     0
 10
179.02
 20
32.6554
 30
0.0
 11
179.82
 21
32.6554
 31
0.0
  0
LINE
  8
0
 62
     0
 10
179.82
 20
32.6554
 30
0.0
 11
179.82
 21
35.7547
 31
0.0
  0
LINE
  8
0
 62
     0
 10
179.82
 20
35.7547
 30
0.0
 11
179.02
 21
35.7547
 31
0.0
  0
LINE
  8
0
 62
     0
 10
179.02
 20
35.7547
 30
0.0
 11
179.02
 21
41.5548
 31
0.0
  0
LINE
  8
0
 62
     0
 10
179.02
 20
41.5548
 30
0.0
 11
179.82
 21
41.5548
 31
0.0
  0
LINE
  8
0
 62
     0
 10
179.82
 20
41.5548
 30
0.0
 11
179.82
 21
44.6553
 31
0.0
  0
LINE
  8
0
 62
     0
 10
179.82
 20
44.6553
 30
0.0
 11
179.02
 21
44.6553
 31
0.0
  0
LINE
  8
0
 62
     0
 10
179.02
 20
44.6553
 30
0.0
 11
179.02
 21
45.6544
 31
0.0
  0
LINE
  8
0
 62
     0
 10
179.02
 20
45.6544
 30
0.0
 11
165.02
 21
45.6544
 31
0.0
  0
LINE
  8
0
 62
     0
 10
184.07
 20
45.6544
 30
0.0
 11
184.07
 21
44.6553
 31
0.0
  0
LINE
  8
0
 62
     0
 10
184.07
 20
44.6553
 30
0.0
 11
183.269
 21
44.6553
 31
0.0
  0
LINE
  8
0
 62
     0
 10
183.269
 20
44.6553
 30
0.0
 11
183.269
 21
41.5548
 31
0.0
  0
LINE
  8
0
 62
     0
 10
183.269
 20
41.5548
 30
0.0
 11
184.07
 21
41.5548
 31
0.0
  0
LINE
  8
0
 62
     0
 10
184.07
 20
41.5548
 30
0.0
 11
184.07
 21
35.7547
 31
0.0
  0
LINE
  8
0
 62
     0
 10
184.07
 20
35.7547
 30
0.0
 11
183.269
 21
35.7547
 31
0.0
  0
LINE
  8
0
 62
     0
 10
183.269
 20
35.7547
 30
0.0
 11
183.269
 21
32.6554
 31
0.0
  0
LINE
  8
0
 62
     0
 10
183.269
 20
32.6554
 30
0.0
 11
184.07
 21
32.6554
 31
0.0
  0
LINE
  8
0
 62
     0
 10
184.07
 20
32.6554
 30
0.0
 11
184.07
 21
31.6549
 31
0.0
  0
LINE
  8
0
 62
     0
 10
184.07
 20
31.6549
 30
0.0
 11
198.07
 21
31.6549
 31
0.0
  0
LINE
  8
0
 62
     0
 10
198.07
 20
31.6549
 30
0.0
 11
198.07
 21
32.6554
 31
0.0
  0
LINE
  8
0
 62
     0
 10
198.07
 20
32.6554
 30
0.0
 11
198.87
 21
32.6554
 31
0.0
  0
LINE
  8
0
 62
     0
 10
198.87
 20
32.6554
 30
0.0
 11
198.87
 21
35.7547
 31
0.0
  0
LINE
  8
0
 62
     0
 10
198.87
 20
35.7547
 30
0.0
 11
198.07
 21
35.7547
 31
0.0
  0
LINE
  8
0
 62
     0
 10
198.07
 20
35.7547
 30
0.0
 11
198.07
 21
41.5548
 31
0.0
  0
LINE
  8
0
 62
     0
 10
198.07
 20
41.5548
 30
0.0
 11
198.87
 21
41.5548
 31
0.0
  0
LINE
  8
0
 62
     0
 10
198.87
 20
41.5548
 30
0.0
 11
198.87
 21
44.6553
 31
0.0
  0
LINE
  8
0
 62
     0
 10
198.87
 20
44.6553
 30
0.0
 11
198.07
 21
44.6553
 31
0.0
  0
LINE
  8
0
 62
     0
 10
198.07
 20
44.6553
 30
0.0
 11
198.07
 21
45.6544
 31
0.0
  0
LINE
  8
0
 62
     0
 10
198.07
 20
45.6544
 30
0.0
 11
184.07
 21
45.6544
 31
0.0
  0
LINE
  8
0
 62
     0
 10
203.12
 20
45.6544
 30
0.0
 11
203.12
 21
44.6553
 31
0.0
  0
LINE
  8
0
 62
     0
 10
203.12
 20
44.6553
 30
0.0
 11
202.319
 21
44.6553
 31
0.0
  0
LINE
  8
0
 62
     0
 10
202.319
 20
44.6553
 30
0.0
 11
202.319
 21
41.5548
 31
0.0
  0
LINE
  8
0
 62
     0
 10
202.319
 20
41.5548
 30
0.0
 11
203.12
 21
41.5548
 31
0.0
  0
LINE
  8
0
 62
     0
 10
203.12
 20
41.5548
 30
0.0
 11
203.12
 21
35.7547
 31
0.0
  0
LINE
  8
0
 62
     0
 10
203.12
 20
35.7547
 30
0.0
 11
202.319
 21
35.7547
 31
0.0
  0
LINE
  8
0
 62
     0
 10
202.319
 20
35.7547
 30
0.0
 11
202.319
 21
32.6554
 31
0.0
  0
LINE
  8
0
 62
     0
 10
202.319
 20
32.6554
 30
0.0
 11
203.12
 21
32.6554
 31
0.0
  0
LINE
  8
0
 62
     0
 10
203.12
 20
32.6554
 30
0.0
 11
203.12
 21
31.6549
 31
0.0
  0
LINE
  8
0
 62
     0
 10
203.12
 20
31.6549
 30
0.0
 11
217.12
 21
31.6549
 31
0.0
  0
LINE
  8
0
 62
     0
 10
217.12
 20
31.6549
 30
0.0
 11
217.12
 21
32.6554
 31
0.0
  0
LINE
  8
0
 62
     0
 10
217.12
 20
32.6554
 30
0.0
 11
217.92
 21
32.6554
 31
0.0
  0
LINE
  8
0
 62
     0
 10
217.92
 20
32.6554
 30
0.0
 11
217.92
 21
35.7547
 31
0.0
  0
LINE
  8
0
 62
     0
 10
217.92
 20
35.7547
 30
0.0
 11
217.12
 21
35.7547
 31
0.0
  0
LINE
  8
0
 62
     0
 10
217.12
 20
35.7547
 30
0.0
 11
217.12
 21
41.5548
 31
0.0
  0
LINE
  8
0
 62
     0
 10
217.12
 20
41.5548
 30
0.0
 11
217.92
 21
41.5548
 31
0.0
  0
LINE
  8
0
 62
     0
 10
217.92
 20
41.5548
 30
0.0
 11
217.92
 21
44.6553
 31
0.0
  0
LINE
  8
0
 62
     0
 10
217.92
 20
44.6553
 30
0.0
 11
217.12
 21
44.6553
 31
0.0
  0
LINE
  8
0
 62
     0
 10
217.12
 20
44.6553
 30
0.0
 11
217.12
 21
45.6544
 31
0.0
  0
LINE
  8
0
 62
     0
 10
217.12
 20
45.6544
 30
0.0
 11
203.12
 21
45.6544
 31
0.0
  0
LINE
  8
0
 62
     0
 10
222.17
 20
45.6544
 30
0.0
 11
222.17
 21
44.6553
 31
0.0
  0
LINE
  8
0
 62
     0
 10
222.17
 20
44.6553
 30
0.0
 11
221.369
 21
44.6553
 31
0.0
  0
LINE
  8
0
 62
     0
 10
221.369
 20
44.6553
 30
0.0
 11
221.369
 21
41.5548
 31
0.0
  0
LINE
  8
0
 62
     0
 10
221.369
 20
41.5548
 30
0.0
 11
222.17
 21
41.5548
 31
0.0
  0
LINE
  8
0
 62
     0
 10
222.17
 20
41.5548
 30
0.0
 11
222.17
 21
35.7547
 31
0.0
  0
LINE
  8
0
 62
     0
 10
222.17
 20
35.7547
 30
0.0
 11
221.369
 21
35.7547
 31
0.0
  0
LINE
  8
0
 62
     0
 10
221.369
 20
35.7547
 30
0.0
 11
221.369
 21
32.6554
 31
0.0
  0
LINE
  8
0
 62
     0
 10
221.369
 20
32.6554
 30
0.0
 11
222.17
 21
32.6554
 31
0.0
  0
LINE
  8
0
 62
     0
 10
222.17
 20
32.6554
 30
0.0
 11
222.17
 21
31.6549
 31
0.0
  0
LINE
  8
0
 62
     0
 10
222.17
 20
31.6549
 30
0.0
 11
236.17
 21
31.6549
 31
0.0
  0
LINE
  8
0
 62
     0
 10
236.17
 20
31.6549
 30
0.0
 11
236.17
 21
32.6554
 31
0.0
  0
LINE
  8
0
 62
     0
 10
236.17
 20
32.6554
 30
0.0
 11
236.97
 21
32.6554
 31
0.0
  0
LINE
  8
0
 62
     0
 10
236.97
 20
32.6554
 30
0.0
 11
236.97
 21
35.7547
 31
0.0
  0
LINE
  8
0
 62
     0
 10
236.97
 20
35.7547
 30
0.0
 11
236.17
 21
35.7547
 31
0.0
  0
LINE
  8
0
 62
     0
 10
236.17
 20
35.7547
 30
0.0
 11
236.17
 21
41.5548
 31
0.0
  0
LINE
  8
0
 62
     0
 10
236.17
 20
41.5548
 30
0.0
 11
236.97
 21
41.5548
 31
0.0
  0
LINE
  8
0
 62
     0
 10
236.97
 20
41.5548
 30
0.0
 11
236.97
 21
44.6553
 31
0.0
  0
LINE
  8
0
 62
     0
 10
236.97
 20
44.6553
 30
0.0
 11
236.17
 21
44.6553
 31
0.0
  0
LINE
  8
0
 62
     0
 10
236.17
 20
44.6553
 30
0.0
 11
236.17
 21
45.6544
 31
0.0
  0
LINE
  8
0
 62
     0
 10
236.17
 20
45.6544
 30
0.0
 11
222.17
 21
45.6544
 31
0.0
  0
LINE
  8
0
 62
     0
 10
12.6201
 20
64.7044
 30
0.0
 11
12.6201
 21
63.7053
 31
0.0
  0
LINE
  8
0
 62
     0
 10
12.6201
 20
63.7053
 30
0.0
 11
11.8194
 21
63.7053
 31
0.0
  0
LINE
  8
0
 62
     0
 10
11.8194
 20
63.7053
 30
0.0
 11
11.8194
 21
60.6048
 31
0.0
  0
LINE
  8
0
 62
     0
 10
11.8194
 20
60.6048
 30
0.0
 11
12.6201
 21
60.6048
 31
0.0
  0
LINE
  8
0
 62
     0
 10
12.6201
 20
60.6048
 30
0.0
 11
12.6201
 21
54.8047
 31
0.0
  0
LINE
  8
0
 62
     0
 10
12.6201
 20
54.8047
 30
0.0
 11
11.8194
 21
54.8047
 31
0.0
  0
LINE
  8
0
 62
     0
 10
11.8194
 20
54.8047
 30
0.0
 11
11.8194
 21
51.7052
 31
0.0
  0
LINE
  8
0
 62
     0
 10
11.8194
 20
51.7052
 30
0.0
 11
12.6201
 21
51.7052
 31
0.0
  0
LINE
  8
0
 62
     0
 10
12.6201
 20
51.7052
 30
0.0
 11
12.6201
 21
50.7047
 31
0.0
  0
LINE
  8
0
 62
     0
 10
12.6201
 20
50.7047
 30
0.0
 11
26.6196
 21
50.7047
 31
0.0
  0
LINE
  8
0
 62
     0
 10
26.6196
 20
50.7047
 30
0.0
 11
26.6196
 21
51.7052
 31
0.0
  0
LINE
  8
0
 62
     0
 10
26.6196
 20
51.7052
 30
0.0
 11
27.4175
 21
51.7052
 31
0.0
  0
LINE
  8
0
 62
     0
 10
27.4175
 20
51.7052
 30
0.0
 11
27.4175
 21
54.8047
 31
0.0
  0
LINE
  8
0
 62
     0
 10
27.4175
 20
54.8047
 30
0.0
 11
26.6196
 21
54.8047
 31
0.0
  0
LINE
  8
0
 62
     0
 10
26.6196
 20
54.8047
 30
0.0
 11
26.6196
 21
60.6048
 31
0.0
  0
LINE
  8
0
 62
     0
 10
26.6196
 20
60.6048
 30
0.0
 11
27.4175
 21
60.6048
 31
0.0
  0
LINE
  8
0
 62
     0
 10
27.4175
 20
60.6048
 30
0.0
 11
27.4175
 21
63.7053
 31
0.0
  0
LINE
  8
0
 62
     0
 10
27.4175
 20
63.7053
 30
0.0
 11
26.6196
 21
63.7053
 31
0.0
  0
LINE
  8
0
 62
     0
 10
26.6196
 20
63.7053
 30
0.0
 11
26.6196
 21
64.7044
 31
0.0
  0
LINE
  8
0
 62
     0
 10
26.6196
 20
64.7044
 30
0.0
 11
12.6201
 21
64.7044
 31
0.0
  0
LINE
  8
0
 62
     0
 10
31.6701
 20
64.7044
 30
0.0
 11
31.6701
 21
63.7053
 31
0.0
  0
LINE
  8
0
 62
     0
 10
31.6701
 20
63.7053
 30
0.0
 11
30.8694
 21
63.7053
 31
0.0
  0
LINE
  8
0
 62
     0
 10
30.8694
 20
63.7053
 30
0.0
 11
30.8694
 21
60.6048
 31
0.0
  0
LINE
  8
0
 62
     0
 10
30.8694
 20
60.6048
 30
0.0
 11
31.6701
 21
60.6048
 31
0.0
  0
LINE
  8
0
 62
     0
 10
31.6701
 20
60.6048
 30
0.0
 11
31.6701
 21
54.8047
 31
0.0
  0
LINE
  8
0
 62
     0
 10
31.6701
 20
54.8047
 30
0.0
 11
30.8694
 21
54.8047
 31
0.0
  0
LINE
  8
0
 62
     0
 10
30.8694
 20
54.8047
 30
0.0
 11
30.8694
 21
51.7052
 31
0.0
  0
LINE
  8
0
 62
     0
 10
30.8694
 20
51.7052
 30
0.0
 11
31.6701
 21
51.7052
 31
0.0
  0
LINE
  8
0
 62
     0
 10
31.6701
 20
51.7052
 30
0.0
 11
31.6701
 21
50.7047
 31
0.0
  0
LINE
  8
0
 62
     0
 10
31.6701
 20
50.7047
 30
0.0
 11
45.6696
 21
50.7047
 31
0.0
  0
LINE
  8
0
 62
     0
 10
45.6696
 20
50.7047
 30
0.0
 11
45.6696
 21
51.7052
 31
0.0
  0
LINE
  8
0
 62
     0
 10
45.6696
 20
51.7052
 30
0.0
 11
46.4704
 21
51.7052
 31
0.0
  0
LINE
  8
0
 62
     0
 10
46.4704
 20
51.7052
 30
0.0
 11
46.4704
 21
54.8047
 31
0.0
  0
LINE
  8
0
 62
     0
 10
46.4704
 20
54.8047
 30
0.0
 11
45.6696
 21
54.8047
 31
0.0
  0
LINE
  8
0
 62
     0
 10
45.6696
 20
54.8047
 30
0.0
 11
45.6696
 21
60.6048
 31
0.0
  0
LINE
  8
0
 62
     0
 10
45.6696
 20
60.6048
 30
0.0
 11
46.4704
 21
60.6048
 31
0.0
  0
LINE
  8
0
 62
     0
 10
46.4704
 20
60.6048
 30
0.0
 11
46.4704
 21
63.7053
 31
0.0
  0
LINE
  8
0
 62
     0
 10
46.4704
 20
63.7053
 30
0.0
 11
45.6696
 21
63.7053
 31
0.0
  0
LINE
  8
0
 62
     0
 10
45.6696
 20
63.7053
 30
0.0
 11
45.6696
 21
64.7044
 31
0.0
  0
LINE
  8
0
 62
     0
 10
45.6696
 20
64.7044
 30
0.0
 11
31.6701
 21
64.7044
 31
0.0
  0
LINE
  8
0
 62
     0
 10
50.7199
 20
64.7044
 30
0.0
 11
50.7199
 21
63.7053
 31
0.0
  0
LINE
  8
0
 62
     0
 10
50.7199
 20
63.7053
 30
0.0
 11
49.9195
 21
63.7053
 31
0.0
  0
LINE
  8
0
 62
     0
 10
49.9195
 20
63.7053
 30
0.0
 11
49.9195
 21
60.6048
 31
0.0
  0
LINE
  8
0
 62
     0
 10
49.9195
 20
60.6048
 30
0.0
 11
50.7199
 21
60.6048
 31
0.0
  0
LINE
  8
0
 62
     0
 10
50.7199
 20
60.6048
 30
0.0
 11
50.7199
 21
54.8047
 31
0.0
  0
LINE
  8
0
 62
     0
 10
50.7199
 20
54.8047
 30
0.0
 11
49.9195
 21
54.8047
 31
0.0
  0
LINE
  8
0
 62
     0
 10
49.9195
 20
54.8047
 30
0.0
 11
49.9195
 21
51.7052
 31
0.0
  0
LINE
  8
0
 62
     0
 10
49.9195
 20
51.7052
 30
0.0
 11
50.7199
 21
51.7052
 31
0.0
  0
LINE
  8
0
 62
     0
 10
50.7199
 20
51.7052
 30
0.0
 11
50.7199
 21
50.7047
 31
0.0
  0
LINE
  8
0
 62
     0
 10
50.7199
 20
50.7047
 30
0.0
 11
64.7196
 21
50.7047
 31
0.0
  0
LINE
  8
0
 62
     0
 10
64.7196
 20
50.7047
 30
0.0
 11
64.7196
 21
51.7052
 31
0.0
  0
LINE
  8
0
 62
     0
 10
64.7196
 20
51.7052
 30
0.0
 11
65.5204
 21
51.7052
 31
0.0
  0
LINE
  8
0
 62
     0
 10
65.5204
 20
51.7052
 30
0.0
 11
65.5204
 21
54.8047
 31
0.0
  0
LINE
  8
0
 62
     0
 10
65.5204
 20
54.8047
 30
0.0
 11
64.7196
 21
54.8047
 31
0.0
  0
LINE
  8
0
 62
     0
 10
64.7196
 20
54.8047
 30
0.0
 11
64.7196
 21
60.6048
 31
0.0
  0
LINE
  8
0
 62
     0
 10
64.7196
 20
60.6048
 30
0.0
 11
65.5204
 21
60.6048
 31
0.0
  0
LINE
  8
0
 62
     0
 10
65.5204
 20
60.6048
 30
0.0
 11
65.5204
 21
63.7053
 31
0.0
  0
LINE
  8
0
 62
     0
 10
65.5204
 20
63.7053
 30
0.0
 11
64.7196
 21
63.7053
 31
0.0
  0
LINE
  8
0
 62
     0
 10
64.7196
 20
63.7053
 30
0.0
 11
64.7196
 21
64.7044
 31
0.0
  0
LINE
  8
0
 62
     0
 10
64.7196
 20
64.7044
 30
0.0
 11
50.7199
 21
64.7044
 31
0.0
  0
LINE
  8
0
 62
     0
 10
69.7699
 20
64.7044
 30
0.0
 11
69.7699
 21
63.7053
 31
0.0
  0
LINE
  8
0
 62
     0
 10
69.7699
 20
63.7053
 30
0.0
 11
68.9695
 21
63.7053
 31
0.0
  0
LINE
  8
0
 62
     0
 10
68.9695
 20
63.7053
 30
0.0
 11
68.9695
 21
60.6048
 31
0.0
  0
LINE
  8
0
 62
     0
 10
68.9695
 20
60.6048
 30
0.0
 11
69.7699
 21
60.6048
 31
0.0
  0
LINE
  8
0
 62
     0
 10
69.7699
 20
60.6048
 30
0.0
 11
69.7699
 21
54.8047
 31
0.0
  0
LINE
  8
0
 62
     0
 10
69.7699
 20
54.8047
 30
0.0
 11
68.9695
 21
54.8047
 31
0.0
  0
LINE
  8
0
 62
     0
 10
68.9695
 20
54.8047
 30
0.0
 11
68.9695
 21
51.7052
 31
0.0
  0
LINE
  8
0
 62
     0
 10
68.9695
 20
51.7052
 30
0.0
 11
69.7699
 21
51.7052
 31
0.0
  0
LINE
  8
0
 62
     0
 10
69.7699
 20
51.7052
 30
0.0
 11
69.7699
 21
50.7047
 31
0.0
  0
LINE
  8
0
 62
     0
 10
69.7699
 20
50.7047
 30
0.0
 11
83.7696
 21
50.7047
 31
0.0
  0
LINE
  8
0
 62
     0
 10
83.7696
 20
50.7047
 30
0.0
 11
83.7696
 21
51.7052
 31
0.0
  0
LINE
  8
0
 62
     0
 10
83.7696
 20
51.7052
 30
0.0
 11
84.5704
 21
51.7052
 31
0.0
  0
LINE
  8
0
 62
     0
 10
84.5704
 20
51.7052
 30
0.0
 11
84.5704
 21
54.8047
 31
0.0
  0
LINE
  8
0
 62
     0
 10
84.5704
 20
54.8047
 30
0.0
 11
83.7696
 21
54.8047
 31
0.0
  0
LINE
  8
0
 62
     0
 10
83.7696
 20
54.8047
 30
0.0
 11
83.7696
 21
60.6048
 31
0.0
  0
LINE
  8
0
 62
     0
 10
83.7696
 20
60.6048
 30
0.0
 11
84.5704
 21
60.6048
 31
0.0
  0
LINE
  8
0
 62
     0
 10
84.5704
 20
60.6048
 30
0.0
 11
84.5704
 21
63.7053
 31
0.0
  0
LINE
  8
0
 62
     0
 10
84.5704
 20
63.7053
 30
0.0
 11
83.7696
 21
63.7053
 31
0.0
  0
LINE
  8
0
 62
     0
 10
83.7696
 20
63.7053
 30
0.0
 11
83.7696
 21
64.7044
 31
0.0
  0
LINE
  8
0
 62
     0
 10
83.7696
 20
64.7044
 30
0.0
 11
69.7699
 21
64.7044
 31
0.0
  0
LINE
  8
0
 62
     0
 10
88.8199
 20
64.7044
 30
0.0
 11
88.8199
 21
63.7053
 31
0.0
  0
LINE
  8
0
 62
     0
 10
88.8199
 20
63.7053
 30
0.0
 11
88.0195
 21
63.7053
 31
0.0
  0
LINE
  8
0
 62
     0
 10
88.0195
 20
63.7053
 30
0.0
 11
88.0195
 21
60.6048
 31
0.0
  0
LINE
  8
0
 62
     0
 10
88.0195
 20
60.6048
 30
0.0
 11
88.8199
 21
60.6048
 31
0.0
  0
LINE
  8
0
 62
     0
 10
88.8199
 20
60.6048
 30
0.0
 11
88.8199
 21
54.8047
 31
0.0
  0
LINE
  8
0
 62
     0
 10
88.8199
 20
54.8047
 30
0.0
 11
88.0195
 21
54.8047
 31
0.0
  0
LINE
  8
0
 62
     0
 10
88.0195
 20
54.8047
 30
0.0
 11
88.0195
 21
51.7052
 31
0.0
  0
LINE
  8
0
 62
     0
 10
88.0195
 20
51.7052
 30
0.0
 11
88.8199
 21
51.7052
 31
0.0
  0
LINE
  8
0
 62
     0
 10
88.8199
 20
51.7052
 30
0.0
 11
88.8199
 21
50.7047
 31
0.0
  0
LINE
  8
0
 62
     0
 10
88.8199
 20
50.7047
 30
0.0
 11
102.82
 21
50.7047
 31
0.0
  0
LINE
  8
0
 62
     0
 10
102.82
 20
50.7047
 30
0.0
 11
102.82
 21
51.7052
 31
0.0
  0
LINE
  8
0
 62
     0
 10
102.82
 20
51.7052
 30
0.0
 11
103.619
 21
51.7052
 31
0.0
  0
LINE
  8
0
 62
     0
 10
103.619
 20
51.7052
 30
0.0
 11
103.619
 21
54.8047
 31
0.0
  0
LINE
  8
0
 62
     0
 10
103.619
 20
54.8047
 30
0.0
 11
102.82
 21
54.8047
 31
0.0
  0
LINE
  8
0
 62
     0
 10
102.82
 20
54.8047
 30
0.0
 11
102.82
 21
60.6048
 31
0.0
  0
LINE
  8
0
 62
     0
 10
102.82
 20
60.6048
 30
0.0
 11
103.619
 21
60.6048
 31
0.0
  0
LINE
  8
0
 62
     0
 10
103.619
 20
60.6048
 30
0.0
 11
103.619
 21
63.7053
 31
0.0
  0
LINE
  8
0
 62
     0
 10
103.619
 20
63.7053
 30
0.0
 11
102.82
 21
63.7053
 31
0.0
  0
LINE
  8
0
 62
     0
 10
102.82
 20
63.7053
 30
0.0
 11
102.82
 21
64.7044
 31
0.0
  0
LINE
  8
0
 62
     0
 10
102.82
 20
64.7044
 30
0.0
 11
88.8199
 21
64.7044
 31
0.0
  0
LINE
  8
0
 62
     0
 10
107.869
 20
64.7044
 30
0.0
 11
107.869
 21
63.7053
 31
0.0
  0
LINE
  8
0
 62
     0
 10
107.869
 20
63.7053
 30
0.0
 11
107.069
 21
63.7053
 31
0.0
  0
LINE
  8
0
 62
     0
 10
107.069
 20
63.7053
 30
0.0
 11
107.069
 21
60.6048
 31
0.0
  0
LINE
  8
0
 62
     0
 10
107.069
 20
60.6048
 30
0.0
 11
107.869
 21
60.6048
 31
0.0
  0
LINE
  8
0
 62
     0
 10
107.869
 20
60.6048
 30
0.0
 11
107.869
 21
54.8047
 31
0.0
  0
LINE
  8
0
 62
     0
 10
107.869
 20
54.8047
 30
0.0
 11
107.069
 21
54.8047
 31
0.0
  0
LINE
  8
0
 62
     0
 10
107.069
 20
54.8047
 30
0.0
 11
107.069
 21
51.7052
 31
0.0
  0
LINE
  8
0
 62
     0
 10
107.069
 20
51.7052
 30
0.0
 11
107.869
 21
51.7052
 31
0.0
  0
LINE
  8
0
 62
     0
 10
107.869
 20
51.7052
 30
0.0
 11
107.869
 21
50.7047
 31
0.0
  0
LINE
  8
0
 62
     0
 10
107.869
 20
50.7047
 30
0.0
 11
121.868
 21
50.7047
 31
0.0
  0
LINE
  8
0
 62
     0
 10
121.868
 20
50.7047
 30
0.0
 11
121.868
 21
51.7052
 31
0.0
  0
LINE
  8
0
 62
     0
 10
121.868
 20
51.7052
 30
0.0
 11
122.669
 21
51.7052
 31
0.0
  0
LINE
  8
0
 62
     0
 10
122.669
 20
51.7052
 30
0.0
 11
122.669
 21
54.8047
 31
0.0
  0
LINE
  8
0
 62
     0
 10
122.669
 20
54.8047
 30
0.0
 11
121.868
 21
54.8047
 31
0.0
  0
LINE
  8
0
 62
     0
 10
121.868
 20
54.8047
 30
0.0
 11
121.868
 21
60.6048
 31
0.0
  0
LINE
  8
0
 62
     0
 10
121.868
 20
60.6048
 30
0.0
 11
122.669
 21
60.6048
 31
0.0
  0
LINE
  8
0
 62
     0
 10
122.669
 20
60.6048
 30
0.0
 11
122.669
 21
63.7053
 31
0.0
  0
LINE
  8
0
 62
     0
 10
122.669
 20
63.7053
 30
0.0
 11
121.868
 21
63.7053
 31
0.0
  0
LINE
  8
0
 62
     0
 10
121.868
 20
63.7053
 30
0.0
 11
121.868
 21
64.7044
 31
0.0
  0
LINE
  8
0
 62
     0
 10
121.868
 20
64.7044
 30
0.0
 11
107.869
 21
64.7044
 31
0.0
  0
LINE
  8
0
 62
     0
 10
126.92
 20
64.7044
 30
0.0
 11
126.92
 21
63.7053
 31
0.0
  0
LINE
  8
0
 62
     0
 10
126.92
 20
63.7053
 30
0.0
 11
126.119
 21
63.7053
 31
0.0
  0
LINE
  8
0
 62
     0
 10
126.119
 20
63.7053
 30
0.0
 11
126.119
 21
60.6048
 31
0.0
  0
LINE
  8
0
 62
     0
 10
126.119
 20
60.6048
 30
0.0
 11
126.92
 21
60.6048
 31
0.0
  0
LINE
  8
0
 62
     0
 10
126.92
 20
60.6048
 30
0.0
 11
126.92
 21
54.8047
 31
0.0
  0
LINE
  8
0
 62
     0
 10
126.92
 20
54.8047
 30
0.0
 11
126.119
 21
54.8047
 31
0.0
  0
LINE
  8
0
 62
     0
 10
126.119
 20
54.8047
 30
0.0
 11
126.119
 21
51.7052
 31
0.0
  0
LINE
  8
0
 62
     0
 10
126.119
 20
51.7052
 30
0.0
 11
126.92
 21
51.7052
 31
0.0
  0
LINE
  8
0
 62
     0
 10
126.92
 20
51.7052
 30
0.0
 11
126.92
 21
50.7047
 31
0.0
  0
LINE
  8
0
 62
     0
 10
126.92
 20
50.7047
 30
0.0
 11
140.92
 21
50.7047
 31
0.0
  0
LINE
  8
0
 62
     0
 10
140.92
 20
50.7047
 30
0.0
 11
140.92
 21
51.7052
 31
0.0
  0
LINE
  8
0
 62
     0
 10
140.92
 20
51.7052
 30
0.0
 11
141.72
 21
51.7052
 31
0.0
  0
LINE
  8
0
 62
     0
 10
141.72
 20
51.7052
 30
0.0
 11
141.72
 21
54.8047
 31
0.0
  0
LINE
  8
0
 62
     0
 10
141.72
 20
54.8047
 30
0.0
 11
140.92
 21
54.8047
 31
0.0
  0
LINE
  8
0
 62
     0
 10
140.92
 20
54.8047
 30
0.0
 11
140.92
 21
60.6048
 31
0.0
  0
LINE
  8
0
 62
     0
 10
140.92
 20
60.6048
 30
0.0
 11
141.72
 21
60.6048
 31
0.0
  0
LINE
  8
0
 62
     0
 10
141.72
 20
60.6048
 30
0.0
 11
141.72
 21
63.7053
 31
0.0
  0
LINE
  8
0
 62
     0
 10
141.72
 20
63.7053
 30
0.0
 11
140.92
 21
63.7053
 31
0.0
  0
LINE
  8
0
 62
     0
 10
140.92
 20
63.7053
 30
0.0
 11
140.92
 21
64.7044
 31
0.0
  0
LINE
  8
0
 62
     0
 10
140.92
 20
64.7044
 30
0.0
 11
126.92
 21
64.7044
 31
0.0
  0
LINE
  8
0
 62
     0
 10
145.97
 20
64.7044
 30
0.0
 11
145.97
 21
63.7053
 31
0.0
  0
LINE
  8
0
 62
     0
 10
145.97
 20
63.7053
 30
0.0
 11
145.169
 21
63.7053
 31
0.0
  0
LINE
  8
0
 62
     0
 10
145.169
 20
63.7053
 30
0.0
 11
145.169
 21
60.6048
 31
0.0
  0
LINE
  8
0
 62
     0
 10
145.169
 20
60.6048
 30
0.0
 11
145.97
 21
60.6048
 31
0.0
  0
LINE
  8
0
 62
     0
 10
145.97
 20
60.6048
 30
0.0
 11
145.97
 21
54.8047
 31
0.0
  0
LINE
  8
0
 62
     0
 10
145.97
 20
54.8047
 30
0.0
 11
145.169
 21
54.8047
 31
0.0
  0
LINE
  8
0
 62
     0
 10
145.169
 20
54.8047
 30
0.0
 11
145.169
 21
51.7052
 31
0.0
  0
LINE
  8
0
 62
     0
 10
145.169
 20
51.7052
 30
0.0
 11
145.97
 21
51.7052
 31
0.0
  0
LINE
  8
0
 62
     0
 10
145.97
 20
51.7052
 30
0.0
 11
145.97
 21
50.7047
 31
0.0
  0
LINE
  8
0
 62
     0
 10
145.97
 20
50.7047
 30
0.0
 11
159.97
 21
50.7047
 31
0.0
  0
LINE
  8
0
 62
     0
 10
159.97
 20
50.7047
 30
0.0
 11
159.97
 21
51.7052
 31
0.0
  0
LINE
  8
0
 62
     0
 10
159.97
 20
51.7052
 30
0.0
 11
160.77
 21
51.7052
 31
0.0
  0
LINE
  8
0
 62
     0
 10
160.77
 20
51.7052
 30
0.0
 11
160.77
 21
54.8047
 31
0.0
  0
LINE
  8
0
 62
     0
 10
160.77
 20
54.8047
 30
0.0
 11
159.97
 21
54.8047
 31
0.0
  0
LINE
  8
0
 62
     0
 10
159.97
 20
54.8047
 30
0.0
 11
159.97
 21
60.6048
 31
0.0
  0
LINE
  8
0
 62
     0
 10
159.97
 20
60.6048
 30
0.0
 11
160.77
 21
60.6048
 31
0.0
  0
LINE
  8
0
 62
     0
 10
160.77
 20
60.6048
 30
0.0
 11
160.77
 21
63.7053
 31
0.0
  0
LINE
  8
0
 62
     0
 10
160.77
 20
63.7053
 30
0.0
 11
159.97
 21
63.7053
 31
0.0
  0
LINE
  8
0
 62
     0
 10
159.97
 20
63.7053
 30
0.0
 11
159.97
 21
64.7044
 31
0.0
  0
LINE
  8
0
 62
     0
 10
159.97
 20
64.7044
 30
0.0
 11
145.97
 21
64.7044
 31
0.0
  0
LINE
  8
0
 62
     0
 10
165.02
 20
64.7044
 30
0.0
 11
165.02
 21
63.7053
 31
0.0
  0
LINE
  8
0
 62
     0
 10
165.02
 20
63.7053
 30
0.0
 11
164.219
 21
63.7053
 31
0.0
  0
LINE
  8
0
 62
     0
 10
164.219
 20
63.7053
 30
0.0
 11
164.219
 21
60.6048
 31
0.0
  0
LINE
  8
0
 62
     0
 10
164.219
 20
60.6048
 30
0.0
 11
165.02
 21
60.6048
 31
0.0
  0
LINE
  8
0
 62
     0
 10
165.02
 20
60.6048
 30
0.0
 11
165.02
 21
54.8047
 31
0.0
  0
LINE
  8
0
 62
     0
 10
165.02
 20
54.8047
 30
0.0
 11
164.219
 21
54.8047
 31
0.0
  0
LINE
  8
0
 62
     0
 10
164.219
 20
54.8047
 30
0.0
 11
164.219
 21
51.7052
 31
0.0
  0
LINE
  8
0
 62
     0
 10
164.219
 20
51.7052
 30
0.0
 11
165.02
 21
51.7052
 31
0.0
  0
LINE
  8
0
 62
     0
 10
165.02
 20
51.7052
 30
0.0
 11
165.02
 21
50.7047
 31
0.0
  0
LINE
  8
0
 62
     0
 10
165.02
 20
50.7047
 30
0.0
 11
179.02
 21
50.7047
 31
0.0
  0
LINE
  8
0
 62
     0
 10
179.02
 20
50.7047
 30
0.0
 11
179.02
 21
51.7052
 31
0.0
  0
LINE
  8
0
 62
     0
 10
179.02
 20
51.7052
 30
0.0
 11
179.82
 21
51.7052
 31
0.0
  0
LINE
  8
0
 62
     0
 10
179.82
 20
51.7052
 30
0.0
 11
179.82
 21
54.8047
 31
0.0
  0
LINE
  8
0
 62
     0
 10
179.82
 20
54.8047
 30
0.0
 11
179.02
 21
54.8047
 31
0.0
  0
LINE
  8
0
 62
     0
 10
179.02
 20
54.8047
 30
0.0
 11
179.02
 21
60.6048
 31
0.0
  0
LINE
  8
0
 62
     0
 10
179.02
 20
60.6048
 30
0.0
 11
179.82
 21
60.6048
 31
0.0
  0
LINE
  8
0
 62
     0
 10
179.82
 20
60.6048
 30
0.0
 11
179.82
 21
63.7053
 31
0.0
  0
LINE
  8
0
 62
     0
 10
179.82
 20
63.7053
 30
0.0
 11
179.02
 21
63.7053
 31
0.0
  0
LINE
  8
0
 62
     0
 10
179.02
 20
63.7053
 30
0.0
 11
179.02
 21
64.7044
 31
0.0
  0
LINE
  8
0
 62
     0
 10
179.02
 20
64.7044
 30
0.0
 11
165.02
 21
64.7044
 31
0.0
  0
LINE
  8
0
 62
     0
 10
184.07
 20
64.7044
 30
0.0
 11
184.07
 21
63.7053
 31
0.0
  0
LINE
  8
0
 62
     0
 10
184.07
 20
63.7053
 30
0.0
 11
183.269
 21
63.7053
 31
0.0
  0
LINE
  8
0
 62
     0
 10
183.269
 20
63.7053
 30
0.0
 11
183.269
 21
60.6048
 31
0.0
  0
LINE
  8
0
 62
     0
 10
183.269
 20
60.6048
 30
0.0
 11
184.07
 21
60.6048
 31
0.0
  0
LINE
  8
0
 62
     0
 10
184.07
 20
60.6048
 30
0.0
 11
184.07
 21
54.8047
 31
0.0
  0
LINE
  8
0
 62
     0
 10
184.07
 20
54.8047
 30
0.0
 11
183.269
 21
54.8047
 31
0.0
  0
LINE
  8
0
 62
     0
 10
183.269
 20
54.8047
 30
0.0
 11
183.269
 21
51.7052
 31
0.0
  0
LINE
  8
0
 62
     0
 10
183.269
 20
51.7052
 30
0.0
 11
184.07
 21
51.7052
 31
0.0
  0
LINE
  8
0
 62
     0
 10
184.07
 20
51.7052
 30
0.0
 11
184.07
 21
50.7047
 31
0.0
  0
LINE
  8
0
 62
     0
 10
184.07
 20
50.7047
 30
0.0
 11
198.07
 21
50.7047
 31
0.0
  0
LINE
  8
0
 62
     0
 10
198.07
 20
50.7047
 30
0.0
 11
198.07
 21
51.7052
 31
0.0
  0
LINE
  8
0
 62
     0
 10
198.07
 20
51.7052
 30
0.0
 11
198.87
 21
51.7052
 31
0.0
  0
LINE
  8
0
 62
     0
 10
198.87
 20
51.7052
 30
0.0
 11
198.87
 21
54.8047
 31
0.0
  0
LINE
  8
0
 62
     0
 10
198.87
 20
54.8047
 30
0.0
 11
198.07
 21
54.8047
 31
0.0
  0
LINE
  8
0
 62
     0
 10
198.07
 20
54.8047
 30
0.0
 11
198.07
 21
60.6048
 31
0.0
  0
LINE
  8
0
 62
     0
 10
198.07
 20
60.6048
 30
0.0
 11
198.87
 21
60.6048
 31
0.0
  0
LINE
  8
0
 62
     0
 10
198.87
 20
60.6048
 30
0.0
 11
198.87
 21
63.7053
 31
0.0
  0
LINE
  8
0
 62
     0
 10
198.87
 20
63.7053
 30
0.0
 11
198.07
 21
63.7053
 31
0.0
  0
LINE
  8
0
 62
     0
 10
198.07
 20
63.7053
 30
0.0
 11
198.07
 21
64.7044
 31
0.0
  0
LINE
  8
0
 62
     0
 10
198.07
 20
64.7044
 30
0.0
 11
184.07
 21
64.7044
 31
0.0
  0
LINE
  8
0
 62
     0
 10
203.12
 20
64.7044
 30
0.0
 11
203.12
 21
63.7053
 31
0.0
  0
LINE
  8
0
 62
     0
 10
203.12
 20
63.7053
 30
0.0
 11
202.319
 21
63.7053
 31
0.0
  0
LINE
  8
0
 62
     0
 10
202.319
 20
63.7053
 30
0.0
 11
202.319
 21
60.6048
 31
0.0
  0
LINE
  8
0
 62
     0
 10
202.319
 20
60.6048
 30
0.0
 11
203.12
 21
60.6048
 31
0.0
  0
LINE
  8
0
 62
     0
 10
203.12
 20
60.6048
 30
0.0
 11
203.12
 21
54.8047
 31
0.0
  0
LINE
  8
0
 62
     0
 10
203.12
 20
54.8047
 30
0.0
 11
202.319
 21
54.8047
 31
0.0
  0
LINE
  8
0
 62
     0
 10
202.319
 20
54.8047
 30
0.0
 11
202.319
 21
51.7052
 31
0.0
  0
LINE
  8
0
 62
     0
 10
202.319
 20
51.7052
 30
0.0
 11
203.12
 21
51.7052
 31
0.0
  0
LINE
  8
0
 62
     0
 10
203.12
 20
51.7052
 30
0.0
 11
203.12
 21
50.7047
 31
0.0
  0
LINE
  8
0
 62
     0
 10
203.12
 20
50.7047
 30
0.0
 11
217.12
 21
50.7047
 31
0.0
  0
LINE
  8
0
 62
     0
 10
217.12
 20
50.7047
 30
0.0
 11
217.12
 21
51.7052
 31
0.0
  0
LINE
  8
0
 62
     0
 10
217.12
 20
51.7052
 30
0.0
 11
217.92
 21
51.7052
 31
0.0
  0
LINE
  8
0
 62
     0
 10
217.92
 20
51.7052
 30
0.0
 11
217.92
 21
54.8047
 31
0.0
  0
LINE
  8
0
 62
     0
 10
217.92
 20
54.8047
 30
0.0
 11
217.12
 21
54.8047
 31
0.0
  0
LINE
  8
0
 62
     0
 10
217.12
 20
54.8047
 30
0.0
 11
217.12
 21
60.6048
 31
0.0
  0
LINE
  8
0
 62
     0
 10
217.12
 20
60.6048
 30
0.0
 11
217.92
 21
60.6048
 31
0.0
  0
LINE
  8
0
 62
     0
 10
217.92
 20
60.6048
 30
0.0
 11
217.92
 21
63.7053
 31
0.0
  0
LINE
  8
0
 62
     0
 10
217.92
 20
63.7053
 30
0.0
 11
217.12
 21
63.7053
 31
0.0
  0
LINE
  8
0
 62
     0
 10
217.12
 20
63.7053
 30
0.0
 11
217.12
 21
64.7044
 31
0.0
  0
LINE
  8
0
 62
     0
 10
217.12
 20
64.7044
 30
0.0
 11
203.12
 21
64.7044
 31
0.0
  0
LINE
  8
0
 62
     0
 10
222.17
 20
64.7044
 30
0.0
 11
222.17
 21
63.7053
 31
0.0
  0
LINE
  8
0
 62
     0
 10
222.17
 20
63.7053
 30
0.0
 11
221.369
 21
63.7053
 31
0.0
  0
LINE
  8
0
 62
     0
 10
221.369
 20
63.7053
 30
0.0
 11
221.369
 21
60.6048
 31
0.0
  0
LINE
  8
0
 62
     0
 10
221.369
 20
60.6048
 30
0.0
 11
222.17
 21
60.6048
 31
0.0
  0
LINE
  8
0
 62
     0
 10
222.17
 20
60.6048
 30
0.0
 11
222.17
 21
54.8047
 31
0.0
  0
LINE
  8
0
 62
     0
 10
222.17
 20
54.8047
 30
0.0
 11
221.369
 21
54.8047
 31
0.0
  0
LINE
  8
0
 62
     0
 10
221.369
 20
54.8047
 30
0.0
 11
221.369
 21
51.7052
 31
0.0
  0
LINE
  8
0
 62
     0
 10
221.369
 20
51.7052
 30
0.0
 11
222.17
 21
51.7052
 31
0.0
  0
LINE
  8
0
 62
     0
 10
222.17
 20
51.7052
 30
0.0
 11
222.17
 21
50.7047
 31
0.0
  0
LINE
  8
0
 62
     0
 10
222.17
 20
50.7047
 30
0.0
 11
236.17
 21
50.7047
 31
0.0
  0
LINE
  8
0
 62
     0
 10
236.17
 20
50.7047
 30
0.0
 11
236.17
 21
51.7052
 31
0.0
  0
LINE
  8
0
 62
     0
 10
236.17
 20
51.7052
 30
0.0
 11
236.97
 21
51.7052
 31
0.0
  0
LINE
  8
0
 62
     0
 10
236.97
 20
51.7052
 30
0.0
 11
236.97
 21
54.8047
 31
0.0
  0
LINE
  8
0
 62
     0
 10
236.97
 20
54.8047
 30
0.0
 11
236.17
 21
54.8047
 31
0.0
  0
LINE
  8
0
 62
     0
 10
236.17
 20
54.8047
 30
0.0
 11
236.17
 21
60.6048
 31
0.0
  0
LINE
  8
0
 62
     0
 10
236.17
 20
60.6048
 30
0.0
 11
236.97
 21
60.6048
 31
0.0
  0
LINE
  8
0
 62
     0
 10
236.97
 20
60.6048
 30
0.0
 11
236.97
 21
63.7053
 31
0.0
  0
LINE
  8
0
 62
     0
 10
236.97
 20
63.7053
 30
0.0
 11
236.17
 21
63.7053
 31
0.0
  0
LINE
  8
0
 62
     0
 10
236.17
 20
63.7053
 30
0.0
 11
236.17
 21
64.7044
 31
0.0
  0
LINE
  8
0
 62
     0
 10
236.17
 20
64.7044
 30
0.0
 11
222.17
 21
64.7044
 31
0.0
  0
LINE
  8
0
 62
     0
 10
12.6201
 20
83.7544
 30
0.0
 11
12.6201
 21
82.7553
 31
0.0
  0
LINE
  8
0
 62
     0
 10
12.6201
 20
82.7553
 30
0.0
 11
11.8194
 21
82.7553
 31
0.0
  0
LINE
  8
0
 62
     0
 10
11.8194
 20
82.7553
 30
0.0
 11
11.8194
 21
79.6548
 31
0.0
  0
LINE
  8
0
 62
     0
 10
11.8194
 20
79.6548
 30
0.0
 11
12.6201
 21
79.6548
 31
0.0
  0
LINE
  8
0
 62
     0
 10
12.6201
 20
79.6548
 30
0.0
 11
12.6201
 21
73.8558
 31
0.0
  0
LINE
  8
0
 62
     0
 10
12.6201
 20
73.8558
 30
0.0
 11
11.8194
 21
73.8558
 31
0.0
  0
LINE
  8
0
 62
     0
 10
11.8194
 20
73.8558
 30
0.0
 11
11.8194
 21
70.7552
 31
0.0
  0
LINE
  8
0
 62
     0
 10
11.8194
 20
70.7552
 30
0.0
 11
12.6201
 21
70.7552
 31
0.0
  0
LINE
  8
0
 62
     0
 10
12.6201
 20
70.7552
 30
0.0
 11
12.6201
 21
69.7547
 31
0.0
  0
LINE
  8
0
 62
     0
 10
12.6201
 20
69.7547
 30
0.0
 11
26.6196
 21
69.7547
 31
0.0
  0
LINE
  8
0
 62
     0
 10
26.6196
 20
69.7547
 30
0.0
 11
26.6196
 21
70.7552
 31
0.0
  0
LINE
  8
0
 62
     0
 10
26.6196
 20
70.7552
 30
0.0
 11
27.4175
 21
70.7552
 31
0.0
  0
LINE
  8
0
 62
     0
 10
27.4175
 20
70.7552
 30
0.0
 11
27.4175
 21
73.8558
 31
0.0
  0
LINE
  8
0
 62
     0
 10
27.4175
 20
73.8558
 30
0.0
 11
26.6196
 21
73.8558
 31
0.0
  0
LINE
  8
0
 62
     0
 10
26.6196
 20
73.8558
 30
0.0
 11
26.6196
 21
79.6548
 31
0.0
  0
LINE
  8
0
 62
     0
 10
26.6196
 20
79.6548
 30
0.0
 11
27.4175
 21
79.6548
 31
0.0
  0
LINE
  8
0
 62
     0
 10
27.4175
 20
79.6548
 30
0.0
 11
27.4175
 21
82.7553
 31
0.0
  0
LINE
  8
0
 62
     0
 10
27.4175
 20
82.7553
 30
0.0
 11
26.6196
 21
82.7553
 31
0.0
  0
LINE
  8
0
 62
     0
 10
26.6196
 20
82.7553
 30
0.0
 11
26.6196
 21
83.7544
 31
0.0
  0
LINE
  8
0
 62
     0
 10
26.6196
 20
83.7544
 30
0.0
 11
12.6201
 21
83.7544
 31
0.0
  0
LINE
  8
0
 62
     0
 10
31.6701
 20
83.7544
 30
0.0
 11
31.6701
 21
82.7553
 31
0.0
  0
LINE
  8
0
 62
     0
 10
31.6701
 20
82.7553
 30
0.0
 11
30.8694
 21
82.7553
 31
0.0
  0
LINE
  8
0
 62
     0
 10
30.8694
 20
82.7553
 30
0.0
 11
30.8694
 21
79.6548
 31
0.0
  0
LINE
  8
0
 62
     0
 10
30.8694
 20
79.6548
 30
0.0
 11
31.6701
 21
79.6548
 31
0.0
  0
LINE
  8
0
 62
     0
 10
31.6701
 20
79.6548
 30
0.0
 11
31.6701
 21
73.8558
 31
0.0
  0
LINE
  8
0
 62
     0
 10
31.6701
 20
73.8558
 30
0.0
 11
30.8694
 21
73.8558
 31
0.0
  0
LINE
  8
0
 62
     0
 10
30.8694
 20
73.8558
 30
0.0
 11
30.8694
 21
70.7552
 31
0.0
  0
LINE
  8
0
 62
     0
 10
30.8694
 20
70.7552
 30
0.0
 11
31.6701
 21
70.7552
 31
0.0
  0
LINE
  8
0
 62
     0
 10
31.6701
 20
70.7552
 30
0.0
 11
31.6701
 21
69.7547
 31
0.0
  0
LINE
  8
0
 62
     0
 10
31.6701
 20
69.7547
 30
0.0
 11
45.6696
 21
69.7547
 31
0.0
  0
LINE
  8
0
 62
     0
 10
45.6696
 20
69.7547
 30
0.0
 11
45.6696
 21
70.7552
 31
0.0
  0
LINE
  8
0
 62
     0
 10
45.6696
 20
70.7552
 30
0.0
 11
46.4704
 21
70.7552
 31
0.0
  0
LINE
  8
0
 62
     0
 10
46.4704
 20
70.7552
 30
0.0
 11
46.4704
 21
73.8558
 31
0.0
  0
LINE
  8
0
 62
     0
 10
46.4704
 20
73.8558
 30
0.0
 11
45.6696
 21
73.8558
 31
0.0
  0
LINE
  8
0
 62
     0
 10
45.6696
 20
73.8558
 30
0.0
 11
45.6696
 21
79.6548
 31
0.0
  0
LINE
  8
0
 62
     0
 10
45.6696
 20
79.6548
 30
0.0
 11
46.4704
 21
79.6548
 31
0.0
  0
LINE
  8
0
 62
     0
 10
46.4704
 20
79.6548
 30
0.0
 11
46.4704
 21
82.7553
 31
0.0
  0
LINE
  8
0
 62
     0
 10
46.4704
 20
82.7553
 30
0.0
 11
45.6696
 21
82.7553
 31
0.0
  0
LINE
  8
0
 62
     0
 10
45.6696
 20
82.7553
 30
0.0
 11
45.6696
 21
83.7544
 31
0.0
  0
LINE
  8
0
 62
     0
 10
45.6696
 20
83.7544
 30
0.0
 11
31.6701
 21
83.7544
 31
0.0
  0
LINE
  8
0
 62
     0
 10
50.7199
 20
83.7544
 30
0.0
 11
50.7199
 21
82.7553
 31
0.0
  0
LINE
  8
0
 62
     0
 10
50.7199
 20
82.7553
 30
0.0
 11
49.9195
 21
82.7553
 31
0.0
  0
LINE
  8
0
 62
     0
 10
49.9195
 20
82.7553
 30
0.0
 11
49.9195
 21
79.6548
 31
0.0
  0
LINE
  8
0
 62
     0
 10
49.9195
 20
79.6548
 30
0.0
 11
50.7199
 21
79.6548
 31
0.0
  0
LINE
  8
0
 62
     0
 10
50.7199
 20
79.6548
 30
0.0
 11
50.7199
 21
73.8558
 31
0.0
  0
LINE
  8
0
 62
     0
 10
50.7199
 20
73.8558
 30
0.0
 11
49.9195
 21
73.8558
 31
0.0
  0
LINE
  8
0
 62
     0
 10
49.9195
 20
73.8558
 30
0.0
 11
49.9195
 21
70.7552
 31
0.0
  0
LINE
  8
0
 62
     0
 10
49.9195
 20
70.7552
 30
0.0
 11
50.7199
 21
70.7552
 31
0.0
  0
LINE
  8
0
 62
     0
 10
50.7199
 20
70.7552
 30
0.0
 11
50.7199
 21
69.7547
 31
0.0
  0
LINE
  8
0
 62
     0
 10
50.7199
 20
69.7547
 30
0.0
 11
64.7196
 21
69.7547
 31
0.0
  0
LINE
  8
0
 62
     0
 10
64.7196
 20
69.7547
 30
0.0
 11
64.7196
 21
70.7552
 31
0.0
  0
LINE
  8
0
 62
     0
 10
64.7196
 20
70.7552
 30
0.0
 11
65.5204
 21
70.7552
 31
0.0
  0
LINE
  8
0
 62
     0
 10
65.5204
 20
70.7552
 30
0.0
 11
65.5204
 21
73.8558
 31
0.0
  0
LINE
  8
0
 62
     0
 10
65.5204
 20
73.8558
 30
0.0
 11
64.7196
 21
73.8558
 31
0.0
  0
LINE
  8
0
 62
     0
 10
64.7196
 20
73.8558
 30
0.0
 11
64.7196
 21
79.6548
 31
0.0
  0
LINE
  8
0
 62
     0
 10
64.7196
 20
79.6548
 30
0.0
 11
65.5204
 21
79.6548
 31
0.0
  0
LINE
  8
0
 62
     0
 10
65.5204
 20
79.6548
 30
0.0
 11
65.5204
 21
82.7553
 31
0.0
  0
LINE
  8
0
 62
     0
 10
65.5204
 20
82.7553
 30
0.0
 11
64.7196
 21
82.7553
 31
0.0
  0
LINE
  8
0
 62
     0
 10
64.7196
 20
82.7553
 30
0.0
 11
64.7196
 21
83.7544
 31
0.0
  0
LINE
  8
0
 62
     0
 10
64.7196
 20
83.7544
 30
0.0
 11
50.7199
 21
83.7544
 31
0.0
  0
LINE
  8
0
 62
     0
 10
69.7699
 20
83.7544
 30
0.0
 11
69.7699
 21
82.7553
 31
0.0
  0
LINE
  8
0
 62
     0
 10
69.7699
 20
82.7553
 30
0.0
 11
68.9695
 21
82.7553
 31
0.0
  0
LINE
  8
0
 62
     0
 10
68.9695
 20
82.7553
 30
0.0
 11
68.9695
 21
79.6548
 31
0.0
  0
LINE
  8
0
 62
     0
 10
68.9695
 20
79.6548
 30
0.0
 11
69.7699
 21
79.6548
 31
0.0
  0
LINE
  8
0
 62
     0
 10
69.7699
 20
79.6548
 30
0.0
 11
69.7699
 21
73.8558
 31
0.0
  0
LINE
  8
0
 62
     0
 10
69.7699
 20
73.8558
 30
0.0
 11
68.9695
 21
73.8558
 31
0.0
  0
LINE
  8
0
 62
     0
 10
68.9695
 20
73.8558
 30
0.0
 11
68.9695
 21
70.7552
 31
0.0
  0
LINE
  8
0
 62
     0
 10
68.9695
 20
70.7552
 30
0.0
 11
69.7699
 21
70.7552
 31
0.0
  0
LINE
  8
0
 62
     0
 10
69.7699
 20
70.7552
 30
0.0
 11
69.7699
 21
69.7547
 31
0.0
  0
LINE
  8
0
 62
     0
 10
69.7699
 20
69.7547
 30
0.0
 11
83.7696
 21
69.7547
 31
0.0
  0
LINE
  8
0
 62
     0
 10
83.7696
 20
69.7547
 30
0.0
 11
83.7696
 21
70.7552
 31
0.0
  0
LINE
  8
0
 62
     0
 10
83.7696
 20
70.7552
 30
0.0
 11
84.5704
 21
70.7552
 31
0.0
  0
LINE
  8
0
 62
     0
 10
84.5704
 20
70.7552
 30
0.0
 11
84.5704
 21
73.8558
 31
0.0
  0
LINE
  8
0
 62
     0
 10
84.5704
 20
73.8558
 30
0.0
 11
83.7696
 21
73.8558
 31
0.0
  0
LINE
  8
0
 62
     0
 10
83.7696
 20
73.8558
 30
0.0
 11
83.7696
 21
79.6548
 31
0.0
  0
LINE
  8
0
 62
     0
 10
83.7696
 20
79.6548
 30
0.0
 11
84.5704
 21
79.6548
 31
0.0
  0
LINE
  8
0
 62
     0
 10
84.5704
 20
79.6548
 30
0.0
 11
84.5704
 21
82.7553
 31
0.0
  0
LINE
  8
0
 62
     0
 10
84.5704
 20
82.7553
 30
0.0
 11
83.7696
 21
82.7553
 31
0.0
  0
LINE
  8
0
 62
     0
 10
83.7696
 20
82.7553
 30
0.0
 11
83.7696
 21
83.7544
 31
0.0
  0
LINE
  8
0
 62
     0
 10
83.7696
 20
83.7544
 30
0.0
 11
69.7699
 21
83.7544
 31
0.0
  0
LINE
  8
0
 62
     0
 10
88.8199
 20
83.7544
 30
0.0
 11
88.8199
 21
82.7553
 31
0.0
  0
LINE
  8
0
 62
     0
 10
88.8199
 20
82.7553
 30
0.0
 11
88.0195
 21
82.7553
 31
0.0
  0
LINE
  8
0
 62
     0
 10
88.0195
 20
82.7553
 30
0.0
 11
88.0195
 21
79.6548
 31
0.0
  0
LINE
  8
0
 62
     0
 10
88.0195
 20
79.6548
 30
0.0
 11
88.8199
 21
79.6548
 31
0.0
  0
LINE
  8
0
 62
     0
 10
88.8199
 20
79.6548
 30
0.0
 11
88.8199
 21
73.8558
 31
0.0
  0
LINE
  8
0
 62
     0
 10
88.8199
 20
73.8558
 30
0.0
 11
88.0195
 21
73.8558
 31
0.0
  0
LINE
  8
0
 62
     0
 10
88.0195
 20
73.8558
 30
0.0
 11
88.0195
 21
70.7552
 31
0.0
  0
LINE
  8
0
 62
     0
 10
88.0195
 20
70.7552
 30
0.0
 11
88.8199
 21
70.7552
 31
0.0
  0
LINE
  8
0
 62
     0
 10
88.8199
 20
70.7552
 30
0.0
 11
88.8199
 21
69.7547
 31
0.0
  0
LINE
  8
0
 62
     0
 10
88.8199
 20
69.7547
 30
0.0
 11
102.82
 21
69.7547
 31
0.0
  0
LINE
  8
0
 62
     0
 10
102.82
 20
69.7547
 30
0.0
 11
102.82
 21
70.7552
 31
0.0
  0
LINE
  8
0
 62
     0
 10
102.82
 20
70.7552
 30
0.0
 11
103.619
 21
70.7552
 31
0.0
  0
LINE
  8
0
 62
     0
 10
103.619
 20
70.7552
 30
0.0
 11
103.619
 21
73.8558
 31
0.0
  0
LINE
  8
0
 62
     0
 10
103.619
 20
73.8558
 30
0.0
 11
102.82
 21
73.8558
 31
0.0
  0
LINE
  8
0
 62
     0
 10
102.82
 20
73.8558
 30
0.0
 11
102.82
 21
79.6548
 31
0.0
  0
LINE
  8
0
 62
     0
 10
102.82
 20
79.6548
 30
0.0
 11
103.619
 21
79.6548
 31
0.0
  0
LINE
  8
0
 62
     0
 10
103.619
 20
79.6548
 30
0.0
 11
103.619
 21
82.7553
 31
0.0
  0
LINE
  8
0
 62
     0
 10
103.619
 20
82.7553
 30
0.0
 11
102.82
 21
82.7553
 31
0.0
  0
LINE
  8
0
 62
     0
 10
102.82
 20
82.7553
 30
0.0
 11
102.82
 21
83.7544
 31
0.0
  0
LINE
  8
0
 62
     0
 10
102.82
 20
83.7544
 30
0.0
 11
88.8199
 21
83.7544
 31
0.0
  0
LINE
  8
0
 62
     0
 10
107.869
 20
83.7544
 30
0.0
 11
107.869
 21
82.7553
 31
0.0
  0
LINE
  8
0
 62
     0
 10
107.869
 20
82.7553
 30
0.0
 11
107.069
 21
82.7553
 31
0.0
  0
LINE
  8
0
 62
     0
 10
107.069
 20
82.7553
 30
0.0
 11
107.069
 21
79.6548
 31
0.0
  0
LINE
  8
0
 62
     0
 10
107.069
 20
79.6548
 30
0.0
 11
107.869
 21
79.6548
 31
0.0
  0
LINE
  8
0
 62
     0
 10
107.869
 20
79.6548
 30
0.0
 11
107.869
 21
73.8558
 31
0.0
  0
LINE
  8
0
 62
     0
 10
107.869
 20
73.8558
 30
0.0
 11
107.069
 21
73.8558
 31
0.0
  0
LINE
  8
0
 62
     0
 10
107.069
 20
73.8558
 30
0.0
 11
107.069
 21
70.7552
 31
0.0
  0
LINE
  8
0
 62
     0
 10
107.069
 20
70.7552
 30
0.0
 11
107.869
 21
70.7552
 31
0.0
  0
LINE
  8
0
 62
     0
 10
107.869
 20
70.7552
 30
0.0
 11
107.869
 21
69.7547
 31
0.0
  0
LINE
  8
0
 62
     0
 10
107.869
 20
69.7547
 30
0.0
 11
121.868
 21
69.7547
 31
0.0
  0
LINE
  8
0
 62
     0
 10
121.868
 20
69.7547
 30
0.0
 11
121.868
 21
70.7552
 31
0.0
  0
LINE
  8
0
 62
     0
 10
121.868
 20
70.7552
 30
0.0
 11
122.669
 21
70.7552
 31
0.0
  0
LINE
  8
0
 62
     0
 10
122.669
 20
70.7552
 30
0.0
 11
122.669
 21
73.8558
 31
0.0
  0
LINE
  8
0
 62
     0
 10
122.669
 20
73.8558
 30
0.0
 11
121.868
 21
73.8558
 31
0.0
  0
LINE
  8
0
 62
     0
 10
121.868
 20
73.8558
 30
0.0
 11
121.868
 21
79.6548
 31
0.0
  0
LINE
  8
0
 62
     0
 10
121.868
 20
79.6548
 30
0.0
 11
122.669
 21
79.6548
 31
0.0
  0
LINE
  8
0
 62
     0
 10
122.669
 20
79.6548
 30
0.0
 11
122.669
 21
82.7553
 31
0.0
  0
LINE
  8
0
 62
     0
 10
122.669
 20
82.7553
 30
0.0
 11
121.868
 21
82.7553
 31
0.0
  0
LINE
  8
0
 62
     0
 10
121.868
 20
82.7553
 30
0.0
 11
121.868
 21
83.7544
 31
0.0
  0
LINE
  8
0
 62
     0
 10
121.868
 20
83.7544
 30
0.0
 11
107.869
 21
83.7544
 31
0.0
  0
LINE
  8
0
 62
     0
 10
126.92
 20
83.7544
 30
0.0
 11
126.92
 21
82.7553
 31
0.0
  0
LINE
  8
0
 62
     0
 10
126.92
 20
82.7553
 30
0.0
 11
126.119
 21
82.7553
 31
0.0
  0
LINE
  8
0
 62
     0
 10
126.119
 20
82.7553
 30
0.0
 11
126.119
 21
79.6548
 31
0.0
  0
LINE
  8
0
 62
     0
 10
126.119
 20
79.6548
 30
0.0
 11
126.92
 21
79.6548
 31
0.0
  0
LINE
  8
0
 62
     0
 10
126.92
 20
79.6548
 30
0.0
 11
126.92
 21
73.8558
 31
0.0
  0
LINE
  8
0
 62
     0
 10
126.92
 20
73.8558
 30
0.0
 11
126.119
 21
73.8558
 31
0.0
  0
LINE
  8
0
 62
     0
 10
126.119
 20
73.8558
 30
0.0
 11
126.119
 21
70.7552
 31
0.0
  0
LINE
  8
0
 62
     0
 10
126.119
 20
70.7552
 30
0.0
 11
126.92
 21
70.7552
 31
0.0
  0
LINE
  8
0
 62
     0
 10
126.92
 20
70.7552
 30
0.0
 11
126.92
 21
69.7547
 31
0.0
  0
LINE
  8
0
 62
     0
 10
126.92
 20
69.7547
 30
0.0
 11
140.92
 21
69.7547
 31
0.0
  0
LINE
  8
0
 62
     0
 10
140.92
 20
69.7547
 30
0.0
 11
140.92
 21
70.7552
 31
0.0
  0
LINE
  8
0
 62
     0
 10
140.92
 20
70.7552
 30
0.0
 11
141.72
 21
70.7552
 31
0.0
  0
LINE
  8
0
 62
     0
 10
141.72
 20
70.7552
 30
0.0
 11
141.72
 21
73.8558
 31
0.0
  0
LINE
  8
0
 62
     0
 10
141.72
 20
73.8558
 30
0.0
 11
140.92
 21
73.8558
 31
0.0
  0
LINE
  8
0
 62
     0
 10
140.92
 20
73.8558
 30
0.0
 11
140.92
 21
79.6548
 31
0.0
  0
LINE
  8
0
 62
     0
 10
140.92
 20
79.6548
 30
0.0
 11
141.72
 21
79.6548
 31
0.0
  0
LINE
  8
0
 62
     0
 10
141.72
 20
79.6548
 30
0.0
 11
141.72
 21
82.7553
 31
0.0
  0
LINE
  8
0
 62
     0
 10
141.72
 20
82.7553
 30
0.0
 11
140.92
 21
82.7553
 31
0.0
  0
LINE
  8
0
 62
     0
 10
140.92
 20
82.7553
 30
0.0
 11
140.92
 21
83.7544
 31
0.0
  0
LINE
  8
0
 62
     0
 10
140.92
 20
83.7544
 30
0.0
 11
126.92
 21
83.7544
 31
0.0
  0
LINE
  8
0
 62
     0
 10
145.97
 20
83.7544
 30
0.0
 11
145.97
 21
82.7553
 31
0.0
  0
LINE
  8
0
 62
     0
 10
145.97
 20
82.7553
 30
0.0
 11
145.169
 21
82.7553
 31
0.0
  0
LINE
  8
0
 62
     0
 10
145.169
 20
82.7553
 30
0.0
 11
145.169
 21
79.6548
 31
0.0
  0
LINE
  8
0
 62
     0
 10
145.169
 20
79.6548
 30
0.0
 11
145.97
 21
79.6548
 31
0.0
  0
LINE
  8
0
 62
     0
 10
145.97
 20
79.6548
 30
0.0
 11
145.97
 21
73.8558
 31
0.0
  0
LINE
  8
0
 62
     0
 10
145.97
 20
73.8558
 30
0.0
 11
145.169
 21
73.8558
 31
0.0
  0
LINE
  8
0
 62
     0
 10
145.169
 20
73.8558
 30
0.0
 11
145.169
 21
70.7552
 31
0.0
  0
LINE
  8
0
 62
     0
 10
145.169
 20
70.7552
 30
0.0
 11
145.97
 21
70.7552
 31
0.0
  0
LINE
  8
0
 62
     0
 10
145.97
 20
70.7552
 30
0.0
 11
145.97
 21
69.7547
 31
0.0
  0
LINE
  8
0
 62
     0
 10
145.97
 20
69.7547
 30
0.0
 11
159.97
 21
69.7547
 31
0.0
  0
LINE
  8
0
 62
     0
 10
159.97
 20
69.7547
 30
0.0
 11
159.97
 21
70.7552
 31
0.0
  0
LINE
  8
0
 62
     0
 10
159.97
 20
70.7552
 30
0.0
 11
160.77
 21
70.7552
 31
0.0
  0
LINE
  8
0
 62
     0
 10
160.77
 20
70.7552
 30
0.0
 11
160.77
 21
73.8558
 31
0.0
  0
LINE
  8
0
 62
     0
 10
160.77
 20
73.8558
 30
0.0
 11
159.97
 21
73.8558
 31
0.0
  0
LINE
  8
0
 62
     0
 10
159.97
 20
73.8558
 30
0.0
 11
159.97
 21
79.6548
 31
0.0
  0
LINE
  8
0
 62
     0
 10
159.97
 20
79.6548
 30
0.0
 11
160.77
 21
79.6548
 31
0.0
  0
LINE
  8
0
 62
     0
 10
160.77
 20
79.6548
 30
0.0
 11
160.77
 21
82.7553
 31
0.0
  0
LINE
  8
0
 62
     0
 10
160.77
 20
82.7553
 30
0.0
 11
159.97
 21
82.7553
 31
0.0
  0
LINE
  8
0
 62
     0
 10
159.97
 20
82.7553
 30
0.0
 11
159.97
 21
83.7544
 31
0.0
  0
LINE
  8
0
 62
     0
 10
159.97
 20
83.7544
 30
0.0
 11
145.97
 21
83.7544
 31
0.0
  0
LINE
  8
0
 62
     0
 10
165.02
 20
83.7544
 30
0.0
 11
165.02
 21
82.7553
 31
0.0
  0
LINE
  8
0
 62
     0
 10
165.02
 20
82.7553
 30
0.0
 11
164.219
 21
82.7553
 31
0.0
  0
LINE
  8
0
 62
     0
 10
164.219
 20
82.7553
 30
0.0
 11
164.219
 21
79.6548
 31
0.0
  0
LINE
  8
0
 62
     0
 10
164.219
 20
79.6548
 30
0.0
 11
165.02
 21
79.6548
 31
0.0
  0
LINE
  8
0
 62
     0
 10
165.02
 20
79.6548
 30
0.0
 11
165.02
 21
73.8558
 31
0.0
  0
LINE
  8
0
 62
     0
 10
165.02
 20
73.8558
 30
0.0
 11
164.219
 21
73.8558
 31
0.0
  0
LINE
  8
0
 62
     0
 10
164.219
 20
73.8558
 30
0.0
 11
164.219
 21
70.7552
 31
0.0
  0
LINE
  8
0
 62
     0
 10
164.219
 20
70.7552
 30
0.0
 11
165.02
 21
70.7552
 31
0.0
  0
LINE
  8
0
 62
     0
 10
165.02
 20
70.7552
 30
0.0
 11
165.02
 21
69.7547
 31
0.0
  0
LINE
  8
0
 62
     0
 10
165.02
 20
69.7547
 30
0.0
 11
179.02
 21
69.7547
 31
0.0
  0
LINE
  8
0
 62
     0
 10
179.02
 20
69.7547
 30
0.0
 11
179.02
 21
70.7552
 31
0.0
  0
LINE
  8
0
 62
     0
 10
179.02
 20
70.7552
 30
0.0
 11
179.82
 21
70.7552
 31
0.0
  0
LINE
  8
0
 62
     0
 10
179.82
 20
70.7552
 30
0.0
 11
179.82
 21
73.8558
 31
0.0
  0
LINE
  8
0
 62
     0
 10
179.82
 20
73.8558
 30
0.0
 11
179.02
 21
73.8558
 31
0.0
  0
LINE
  8
0
 62
     0
 10
179.02
 20
73.8558
 30
0.0
 11
179.02
 21
79.6548
 31
0.0
  0
LINE
  8
0
 62
     0
 10
179.02
 20
79.6548
 30
0.0
 11
179.82
 21
79.6548
 31
0.0
  0
LINE
  8
0
 62
     0
 10
179.82
 20
79.6548
 30
0.0
 11
179.82
 21
82.7553
 31
0.0
  0
LINE
  8
0
 62
     0
 10
179.82
 20
82.7553
 30
0.0
 11
179.02
 21
82.7553
 31
0.0
  0
LINE
  8
0
 62
     0
 10
179.02
 20
82.7553
 30
0.0
 11
179.02
 21
83.7544
 31
0.0
  0
LINE
  8
0
 62
     0
 10
179.02
 20
83.7544
 30
0.0
 11
165.02
 21
83.7544
 31
0.0
  0
LINE
  8
0
 62
     0
 10
184.07
 20
83.7544
 30
0.0
 11
184.07
 21
82.7553
 31
0.0
  0
LINE
  8
0
 62
     0
 10
184.07
 20
82.7553
 30
0.0
 11
183.269
 21
82.7553
 31
0.0
  0
LINE
  8
0
 62
     0
 10
183.269
 20
82.7553
 30
0.0
 11
183.269
 21
79.6548
 31
0.0
  0
LINE
  8
0
 62
     0
 10
183.269
 20
79.6548
 30
0.0
 11
184.07
 21
79.6548
 31
0.0
  0
LINE
  8
0
 62
     0
 10
184.07
 20
79.6548
 30
0.0
 11
184.07
 21
73.8558
 31
0.0
  0
LINE
  8
0
 62
     0
 10
184.07
 20
73.8558
 30
0.0
 11
183.269
 21
73.8558
 31
0.0
  0
LINE
  8
0
 62
     0
 10
183.269
 20
73.8558
 30
0.0
 11
183.269
 21
70.7552
 31
0.0
  0
LINE
  8
0
 62
     0
 10
183.269
 20
70.7552
 30
0.0
 11
184.07
 21
70.7552
 31
0.0
  0
LINE
  8
0
 62
     0
 10
184.07
 20
70.7552
 30
0.0
 11
184.07
 21
69.7547
 31
0.0
  0
LINE
  8
0
 62
     0
 10
184.07
 20
69.7547
 30
0.0
 11
198.07
 21
69.7547
 31
0.0
  0
LINE
  8
0
 62
     0
 10
198.07
 20
69.7547
 30
0.0
 11
198.07
 21
70.7552
 31
0.0
  0
LINE
  8
0
 62
     0
 10
198.07
 20
70.7552
 30
0.0
 11
198.87
 21
70.7552
 31
0.0
  0
LINE
  8
0
 62
     0
 10
198.87
 20
70.7552
 30
0.0
 11
198.87
 21
73.8558
 31
0.0
  0
LINE
  8
0
 62
     0
 10
198.87
 20
73.8558
 30
0.0
 11
198.07
 21
73.8558
 31
0.0
  0
LINE
  8
0
 62
     0
 10
198.07
 20
73.8558
 30
0.0
 11
198.07
 21
79.6548
 31
0.0
  0
LINE
  8
0
 62
     0
 10
198.07
 20
79.6548
 30
0.0
 11
198.87
 21
79.6548
 31
0.0
  0
LINE
  8
0
 62
     0
 10
198.87
 20
79.6548
 30
0.0
 11
198.87
 21
82.7553
 31
0.0
  0
LINE
  8
0
 62
     0
 10
198.87
 20
82.7553
 30
0.0
 11
198.07
 21
82.7553
 31
0.0
  0
LINE
  8
0
 62
     0
 10
198.07
 20
82.7553
 30
0.0
 11
198.07
 21
83.7544
 31
0.0
  0
LINE
  8
0
 62
     0
 10
198.07
 20
83.7544
 30
0.0
 11
184.07
 21
83.7544
 31
0.0
  0
LINE
  8
0
 62
     0
 10
203.12
 20
83.7544
 30
0.0
 11
203.12
 21
82.7553
 31
0.0
  0
LINE
  8
0
 62
     0
 10
203.12
 20
82.7553
 30
0.0
 11
202.319
 21
82.7553
 31
0.0
  0
LINE
  8
0
 62
     0
 10
202.319
 20
82.7553
 30
0.0
 11
202.319
 21
79.6548
 31
0.0
  0
LINE
  8
0
 62
     0
 10
202.319
 20
79.6548
 30
0.0
 11
203.12
 21
79.6548
 31
0.0
  0
LINE
  8
0
 62
     0
 10
203.12
 20
79.6548
 30
0.0
 11
203.12
 21
73.8558
 31
0.0
  0
LINE
  8
0
 62
     0
 10
203.12
 20
73.8558
 30
0.0
 11
202.319
 21
73.8558
 31
0.0
  0
LINE
  8
0
 62
     0
 10
202.319
 20
73.8558
 30
0.0
 11
202.319
 21
70.7552
 31
0.0
  0
LINE
  8
0
 62
     0
 10
202.319
 20
70.7552
 30
0.0
 11
203.12
 21
70.7552
 31
0.0
  0
LINE
  8
0
 62
     0
 10
203.12
 20
70.7552
 30
0.0
 11
203.12
 21
69.7547
 31
0.0
  0
LINE
  8
0
 62
     0
 10
203.12
 20
69.7547
 30
0.0
 11
217.12
 21
69.7547
 31
0.0
  0
LINE
  8
0
 62
     0
 10
217.12
 20
69.7547
 30
0.0
 11
217.12
 21
70.7552
 31
0.0
  0
LINE
  8
0
 62
     0
 10
217.12
 20
70.7552
 30
0.0
 11
217.92
 21
70.7552
 31
0.0
  0
LINE
  8
0
 62
     0
 10
217.92
 20
70.7552
 30
0.0
 11
217.92
 21
73.8558
 31
0.0
  0
LINE
  8
0
 62
     0
 10
217.92
 20
73.8558
 30
0.0
 11
217.12
 21
73.8558
 31
0.0
  0
LINE
  8
0
 62
     0
 10
217.12
 20
73.8558
 30
0.0
 11
217.12
 21
79.6548
 31
0.0
  0
LINE
  8
0
 62
     0
 10
217.12
 20
79.6548
 30
0.0
 11
217.92
 21
79.6548
 31
0.0
  0
LINE
  8
0
 62
     0
 10
217.92
 20
79.6548
 30
0.0
 11
217.92
 21
82.7553
 31
0.0
  0
LINE
  8
0
 62
     0
 10
217.92
 20
82.7553
 30
0.0
 11
217.12
 21
82.7553
 31
0.0
  0
LINE
  8
0
 62
     0
 10
217.12
 20
82.7553
 30
0.0
 11
217.12
 21
83.7544
 31
0.0
  0
LINE
  8
0
 62
     0
 10
217.12
 20
83.7544
 30
0.0
 11
203.12
 21
83.7544
 31
0.0
  0
LINE
  8
0
 62
     0
 10
222.17
 20
83.7544
 30
0.0
 11
222.17
 21
82.7553
 31
0.0
  0
LINE
  8
0
 62
     0
 10
222.17
 20
82.7553
 30
0.0
 11
221.369
 21
82.7553
 31
0.0
  0
LINE
  8
0
 62
     0
 10
221.369
 20
82.7553
 30
0.0
 11
221.369
 21
79.6548
 31
0.0
  0
LINE
  8
0
 62
     0
 10
221.369
 20
79.6548
 30
0.0
 11
222.17
 21
79.6548
 31
0.0
  0
LINE
  8
0
 62
     0
 10
222.17
 20
79.6548
 30
0.0
 11
222.17
 21
73.8558
 31
0.0
  0
LINE
  8
0
 62
     0
 10
222.17
 20
73.8558
 30
0.0
 11
221.369
 21
73.8558
 31
0.0
  0
LINE
  8
0
 62
     0
 10
221.369
 20
73.8558
 30
0.0
 11
221.369
 21
70.7552
 31
0.0
  0
LINE
  8
0
 62
     0
 10
221.369
 20
70.7552
 30
0.0
 11
222.17
 21
70.7552
 31
0.0
  0
LINE
  8
0
 62
     0
 10
222.17
 20
70.7552
 30
0.0
 11
222.17
 21
69.7547
 31
0.0
  0
LINE
  8
0
 62
     0
 10
222.17
 20
69.7547
 30
0.0
 11
236.17
 21
69.7547
 31
0.0
  0
LINE
  8
0
 62
     0
 10
236.17
 20
69.7547
 30
0.0
 11
236.17
 21
70.7552
 31
0.0
  0
LINE
  8
0
 62
     0
 10
236.17
 20
70.7552
 30
0.0
 11
236.97
 21
70.7552
 31
0.0
  0
LINE
  8
0
 62
     0
 10
236.97
 20
70.7552
 30
0.0
 11
236.97
 21
73.8558
 31
0.0
  0
LINE
  8
0
 62
     0
 10
236.97
 20
73.8558
 30
0.0
 11
236.17
 21
73.8558
 31
0.0
  0
LINE
  8
0
 62
     0
 10
236.17
 20
73.8558
 30
0.0
 11
236.17
 21
79.6548
 31
0.0
  0
LINE
  8
0
 62
     0
 10
236.17
 20
79.6548
 30
0.0
 11
236.97
 21
79.6548
 31
0.0
  0
LINE
  8
0
 62
     0
 10
236.97
 20
79.6548
 30
0.0
 11
236.97
 21
82.7553
 31
0.0
  0
LINE
  8
0
 62
     0
 10
236.97
 20
82.7553
 30
0.0
 11
236.17
 21
82.7553
 31
0.0
  0
LINE
  8
0
 62
     0
 10
236.17
 20
82.7553
 30
0.0
 11
236.17
 21
83.7544
 31
0.0
  0
LINE
  8
0
 62
     0
 10
236.17
 20
83.7544
 30
0.0
 11
222.17
 21
83.7544
 31
0.0
  0
LINE
  8
0
 62
     0
 10
243.232
 20
92.7061
 30
0.0
 11
242.813
 21
92.4941
 31
0.0
  0
LINE
  8
0
 62
     0
 10
242.813
 20
92.4941
 30
0.0
 11
242.483
 21
92.1618
 31
0.0
  0
LINE
  8
0
 62
     0
 10
242.483
 20
92.1618
 30
0.0
 11
242.269
 21
91.7444
 31
0.0
  0
LINE
  8
0
 62
     0
 10
242.269
 20
91.7444
 30
0.0
 11
242.196
 21
91.2798
 31
0.0
  0
LINE
  8
0
 62
     0
 10
242.196
 20
91.2798
 30
0.0
 11
242.269
 21
90.817
 31
0.0
  0
LINE
  8
0
 62
     0
 10
242.269
 20
90.817
 30
0.0
 11
242.483
 21
90.3993
 31
0.0
  0
LINE
  8
0
 62
     0
 10
242.483
 20
90.3993
 30
0.0
 11
242.813
 21
90.0673
 31
0.0
  0
LINE
  8
0
 62
     0
 10
242.813
 20
90.0673
 30
0.0
 11
243.232
 21
89.8536
 31
0.0
  0
LINE
  8
0
 62
     0
 10
243.232
 20
89.8536
 30
0.0
 11
243.696
 21
89.7791
 31
0.0
  0
LINE
  8
0
 62
     0
 10
243.696
 20
89.7791
 30
0.0
 11
244.159
 21
89.8536
 31
0.0
  0
LINE
  8
0
 62
     0
 10
244.159
 20
89.8536
 30
0.0
 11
244.577
 21
90.0673
 31
0.0
  0
LINE
  8
0
 62
     0
 10
244.577
 20
90.0673
 30
0.0
 11
244.909
 21
90.3993
 31
0.0
  0
LINE
  8
0
 62
     0
 10
244.909
 20
90.3993
 30
0.0
 11
245.121
 21
90.817
 31
0.0
  0
LINE
  8
0
 62
     0
 10
245.121
 20
90.817
 30
0.0
 11
245.196
 21
91.2798
 31
0.0
  0
LINE
  8
0
 62
     0
 10
245.196
 20
91.2798
 30
0.0
 11
245.121
 21
91.7444
 31
0.0
  0
LINE
  8
0
 62
     0
 10
245.121
 20
91.7444
 30
0.0
 11
244.909
 21
92.1618
 31
0.0
  0
LINE
  8
0
 62
     0
 10
244.909
 20
92.1618
 30
0.0
 11
244.577
 21
92.4941
 31
0.0
  0
LINE
  8
0
 62
     0
 10
244.577
 20
92.4941
 30
0.0
 11
244.159
 21
92.7061
 31
0.0
  0
LINE
  8
0
 62
     0
 10
244.159
 20
92.7061
 30
0.0
 11
243.696
 21
92.7791
 31
0.0
  0
LINE
  8
0
 62
     0
 10
243.696
 20
92.7791
 30
0.0
 11
243.232
 21
92.7061
 31
0.0
  0
LINE
  8
0
 62
     0
 10
4.63021
 20
92.7061
 30
0.0
 11
4.21266
 21
92.4941
 31
0.0
  0
LINE
  8
0
 62
     0
 10
4.21266
 20
92.4941
 30
0.0
 11
3.88056
 21
92.1618
 31
0.0
  0
LINE
  8
0
 62
     0
 10
3.88056
 20
92.1618
 30
0.0
 11
3.66832
 21
91.7444
 31
0.0
  0
LINE
  8
0
 62
     0
 10
3.66832
 20
91.7444
 30
0.0
 11
3.5953
 21
91.2798
 31
0.0
  0
LINE
  8
0
 62
     0
 10
3.5953
 20
91.2798
 30
0.0
 11
3.66832
 21
90.817
 31
0.0
  0
LINE
  8
0
 62
     0
 10
3.66832
 20
90.817
 30
0.0
 11
3.88056
 21
90.3993
 31
0.0
  0
LINE
  8
0
 62
     0
 10
3.88056
 20
90.3993
 30
0.0
 11
4.21266
 21
90.0673
 31
0.0
  0
LINE
  8
0
 62
     0
 10
4.21266
 20
90.0673
 30
0.0
 11
4.63021
 21
89.8536
 31
0.0
  0
LINE
  8
0
 62
     0
 10
4.63021
 20
89.8536
 30
0.0
 11
5.0946
 21
89.7791
 31
0.0
  0
LINE
  8
0
 62
     0
 10
5.0946
 20
89.7791
 30
0.0
 11
5.55763
 21
89.8536
 31
0.0
  0
LINE
  8
0
 62
     0
 10
5.55763
 20
89.8536
 30
0.0
 11
5.97517
 21
90.0673
 31
0.0
  0
LINE
  8
0
 62
     0
 10
5.97517
 20
90.0673
 30
0.0
 11
6.30728
 21
90.3993
 31
0.0
  0
LINE
  8
0
 62
     0
 10
6.30728
 20
90.3993
 30
0.0
 11
6.52089
 21
90.817
 31
0.0
  0
LINE
  8
0
 62
     0
 10
6.52089
 20
90.817
 30
0.0
 11
6.59529
 21
91.2798
 31
0.0
  0
LINE
  8
0
 62
     0
 10
6.59529
 20
91.2798
 30
0.0
 11
6.52089
 21
91.7444
 31
0.0
  0
LINE
  8
0
 62
     0
 10
6.52089
 20
91.7444
 30
0.0
 11
6.30728
 21
92.1618
 31
0.0
  0
LINE
  8
0
 62
     0
 10
6.30728
 20
92.1618
 30
0.0
 11
5.97517
 21
92.4941
 31
0.0
  0
LINE
  8
0
 62
     0
 10
5.97517
 20
92.4941
 30
0.0
 11
5.55763
 21
92.7061
 31
0.0
  0
LINE
  8
0
 62
     0
 10
5.55763
 20
92.7061
 30
0.0
 11
5.0946
 21
92.7791
 31
0.0
  0
LINE
  8
0
 62
     0
 10
5.0946
 20
92.7791
 30
0.0
 11
4.63021
 21
92.7061
 31
0.0
  0
ENDSEC
  0
EOF
