  0
SECTION
  2
HEADER
  9
$ACADVER
  1
AC1009
  9
$EXTMIN
 10
0.0
 20
0.0
 30
0.0
  9
$EXTMAX
 10
1000.0
 20
1000.0
 30
0.0
  9
$FILLMODE
 70
 0
  9
$SPLFRAME
 70
 1
  0
ENDSEC
  0
SECTION
  2
TABLES
  0
TABLE
  2
LAYER
 70
1
  0
LAYER
  2
0
 70
     0
 62
     7
  6
CONTINUOUS
  0
ENDTAB
  0
ENDSEC
  0
SECTION
  2
ENTITIES
  0
LINE
  8
0
 62
     0
 10
119.394
 20
96.2808
 30
0.0
 11
119.394
 21
86.2803
 31
0.0
  0
LINE
  8
0
 62
     0
 10
119.394
 20
86.2803
 30
0.0
 11
10.0941
 21
86.2803
 31
0.0
  0
LINE
  8
0
 62
     0
 10
10.0941
 20
86.2803
 30
0.0
 11
10.0941
 21
10.079
 31
0.0
  0
LINE
  8
0
 62
     0
 10
10.0941
 20
10.079
 30
0.0
 11
238.695
 21
10.079
 31
0.0
  0
LINE
  8
0
 62
     0
 10
238.695
 20
10.079
 30
0.0
 11
238.695
 21
86.2803
 31
0.0
  0
LINE
  8
0
 62
     0
 10
238.695
 20
86.2803
 30
0.0
 11
129.395
 21
86.2803
 31
0.0
  0
LINE
  8
0
 62
     0
 10
129.395
 20
86.2803
 30
0.0
 11
129.395
 21
96.2794
 31
0.0
  0
LINE
  8
0
 62
     0
 10
129.395
 20
96.2794
 30
0.0
 11
243.696
 21
96.2794
 31
0.0
  0
LINE
  8
0
 62
     0
 10
243.696
 20
96.2794
 30
0.0
 11
244.088
 21
96.2642
 31
0.0
  0
LINE
  8
0
 62
     0
 10
244.088
 20
96.2642
 30
0.0
 11
244.478
 21
96.2187
 31
0.0
  0
LINE
  8
0
 62
     0
 10
244.478
 20
96.2187
 30
0.0
 11
244.862
 21
96.1415
 31
0.0
  0
LINE
  8
0
 62
     0
 10
244.862
 20
96.1415
 30
0.0
 11
245.241
 21
96.0356
 31
0.0
  0
LINE
  8
0
 62
     0
 10
245.241
 20
96.0356
 30
0.0
 11
245.609
 21
95.8991
 31
0.0
  0
LINE
  8
0
 62
     0
 10
245.609
 20
95.8991
 30
0.0
 11
245.965
 21
95.7351
 31
0.0
  0
LINE
  8
0
 62
     0
 10
245.965
 20
95.7351
 30
0.0
 11
246.308
 21
95.5435
 31
0.0
  0
LINE
  8
0
 62
     0
 10
246.308
 20
95.5435
 30
0.0
 11
246.634
 21
95.3258
 31
0.0
  0
LINE
  8
0
 62
     0
 10
246.634
 20
95.3258
 30
0.0
 11
246.943
 21
95.0831
 31
0.0
  0
LINE
  8
0
 62
     0
 10
246.943
 20
95.0831
 30
0.0
 11
247.231
 21
94.8161
 31
0.0
  0
LINE
  8
0
 62
     0
 10
247.231
 20
94.8161
 30
0.0
 11
247.498
 21
94.5279
 31
0.0
  0
LINE
  8
0
 62
     0
 10
247.498
 20
94.5279
 30
0.0
 11
247.741
 21
94.2192
 31
0.0
  0
LINE
  8
0
 62
     0
 10
247.741
 20
94.2192
 30
0.0
 11
247.959
 21
93.8925
 31
0.0
  0
LINE
  8
0
 62
     0
 10
247.959
 20
93.8925
 30
0.0
 11
248.15
 21
93.5496
 31
0.0
  0
LINE
  8
0
 62
     0
 10
248.15
 20
93.5496
 30
0.0
 11
248.314
 21
93.194
 31
0.0
  0
LINE
  8
0
 62
     0
 10
248.314
 20
93.194
 30
0.0
 11
248.451
 21
92.8261
 31
0.0
  0
LINE
  8
0
 62
     0
 10
248.451
 20
92.8261
 30
0.0
 11
248.557
 21
92.4472
 31
0.0
  0
LINE
  8
0
 62
     0
 10
248.557
 20
92.4472
 30
0.0
 11
248.634
 21
92.0627
 31
0.0
  0
LINE
  8
0
 62
     0
 10
248.634
 20
92.0627
 30
0.0
 11
248.679
 21
91.6725
 31
0.0
  0
LINE
  8
0
 62
     0
 10
248.679
 20
91.6725
 30
0.0
 11
248.696
 21
91.2798
 31
0.0
  0
LINE
  8
0
 62
     0
 10
248.696
 20
91.2798
 30
0.0
 11
248.696
 21
5.07806
 31
0.0
  0
LINE
  8
0
 62
     0
 10
248.696
 20
5.07806
 30
0.0
 11
248.679
 21
4.68672
 31
0.0
  0
LINE
  8
0
 62
     0
 10
248.679
 20
4.68672
 30
0.0
 11
248.634
 21
4.29673
 31
0.0
  0
LINE
  8
0
 62
     0
 10
248.634
 20
4.29673
 30
0.0
 11
248.557
 21
3.91223
 31
0.0
  0
LINE
  8
0
 62
     0
 10
248.557
 20
3.91223
 30
0.0
 11
248.451
 21
3.53328
 31
0.0
  0
LINE
  8
0
 62
     0
 10
248.451
 20
3.53328
 30
0.0
 11
248.314
 21
3.16536
 31
0.0
  0
LINE
  8
0
 62
     0
 10
248.314
 20
3.16536
 30
0.0
 11
248.15
 21
2.80982
 31
0.0
  0
LINE
  8
0
 62
     0
 10
248.15
 20
2.80982
 30
0.0
 11
247.959
 21
2.46669
 31
0.0
  0
LINE
  8
0
 62
     0
 10
247.959
 20
2.46669
 30
0.0
 11
247.741
 21
2.14009
 31
0.0
  0
LINE
  8
0
 62
     0
 10
247.741
 20
2.14009
 30
0.0
 11
247.498
 21
1.83141
 31
0.0
  0
LINE
  8
0
 62
     0
 10
247.498
 20
1.83141
 30
0.0
 11
247.231
 21
1.5434
 31
0.0
  0
LINE
  8
0
 62
     0
 10
247.231
 20
1.5434
 30
0.0
 11
246.943
 21
1.27606
 31
0.0
  0
LINE
  8
0
 62
     0
 10
246.943
 20
1.27606
 30
0.0
 11
246.634
 21
1.03353
 31
0.0
  0
LINE
  8
0
 62
     0
 10
246.634
 20
1.03353
 30
0.0
 11
246.308
 21
0.815799
 31
0.0
  0
LINE
  8
0
 62
     0
 10
246.308
 20
0.815799
 30
0.0
 11
245.965
 21
0.624251
 31
0.0
  0
LINE
  8
0
 62
     0
 10
245.965
 20
0.624251
 30
0.0
 11
245.609
 21
0.460266
 31
0.0
  0
LINE
  8
0
 62
     0
 10
245.609
 20
0.460266
 30
0.0
 11
245.241
 21
0.323839
 31
0.0
  0
LINE
  8
0
 62
     0
 10
245.241
 20
0.323839
 30
0.0
 11
244.862
 21
0.21773
 31
0.0
  0
LINE
  8
0
 62
     0
 10
244.862
 20
0.21773
 30
0.0
 11
244.478
 21
0.14056
 31
0.0
  0
LINE
  8
0
 62
     0
 10
244.478
 20
0.14056
 30
0.0
 11
244.088
 21
0.0950846
 31
0.0
  0
LINE
  8
0
 62
     0
 10
244.088
 20
0.0950846
 30
0.0
 11
243.696
 21
0.0785481
 31
0.0
  0
LINE
  8
0
 62
     0
 10
243.696
 20
0.0785481
 30
0.0
 11
5.0946
 21
0.0785481
 31
0.0
  0
LINE
  8
0
 62
     0
 10
5.0946
 20
0.0785481
 30
0.0
 11
4.70186
 21
0.0950846
 31
0.0
  0
LINE
  8
0
 62
     0
 10
4.70186
 20
0.0950846
 30
0.0
 11
4.3119
 21
0.14056
 31
0.0
  0
LINE
  8
0
 62
     0
 10
4.3119
 20
0.14056
 30
0.0
 11
3.9274
 21
0.21773
 31
0.0
  0
LINE
  8
0
 62
     0
 10
3.9274
 20
0.21773
 30
0.0
 11
3.54845
 21
0.323839
 31
0.0
  0
LINE
  8
0
 62
     0
 10
3.54845
 20
0.323839
 30
0.0
 11
3.18051
 21
0.460266
 31
0.0
  0
LINE
  8
0
 62
     0
 10
3.18051
 20
0.460266
 30
0.0
 11
2.82498
 21
0.624251
 31
0.0
  0
LINE
  8
0
 62
     0
 10
2.82498
 20
0.624251
 30
0.0
 11
2.48185
 21
0.815799
 31
0.0
  0
LINE
  8
0
 62
     0
 10
2.48185
 20
0.815799
 30
0.0
 11
2.15525
 21
1.03353
 31
0.0
  0
LINE
  8
0
 62
     0
 10
2.15525
 20
1.03353
 30
0.0
 11
1.84657
 21
1.27606
 31
0.0
  0
LINE
  8
0
 62
     0
 10
1.84657
 20
1.27606
 30
0.0
 11
1.55856
 21
1.5434
 31
0.0
  0
LINE
  8
0
 62
     0
 10
1.55856
 20
1.5434
 30
0.0
 11
1.29122
 21
1.83141
 31
0.0
  0
LINE
  8
0
 62
     0
 10
1.29122
 20
1.83141
 30
0.0
 11
1.04869
 21
2.14009
 31
0.0
  0
LINE
  8
0
 62
     0
 10
1.04869
 20
2.14009
 30
0.0
 11
0.830957
 21
2.46669
 31
0.0
  0
LINE
  8
0
 62
     0
 10
0.830957
 20
2.46669
 30
0.0
 11
0.63941
 21
2.80982
 31
0.0
  0
LINE
  8
0
 62
     0
 10
0.63941
 20
2.80982
 30
0.0
 11
0.475424
 21
3.16536
 31
0.0
  0
LINE
  8
0
 62
     0
 10
0.475424
 20
3.16536
 30
0.0
 11
0.338998
 21
3.53328
 31
0.0
  0
LINE
  8
0
 62
     0
 10
0.338998
 20
3.53328
 30
0.0
 11
0.232888
 21
3.91223
 31
0.0
  0
LINE
  8
0
 62
     0
 10
0.232888
 20
3.91223
 30
0.0
 11
0.155718
 21
4.29673
 31
0.0
  0
LINE
  8
0
 62
     0
 10
0.155718
 20
4.29673
 30
0.0
 11
0.110243
 21
4.68672
 31
0.0
  0
LINE
  8
0
 62
     0
 10
0.110243
 20
4.68672
 30
0.0
 11
0.0937066
 21
5.07944
 31
0.0
  0
LINE
  8
0
 62
     0
 10
0.0937066
 20
5.07944
 30
0.0
 11
0.0950846
 21
91.2798
 31
0.0
  0
LINE
  8
0
 62
     0
 10
0.0950846
 20
91.2798
 30
0.0
 11
0.110243
 21
91.6725
 31
0.0
  0
LINE
  8
0
 62
     0
 10
0.110243
 20
91.6725
 30
0.0
 11
0.155718
 21
92.0627
 31
0.0
  0
LINE
  8
0
 62
     0
 10
0.155718
 20
92.0627
 30
0.0
 11
0.232888
 21
92.4472
 31
0.0
  0
LINE
  8
0
 62
     0
 10
0.232888
 20
92.4472
 30
0.0
 11
0.338998
 21
92.8261
 31
0.0
  0
LINE
  8
0
 62
     0
 10
0.338998
 20
92.8261
 30
0.0
 11
0.475424
 21
93.194
 31
0.0
  0
LINE
  8
0
 62
     0
 10
0.475424
 20
93.194
 30
0.0
 11
0.63941
 21
93.5496
 31
0.0
  0
LINE
  8
0
 62
     0
 10
0.63941
 20
93.5496
 30
0.0
 11
0.830957
 21
93.8925
 31
0.0
  0
LINE
  8
0
 62
     0
 10
0.830957
 20
93.8925
 30
0.0
 11
1.04869
 21
94.2192
 31
0.0
  0
LINE
  8
0
 62
     0
 10
1.04869
 20
94.2192
 30
0.0
 11
1.29122
 21
94.5279
 31
0.0
  0
LINE
  8
0
 62
     0
 10
1.29122
 20
94.5279
 30
0.0
 11
1.55856
 21
94.8161
 31
0.0
  0
LINE
  8
0
 62
     0
 10
1.55856
 20
94.8161
 30
0.0
 11
1.84657
 21
95.0831
 31
0.0
  0
LINE
  8
0
 62
     0
 10
1.84657
 20
95.0831
 30
0.0
 11
2.15525
 21
95.3258
 31
0.0
  0
LINE
  8
0
 62
     0
 10
2.15525
 20
95.3258
 30
0.0
 11
2.48185
 21
95.5435
 31
0.0
  0
LINE
  8
0
 62
     0
 10
2.48185
 20
95.5435
 30
0.0
 11
2.82498
 21
95.7351
 31
0.0
  0
LINE
  8
0
 62
     0
 10
2.82498
 20
95.7351
 30
0.0
 11
3.18051
 21
95.8991
 31
0.0
  0
LINE
  8
0
 62
     0
 10
3.18051
 20
95.8991
 30
0.0
 11
3.54845
 21
96.0356
 31
0.0
  0
LINE
  8
0
 62
     0
 10
3.54845
 20
96.0356
 30
0.0
 11
3.9274
 21
96.1415
 31
0.0
  0
LINE
  8
0
 62
     0
 10
3.9274
 20
96.1415
 30
0.0
 11
4.3119
 21
96.2187
 31
0.0
  0
LINE
  8
0
 62
     0
 10
4.3119
 20
96.2187
 30
0.0
 11
4.70186
 21
96.2642
 31
0.0
  0
LINE
  8
0
 62
     0
 10
4.70186
 20
96.2642
 30
0.0
 11
5.0946
 21
96.2808
 31
0.0
  0
LINE
  8
0
 62
     0
 10
5.0946
 20
96.2808
 30
0.0
 11
119.394
 21
96.2808
 31
0.0
  0
LINE
  8
0
 62
     0
 10
243.232
 20
6.50572
 30
0.0
 11
242.813
 21
6.29211
 31
0.0
  0
LINE
  8
0
 62
     0
 10
242.813
 20
6.29211
 30
0.0
 11
242.483
 21
5.96138
 31
0.0
  0
LINE
  8
0
 62
     0
 10
242.483
 20
5.96138
 30
0.0
 11
242.269
 21
5.54246
 31
0.0
  0
LINE
  8
0
 62
     0
 10
242.269
 20
5.54246
 30
0.0
 11
242.196
 21
5.07806
 31
0.0
  0
LINE
  8
0
 62
     0
 10
242.196
 20
5.07806
 30
0.0
 11
242.269
 21
4.61504
 31
0.0
  0
LINE
  8
0
 62
     0
 10
242.269
 20
4.61504
 30
0.0
 11
242.483
 21
4.19749
 31
0.0
  0
LINE
  8
0
 62
     0
 10
242.483
 20
4.19749
 30
0.0
 11
242.813
 21
3.86539
 31
0.0
  0
LINE
  8
0
 62
     0
 10
242.813
 20
3.86539
 30
0.0
 11
243.232
 21
3.65319
 31
0.0
  0
LINE
  8
0
 62
     0
 10
243.232
 20
3.65319
 30
0.0
 11
243.696
 21
3.57875
 31
0.0
  0
LINE
  8
0
 62
     0
 10
243.696
 20
3.57875
 30
0.0
 11
244.159
 21
3.65319
 31
0.0
  0
LINE
  8
0
 62
     0
 10
244.159
 20
3.65319
 30
0.0
 11
244.577
 21
3.86539
 31
0.0
  0
LINE
  8
0
 62
     0
 10
244.577
 20
3.86539
 30
0.0
 11
244.909
 21
4.19749
 31
0.0
  0
LINE
  8
0
 62
     0
 10
244.909
 20
4.19749
 30
0.0
 11
245.121
 21
4.61504
 31
0.0
  0
LINE
  8
0
 62
     0
 10
245.121
 20
4.61504
 30
0.0
 11
245.196
 21
5.07806
 31
0.0
  0
LINE
  8
0
 62
     0
 10
245.196
 20
5.07806
 30
0.0
 11
245.121
 21
5.54246
 31
0.0
  0
LINE
  8
0
 62
     0
 10
245.121
 20
5.54246
 30
0.0
 11
244.909
 21
5.96138
 31
0.0
  0
LINE
  8
0
 62
     0
 10
244.909
 20
5.96138
 30
0.0
 11
244.577
 21
6.29211
 31
0.0
  0
LINE
  8
0
 62
     0
 10
244.577
 20
6.29211
 30
0.0
 11
244.159
 21
6.50572
 31
0.0
  0
LINE
  8
0
 62
     0
 10
244.159
 20
6.50572
 30
0.0
 11
243.696
 21
6.57874
 31
0.0
  0
LINE
  8
0
 62
     0
 10
243.696
 20
6.57874
 30
0.0
 11
243.232
 21
6.50572
 31
0.0
  0
LINE
  8
0
 62
     0
 10
4.63021
 20
6.50572
 30
0.0
 11
4.21266
 21
6.29211
 31
0.0
  0
LINE
  8
0
 62
     0
 10
4.21266
 20
6.29211
 30
0.0
 11
3.88056
 21
5.96138
 31
0.0
  0
LINE
  8
0
 62
     0
 10
3.88056
 20
5.96138
 30
0.0
 11
3.66832
 21
5.54246
 31
0.0
  0
LINE
  8
0
 62
     0
 10
3.66832
 20
5.54246
 30
0.0
 11
3.5953
 21
5.07806
 31
0.0
  0
LINE
  8
0
 62
     0
 10
3.5953
 20
5.07806
 30
0.0
 11
3.66832
 21
4.61504
 31
0.0
  0
LINE
  8
0
 62
     0
 10
3.66832
 20
4.61504
 30
0.0
 11
3.88056
 21
4.19749
 31
0.0
  0
LINE
  8
0
 62
     0
 10
3.88056
 20
4.19749
 30
0.0
 11
4.21266
 21
3.86539
 31
0.0
  0
LINE
  8
0
 62
     0
 10
4.21266
 20
3.86539
 30
0.0
 11
4.63021
 21
3.65319
 31
0.0
  0
LINE
  8
0
 62
     0
 10
4.63021
 20
3.65319
 30
0.0
 11
5.0946
 21
3.57875
 31
0.0
  0
LINE
  8
0
 62
     0
 10
5.0946
 20
3.57875
 30
0.0
 11
5.55763
 21
3.65319
 31
0.0
  0
LINE
  8
0
 62
     0
 10
5.55763
 20
3.65319
 30
0.0
 11
5.97517
 21
3.86539
 31
0.0
  0
LINE
  8
0
 62
     0
 10
5.97517
 20
3.86539
 30
0.0
 11
6.30728
 21
4.19749
 31
0.0
  0
LINE
  8
0
 62
     0
 10
6.30728
 20
4.19749
 30
0.0
 11
6.52089
 21
4.61504
 31
0.0
  0
LINE
  8
0
 62
     0
 10
6.52089
 20
4.61504
 30
0.0
 11
6.59529
 21
5.07806
 31
0.0
  0
LINE
  8
0
 62
     0
 10
6.59529
 20
5.07806
 30
0.0
 11
6.52089
 21
5.54246
 31
0.0
  0
LINE
  8
0
 62
     0
 10
6.52089
 20
5.54246
 30
0.0
 11
6.30728
 21
5.96138
 31
0.0
  0
LINE
  8
0
 62
     0
 10
6.30728
 20
5.96138
 30
0.0
 11
5.97517
 21
6.29211
 31
0.0
  0
LINE
  8
0
 62
     0
 10
5.97517
 20
6.29211
 30
0.0
 11
5.55763
 21
6.50572
 31
0.0
  0
LINE
  8
0
 62
     0
 10
5.55763
 20
6.50572
 30
0.0
 11
5.0946
 21
6.57874
 31
0.0
  0
LINE
  8
0
 62
     0
 10
5.0946
 20
6.57874
 30
0.0
 11
4.63021
 21
6.50572
 31
0.0
  0
LINE
  8
0
 62
     0
 10
243.232
 20
92.7061
 30
0.0
 11
242.813
 21
92.4941
 31
0.0
  0
LINE
  8
0
 62
     0
 10
242.813
 20
92.4941
 30
0.0
 11
242.483
 21
92.1618
 31
0.0
  0
LINE
  8
0
 62
     0
 10
242.483
 20
92.1618
 30
0.0
 11
242.269
 21
91.7444
 31
0.0
  0
LINE
  8
0
 62
     0
 10
242.269
 20
91.7444
 30
0.0
 11
242.196
 21
91.2798
 31
0.0
  0
LINE
  8
0
 62
     0
 10
242.196
 20
91.2798
 30
0.0
 11
242.269
 21
90.817
 31
0.0
  0
LINE
  8
0
 62
     0
 10
242.269
 20
90.817
 30
0.0
 11
242.483
 21
90.3993
 31
0.0
  0
LINE
  8
0
 62
     0
 10
242.483
 20
90.3993
 30
0.0
 11
242.813
 21
90.0673
 31
0.0
  0
LINE
  8
0
 62
     0
 10
242.813
 20
90.0673
 30
0.0
 11
243.232
 21
89.8536
 31
0.0
  0
LINE
  8
0
 62
     0
 10
243.232
 20
89.8536
 30
0.0
 11
243.696
 21
89.7791
 31
0.0
  0
LINE
  8
0
 62
     0
 10
243.696
 20
89.7791
 30
0.0
 11
244.159
 21
89.8536
 31
0.0
  0
LINE
  8
0
 62
     0
 10
244.159
 20
89.8536
 30
0.0
 11
244.577
 21
90.0673
 31
0.0
  0
LINE
  8
0
 62
     0
 10
244.577
 20
90.0673
 30
0.0
 11
244.909
 21
90.3993
 31
0.0
  0
LINE
  8
0
 62
     0
 10
244.909
 20
90.3993
 30
0.0
 11
245.121
 21
90.817
 31
0.0
  0
LINE
  8
0
 62
     0
 10
245.121
 20
90.817
 30
0.0
 11
245.196
 21
91.2798
 31
0.0
  0
LINE
  8
0
 62
     0
 10
245.196
 20
91.2798
 30
0.0
 11
245.121
 21
91.7444
 31
0.0
  0
LINE
  8
0
 62
     0
 10
245.121
 20
91.7444
 30
0.0
 11
244.909
 21
92.1618
 31
0.0
  0
LINE
  8
0
 62
     0
 10
244.909
 20
92.1618
 30
0.0
 11
244.577
 21
92.4941
 31
0.0
  0
LINE
  8
0
 62
     0
 10
244.577
 20
92.4941
 30
0.0
 11
244.159
 21
92.7061
 31
0.0
  0
LINE
  8
0
 62
     0
 10
244.159
 20
92.7061
 30
0.0
 11
243.696
 21
92.7791
 31
0.0
  0
LINE
  8
0
 62
     0
 10
243.696
 20
92.7791
 30
0.0
 11
243.232
 21
92.7061
 31
0.0
  0
LINE
  8
0
 62
     0
 10
4.63021
 20
92.7061
 30
0.0
 11
4.21266
 21
92.4941
 31
0.0
  0
LINE
  8
0
 62
     0
 10
4.21266
 20
92.4941
 30
0.0
 11
3.88056
 21
92.1618
 31
0.0
  0
LINE
  8
0
 62
     0
 10
3.88056
 20
92.1618
 30
0.0
 11
3.66832
 21
91.7444
 31
0.0
  0
LINE
  8
0
 62
     0
 10
3.66832
 20
91.7444
 30
0.0
 11
3.5953
 21
91.2798
 31
0.0
  0
LINE
  8
0
 62
     0
 10
3.5953
 20
91.2798
 30
0.0
 11
3.66832
 21
90.817
 31
0.0
  0
LINE
  8
0
 62
     0
 10
3.66832
 20
90.817
 30
0.0
 11
3.88056
 21
90.3993
 31
0.0
  0
LINE
  8
0
 62
     0
 10
3.88056
 20
90.3993
 30
0.0
 11
4.21266
 21
90.0673
 31
0.0
  0
LINE
  8
0
 62
     0
 10
4.21266
 20
90.0673
 30
0.0
 11
4.63021
 21
89.8536
 31
0.0
  0
LINE
  8
0
 62
     0
 10
4.63021
 20
89.8536
 30
0.0
 11
5.0946
 21
89.7791
 31
0.0
  0
LINE
  8
0
 62
     0
 10
5.0946
 20
89.7791
 30
0.0
 11
5.55763
 21
89.8536
 31
0.0
  0
LINE
  8
0
 62
     0
 10
5.55763
 20
89.8536
 30
0.0
 11
5.97517
 21
90.0673
 31
0.0
  0
LINE
  8
0
 62
     0
 10
5.97517
 20
90.0673
 30
0.0
 11
6.30728
 21
90.3993
 31
0.0
  0
LINE
  8
0
 62
     0
 10
6.30728
 20
90.3993
 30
0.0
 11
6.52089
 21
90.817
 31
0.0
  0
LINE
  8
0
 62
     0
 10
6.52089
 20
90.817
 30
0.0
 11
6.59529
 21
91.2798
 31
0.0
  0
LINE
  8
0
 62
     0
 10
6.59529
 20
91.2798
 30
0.0
 11
6.52089
 21
91.7444
 31
0.0
  0
LINE
  8
0
 62
     0
 10
6.52089
 20
91.7444
 30
0.0
 11
6.30728
 21
92.1618
 31
0.0
  0
LINE
  8
0
 62
     0
 10
6.30728
 20
92.1618
 30
0.0
 11
5.97517
 21
92.4941
 31
0.0
  0
LINE
  8
0
 62
     0
 10
5.97517
 20
92.4941
 30
0.0
 11
5.55763
 21
92.7061
 31
0.0
  0
LINE
  8
0
 62
     0
 10
5.55763
 20
92.7061
 30
0.0
 11
5.0946
 21
92.7791
 31
0.0
  0
LINE
  8
0
 62
     0
 10
5.0946
 20
92.7791
 30
0.0
 11
4.63021
 21
92.7061
 31
0.0
  0
ENDSEC
  0
EOF
