<?xml version="1.0" encoding="utf-8"?>
<!-- Generator: Adobe Illustrator 16.0.0, SVG Export Plug-In . SVG Version: 6.00 Build 0)  -->
<!DOCTYPE svg PUBLIC "-//W3C//DTD SVG 1.1//EN" "http://www.w3.org/Graphics/SVG/1.1/DTD/svg11.dtd">
<svg xmlns="http://www.w3.org/2000/svg" xmlns:xlink="http://www.w3.org/1999/xlink" version="1.1" id="Layer_1" x="0px" y="0px" width="1190.55px" height="841.89px" viewBox="0 0 1190.55 841.89" enable-background="new 0 0 1190.55 841.89" xml:space="preserve">
<path fill="none" stroke="#000000" stroke-miterlimit="10" d="M991.914,378.851H977.74v-56.693h-28.346v-56.692h-28.347v-56.693  h28.346v-56.692h28.347v-85.04V38.692h-28.347h-85.04v28.347h-56.691v28.346h-56.693V67.039h-56.693V38.692h-56.692V24.519V10.346  h-85.039v14.173v14.173h-56.693v28.346h-56.692v28.347h-56.693V67.039h-56.692V38.692h-85.04h-28.347v28.347v85.039h28.347v56.693  h28.346v56.693h-28.346v56.692h-28.347v56.693h-14.173h-14.173v85.039h14.173h14.173v56.693h28.346v56.692h28.347v56.693h-28.346  v56.692h-28.347v85.04v28.347h28.347h85.04V775.7h56.691v-28.346h56.693V775.7h56.692v28.347h56.693v14.173v14.174h85.039V818.22  v-14.173h56.693V775.7h56.692v-28.347h56.693V775.7h56.692v28.347h85.04h28.347V775.7v-85.039h-28.347v-56.693h-28.346v-56.692  h28.346v-56.692h28.347V463.89h14.174h14.173v-85.039H991.914z M949.394,435.544v28.346v28.347h-28.346v56.693h-28.347v113.386  h28.346v56.692h28.347V775.7H892.7v-28.347h-56.692l-28.347-28.346h-56.692l-28.347,28.347l-56.693-0.001V775.7h-28.347h-28.346  v28.347h-28.348V775.7h-28.346h-28.347v-28.346h-56.693v-28.347H354.118v28.346h-56.693V775.7h-42.52l-14.173-14.173v-42.521h28.346  l-0.046-28.608l28.393-28.084V548.929h-28.346v-56.693h-28.347v-28.347v-28.346h-28.346v-28.348h28.347V378.85v-28.347h28.346  V293.81h28.347v-85.038l-28.346-28.348v-56.692h-28.346V67.039h56.693v28.347h56.692l28.346,28.347l85.04-0.001V95.386h56.693  V67.039h28.347h28.346V38.692h28.348v28.347h28.346h28.347v28.346h56.693v28.347l42.519,0.001l14.173,14.173l14.174-14.173  l42.52-0.001V95.386h28.347l28.347-28.347h56.692v56.693h-28.346v56.692h-28.347v113.386h28.347v56.693h28.347v28.347v28.346h28.346  v28.348H949.394z"/>
<polygon fill="none" stroke="#000000" stroke-miterlimit="10" points="354.118,747.354 311.599,704.835 325.771,690.661   467.504,690.661 495.851,719.008 524.197,690.661 524.197,662.314 495.851,633.969 467.504,662.314 354.118,662.314   297.425,605.622 325.771,577.275 368.292,619.795 467.504,619.795 495.851,591.449 552.543,648.142 552.544,704.836   510.023,747.354 467.504,747.354 467.504,719.008 354.118,719.008 "/>
<path fill="none" stroke="#000000" stroke-miterlimit="10" d="M495.851,633.969l-28.347,28.346H325.771v-28.346l-28.346-28.347  v56.692l-28.393,28.084l0.046,28.608l-28.346,0.001v42.52l14.173,14.174h42.52v-28.347h56.693l-42.52-42.52l14.173-14.174h141.732  l28.347,28.347l28.346-28.347v-28.347L495.851,633.969z M311.599,733.181h-28.347v-28.346L311.599,733.181z M495.851,690.661  l-14.173-14.173l14.173-14.174l14.173,14.174L495.851,690.661z"/>
<polygon fill="none" stroke="#000000" stroke-miterlimit="10" points="269.079,180.425 325.772,123.732 339.945,137.905   297.425,180.424 325.771,208.771 325.772,293.812 297.426,322.157 325.772,350.503 354.119,350.503 382.465,322.157   354.119,293.812 354.119,180.425 410.812,123.732 467.504,123.731 382.464,208.771 382.464,279.638 424.984,322.157   368.292,378.851 311.599,378.851 269.079,336.331 269.079,293.812 297.426,293.812 297.425,208.771 "/>
<path fill="none" stroke="#000000" stroke-miterlimit="10" d="M382.465,322.157l-28.346-28.346V180.425l56.692-56.692h-28.347  l-28.345-28.347h-56.693V67.04h-56.693v56.693h28.347v56.692l56.693-56.692l14.172,14.173l-14.173,14.173l0.001,141.733  l-28.347,28.346l28.347,28.346h28.347L382.465,322.157z M283.253,137.905v-28.346h28.346L283.253,137.905z M325.772,322.157  l14.173-14.173l14.174,14.173l-14.174,14.174L325.772,322.157z"/>
<polygon fill="none" stroke="#000000" stroke-miterlimit="10" points="836.009,95.385 892.701,152.079 864.354,152.079   836.009,152.079 793.488,152.079 779.314,166.251 765.142,152.079 722.621,152.079 694.275,123.732 665.93,152.079 665.93,180.425   694.275,208.771 722.621,180.425 765.142,180.425 779.314,194.598 793.488,180.425 836.009,180.425 864.354,180.425   864.354,251.292 836.008,222.945 793.488,222.945 779.314,237.118 765.142,222.945 722.621,222.945 694.275,251.291   637.582,194.598 637.582,137.905 680.102,95.385 722.621,95.385 722.621,123.732 765.142,123.732 779.314,137.904 793.488,123.732   836.009,123.732 "/>
<path fill="none" stroke="#000000" stroke-miterlimit="10" d="M807.661,520.583l28.346,28.346v113.388l-56.691,56.692l28.346-0.001  l28.346,28.348H892.7v28.346h56.693v-56.692h-28.347v-56.692l-56.693,56.692l-28.347-28.347l28.347-28.346V548.929l28.347-28.346  l-28.347-28.346h-28.347L807.661,520.583z M906.873,704.836v28.346h-28.346L906.873,704.836z M864.354,520.583l-14.173,14.174  l-14.174-14.174l14.174-14.174L864.354,520.583z"/>
<polygon fill="none" stroke="#000000" stroke-miterlimit="10" points="921.047,548.929 921.047,506.409 878.527,463.89   821.835,463.89 765.142,520.583 807.661,563.103 807.661,648.142 765.142,690.661 750.969,690.661 750.969,577.275 694.275,577.275   694.275,605.622 722.622,605.622 722.622,719.008 779.315,719.009 836.007,662.316 836.007,548.929 807.661,520.583   836.007,492.237 864.354,492.237 892.7,520.583 864.354,548.929 864.354,662.316 836.007,690.662 864.354,719.009 921.047,662.316   892.7,662.316 892.7,548.929 "/>
<path fill="none" stroke="#000000" stroke-miterlimit="10" d="M892.701,67.04l-28.347,28.346l-28.346,0l56.692,56.693l-28.347-0.001  l-28.346,0.001l-42.521-0.001l-14.174,14.173l-14.173-14.173l-42.521,0.001l-28.346-28.347L665.93,152.08v28.347l28.346,28.346  l28.346-28.346l42.521-0.001l14.173,14.173l14.174-14.173l42.521,0.001l28.346-0.001l0.001,28.347l-0.001,42.519l-28.347-28.347  h-42.52l-14.174,14.173l-14.173-14.173l-42.521,0l-42.519,42.519v28.347h28.347l14.174-14.173l-0.001-28.346h28.347l14.173,14.173  l28.347,28.347l-28.347,28.346h99.213l28.347-28.347v-56.692v-28.347v-28.345h28.347v-56.693h28.346V67.04H892.701z   M694.275,180.426l-14.174-14.174l14.174-14.173l14.174,14.173L694.275,180.426z M850.181,293.811h-28.346l-14.174-14.173v-28.346  h14.174l28.346,28.346V293.811z M935.221,109.559l-28.347,0v28.347l-28.978-27.96l28.346-28.348L935.221,109.559z"/>
<path fill="none" stroke="#000000" stroke-miterlimit="10" d="M949.394,407.197v-56.693h-28.347v-56.693l-28.346,0l-28.347,28.347  h-70.866l28.347,28.347l-56.693,56.693l28.347,28.346h42.52v28.347h42.52l42.52,42.52v-14.173h28.347v-56.693h28.347v-28.346  H949.394z M921.047,463.89l-28.346-28.347h-28.347v-28.346h-56.693l56.693-56.693h28.347v28.347h28.346V463.89z"/>
<path fill="none" stroke="#000000" stroke-miterlimit="10" d="M580.891,67.04h-56.693v28.347h-56.693l0,28.346l14.173,14.173h14.173  v85.04l28.347-28.347l42.515,42.515l28.35,0.005l14.174-14.174v-56.693l70.866-70.866H665.93V67.04h-56.693V38.693h-28.346V67.04z   M637.583,95.386l-56.692,56.692v56.693l-56.693-56.693v-28.347h28.347V95.386H637.583z"/>
<path fill="none" stroke="#000000" stroke-miterlimit="10" d="M694.275,364.677l-28.346,28.346v-42.52h-56.693v-28.346h-14.173  l-28.347-28.347l-28.346,28.347l28.346,28.346H538.37l-14.173,14.173v42.52h-28.346v14.173l-28.347,28.347l28.347,28.347  l28.346-28.347v42.52h56.693l0,28.347h14.173l28.347,28.347l28.346-28.347l-28.346-28.347h42.52v-56.693h28.346V421.37  l28.347-28.347L694.275,364.677z M637.582,449.717v14.173h-28.346l-28.347-28.347v28.347h-28.346v-42.52l-14.173-14.173  l14.173-14.172v-14.175h28.346l28.347,28.347v-28.347h28.346v42.522l14.174,14.171L637.582,449.717z"/>
<polygon fill="none" stroke="#000000" stroke-miterlimit="10" points="637.582,137.905 609.236,166.252 609.236,222.945   623.409,222.945 623.409,237.118 566.716,293.811 595.063,322.158 609.236,322.158 609.236,350.504 665.93,350.504 708.449,350.504   694.275,364.677 722.622,393.023 765.142,350.504 793.488,378.851 793.488,322.157 765.142,322.157 793.488,293.811   750.969,251.292 722.622,251.292 722.622,279.638 750.969,307.984 736.795,322.157 637.582,322.157 637.582,279.638 665.93,279.638   665.93,222.945 637.582,194.598 "/>
<path fill="none" stroke="#000000" stroke-miterlimit="10" d="M566.716,605.622l-56.693-0.001l42.52,42.521v56.693l-42.52,42.519  h42.52L580.89,775.7v28.347h28.346V775.7l28.347-28.347l85.04,0.001l28.347-28.347l-28.348-0.001l0.001,0.001v-28.347h-28.347  v-28.347h-56.693v-28.346l56.693,0.001l-28.347-28.349h-42.52l-28.347-28.346L566.716,605.622z M609.235,619.795v70.866h56.693  v28.346h-56.693v28.347l-14.173,14.174l-14.173-14.174V619.795l14.173-14.174L609.235,619.795z"/>
<path fill="none" stroke="#000000" stroke-miterlimit="10" d="M609.236,222.945l-14.174,14.174l-28.35-0.005l-42.515-42.515  l-28.347,28.347l-28.347-28.346v-14.173l28.347-28.347v-14.173h-14.173l-14.173-14.173l-85.04,85.04v42.52l56.693,56.693  l-28.346,28.346v56.693l56.693,56.693l28.347-28.347v-42.52h14.173l28.347-28.347h28.346l-56.693-56.693h56.693l56.693-56.693  v-14.173H609.236z M510.023,265.464l-28.346,28.347l42.52,42.52l-28.346,28.347l-14.173,0l-14.173,14.174v28.347l-28.347-28.347  v-28.347l28.347-28.347v-28.346l-56.693-56.693l28.346-28.347l42.52,42.52l14.173-14.173h28.346l28.347,28.346H510.023z"/>
<path fill="none" stroke="#000000" stroke-miterlimit="10" d="M793.488,435.543L793.488,435.543l-28.347-28.346l28.347-28.347  l-28.347-28.347l-70.866,70.866v28.347l-28.346,28.346v14.174h-42.52l28.346,28.347L623.41,548.93l-28.347-28.347H580.89l0-14.174  h-14.173l-28.346,28.347h-70.866l-14.173-14.173h-28.346l-28.347,28.346l28.347,28.347h28.346l14.173-14.173h28.347h56.693  l14.173-14.174l28.346,28.347l28.347,28.346l14.173,0.001v-28.347l28.347,28.346l0.001,28.348h-28.348v28.346h56.693l28.347,28.347  v-85.039h-28.347v-28.347h56.693v-28.347l28.346,28.347v28.347v28.347h-28.346v28.346h42.52l14.173-14.173v-85.039l-42.52-42.52  l56.693-56.693h14.173v-28.347H793.488z M439.157,563.103l-14.173-14.174l14.173-14.173l14.173,14.173L439.157,563.103z   M736.795,492.236v42.52l-14.173,14.173l-14.173-14.173h-14.174v-28.347l28.347-28.347v-28.346l28.347-28.347l28.346,28.347  L736.795,492.236z"/>
<path fill="none" stroke="#000000" stroke-miterlimit="10" d="M694.275,633.969"/>
<path fill="none" stroke="#000000" stroke-miterlimit="10" d="M566.716,577.275v-28.347l-14.173,14.174h-85.04l-14.173,14.173  h-28.346l-28.347-28.347l28.347-28.346h14.173v-42.521l14.173,14.174l14.173,14.173l14.173,14.174h-28.347l14.173,14.173h70.866  l28.346-28.347h14.173v-14.173h-70.866l-14.173-14.173l-56.693-56.693l-28.346,28.347v42.52h-56.693v28.347l-28.347,28.346v28.347  l42.52,42.52h99.212l28.347-28.346l14.173,14.172l56.693,0.001l28.346-28.347H566.716z M382.464,605.622l-28.346-28.347v-28.347  l56.693,56.693H382.464z"/>
<path fill="none" stroke="#000000" stroke-miterlimit="10" d="M410.811,393.023v-56.693l-42.52,42.52h-56.693l-42.52-42.52l0,42.52  l-28.346,28.347h-28.347v28.346h28.347l28.346,28.347v28.347v56.692h28.347v56.693l28.346-28.347v-56.692h28.347v-28.347h56.693  v-42.52l28.346-28.347L410.811,393.023z M396.638,435.543h-14.173v28.347h-56.693v28.347h-28.346v-56.693h-28.347l-14.173-14.173  l14.173-14.173h56.693v28.346h28.347v-28.346h42.52l14.173,14.173L396.638,435.543z"/>
<text transform="matrix(1 0 0 1 223.5 794.5)" font-family="'MyriadPro-Regular'" font-size="12">© island-design.eu</text>
</svg>
