<?xml version="1.0" encoding="UTF-8" standalone="no"?>
<!-- Generator: Adobe Illustrator 16.0.0, SVG Export Plug-In . SVG Version: 6.00 Build 0)  -->
<svg xmlns:dc="http://purl.org/dc/elements/1.1/" xmlns:cc="http://creativecommons.org/ns#" xmlns:rdf="http://www.w3.org/1999/02/22-rdf-syntax-ns#" xmlns:svg="http://www.w3.org/2000/svg" xmlns="http://www.w3.org/2000/svg" xmlns:sodipodi="http://sodipodi.sourceforge.net/DTD/sodipodi-0.dtd" xmlns:inkscape="http://www.inkscape.org/namespaces/inkscape" version="1.1" x="0px" y="0px" width="20in" height="12in" viewBox="0 0 1920 1152" xml:space="preserve" id="svg4685" sodipodi:docname="TrayPuzzle.svg" inkscape:version="0.92.1 15371">
  <defs id="defs4689"/>
  <g id="Layer_2" style="stroke:#0000ff;stroke-width:1.5;stroke-miterlimit:7;stroke-dasharray:none" transform="rotate(-45,1161.8898,-309.95253)">
    <polygon stroke-miterlimit="10" points="303.114,132.669 303.114,175.189 260.594,175.189 189.728,246.055 189.728,288.575 147.208,288.575 76.342,359.44 76.342,444.48 147.208,515.347 189.728,515.347 189.728,557.866 260.594,628.732 303.114,628.732 303.114,671.252 373.98,742.118 459.02,742.118 529.886,671.252 529.886,628.732 572.405,628.732 643.271,557.866 643.271,515.347 685.791,515.347 756.657,444.48 756.657,359.44 685.791,288.575 643.271,288.575 643.271,246.055 572.405,175.189 529.886,175.189 529.886,132.669 459.02,61.803 373.98,61.803 " id="polygon4621" style="fill:none;stroke:#0000ff;stroke-width:1.5;stroke-linejoin:round;stroke-miterlimit:7;stroke-dasharray:none"/>
  </g>
  <g id="g5159" transform="rotate(-45,519.13674,506.75642)" style="stroke-width:1.5;stroke-miterlimit:7;stroke-dasharray:none">
    <g style="stroke:#008000;stroke-width:1.5;stroke-miterlimit:7;stroke-dasharray:none" transform="translate(0,310.10998)" id="g4628">
      <polygon stroke-miterlimit="10" points="444.846,543.693 388.153,543.693 331.46,600.387 331.46,657.079 388.153,713.772 444.846,713.772 501.539,657.079 501.539,600.387 487.365,586.213 459.02,614.56 459.02,642.905 430.673,671.252 402.327,671.252 373.98,642.905 373.98,614.56 402.327,586.213 430.673,586.213 459.019,557.866 " id="polygon4626" style="fill:none;stroke:#008000;stroke-width:1.5;stroke-linejoin:round;stroke-miterlimit:7;stroke-dasharray:none"/>
    </g>
    <path inkscape:connector-curvature="0" id="path4765" d="m 614.926,797.11198 h 56.692 l 56.693,-56.693 v -56.692 l -56.693,-56.695 h -56.692 l -14.173,14.173 h -28.348 v 28.348 l -14.172,14.173 v 56.692" style="fill:none;stroke:#008000;stroke-width:1.5;stroke-linejoin:round;stroke-miterlimit:7;stroke-dasharray:none"/>
    <path inkscape:connector-curvature="0" id="path4763" d="m 586.578,655.37898 h 14.173 v 14.173 h -14.173 z" style="fill:none;stroke:#008000;stroke-width:1.5;stroke-linejoin:round;stroke-miterlimit:7;stroke-dasharray:none"/>
    <path inkscape:connector-curvature="0" id="path4630" d="m 699.966,740.41798 h -28.348 v 28.347 h -42.52 v -28.347 l -28.347,28.347 h -14.173 v -14.175 l 28.346,-28.347 h -28.346 l 10e-4,-42.519 h 28.346 v -28.347 h 56.692 v 28.347 h 28.348 v 56.694 z" style="fill:none;stroke:#008000;stroke-width:1.5;stroke-linejoin:round;stroke-miterlimit:7;stroke-dasharray:none"/>
    <polygon transform="translate(0,310.10998)" stroke-miterlimit="10" points="473.192,217.709 480.279,224.796 501.539,203.536 501.539,146.843 444.846,90.15 388.153,90.15 331.46,146.843 331.46,203.535 345.634,217.709 359.807,203.536 359.807,146.843 388.153,118.498 444.846,118.496 459.019,132.669 473.192,146.843 402.327,146.843 388.153,161.016 388.153,231.882 373.98,246.056 388.153,260.229 388.153,260.229 444.846,260.229 452.071,253.003 455.684,249.39 466.105,238.969 459.02,231.882 416.5,231.882 416.5,189.363 430.673,189.362 430.673,175.189 473.192,175.189 473.192,189.362 " id="polygon4632" style="fill:none;stroke:#008000;stroke-width:1.5;stroke-linejoin:round;stroke-miterlimit:7;stroke-dasharray:none"/>
    <path inkscape:connector-curvature="0" id="path4747" d="m 444.845,570.33798 v 56.692" style="fill:none;stroke:#008000;stroke-width:1.5;stroke-linejoin:round;stroke-miterlimit:7;stroke-dasharray:none"/>
    <path inkscape:connector-curvature="0" id="path4753" d="m 459.018,641.20298 h 28.347 v 28.346 h -0.001" style="fill:none;stroke:#008000;stroke-width:1.5;stroke-linejoin:round;stroke-miterlimit:7;stroke-dasharray:none"/>
    <path inkscape:connector-curvature="0" id="path4759" d="m 501.538,683.72398 h 56.693" style="fill:none;stroke:#008000;stroke-width:1.5;stroke-linejoin:round;stroke-miterlimit:7;stroke-dasharray:none"/>
    <path inkscape:connector-curvature="0" id="path4733" d="m 614.924,627.02998 v -56.692 l -56.692,-56.692 h -56.693" style="fill:none;stroke:#008000;stroke-width:1.5;stroke-linejoin:round;stroke-miterlimit:7;stroke-dasharray:none"/>
    <path inkscape:connector-curvature="0" id="path4634" d="m 586.579,627.03198 h -28.347 v 28.347 h -56.693 v -14.174 h 28.346 v -42.52 h -42.52 v 28.346 10e-4 h -14.173 v -56.692 h 28.346 v -28.347 h 56.693 v 28.347 h 28.347 v 56.692 z" style="fill:none;stroke:#008000;stroke-width:1.5;stroke-linejoin:round;stroke-miterlimit:7;stroke-dasharray:none"/>
    <path inkscape:connector-curvature="0" id="path4794" d="m 501.539,910.49698 h 56.692 l 56.693,-56.693 v -56.692 l -14.173,-14.175 h -28.346 v -28.346 l -14.173,-14.174 H 501.54 l -21.26,21.26 21.259,21.26 v -14.173 h 28.347 28.346 v 28.347 h 28.348 v 56.692 h -28.348 v 28.347 H 501.54 v -28.347 h -28.346 v -28.347 -28.346 h 14.174 l -21.26,-21.26 -21.26,21.26 v 56.692" style="fill:none;stroke:#008000;stroke-width:1.5;stroke-linejoin:round;stroke-miterlimit:7;stroke-dasharray:none"/>
    <path inkscape:connector-curvature="0" id="path4636" d="m 430.673,953.01598 h -28.347 v -28.346 h 28.347 z" style="fill:none;stroke:#008000;stroke-width:1.5;stroke-linejoin:round;stroke-miterlimit:7;stroke-dasharray:none"/>
    <path sodipodi:nodetypes="ccc" inkscape:connector-curvature="0" id="path4778" d="m 473.193,825.45698 h 56.693 v -56.693" style="fill:none;stroke:#008000;stroke-width:1.5;stroke-linejoin:round;stroke-miterlimit:7;stroke-dasharray:none"/>
    <path sodipodi:nodetypes="ccccccccccccccccccccccccc" inkscape:connector-curvature="0" id="polygon4638" d="m 501.54,740.41798 v -56.693 l -14.175,-14.175 h -28.346 v -28.345 l -14.173,-14.173 h -56.693 l -56.693,56.693 v 56.693 l 28.346,28.345 h 28.347 v -28.345 l -28.347,0.001 0.001,-56.694 h 28.346 v -28.346 l 42.52,-10e-4 v 42.52 h 42.52 v 42.52 h -28.347 v 28.346 H 416.5 m 0,28.346 28.346,0.001" style="fill:none;stroke:#008000;stroke-width:1.5;stroke-linejoin:round;stroke-miterlimit:7;stroke-dasharray:none"/>
    <path inkscape:connector-curvature="0" id="path4804" d="M 331.459,740.41798 H 274.767" style="fill:none;stroke:#008000;stroke-width:1.5;stroke-linejoin:round;stroke-miterlimit:7;stroke-dasharray:none"/>
    <path inkscape:connector-curvature="0" id="path4802" d="m 274.767,740.41798 -28.346,28.346 h -0.001 v 0 l -28.347,0.001 v -28.347 h 28.348 l -0.001,-28.347" style="fill:none;stroke:#008000;stroke-width:1.5;stroke-linejoin:round;stroke-miterlimit:7;stroke-dasharray:none"/>
    <path sodipodi:nodetypes="cccccccccccccc" inkscape:connector-curvature="0" id="path4798" d="M 246.42,712.07098 H 226.98758 189.727 v 85.039 l 28.347,0.001 10e-4,-0.001 v 0 l -10e-4,0.001 v 56.692 l 14.173,14.173 h 14.173 v 14.173 l 28.347,28.348 h 56.692" style="fill:none;stroke:#008000;stroke-width:1.5;stroke-linejoin:round;stroke-miterlimit:7;stroke-dasharray:none"/>
    <path sodipodi:nodetypes="cccccc" inkscape:connector-curvature="0" id="path4782" d="m 388.152,853.80398 v -56.692 -0.002 H 416.5 v -85.039 h -56.693" style="fill:none;stroke:#008000;stroke-width:1.5;stroke-linejoin:round;stroke-miterlimit:7;stroke-dasharray:none"/>
    <path inkscape:connector-curvature="0" id="path4640" d="M 359.808,853.80298 H 331.46 v 28.347 h -56.692 v -14.174 h 42.52 v -56.693 h 14.173 l -28.347,-28.347 -28.346,28.347 h 14.173 v 28.347 h -42.52 v -42.519 h 28.346 v -28.347 h 56.692 v 28.347 h 28.348 v 56.692 z" style="fill:none;stroke:#008000;stroke-width:1.5;stroke-linejoin:round;stroke-miterlimit:7;stroke-dasharray:none"/>
    <path inkscape:connector-curvature="0" id="path5107" d="m 685.787,598.68399 h -42.52 v -42.52 l -70.866,-70.866 h -42.52 v -42.52 l -70.865,-70.86601 h -85.04 l -70.866,70.86601 v 42.52 h -42.51999 l -70.866,70.866 v 42.52 h -42.52 l -70.866,70.865 v 85.04 l 70.866,70.866 h 42.52 v 42.52 l 70.866,70.866 H 303.11 v 42.52 l 70.866,70.86601 h 85.04 l 70.866,-70.86601 v -42.52 h 42.52 l 70.866,-70.866 v -42.52 h 42.52 l 70.866,-70.866 v -85.04 z" style="fill:none;stroke:#008000;stroke-width:1.5;stroke-linejoin:round;stroke-miterlimit:7;stroke-dasharray:none"/>
    <path inkscape:connector-curvature="0" id="path4824" d="m 274.768,740.41698 -10e-4,-113.386" style="fill:none;stroke:#008000;stroke-width:1.5;stroke-linejoin:round;stroke-miterlimit:7;stroke-dasharray:none"/>
    <path inkscape:connector-curvature="0" id="path4820" d="m 274.767,627.03098 -113.385,10e-4 -56.693,56.693 v 56.692 l 56.693,56.693 h 28.346" style="fill:none;stroke:#008000;stroke-width:1.5;stroke-linejoin:round;stroke-miterlimit:7;stroke-dasharray:none"/>
    <path inkscape:connector-curvature="0" id="path4814" d="m 189.728,768.76398 h -28.346 v -28.347 h -28.346 v -56.692 h 14.173 v 14.173 h 14.173 v 14.173 h 14.173 v 14.173 h 14.173" style="fill:none;stroke:#008000;stroke-width:1.5;stroke-linejoin:round;stroke-miterlimit:7;stroke-dasharray:none"/>
    <path inkscape:connector-curvature="0" id="path4808" d="m 203.901,712.07098 v -14.173 h -14.173 v -14.174 h -14.173 v -14.174 h -14.173 v -14.172 h 56.692 v 28.347 h 28.348 l -0.002,28.346" style="fill:none;stroke:#008000;stroke-width:1.5;stroke-linejoin:round;stroke-miterlimit:7;stroke-dasharray:none"/>
    <path inkscape:connector-curvature="0" id="path4644" d="m 260.594,669.54998 h -28.346 v -28.346 h 28.346 z" style="fill:none;stroke:#008000;stroke-width:1.5;stroke-linejoin:round;stroke-miterlimit:7;stroke-dasharray:none"/>
    <path sodipodi:nodetypes="cccccc" inkscape:connector-curvature="0" id="path4741" d="m 331.461,513.64498 h -56.692 l -56.693,56.693 v 56.692 m 56.693,56.694 h 56.693" style="fill:none;stroke:#008000;stroke-width:1.5;stroke-linejoin:round;stroke-miterlimit:7;stroke-dasharray:none"/>
    <path inkscape:connector-curvature="0" id="path4729" d="m 388.155,627.03098 v -56.692" style="fill:none;stroke:#008000;stroke-width:1.5;stroke-linejoin:round;stroke-miterlimit:7;stroke-dasharray:none"/>
    <path inkscape:connector-curvature="0" id="path4725" d="m 345.634,541.99198 h 14.173 v 14.173 h -14.173 z" style="fill:none;stroke:#008000;stroke-width:1.5;stroke-linejoin:round;stroke-miterlimit:7;stroke-dasharray:none"/>
    <path inkscape:connector-curvature="0" id="path4646" d="m 359.807,627.03098 h -28.346 v 28.347 h -28.347 v -28.347 -14.173 -14.173 h -56.693 v -28.346 h 28.348 v -28.347 h 56.693 v 28.346 h 28.346 z" style="fill:none;stroke:#008000;stroke-width:1.5;stroke-linejoin:round;stroke-miterlimit:7;stroke-dasharray:none"/>
    <g style="stroke:none;stroke-width:1.5;stroke-miterlimit:7;stroke-dasharray:none" transform="translate(0,310.10998)" id="g4682">
      <path style="stroke:none;stroke-width:1.5;stroke-miterlimit:7;stroke-dasharray:none" d="m 377.9,725.922 c 0,2.063 -1.583,3.719 -3.61,3.719 -2.039,0 -3.646,-1.655 -3.646,-3.719 0,-2.039 1.607,-3.693 3.646,-3.693 2.027,0 3.61,1.654 3.61,3.693 z m -6.656,0.036 c 0,1.787 1.319,3.19 3.046,3.19 1.691,0 3.01,-1.403 3.01,-3.227 0,-1.787 -1.319,-3.201 -3.01,-3.201 -1.727,10e-4 -3.046,1.415 -3.046,3.238 z m 4.509,-1.403 c -0.156,-0.084 -0.6,-0.275 -1.164,-0.275 -1.127,0 -1.679,0.719 -1.679,1.679 0,0.936 0.587,1.691 1.691,1.691 0.479,0 0.936,-0.132 1.211,-0.312 l 0.144,0.455 c -0.419,0.275 -0.971,0.372 -1.475,0.372 -1.391,0 -2.195,-0.96 -2.195,-2.171 0,-1.367 1.08,-2.23 2.291,-2.23 0.624,0 1.163,0.18 1.319,0.324 z" id="path4648" inkscape:connector-curvature="0"/>
      <path style="stroke:none;stroke-width:1.5;stroke-miterlimit:7;stroke-dasharray:none" d="M 382.835,721.916 V 730 h -1.043 v -8.084 z" id="path4650" inkscape:connector-curvature="0"/>
      <path style="stroke:none;stroke-width:1.5;stroke-miterlimit:7;stroke-dasharray:none" d="m 384.479,728.92 c 0.312,0.205 0.864,0.42 1.392,0.42 0.768,0 1.127,-0.383 1.127,-0.863 0,-0.504 -0.3,-0.779 -1.079,-1.067 -1.043,-0.372 -1.535,-0.947 -1.535,-1.644 0,-0.935 0.755,-1.702 2.003,-1.702 0.587,0 1.103,0.167 1.427,0.359 l -0.264,0.768 c -0.228,-0.144 -0.647,-0.335 -1.187,-0.335 -0.624,0 -0.972,0.359 -0.972,0.791 0,0.479 0.348,0.695 1.104,0.983 1.007,0.384 1.523,0.888 1.523,1.751 0,1.02 -0.792,1.739 -2.171,1.739 -0.635,0 -1.223,-0.156 -1.631,-0.396 z" id="path4652" inkscape:connector-curvature="0"/>
      <path style="stroke:none;stroke-width:1.5;stroke-miterlimit:7;stroke-dasharray:none" d="m 389.375,721.484 h 1.056 V 730 h -1.056 z" id="path4654" inkscape:connector-curvature="0"/>
      <path style="stroke:none;stroke-width:1.5;stroke-miterlimit:7;stroke-dasharray:none" d="m 395.422,730 -0.084,-0.731 h -0.036 c -0.324,0.456 -0.947,0.863 -1.775,0.863 -1.175,0 -1.775,-0.827 -1.775,-1.667 0,-1.403 1.247,-2.171 3.49,-2.158 v -0.121 c 0,-0.479 -0.132,-1.343 -1.319,-1.343 -0.54,0 -1.103,0.168 -1.511,0.432 l -0.24,-0.695 c 0.48,-0.312 1.176,-0.516 1.907,-0.516 1.775,0 2.207,1.211 2.207,2.374 v 2.172 c 0,0.503 0.024,0.994 0.096,1.391 h -0.96 z m -0.156,-2.963 c -1.151,-0.023 -2.459,0.181 -2.459,1.308 0,0.684 0.456,1.008 0.996,1.008 0.755,0 1.235,-0.479 1.403,-0.972 0.036,-0.107 0.06,-0.229 0.06,-0.336 z" id="path4656" inkscape:connector-curvature="0"/>
      <path style="stroke:none;stroke-width:1.5;stroke-miterlimit:7;stroke-dasharray:none" d="m 397.991,725.766 c 0,-0.6 -0.012,-1.091 -0.048,-1.57 h 0.936 l 0.06,0.959 h 0.024 c 0.288,-0.551 0.959,-1.091 1.919,-1.091 0.803,0 2.051,0.479 2.051,2.47 V 730 h -1.056 v -3.346 c 0,-0.936 -0.348,-1.715 -1.343,-1.715 -0.695,0 -1.235,0.491 -1.415,1.078 -0.048,0.133 -0.072,0.312 -0.072,0.492 V 730 h -1.056 z" id="path4658" inkscape:connector-curvature="0"/>
      <path style="stroke:none;stroke-width:1.5;stroke-miterlimit:7;stroke-dasharray:none" d="m 409.665,721.484 v 7.017 c 0,0.516 0.012,1.103 0.048,1.499 h -0.947 l -0.048,-1.008 h -0.024 c -0.324,0.648 -1.032,1.14 -1.979,1.14 -1.403,0 -2.483,-1.188 -2.483,-2.95 -0.012,-1.932 1.188,-3.118 2.603,-3.118 0.888,0 1.487,0.419 1.751,0.888 h 0.024 v -3.467 h 1.055 z m -1.056,5.075 c 0,-0.133 -0.012,-0.312 -0.048,-0.444 -0.156,-0.672 -0.731,-1.224 -1.523,-1.224 -1.091,0 -1.739,0.959 -1.739,2.243 0,1.175 0.576,2.146 1.715,2.146 0.708,0 1.355,-0.468 1.547,-1.259 0.036,-0.145 0.048,-0.288 0.048,-0.456 z" id="path4660" inkscape:connector-curvature="0"/>
      <path style="stroke:none;stroke-width:1.5;stroke-miterlimit:7;stroke-dasharray:none" d="m 413.866,726.366 v 0.779 h -2.962 v -0.779 z" id="path4662" inkscape:connector-curvature="0"/>
      <path style="stroke:none;stroke-width:1.5;stroke-miterlimit:7;stroke-dasharray:none" d="m 420.332,721.484 v 7.017 c 0,0.516 0.012,1.103 0.048,1.499 h -0.947 l -0.048,-1.008 h -0.024 c -0.324,0.648 -1.032,1.14 -1.979,1.14 -1.403,0 -2.483,-1.188 -2.483,-2.95 -0.012,-1.932 1.188,-3.118 2.603,-3.118 0.888,0 1.487,0.419 1.751,0.888 h 0.024 v -3.467 h 1.055 z m -1.055,5.075 c 0,-0.133 -0.012,-0.312 -0.048,-0.444 -0.156,-0.672 -0.731,-1.224 -1.523,-1.224 -1.091,0 -1.739,0.959 -1.739,2.243 0,1.175 0.576,2.146 1.715,2.146 0.708,0 1.355,-0.468 1.547,-1.259 0.036,-0.145 0.048,-0.288 0.048,-0.456 z" id="path4664" inkscape:connector-curvature="0"/>
      <path style="stroke:none;stroke-width:1.5;stroke-miterlimit:7;stroke-dasharray:none" d="m 422.675,727.289 c 0.024,1.428 0.935,2.016 1.991,2.016 0.755,0 1.211,-0.133 1.607,-0.301 l 0.18,0.756 c -0.372,0.168 -1.007,0.36 -1.931,0.36 -1.787,0 -2.854,-1.176 -2.854,-2.927 0,-1.751 1.032,-3.13 2.723,-3.13 1.895,0 2.399,1.667 2.399,2.734 0,0.216 -0.024,0.384 -0.036,0.491 h -4.079 z m 3.094,-0.756 c 0.012,-0.671 -0.276,-1.715 -1.463,-1.715 -1.067,0 -1.535,0.984 -1.619,1.715 z" id="path4666" inkscape:connector-curvature="0"/>
      <path style="stroke:none;stroke-width:1.5;stroke-miterlimit:7;stroke-dasharray:none" d="m 427.955,728.92 c 0.312,0.205 0.864,0.42 1.392,0.42 0.768,0 1.127,-0.383 1.127,-0.863 0,-0.504 -0.3,-0.779 -1.079,-1.067 -1.043,-0.372 -1.535,-0.947 -1.535,-1.644 0,-0.935 0.755,-1.702 2.003,-1.702 0.587,0 1.104,0.167 1.427,0.359 l -0.264,0.768 c -0.228,-0.144 -0.647,-0.335 -1.187,-0.335 -0.624,0 -0.972,0.359 -0.972,0.791 0,0.479 0.348,0.695 1.104,0.983 1.007,0.384 1.523,0.888 1.523,1.751 0,1.02 -0.792,1.739 -2.171,1.739 -0.635,0 -1.223,-0.156 -1.631,-0.396 z" id="path4668" inkscape:connector-curvature="0"/>
      <path style="stroke:none;stroke-width:1.5;stroke-miterlimit:7;stroke-dasharray:none" d="m 434.026,722.564 c 0.012,0.359 -0.252,0.647 -0.671,0.647 -0.372,0 -0.636,-0.288 -0.636,-0.647 0,-0.372 0.276,-0.66 0.66,-0.66 0.395,0 0.647,0.288 0.647,0.66 z M 432.851,730 v -5.805 h 1.056 V 730 Z" id="path4670" inkscape:connector-curvature="0"/>
      <path style="stroke:none;stroke-width:1.5;stroke-miterlimit:7;stroke-dasharray:none" d="m 440.66,724.195 c -0.024,0.42 -0.048,0.887 -0.048,1.596 v 3.369 c 0,1.332 -0.264,2.146 -0.827,2.65 -0.564,0.528 -1.379,0.696 -2.111,0.696 -0.696,0 -1.463,-0.168 -1.931,-0.479 l 0.264,-0.805 c 0.384,0.24 0.983,0.457 1.703,0.457 1.08,0 1.871,-0.564 1.871,-2.027 v -0.648 h -0.024 c -0.324,0.541 -0.948,0.973 -1.847,0.973 -1.439,0 -2.471,-1.224 -2.471,-2.831 0,-1.967 1.284,-3.082 2.615,-3.082 1.007,0 1.559,0.527 1.811,1.007 h 0.024 l 0.048,-0.875 h 0.923 z m -1.092,2.291 c 0,-0.18 -0.012,-0.336 -0.06,-0.48 -0.192,-0.611 -0.708,-1.115 -1.476,-1.115 -1.007,0 -1.727,0.852 -1.727,2.195 0,1.139 0.576,2.086 1.715,2.086 0.647,0 1.235,-0.407 1.463,-1.078 0.06,-0.181 0.083,-0.385 0.083,-0.564 v -1.044 z" id="path4672" inkscape:connector-curvature="0"/>
      <path style="stroke:none;stroke-width:1.5;stroke-miterlimit:7;stroke-dasharray:none" d="m 442.295,725.766 c 0,-0.6 -0.012,-1.091 -0.048,-1.57 h 0.936 l 0.06,0.959 h 0.024 c 0.288,-0.551 0.959,-1.091 1.919,-1.091 0.803,0 2.051,0.479 2.051,2.47 V 730 h -1.056 v -3.346 c 0,-0.936 -0.348,-1.715 -1.343,-1.715 -0.695,0 -1.235,0.491 -1.415,1.078 -0.048,0.133 -0.072,0.312 -0.072,0.492 V 730 h -1.056 z" id="path4674" inkscape:connector-curvature="0"/>
      <path style="stroke:none;stroke-width:1.5;stroke-miterlimit:7;stroke-dasharray:none" d="m 448.703,729.377 c 0,-0.444 0.3,-0.756 0.72,-0.756 0.42,0 0.708,0.312 0.708,0.756 0,0.432 -0.276,0.755 -0.72,0.755 -0.42,0 -0.708,-0.323 -0.708,-0.755 z" id="path4676" inkscape:connector-curvature="0"/>
      <path style="stroke:none;stroke-width:1.5;stroke-miterlimit:7;stroke-dasharray:none" d="m 452.026,727.289 c 0.024,1.428 0.935,2.016 1.991,2.016 0.755,0 1.211,-0.133 1.607,-0.301 l 0.18,0.756 c -0.372,0.168 -1.007,0.36 -1.931,0.36 -1.787,0 -2.854,-1.176 -2.854,-2.927 0,-1.751 1.032,-3.13 2.723,-3.13 1.895,0 2.399,1.667 2.399,2.734 0,0.216 -0.024,0.384 -0.036,0.491 h -4.079 z m 3.095,-0.756 c 0.012,-0.671 -0.276,-1.715 -1.463,-1.715 -1.067,0 -1.535,0.984 -1.619,1.715 z" id="path4678" inkscape:connector-curvature="0"/>
      <path style="stroke:none;stroke-width:1.5;stroke-miterlimit:7;stroke-dasharray:none" d="m 462.308,728.417 c 0,0.6 0.012,1.128 0.048,1.583 h -0.936 l -0.06,-0.947 h -0.024 c -0.276,0.468 -0.887,1.079 -1.919,1.079 -0.911,0 -2.003,-0.503 -2.003,-2.542 v -3.395 h 1.056 v 3.214 c 0,1.104 0.336,1.847 1.295,1.847 0.708,0 1.199,-0.491 1.391,-0.959 0.06,-0.156 0.096,-0.348 0.096,-0.539 v -3.562 h 1.056 z" id="path4680" inkscape:connector-curvature="0"/>
    </g>
    <g style="stroke:#008000;stroke-width:1.5;stroke-miterlimit:7;stroke-dasharray:none" transform="translate(1319.2072,708.62466)" id="g5067">
      <path inkscape:connector-curvature="0" id="path5101" d="m -846.07568,-209.22744 h -28.347 v 14.173 h -14.173 v 28.346" style="fill:none;stroke:#008000;stroke-width:1.5;stroke-linejoin:round;stroke-miterlimit:7;stroke-dasharray:none"/>
    </g>
  </g>
</svg>
