<?xml version="1.0" standalone="no"?>
<!DOCTYPE svg PUBLIC "-//W3C//DTD SVG 1.1//EN" "http://www.w3.org/Graphics/SVG/1.1/DTD/svg11.dtd">
<svg width="232mm" height="855mm" viewBox="0 -840 232 855" xmlns="http://www.w3.org/2000/svg" version="1.1">
<title>OpenSCAD Model</title>
<path d="
M 228.75,-680.071 L 229.236,-680.196 L 229.703,-680.381 L 230.143,-680.623 L 230.55,-680.918 L 230.916,-681.262
 L 231.236,-681.649 L 231.505,-682.073 L 231.719,-682.527 L 231.874,-683.005 L 231.968,-683.499 L 232,-684
 L 232,-836 L 231.968,-836.501 L 231.874,-836.995 L 231.719,-837.472 L 231.505,-837.927 L 231.236,-838.351
 L 230.916,-838.738 L 230.55,-839.082 L 230.143,-839.377 L 229.703,-839.619 L 229.236,-839.804 L 228.75,-839.929
 L 228.251,-839.992 L 3.74883,-839.992 L 3.25047,-839.929 L 2.76393,-839.804 L 2.29688,-839.619 L 1.85669,-839.377
 L 1.4503,-839.082 L 1.08412,-838.738 L 0.763931,-838.351 L 0.494766,-837.927 L 0.280884,-837.472 L 0.125656,-836.995
 L 0.0315399,-836.501 L 0,-836 L 0,-684 L 0.0315399,-683.499 L 0.125656,-683.005 L 0.280884,-682.527
 L 0.494766,-682.073 L 0.763931,-681.649 L 1.08412,-681.262 L 1.4503,-680.918 L 1.85669,-680.623 L 2.29688,-680.381
 L 2.76393,-680.196 L 3.25047,-680.071 L 3.74883,-680.008 L 228.251,-680.008 z
M 228.75,-510.071 L 229.236,-510.196 L 229.703,-510.381 L 230.143,-510.623 L 230.55,-510.918 L 230.916,-511.262
 L 231.236,-511.649 L 231.505,-512.073 L 231.719,-512.528 L 231.874,-513.005 L 231.968,-513.499 L 232,-514
 L 232,-666 L 231.968,-666.501 L 231.874,-666.995 L 231.719,-667.472 L 231.505,-667.927 L 231.236,-668.351
 L 230.916,-668.738 L 230.55,-669.082 L 230.143,-669.377 L 229.703,-669.619 L 229.236,-669.804 L 228.75,-669.929
 L 228.251,-669.992 L 3.74883,-669.992 L 3.25047,-669.929 L 2.76393,-669.804 L 2.29688,-669.619 L 1.85669,-669.377
 L 1.4503,-669.082 L 1.08412,-668.738 L 0.763931,-668.351 L 0.494766,-667.927 L 0.280884,-667.472 L 0.125656,-666.995
 L 0.0315399,-666.501 L 0,-666 L 0,-514 L 0.0315399,-513.499 L 0.125656,-513.005 L 0.280884,-512.528
 L 0.494766,-512.073 L 0.763931,-511.649 L 1.08412,-511.262 L 1.4503,-510.918 L 1.85669,-510.623 L 2.29688,-510.381
 L 2.76393,-510.196 L 3.25047,-510.071 L 3.74883,-510.008 L 228.251,-510.008 z
M 5,-515 L 5,-587.42 L 101,-587.42 L 101,-603.013 L 21.0919,-603.013 L 20.282,-603.115
 L 19.4914,-603.318 L 18.7324,-603.619 L 18.0171,-604.012 L 17.3567,-604.492 L 16.7617,-605.05 L 16.2414,-605.679
 L 15.804,-606.369 L 15.4565,-607.107 L 15.2042,-607.884 L 15.0513,-608.685 L 15,-609.5 L 15,-650.5
 L 15.0513,-651.315 L 15.2042,-652.116 L 15.4565,-652.893 L 15.804,-653.631 L 16.2414,-654.321 L 16.7617,-654.95
 L 17.3567,-655.508 L 18.0171,-655.988 L 18.7324,-656.381 L 19.4914,-656.682 L 20.282,-656.885 L 21.0919,-656.987
 L 211.908,-656.987 L 212.718,-656.885 L 213.509,-656.682 L 214.268,-656.381 L 214.983,-655.988 L 215.643,-655.508
 L 216.238,-654.95 L 216.759,-654.321 L 217.196,-653.631 L 217.544,-652.893 L 217.796,-652.116 L 217.949,-651.315
 L 218,-650.5 L 218,-609.5 L 217.949,-608.685 L 217.796,-607.884 L 217.544,-607.107 L 217.196,-606.369
 L 216.759,-605.679 L 216.238,-605.05 L 215.643,-604.492 L 214.983,-604.012 L 214.268,-603.619 L 213.509,-603.318
 L 212.718,-603.115 L 211.908,-603.013 L 131,-603.013 L 131,-587.42 L 228,-587.42 L 228,-515
 z
M 228.75,-340.071 L 229.236,-340.196 L 229.703,-340.381 L 230.143,-340.623 L 230.55,-340.918 L 230.916,-341.262
 L 231.236,-341.649 L 231.505,-342.073 L 231.719,-342.527 L 231.874,-343.005 L 231.968,-343.499 L 232,-344
 L 232,-496 L 231.968,-496.501 L 231.874,-496.995 L 231.719,-497.473 L 231.505,-497.927 L 231.236,-498.351
 L 230.916,-498.738 L 230.55,-499.082 L 230.143,-499.377 L 229.703,-499.619 L 229.236,-499.804 L 228.75,-499.929
 L 228.251,-499.992 L 34,-499.992 L 34,-486.987 L 211.908,-486.987 L 212.718,-486.885 L 213.509,-486.682
 L 214.268,-486.381 L 214.983,-485.988 L 215.643,-485.508 L 216.238,-484.95 L 216.759,-484.321 L 217.196,-483.631
 L 217.544,-482.893 L 217.796,-482.116 L 217.949,-481.315 L 218,-480.5 L 218,-439.5 L 217.949,-438.685
 L 217.796,-437.884 L 217.544,-437.107 L 217.196,-436.369 L 216.759,-435.679 L 216.238,-435.05 L 215.643,-434.492
 L 214.983,-434.012 L 214.268,-433.619 L 213.509,-433.318 L 212.718,-433.115 L 211.908,-433.013 L 131,-433.013
 L 131,-417.42 L 228,-417.42 L 228,-345 L 5,-345 L 5,-417.42 L 101,-417.42
 L 101,-433.013 L 21.0919,-433.013 L 20.282,-433.115 L 19.4914,-433.318 L 18.7324,-433.619 L 18.0171,-434.012
 L 17.3567,-434.492 L 16.7617,-435.05 L 16.2414,-435.679 L 15.804,-436.369 L 15.4565,-437.107 L 15.2042,-437.884
 L 15.0513,-438.685 L 15,-439.5 L 15,-480.5 L 15.0513,-481.315 L 15.2042,-482.116 L 15.4565,-482.893
 L 15.804,-483.631 L 16.2414,-484.321 L 16.7617,-484.95 L 17.3567,-485.508 L 18.0171,-485.988 L 18.7324,-486.381
 L 19.4914,-486.682 L 20.282,-486.885 L 21.0919,-486.987 L 25,-486.987 L 25,-499.992 L 3.74883,-499.992
 L 3.25047,-499.929 L 2.76393,-499.804 L 2.29688,-499.619 L 1.85669,-499.377 L 1.4503,-499.082 L 1.08412,-498.738
 L 0.763931,-498.351 L 0.494766,-497.927 L 0.280884,-497.473 L 0.125656,-496.995 L 0.0315399,-496.501 L 0,-496
 L 0,-344 L 0.0315399,-343.499 L 0.125656,-343.005 L 0.280884,-342.527 L 0.494766,-342.073 L 0.763931,-341.649
 L 1.08412,-341.262 L 1.4503,-340.918 L 1.85669,-340.623 L 2.29688,-340.381 L 2.76393,-340.196 L 3.25047,-340.071
 L 3.74883,-340.008 L 228.251,-340.008 z
M 228.75,-170.071 L 229.236,-170.196 L 229.703,-170.381 L 230.143,-170.623 L 230.55,-170.918 L 230.916,-171.262
 L 231.236,-171.649 L 231.505,-172.073 L 231.719,-172.527 L 231.874,-173.005 L 231.968,-173.499 L 232,-174
 L 232,-326 L 231.968,-326.501 L 231.874,-326.995 L 231.719,-327.473 L 231.505,-327.927 L 231.236,-328.351
 L 230.916,-328.738 L 230.55,-329.082 L 230.143,-329.377 L 229.703,-329.619 L 229.236,-329.804 L 228.75,-329.929
 L 228.251,-329.992 L 3.74883,-329.992 L 3.25047,-329.929 L 2.76393,-329.804 L 2.29688,-329.619 L 1.85669,-329.377
 L 1.4503,-329.082 L 1.08412,-328.738 L 0.763931,-328.351 L 0.494766,-327.927 L 0.280884,-327.473 L 0.125656,-326.995
 L 0.0315399,-326.501 L 0,-326 L 0,-174 L 0.0315399,-173.499 L 0.125656,-173.005 L 0.280884,-172.527
 L 0.494766,-172.073 L 0.763931,-171.649 L 1.08412,-171.262 L 1.4503,-170.918 L 1.85669,-170.623 L 2.29688,-170.381
 L 2.76393,-170.196 L 3.25047,-170.071 L 3.74883,-170.008 L 228.251,-170.008 z
M 5,-175 L 5,-247.42 L 101,-247.42 L 101,-263.013 L 21.0919,-263.013 L 20.282,-263.115
 L 19.4914,-263.318 L 18.7324,-263.619 L 18.0171,-264.012 L 17.3567,-264.492 L 16.7617,-265.05 L 16.2414,-265.679
 L 15.804,-266.369 L 15.4565,-267.107 L 15.2042,-267.884 L 15.0513,-268.685 L 15,-269.5 L 15,-310.5
 L 15.0513,-311.315 L 15.2042,-312.116 L 15.4565,-312.893 L 15.804,-313.631 L 16.2414,-314.321 L 16.7617,-314.95
 L 17.3567,-315.508 L 18.0171,-315.988 L 18.7324,-316.381 L 19.4914,-316.682 L 20.282,-316.885 L 21.0919,-316.987
 L 211.908,-316.987 L 212.718,-316.885 L 213.509,-316.682 L 214.268,-316.381 L 214.983,-315.988 L 215.643,-315.508
 L 216.238,-314.95 L 216.759,-314.321 L 217.196,-313.631 L 217.544,-312.893 L 217.796,-312.116 L 217.949,-311.315
 L 218,-310.5 L 218,-269.5 L 217.949,-268.685 L 217.796,-267.884 L 217.544,-267.107 L 217.196,-266.369
 L 216.759,-265.679 L 216.238,-265.05 L 215.643,-264.492 L 214.983,-264.012 L 214.268,-263.619 L 213.509,-263.318
 L 212.718,-263.115 L 211.908,-263.013 L 131,-263.013 L 131,-247.42 L 228,-247.42 L 228,-175
 z
M 228.75,-0.0708466 L 229.236,-0.19577 L 229.703,-0.380692 L 230.143,-0.622681 L 230.55,-0.917938 L 230.916,-1.26181
 L 231.236,-1.64885 L 231.505,-2.07298 L 231.719,-2.5275 L 231.874,-3.00523 L 231.968,-3.49866 L 232,-4
 L 232,-156 L 231.968,-156.501 L 231.874,-156.995 L 231.719,-157.473 L 231.505,-157.927 L 231.236,-158.351
 L 230.916,-158.738 L 230.55,-159.082 L 230.143,-159.377 L 229.703,-159.619 L 229.236,-159.804 L 228.75,-159.929
 L 228.251,-159.992 L 3.74883,-159.992 L 3.25047,-159.929 L 2.76393,-159.804 L 2.29688,-159.619 L 1.85669,-159.377
 L 1.4503,-159.082 L 1.08412,-158.738 L 0.763931,-158.351 L 0.494766,-157.927 L 0.280884,-157.473 L 0.125656,-156.995
 L 0.0315399,-156.501 L 0,-156 L 0,-4 L 0.0315399,-3.49866 L 0.125656,-3.00523 L 0.280884,-2.5275
 L 0.494766,-2.07298 L 0.763931,-1.64885 L 1.08412,-1.26181 L 1.4503,-0.917938 L 1.85669,-0.622681 L 2.29688,-0.380692
 L 2.76393,-0.19577 L 3.25047,-0.0708466 L 3.74883,-0.00788879 L 228.251,-0.00788879 z
M 20.9035,-90.0187 L 19.7199,-90.1683 L 18.5643,-90.465 L 17.4551,-90.9041 L 16.4096,-91.4789 L 15.4445,-92.1801
 L 14.5748,-92.9968 L 13.8143,-93.916 L 13.1751,-94.9233 L 12.6671,-96.0028 L 12.2984,-97.1374 L 12.0749,-98.3093
 L 12,-99.5 L 12,-140.5 L 12.0749,-141.691 L 12.2984,-142.863 L 12.6671,-143.997 L 13.1751,-145.077
 L 13.8143,-146.084 L 14.5748,-147.003 L 15.4445,-147.82 L 16.4096,-148.521 L 17.4551,-149.096 L 18.5643,-149.535
 L 19.7199,-149.832 L 20.9035,-149.981 L 212.097,-149.981 L 213.28,-149.832 L 214.436,-149.535 L 215.545,-149.096
 L 216.59,-148.521 L 217.556,-147.82 L 218.425,-147.003 L 219.186,-146.084 L 219.825,-145.077 L 220.333,-143.997
 L 220.702,-142.863 L 220.925,-141.691 L 221,-140.5 L 221,-99.5 L 220.925,-98.3093 L 220.702,-97.1374
 L 220.333,-96.0028 L 219.825,-94.9233 L 219.186,-93.916 L 218.425,-92.9968 L 217.556,-92.1801 L 216.59,-91.4789
 L 215.545,-90.9041 L 214.436,-90.465 L 213.28,-90.1683 L 212.097,-90.0187 z
M 214,-62 L 214,-76 L 228,-76 L 228,-62 z
M 195,-62 L 195,-76 L 209,-76 L 209,-62 z
M 119,-62 L 119,-76 L 133,-76 L 133,-62 z
M 43,-62 L 43,-76 L 57,-76 L 57,-62 z
M 81,-62 L 81,-76 L 95,-76 L 95,-62 z
M 100,-62 L 100,-76 L 114,-76 L 114,-62 z
M 62,-62 L 62,-76 L 76,-76 L 76,-62 z
M 5,-62 L 5,-76 L 19,-76 L 19,-62 z
M 24,-62 L 24,-76 L 38,-76 L 38,-62 z
M 138,-62 L 138,-76 L 152,-76 L 152,-62 z
M 157,-62 L 157,-76 L 171,-76 L 171,-62 z
M 176,-62 L 176,-76 L 190,-76 L 190,-62 z
M 176,-43 L 176,-57 L 190,-57 L 190,-43 z
M 62,-43 L 62,-57 L 76,-57 L 76,-43 z
M 195,-43 L 195,-57 L 209,-57 L 209,-43 z
M 43,-43 L 43,-57 L 57,-57 L 57,-43 z
M 24,-43 L 24,-57 L 38,-57 L 38,-43 z
M 5,-43 L 5,-57 L 19,-57 L 19,-43 z
M 100,-43 L 100,-57 L 114,-57 L 114,-43 z
M 138,-43 L 138,-57 L 152,-57 L 152,-43 z
M 157,-43 L 157,-57 L 171,-57 L 171,-43 z
M 81,-43 L 81,-57 L 95,-57 L 95,-43 z
M 119,-43 L 119,-57 L 133,-57 L 133,-43 z
M 214,-43 L 214,-57 L 228,-57 L 228,-43 z
M 138,-24 L 138,-38 L 152,-38 L 152,-24 z
M 119,-24 L 119,-38 L 133,-38 L 133,-24 z
M 100,-24 L 100,-38 L 114,-38 L 114,-24 z
M 214,-24 L 214,-38 L 228,-38 L 228,-24 z
M 43,-24 L 43,-38 L 57,-38 L 57,-24 z
M 176,-24 L 176,-38 L 190,-38 L 190,-24 z
M 62,-24 L 62,-38 L 76,-38 L 76,-24 z
M 157,-24 L 157,-38 L 171,-38 L 171,-24 z
M 81,-24 L 81,-38 L 95,-38 L 95,-24 z
M 5,-24 L 5,-38 L 19,-38 L 19,-24 z
M 24,-24 L 24,-38 L 38,-38 L 38,-24 z
M 195,-24 L 195,-38 L 209,-38 L 209,-24 z
M 43,-5 L 43,-19 L 57,-19 L 57,-5 z
M 24,-5 L 24,-19 L 38,-19 L 38,-5 z
M 176,-5 L 176,-19 L 190,-19 L 190,-5 z
M 119,-5 L 119,-19 L 133,-19 L 133,-5 z
M 100,-5 L 100,-19 L 114,-19 L 114,-5 z
M 195,-5 L 195,-19 L 209,-19 L 209,-5 z
M 138,-5 L 138,-19 L 152,-19 L 152,-5 z
M 81,-5 L 81,-19 L 95,-19 L 95,-5 z
M 157,-5 L 157,-19 L 171,-19 L 171,-5 z
M 5,-5 L 5,-19 L 19,-19 L 19,-5 z
M 214,-5 L 214,-19 L 228,-19 L 228,-5 z
M 62,-5 L 62,-19 L 76,-19 L 76,-5 z
M 170,10 L 170,15 L 170.2,15 L 170.2,10 z
M 160,10 L 160,15 L 160.2,15 L 160.2,10 z
M 150,10 L 150,15 L 150.2,15 L 150.2,10 z
M 140,10 L 140,15 L 140.2,15 L 140.2,10 z
M 130,10 L 130,15 L 130.2,15 L 130.2,10 z
M 120,10 L 120,15 L 120.2,15 L 120.2,10 z
M 230.2,10 L 230,10 L 230,15 L 230.2,15 z
M 220,10 L 220,15 L 220.2,15 L 220.2,10 z
M 210,10 L 210,15 L 210.2,15 L 210.2,10 z
M 200,10 L 200,15 L 200.2,15 L 200.2,10 z
M 190,10 L 190,15 L 190.2,15 L 190.2,10 z
M 180,10 L 180,15 L 180.2,15 L 180.2,10 z
M 60,10 L 60,15 L 60.2,15 L 60.2,10 z
M 70,10 L 70,15 L 70.2,15 L 70.2,10 z
M 80,10 L 80,15 L 80.2,15 L 80.2,10 z
M 90,10 L 90,15 L 90.2,15 L 90.2,10 z
M 100,10 L 100,15 L 100.2,15 L 100.2,10 z
M 110,10 L 110,15 L 110.2,15 L 110.2,10 z
M 0,10 L 0,15 L 0.199997,15 L 0.199997,10 z
M 10,10 L 10,15 L 10.2,15 L 10.2,10 z
M 20,10 L 20,15 L 20.2,15 L 20.2,10 z
M 30,10 L 30,15 L 30.2,15 L 30.2,10 z
M 40,10 L 40,15 L 40.2,15 L 40.2,10 z
M 50,10 L 50,15 L 50.2,15 L 50.2,10 z
M 189.2,12 L 189,12 L 189,15 L 189.2,15 z
M 188.2,12 L 188,12 L 188,15 L 188.2,15 z
M 187.2,12 L 187,12 L 187,15 L 187.2,15 z
M 199.2,12 L 199,12 L 199,15 L 199.2,15 z
M 198.2,12 L 198,12 L 198,15 L 198.2,15 z
M 197.2,12 L 197,12 L 197,15 L 197.2,15 z
M 196.2,12 L 196,12 L 196,15 L 196.2,15 z
M 195.2,12 L 195,12 L 195,15 L 195.2,15 z
M 194.2,12 L 194,12 L 194,15 L 194.2,15 z
M 178.2,12 L 178,12 L 178,15 L 178.2,15 z
M 191.2,12 L 191,12 L 191,15 L 191.2,15 z
M 192.2,12 L 192,12 L 192,15 L 192.2,15 z
M 193.2,12 L 193,12 L 193,15 L 193.2,15 z
M 135.2,12 L 135,12 L 135,15 L 135.2,15 z
M 208.2,12 L 208,12 L 208,15 L 208.2,15 z
M 209.2,12 L 209,12 L 209,15 L 209.2,15 z
M 211.2,12 L 211,12 L 211,15 L 211.2,15 z
M 212.2,12 L 212,12 L 212,15 L 212.2,15 z
M 213.2,12 L 213,12 L 213,15 L 213.2,15 z
M 214.2,12 L 214,12 L 214,15 L 214.2,15 z
M 215.2,12 L 215,12 L 215,15 L 215.2,15 z
M 201.2,12 L 201,12 L 201,15 L 201.2,15 z
M 167.2,12 L 167,12 L 167,15 L 167.2,15 z
M 168.2,12 L 168,12 L 168,15 L 168.2,15 z
M 169.2,12 L 169,12 L 169,15 L 169.2,15 z
M 171.2,12 L 171,12 L 171,15 L 171.2,15 z
M 172.2,12 L 172,12 L 172,15 L 172.2,15 z
M 158.2,12 L 158,12 L 158,15 L 158.2,15 z
M 159.2,12 L 159,12 L 159,15 L 159.2,15 z
M 161.2,12 L 161,12 L 161,15 L 161.2,15 z
M 162.2,12 L 162,12 L 162,15 L 162.2,15 z
M 163.2,12 L 163,12 L 163,15 L 163.2,15 z
M 221.2,12 L 221,12 L 221,15 L 221.2,15 z
M 179.2,12 L 179,12 L 179,15 L 179.2,15 z
M 181.2,12 L 181,12 L 181,15 L 181.2,15 z
M 182.2,12 L 182,12 L 182,15 L 182.2,15 z
M 183.2,12 L 183,12 L 183,15 L 183.2,15 z
M 184.2,12 L 184,12 L 184,15 L 184.2,15 z
M 185.2,12 L 185,12 L 185,15 L 185.2,15 z
M 186.2,12 L 186,12 L 186,15 L 186.2,15 z
M 173.2,12 L 173,12 L 173,15 L 173.2,15 z
M 174.2,12 L 174,12 L 174,15 L 174.2,15 z
M 175.2,12 L 175,12 L 175,15 L 175.2,15 z
M 176.2,12 L 176,12 L 176,15 L 176.2,15 z
M 177.2,12 L 177,12 L 177,15 L 177.2,15 z
M 17.2,12 L 17,12 L 17,15 L 17.2,15 z
M 16.2,12 L 16,12 L 16,15 L 16.2,15 z
M 15.2,12 L 15,12 L 15,15 L 15.2,15 z
M 27.2,12 L 27,12 L 27,15 L 27.2,15 z
M 26.2,12 L 26,12 L 26,15 L 26.2,15 z
M 25.2,12 L 25,12 L 25,15 L 25.2,15 z
M 24.2,12 L 24,12 L 24,15 L 24.2,15 z
M 23.2,12 L 23,12 L 23,15 L 23.2,15 z
M 22.2,12 L 22,12 L 22,15 L 22.2,15 z
M 21.2,12 L 21,12 L 21,15 L 21.2,15 z
M 6.2,12 L 6,12 L 6,15 L 6.2,15 z
M 5.2,12 L 5,12 L 5,15 L 5.2,15 z
M 4.2,12 L 4,12 L 4,15 L 4.2,15 z
M 3.2,12 L 3,12 L 3,15 L 3.2,15 z
M 2.2,12 L 2,12 L 2,15 L 2.2,15 z
M 1.2,12 L 1,12 L 1,15 L 1.2,15 z
M 14.2,12 L 14,12 L 14,15 L 14.2,15 z
M 13.2,12 L 13,12 L 13,15 L 13.2,15 z
M 12.2,12 L 12,12 L 12,15 L 12.2,15 z
M 11.2,12 L 11,12 L 11,15 L 11.2,15 z
M 9.2,12 L 9,12 L 9,15 L 9.2,15 z
M 8.2,12 L 8,12 L 8,15 L 8.2,15 z
M 7.2,12 L 7,12 L 7,15 L 7.2,15 z
M 49.2,12 L 49,12 L 49,15 L 49.2,15 z
M 202.2,12 L 202,12 L 202,15 L 202.2,15 z
M 203.2,12 L 203,12 L 203,15 L 203.2,15 z
M 204.2,12 L 204,12 L 204,15 L 204.2,15 z
M 205.2,12 L 205,12 L 205,15 L 205.2,15 z
M 206.2,12 L 206,12 L 206,15 L 206.2,15 z
M 207.2,12 L 207,12 L 207,15 L 207.2,15 z
M 222.2,12 L 222,12 L 222,15 L 222.2,15 z
M 223.2,12 L 223,12 L 223,15 L 223.2,15 z
M 224.2,12 L 224,12 L 224,15 L 224.2,15 z
M 225.2,12 L 225,12 L 225,15 L 225.2,15 z
M 226.2,12 L 226,12 L 226,15 L 226.2,15 z
M 227.2,12 L 227,12 L 227,15 L 227.2,15 z
M 228.2,12 L 228,12 L 228,15 L 228.2,15 z
M 229.2,12 L 229,12 L 229,15 L 229.2,15 z
M 216.2,12 L 216,12 L 216,15 L 216.2,15 z
M 217.2,12 L 217,12 L 217,15 L 217.2,15 z
M 218.2,12 L 218,12 L 218,15 L 218.2,15 z
M 219.2,12 L 219,12 L 219,15 L 219.2,15 z
M 39.2,12 L 39,12 L 39,15 L 39.2,15 z
M 38.2,12 L 38,12 L 38,15 L 38.2,15 z
M 37.2,12 L 37,12 L 37,15 L 37.2,15 z
M 36.2,12 L 36,12 L 36,15 L 36.2,15 z
M 19.2,12 L 19,12 L 19,15 L 19.2,15 z
M 18.2,12 L 18,12 L 18,15 L 18.2,15 z
M 71.2,12 L 71,12 L 71,15 L 71.2,15 z
M 58.2,12 L 58,12 L 58,15 L 58.2,15 z
M 59.2,12 L 59,12 L 59,15 L 59.2,15 z
M 61.2,12 L 61,12 L 61,15 L 61.2,15 z
M 62.2,12 L 62,12 L 62,15 L 62.2,15 z
M 63.2,12 L 63,12 L 63,15 L 63.2,15 z
M 79.2,12 L 79,12 L 79,15 L 79.2,15 z
M 81.2,12 L 81,12 L 81,15 L 81.2,15 z
M 82.2,12 L 82,12 L 82,15 L 82.2,15 z
M 83.2,12 L 83,12 L 83,15 L 83.2,15 z
M 84.2,12 L 84,12 L 84,15 L 84.2,15 z
M 85.2,12 L 85,12 L 85,15 L 85.2,15 z
M 72.2,12 L 72,12 L 72,15 L 72.2,15 z
M 73.2,12 L 73,12 L 73,15 L 73.2,15 z
M 74.2,12 L 74,12 L 74,15 L 74.2,15 z
M 75.2,12 L 75,12 L 75,15 L 75.2,15 z
M 76.2,12 L 76,12 L 76,15 L 76.2,15 z
M 77.2,12 L 77,12 L 77,15 L 77.2,15 z
M 78.2,12 L 78,12 L 78,15 L 78.2,15 z
M 93.2,12 L 93,12 L 93,15 L 93.2,15 z
M 94.2,12 L 94,12 L 94,15 L 94.2,15 z
M 95.2,12 L 95,12 L 95,15 L 95.2,15 z
M 96.2,12 L 96,12 L 96,15 L 96.2,15 z
M 97.2,12 L 97,12 L 97,15 L 97.2,15 z
M 98.2,12 L 98,12 L 98,15 L 98.2,15 z
M 99.2,12 L 99,12 L 99,15 L 99.2,15 z
M 86.2,12 L 86,12 L 86,15 L 86.2,15 z
M 41.2,12 L 41,12 L 41,15 L 41.2,15 z
M 42.2,12 L 42,12 L 42,15 L 42.2,15 z
M 28.2,12 L 28,12 L 28,15 L 28.2,15 z
M 29.2,12 L 29,12 L 29,15 L 29.2,15 z
M 31.2,12 L 31,12 L 31,15 L 31.2,15 z
M 32.2,12 L 32,12 L 32,15 L 32.2,15 z
M 33.2,12 L 33,12 L 33,15 L 33.2,15 z
M 34.2,12 L 34,12 L 34,15 L 34.2,15 z
M 35.2,12 L 35,12 L 35,15 L 35.2,15 z
M 51.2,12 L 51,12 L 51,15 L 51.2,15 z
M 52.2,12 L 52,12 L 52,15 L 52.2,15 z
M 53.2,12 L 53,12 L 53,15 L 53.2,15 z
M 54.2,12 L 54,12 L 54,15 L 54.2,15 z
M 55.2,12 L 55,12 L 55,15 L 55.2,15 z
M 56.2,12 L 56,12 L 56,15 L 56.2,15 z
M 57.2,12 L 57,12 L 57,15 L 57.2,15 z
M 43.2,12 L 43,12 L 43,15 L 43.2,15 z
M 44.2,12 L 44,12 L 44,15 L 44.2,15 z
M 45.2,12 L 45,12 L 45,15 L 45.2,15 z
M 46.2,12 L 46,12 L 46,15 L 46.2,15 z
M 47.2,12 L 47,12 L 47,15 L 47.2,15 z
M 48.2,12 L 48,12 L 48,15 L 48.2,15 z
M 106.2,12 L 106,12 L 106,15 L 106.2,15 z
M 64.2,12 L 64,12 L 64,15 L 64.2,15 z
M 65.2,12 L 65,12 L 65,15 L 65.2,15 z
M 66.2,12 L 66,12 L 66,15 L 66.2,15 z
M 67.2,12 L 67,12 L 67,15 L 67.2,15 z
M 68.2,12 L 68,12 L 68,15 L 68.2,15 z
M 69.2,12 L 69,12 L 69,15 L 69.2,15 z
M 119.2,12 L 119,12 L 119,15 L 119.2,15 z
M 121.2,12 L 121,12 L 121,15 L 121.2,15 z
M 136.2,12 L 136,12 L 136,15 L 136.2,15 z
M 137.2,12 L 137,12 L 137,15 L 137.2,15 z
M 138.2,12 L 138,12 L 138,15 L 138.2,15 z
M 139.2,12 L 139,12 L 139,15 L 139.2,15 z
M 141.2,12 L 141,12 L 141,15 L 141.2,15 z
M 142.2,12 L 142,12 L 142,15 L 142.2,15 z
M 131.2,12 L 131,12 L 131,15 L 131.2,15 z
M 132.2,12 L 132,12 L 132,15 L 132.2,15 z
M 133.2,12 L 133,12 L 133,15 L 133.2,15 z
M 134.2,12 L 134,12 L 134,15 L 134.2,15 z
M 151.2,12 L 151,12 L 151,15 L 151.2,15 z
M 152.2,12 L 152,12 L 152,15 L 152.2,15 z
M 153.2,12 L 153,12 L 153,15 L 153.2,15 z
M 154.2,12 L 154,12 L 154,15 L 154.2,15 z
M 155.2,12 L 155,12 L 155,15 L 155.2,15 z
M 156.2,12 L 156,12 L 156,15 L 156.2,15 z
M 157.2,12 L 157,12 L 157,15 L 157.2,15 z
M 143.2,12 L 143,12 L 143,15 L 143.2,15 z
M 144.2,12 L 144,12 L 144,15 L 144.2,15 z
M 145.2,12 L 145,12 L 145,15 L 145.2,15 z
M 146.2,12 L 146,12 L 146,15 L 146.2,15 z
M 147.2,12 L 147,12 L 147,15 L 147.2,15 z
M 148.2,12 L 148,12 L 148,15 L 148.2,15 z
M 149.2,12 L 149,12 L 149,15 L 149.2,15 z
M 165.2,12 L 165,12 L 165,15 L 165.2,15 z
M 166.2,12 L 166,12 L 166,15 L 166.2,15 z
M 87.2,12 L 87,12 L 87,15 L 87.2,15 z
M 88.2,12 L 88,12 L 88,15 L 88.2,15 z
M 89.2,12 L 89,12 L 89,15 L 89.2,15 z
M 91.2,12 L 91,12 L 91,15 L 91.2,15 z
M 92.2,12 L 92,12 L 92,15 L 92.2,15 z
M 107.2,12 L 107,12 L 107,15 L 107.2,15 z
M 108.2,12 L 108,12 L 108,15 L 108.2,15 z
M 109.2,12 L 109,12 L 109,15 L 109.2,15 z
M 111.2,12 L 111,12 L 111,15 L 111.2,15 z
M 112.2,12 L 112,12 L 112,15 L 112.2,15 z
M 113.2,12 L 113,12 L 113,15 L 113.2,15 z
M 114.2,12 L 114,12 L 114,15 L 114.2,15 z
M 101.2,12 L 101,12 L 101,15 L 101.2,15 z
M 102.2,12 L 102,12 L 102,15 L 102.2,15 z
M 103.2,12 L 103,12 L 103,15 L 103.2,15 z
M 104.2,12 L 104,12 L 104,15 L 104.2,15 z
M 105.2,12 L 105,12 L 105,15 L 105.2,15 z
M 164.2,12 L 164,12 L 164,15 L 164.2,15 z
M 122.2,12 L 122,12 L 122,15 L 122.2,15 z
M 123.2,12 L 123,12 L 123,15 L 123.2,15 z
M 124.2,12 L 124,12 L 124,15 L 124.2,15 z
M 125.2,12 L 125,12 L 125,15 L 125.2,15 z
M 126.2,12 L 126,12 L 126,15 L 126.2,15 z
M 127.2,12 L 127,12 L 127,15 L 127.2,15 z
M 128.2,12 L 128,12 L 128,15 L 128.2,15 z
M 129.2,12 L 129,12 L 129,15 L 129.2,15 z
M 115.2,12 L 115,12 L 115,15 L 115.2,15 z
M 116.2,12 L 116,12 L 116,15 L 116.2,15 z
M 117.2,12 L 117,12 L 117,15 L 117.2,15 z
M 118.2,12 L 118,12 L 118,15 L 118.2,15 z
" stroke="black" fill="lightgray" stroke-width="0.5"/></svg>
