<?xml version="1.0" standalone="no"?>
<!DOCTYPE svg PUBLIC "-//W3C//DTD SVG 1.1//EN" "http://www.w3.org/Graphics/SVG/1.1/DTD/svg11.dtd">
<svg width="232" height="175" viewBox="0 -160 232 175" xmlns="http://www.w3.org/2000/svg" version="1.1">
<title>OpenSCAD Model</title>
<path d="
M 228.75,-0.0708466 L 229.236,-0.19577 L 229.703,-0.380692 L 230.143,-0.622681 L 230.55,-0.917938 L 230.916,-1.26181
 L 231.236,-1.64885 L 231.505,-2.07298 L 231.719,-2.5275 L 231.874,-3.00523 L 231.968,-3.49866 L 232,-4
 L 232,-156 L 231.968,-156.501 L 231.874,-156.995 L 231.719,-157.473 L 231.505,-157.927 L 231.236,-158.351
 L 230.916,-158.738 L 230.55,-159.082 L 230.143,-159.377 L 229.703,-159.619 L 229.236,-159.804 L 228.75,-159.929
 L 228.251,-159.992 L 39.75,-159.992 L 39.75,-146.987 L 211.908,-146.987 L 212.718,-146.885 L 213.509,-146.682
 L 214.268,-146.381 L 214.983,-145.988 L 215.643,-145.508 L 216.238,-144.95 L 216.759,-144.321 L 217.196,-143.631
 L 217.544,-142.893 L 217.796,-142.116 L 217.949,-141.315 L 218,-140.5 L 218,-99.5 L 217.949,-98.6853
 L 217.796,-97.8835 L 217.544,-97.1072 L 217.196,-96.3686 L 216.759,-95.6794 L 216.238,-95.0504 L 215.643,-94.4917
 L 214.983,-94.0119 L 214.268,-93.6186 L 213.509,-93.3181 L 212.718,-93.1151 L 211.908,-93.0128 L 131,-93.0128
 L 131,-77.42 L 228,-77.42 L 228,-5 L 5,-5 L 5,-77.42 L 101,-77.42
 L 101,-93.0128 L 21.0919,-93.0128 L 20.282,-93.1151 L 19.4914,-93.3181 L 18.7324,-93.6186 L 18.0171,-94.0119
 L 17.3567,-94.4917 L 16.7617,-95.0504 L 16.2414,-95.6794 L 15.804,-96.3686 L 15.4565,-97.1072 L 15.2042,-97.8835
 L 15.0513,-98.6853 L 15,-99.5 L 15,-140.5 L 15.0513,-141.315 L 15.2042,-142.116 L 15.4565,-142.893
 L 15.804,-143.631 L 16.2414,-144.321 L 16.7617,-144.95 L 17.3567,-145.508 L 18.0171,-145.988 L 18.7324,-146.381
 L 19.25,-146.586 L 19.25,-159.992 L 3.74883,-159.992 L 3.25047,-159.929 L 2.76393,-159.804 L 2.29688,-159.619
 L 1.85669,-159.377 L 1.4503,-159.082 L 1.08412,-158.738 L 0.763931,-158.351 L 0.494766,-157.927 L 0.280884,-157.473
 L 0.125656,-156.995 L 0.0315399,-156.501 L 0,-156 L 0,-4 L 0.0315399,-3.49866 L 0.125656,-3.00523
 L 0.280884,-2.5275 L 0.494766,-2.07298 L 0.763931,-1.64885 L 1.08412,-1.26181 L 1.4503,-0.917938 L 1.85669,-0.622681
 L 2.29688,-0.380692 L 2.76393,-0.19577 L 3.25047,-0.0708466 L 3.74883,-0.00788879 L 228.251,-0.00788879 z
M 170,10 L 170,15 L 170.2,15 L 170.2,10 z
M 160,10 L 160,15 L 160.2,15 L 160.2,10 z
M 150,10 L 150,15 L 150.2,15 L 150.2,10 z
M 140,10 L 140,15 L 140.2,15 L 140.2,10 z
M 130,10 L 130,15 L 130.2,15 L 130.2,10 z
M 120,10 L 120,15 L 120.2,15 L 120.2,10 z
M 230.2,10 L 230,10 L 230,15 L 230.2,15 z
M 220,10 L 220,15 L 220.2,15 L 220.2,10 z
M 210,10 L 210,15 L 210.2,15 L 210.2,10 z
M 200,10 L 200,15 L 200.2,15 L 200.2,10 z
M 190,10 L 190,15 L 190.2,15 L 190.2,10 z
M 60,10 L 60,15 L 60.2,15 L 60.2,10 z
M 70,10 L 70,15 L 70.2,15 L 70.2,10 z
M 80,10 L 80,15 L 80.2,15 L 80.2,10 z
M 90,10 L 90,15 L 90.2,15 L 90.2,10 z
M 100,10 L 100,15 L 100.2,15 L 100.2,10 z
M 110,10 L 110,15 L 110.2,15 L 110.2,10 z
M 180,10 L 180,15 L 180.2,15 L 180.2,10 z
M 50,10 L 50,15 L 50.2,15 L 50.2,10 z
M 40,10 L 40,15 L 40.2,15 L 40.2,10 z
M 0,10 L 0,15 L 0.199997,15 L 0.199997,10 z
M 10,10 L 10,15 L 10.2,15 L 10.2,10 z
M 30,10 L 30,15 L 30.2,15 L 30.2,10 z
M 20,10 L 20,15 L 20.2,15 L 20.2,10 z
M 153.2,12 L 153,12 L 153,15 L 153.2,15 z
M 154.2,12 L 154,12 L 154,15 L 154.2,15 z
M 155.2,12 L 155,12 L 155,15 L 155.2,15 z
M 156.2,12 L 156,12 L 156,15 L 156.2,15 z
M 157.2,12 L 157,12 L 157,15 L 157.2,15 z
M 143.2,12 L 143,12 L 143,15 L 143.2,15 z
M 144.2,12 L 144,12 L 144,15 L 144.2,15 z
M 145.2,12 L 145,12 L 145,15 L 145.2,15 z
M 146.2,12 L 146,12 L 146,15 L 146.2,15 z
M 147.2,12 L 147,12 L 147,15 L 147.2,15 z
M 148.2,12 L 148,12 L 148,15 L 148.2,15 z
M 149.2,12 L 149,12 L 149,15 L 149.2,15 z
M 165.2,12 L 165,12 L 165,15 L 165.2,15 z
M 166.2,12 L 166,12 L 166,15 L 166.2,15 z
M 167.2,12 L 167,12 L 167,15 L 167.2,15 z
M 168.2,12 L 168,12 L 168,15 L 168.2,15 z
M 169.2,12 L 169,12 L 169,15 L 169.2,15 z
M 171.2,12 L 171,12 L 171,15 L 171.2,15 z
M 172.2,12 L 172,12 L 172,15 L 172.2,15 z
M 158.2,12 L 158,12 L 158,15 L 158.2,15 z
M 159.2,12 L 159,12 L 159,15 L 159.2,15 z
M 161.2,12 L 161,12 L 161,15 L 161.2,15 z
M 162.2,12 L 162,12 L 162,15 L 162.2,15 z
M 163.2,12 L 163,12 L 163,15 L 163.2,15 z
M 221.2,12 L 221,12 L 221,15 L 221.2,15 z
M 122.2,12 L 122,12 L 122,15 L 122.2,15 z
M 123.2,12 L 123,12 L 123,15 L 123.2,15 z
M 124.2,12 L 124,12 L 124,15 L 124.2,15 z
M 125.2,12 L 125,12 L 125,15 L 125.2,15 z
M 126.2,12 L 126,12 L 126,15 L 126.2,15 z
M 127.2,12 L 127,12 L 127,15 L 127.2,15 z
M 128.2,12 L 128,12 L 128,15 L 128.2,15 z
M 129.2,12 L 129,12 L 129,15 L 129.2,15 z
M 115.2,12 L 115,12 L 115,15 L 115.2,15 z
M 116.2,12 L 116,12 L 116,15 L 116.2,15 z
M 117.2,12 L 117,12 L 117,15 L 117.2,15 z
M 118.2,12 L 118,12 L 118,15 L 118.2,15 z
M 119.2,12 L 119,12 L 119,15 L 119.2,15 z
M 121.2,12 L 121,12 L 121,15 L 121.2,15 z
M 136.2,12 L 136,12 L 136,15 L 136.2,15 z
M 137.2,12 L 137,12 L 137,15 L 137.2,15 z
M 138.2,12 L 138,12 L 138,15 L 138.2,15 z
M 139.2,12 L 139,12 L 139,15 L 139.2,15 z
M 141.2,12 L 141,12 L 141,15 L 141.2,15 z
M 142.2,12 L 142,12 L 142,15 L 142.2,15 z
M 131.2,12 L 131,12 L 131,15 L 131.2,15 z
M 132.2,12 L 132,12 L 132,15 L 132.2,15 z
M 133.2,12 L 133,12 L 133,15 L 133.2,15 z
M 134.2,12 L 134,12 L 134,15 L 134.2,15 z
M 151.2,12 L 151,12 L 151,15 L 151.2,15 z
M 152.2,12 L 152,12 L 152,15 L 152.2,15 z
M 208.2,12 L 208,12 L 208,15 L 208.2,15 z
M 209.2,12 L 209,12 L 209,15 L 209.2,15 z
M 211.2,12 L 211,12 L 211,15 L 211.2,15 z
M 212.2,12 L 212,12 L 212,15 L 212.2,15 z
M 213.2,12 L 213,12 L 213,15 L 213.2,15 z
M 214.2,12 L 214,12 L 214,15 L 214.2,15 z
M 215.2,12 L 215,12 L 215,15 L 215.2,15 z
M 201.2,12 L 201,12 L 201,15 L 201.2,15 z
M 202.2,12 L 202,12 L 202,15 L 202.2,15 z
M 203.2,12 L 203,12 L 203,15 L 203.2,15 z
M 204.2,12 L 204,12 L 204,15 L 204.2,15 z
M 205.2,12 L 205,12 L 205,15 L 205.2,15 z
M 206.2,12 L 206,12 L 206,15 L 206.2,15 z
M 207.2,12 L 207,12 L 207,15 L 207.2,15 z
M 222.2,12 L 222,12 L 222,15 L 222.2,15 z
M 223.2,12 L 223,12 L 223,15 L 223.2,15 z
M 224.2,12 L 224,12 L 224,15 L 224.2,15 z
M 225.2,12 L 225,12 L 225,15 L 225.2,15 z
M 226.2,12 L 226,12 L 226,15 L 226.2,15 z
M 227.2,12 L 227,12 L 227,15 L 227.2,15 z
M 228.2,12 L 228,12 L 228,15 L 228.2,15 z
M 229.2,12 L 229,12 L 229,15 L 229.2,15 z
M 216.2,12 L 216,12 L 216,15 L 216.2,15 z
M 217.2,12 L 217,12 L 217,15 L 217.2,15 z
M 218.2,12 L 218,12 L 218,15 L 218.2,15 z
M 219.2,12 L 219,12 L 219,15 L 219.2,15 z
M 179.2,12 L 179,12 L 179,15 L 179.2,15 z
M 181.2,12 L 181,12 L 181,15 L 181.2,15 z
M 182.2,12 L 182,12 L 182,15 L 182.2,15 z
M 183.2,12 L 183,12 L 183,15 L 183.2,15 z
M 184.2,12 L 184,12 L 184,15 L 184.2,15 z
M 185.2,12 L 185,12 L 185,15 L 185.2,15 z
M 186.2,12 L 186,12 L 186,15 L 186.2,15 z
M 173.2,12 L 173,12 L 173,15 L 173.2,15 z
M 174.2,12 L 174,12 L 174,15 L 174.2,15 z
M 175.2,12 L 175,12 L 175,15 L 175.2,15 z
M 176.2,12 L 176,12 L 176,15 L 176.2,15 z
M 177.2,12 L 177,12 L 177,15 L 177.2,15 z
M 178.2,12 L 178,12 L 178,15 L 178.2,15 z
M 194.2,12 L 194,12 L 194,15 L 194.2,15 z
M 195.2,12 L 195,12 L 195,15 L 195.2,15 z
M 196.2,12 L 196,12 L 196,15 L 196.2,15 z
M 197.2,12 L 197,12 L 197,15 L 197.2,15 z
M 198.2,12 L 198,12 L 198,15 L 198.2,15 z
M 199.2,12 L 199,12 L 199,15 L 199.2,15 z
M 187.2,12 L 187,12 L 187,15 L 187.2,15 z
M 188.2,12 L 188,12 L 188,15 L 188.2,15 z
M 189.2,12 L 189,12 L 189,15 L 189.2,15 z
M 191.2,12 L 191,12 L 191,15 L 191.2,15 z
M 192.2,12 L 192,12 L 192,15 L 192.2,15 z
M 193.2,12 L 193,12 L 193,15 L 193.2,15 z
M 135.2,12 L 135,12 L 135,15 L 135.2,15 z
M 37.2,12 L 37,12 L 37,15 L 37.2,15 z
M 38.2,12 L 38,12 L 38,15 L 38.2,15 z
M 39.2,12 L 39,12 L 39,15 L 39.2,15 z
M 41.2,12 L 41,12 L 41,15 L 41.2,15 z
M 42.2,12 L 42,12 L 42,15 L 42.2,15 z
M 28.2,12 L 28,12 L 28,15 L 28.2,15 z
M 29.2,12 L 29,12 L 29,15 L 29.2,15 z
M 31.2,12 L 31,12 L 31,15 L 31.2,15 z
M 32.2,12 L 32,12 L 32,15 L 32.2,15 z
M 33.2,12 L 33,12 L 33,15 L 33.2,15 z
M 34.2,12 L 34,12 L 34,15 L 34.2,15 z
M 35.2,12 L 35,12 L 35,15 L 35.2,15 z
M 51.2,12 L 51,12 L 51,15 L 51.2,15 z
M 52.2,12 L 52,12 L 52,15 L 52.2,15 z
M 53.2,12 L 53,12 L 53,15 L 53.2,15 z
M 54.2,12 L 54,12 L 54,15 L 54.2,15 z
M 55.2,12 L 55,12 L 55,15 L 55.2,15 z
M 56.2,12 L 56,12 L 56,15 L 56.2,15 z
M 57.2,12 L 57,12 L 57,15 L 57.2,15 z
M 43.2,12 L 43,12 L 43,15 L 43.2,15 z
M 44.2,12 L 44,12 L 44,15 L 44.2,15 z
M 45.2,12 L 45,12 L 45,15 L 45.2,15 z
M 46.2,12 L 46,12 L 46,15 L 46.2,15 z
M 47.2,12 L 47,12 L 47,15 L 47.2,15 z
M 48.2,12 L 48,12 L 48,15 L 48.2,15 z
M 106.2,12 L 106,12 L 106,15 L 106.2,15 z
M 49.2,12 L 49,12 L 49,15 L 49.2,15 z
M 7.2,12 L 7,12 L 7,15 L 7.2,15 z
M 8.2,12 L 8,12 L 8,15 L 8.2,15 z
M 9.2,12 L 9,12 L 9,15 L 9.2,15 z
M 11.2,12 L 11,12 L 11,15 L 11.2,15 z
M 12.2,12 L 12,12 L 12,15 L 12.2,15 z
M 13.2,12 L 13,12 L 13,15 L 13.2,15 z
M 14.2,12 L 14,12 L 14,15 L 14.2,15 z
M 1.2,12 L 1,12 L 1,15 L 1.2,15 z
M 2.2,12 L 2,12 L 2,15 L 2.2,15 z
M 3.2,12 L 3,12 L 3,15 L 3.2,15 z
M 4.2,12 L 4,12 L 4,15 L 4.2,15 z
M 5.2,12 L 5,12 L 5,15 L 5.2,15 z
M 6.2,12 L 6,12 L 6,15 L 6.2,15 z
M 21.2,12 L 21,12 L 21,15 L 21.2,15 z
M 22.2,12 L 22,12 L 22,15 L 22.2,15 z
M 23.2,12 L 23,12 L 23,15 L 23.2,15 z
M 24.2,12 L 24,12 L 24,15 L 24.2,15 z
M 25.2,12 L 25,12 L 25,15 L 25.2,15 z
M 26.2,12 L 26,12 L 26,15 L 26.2,15 z
M 27.2,12 L 27,12 L 27,15 L 27.2,15 z
M 15.2,12 L 15,12 L 15,15 L 15.2,15 z
M 16.2,12 L 16,12 L 16,15 L 16.2,15 z
M 17.2,12 L 17,12 L 17,15 L 17.2,15 z
M 18.2,12 L 18,12 L 18,15 L 18.2,15 z
M 19.2,12 L 19,12 L 19,15 L 19.2,15 z
M 36.2,12 L 36,12 L 36,15 L 36.2,15 z
M 93.2,12 L 93,12 L 93,15 L 93.2,15 z
M 94.2,12 L 94,12 L 94,15 L 94.2,15 z
M 95.2,12 L 95,12 L 95,15 L 95.2,15 z
M 96.2,12 L 96,12 L 96,15 L 96.2,15 z
M 97.2,12 L 97,12 L 97,15 L 97.2,15 z
M 98.2,12 L 98,12 L 98,15 L 98.2,15 z
M 99.2,12 L 99,12 L 99,15 L 99.2,15 z
M 86.2,12 L 86,12 L 86,15 L 86.2,15 z
M 87.2,12 L 87,12 L 87,15 L 87.2,15 z
M 88.2,12 L 88,12 L 88,15 L 88.2,15 z
M 89.2,12 L 89,12 L 89,15 L 89.2,15 z
M 91.2,12 L 91,12 L 91,15 L 91.2,15 z
M 92.2,12 L 92,12 L 92,15 L 92.2,15 z
M 107.2,12 L 107,12 L 107,15 L 107.2,15 z
M 108.2,12 L 108,12 L 108,15 L 108.2,15 z
M 109.2,12 L 109,12 L 109,15 L 109.2,15 z
M 111.2,12 L 111,12 L 111,15 L 111.2,15 z
M 112.2,12 L 112,12 L 112,15 L 112.2,15 z
M 113.2,12 L 113,12 L 113,15 L 113.2,15 z
M 114.2,12 L 114,12 L 114,15 L 114.2,15 z
M 101.2,12 L 101,12 L 101,15 L 101.2,15 z
M 102.2,12 L 102,12 L 102,15 L 102.2,15 z
M 103.2,12 L 103,12 L 103,15 L 103.2,15 z
M 104.2,12 L 104,12 L 104,15 L 104.2,15 z
M 105.2,12 L 105,12 L 105,15 L 105.2,15 z
M 164.2,12 L 164,12 L 164,15 L 164.2,15 z
M 64.2,12 L 64,12 L 64,15 L 64.2,15 z
M 65.2,12 L 65,12 L 65,15 L 65.2,15 z
M 66.2,12 L 66,12 L 66,15 L 66.2,15 z
M 67.2,12 L 67,12 L 67,15 L 67.2,15 z
M 68.2,12 L 68,12 L 68,15 L 68.2,15 z
M 69.2,12 L 69,12 L 69,15 L 69.2,15 z
M 71.2,12 L 71,12 L 71,15 L 71.2,15 z
M 58.2,12 L 58,12 L 58,15 L 58.2,15 z
M 59.2,12 L 59,12 L 59,15 L 59.2,15 z
M 61.2,12 L 61,12 L 61,15 L 61.2,15 z
M 62.2,12 L 62,12 L 62,15 L 62.2,15 z
M 63.2,12 L 63,12 L 63,15 L 63.2,15 z
M 79.2,12 L 79,12 L 79,15 L 79.2,15 z
M 81.2,12 L 81,12 L 81,15 L 81.2,15 z
M 82.2,12 L 82,12 L 82,15 L 82.2,15 z
M 83.2,12 L 83,12 L 83,15 L 83.2,15 z
M 84.2,12 L 84,12 L 84,15 L 84.2,15 z
M 85.2,12 L 85,12 L 85,15 L 85.2,15 z
M 72.2,12 L 72,12 L 72,15 L 72.2,15 z
M 73.2,12 L 73,12 L 73,15 L 73.2,15 z
M 74.2,12 L 74,12 L 74,15 L 74.2,15 z
M 75.2,12 L 75,12 L 75,15 L 75.2,15 z
M 76.2,12 L 76,12 L 76,15 L 76.2,15 z
M 77.2,12 L 77,12 L 77,15 L 77.2,15 z
M 78.2,12 L 78,12 L 78,15 L 78.2,15 z
" stroke="black" fill="lightgray" stroke-width="0.5"/></svg>
