<?xml version="1.0" standalone="no"?>
<!DOCTYPE svg PUBLIC "-//W3C//DTD SVG 1.1//EN" "http://www.w3.org/Graphics/SVG/1.1/DTD/svg11.dtd">
<svg width="257" height="186" viewBox="-11 -175 257 186" xmlns="http://www.w3.org/2000/svg" version="1.1">
<title>OpenSCAD Model</title>
<path d="
M 80.2,-175 L 80,-175 L 80,-170 L 80.2,-170 z
M 90.2,-175 L 90,-175 L 90,-170 L 90.2,-170 z
M 100.2,-175 L 100,-175 L 100,-170 L 100.2,-170 z
M 110.2,-175 L 110,-175 L 110,-170 L 110.2,-170 z
M 0,-170 L 0.199997,-170 L 0.199997,-175 L 0,-175 L 0,-172.55 L -0.202988,-172.55
 L -0.202988,-162.603 L -10.15,-162.603 L -10.15,-162.4 L 0,-162.4 z
M 10.2,-175 L 10,-175 L 10,-170 L 10.2,-170 z
M 20.2,-175 L 20,-175 L 20,-170 L 20.2,-170 z
M 30.2,-175 L 30,-175 L 30,-170 L 30.2,-170 z
M 40.2,-175 L 40,-175 L 40,-170 L 40.2,-170 z
M 170.2,-175 L 170,-175 L 170,-170 L 170.2,-170 z
M 160.2,-175 L 160,-175 L 160,-170 L 160.2,-170 z
M 150.2,-175 L 150,-175 L 150,-170 L 150.2,-170 z
M 140.2,-175 L 140,-175 L 140,-170 L 140.2,-170 z
M 130.2,-175 L 130,-175 L 130,-170 L 130.2,-170 z
M 120.2,-175 L 120,-175 L 120,-170 L 120.2,-170 z
M 220.2,-175 L 220,-175 L 220,-170 L 220.2,-170 z
M 210.2,-175 L 210,-175 L 210,-170 L 210.2,-170 z
M 200.2,-175 L 200,-175 L 200,-170 L 200.2,-170 z
M 190.2,-175 L 190,-175 L 190,-170 L 190.2,-170 z
M 180.2,-175 L 180,-175 L 180,-170 L 180.2,-170 z
M 50.2,-175 L 50,-175 L 50,-170 L 50.2,-170 z
M 70.2,-175 L 70,-175 L 70,-170 L 70.2,-170 z
M 60.2,-175 L 60,-175 L 60,-170 L 60.2,-170 z
M 230.2,-175 L 230,-175 L 230,-170 L 230.2,-170 z
M 234.2,-173 L 234,-173 L 234,-170 L 234.2,-170 z
M 233.2,-173 L 233,-173 L 233,-170 L 233.2,-170 z
M 232.2,-173 L 232,-173 L 232,-170 L 232.2,-170 z
M 231.2,-173 L 231,-173 L 231,-170 L 231.2,-170 z
M 239.2,-173 L 239,-173 L 239,-170 L 239.2,-170 z
M 238.2,-173 L 238,-173 L 238,-170 L 238.2,-170 z
M 235.2,-173 L 235,-173 L 235,-170 L 235.2,-170 z
M 236.2,-173 L 236,-173 L 236,-170 L 236.2,-170 z
M 237.2,-173 L 237,-173 L 237,-170 L 237.2,-170 z
M 245.63,-162.603 L 235.683,-162.603 L 235.683,-172.55 L 235.48,-172.55 L 235.48,-162.4 L 245.63,-162.4
 z
M 161.876,-167.003 L 161.95,-167.014 L 162.019,-167.031 L 162.084,-167.055 L 162.143,-167.086 L 162.197,-167.123
 L 162.246,-167.168 L 162.29,-167.219 L 162.326,-167.275 L 162.357,-167.335 L 162.38,-167.401 L 162.397,-167.472
 L 162.407,-167.547 L 162.41,-167.628 L 162.407,-167.703 L 162.397,-167.773 L 162.382,-167.838 L 162.359,-167.9
 L 162.331,-167.956 L 162.296,-168.008 L 162.255,-168.056 L 162.209,-168.098 L 162.158,-168.134 L 162.103,-168.164
 L 162.043,-168.187 L 161.979,-168.203 L 161.91,-168.213 L 161.837,-168.216 L 161.794,-168.215 L 161.751,-168.211
 L 161.71,-168.204 L 161.671,-168.195 L 161.633,-168.183 L 161.596,-168.169 L 161.561,-168.152 L 161.528,-168.133
 L 161.497,-168.111 L 161.468,-168.086 L 161.442,-168.06 L 161.417,-168.031 L 161.395,-168 L 161.375,-167.966
 L 161.377,-168.068 L 161.384,-168.163 L 161.396,-168.25 L 161.412,-168.331 L 161.433,-168.404 L 161.459,-168.47
 L 161.489,-168.529 L 161.524,-168.581 L 161.562,-168.624 L 161.605,-168.66 L 161.651,-168.688 L 161.701,-168.708
 L 161.755,-168.72 L 161.812,-168.724 L 161.878,-168.719 L 161.937,-168.705 L 161.988,-168.681 L 162.033,-168.648
 L 162.071,-168.606 L 162.102,-168.554 L 162.126,-168.492 L 162.357,-168.534 L 162.319,-168.636 L 162.267,-168.723
 L 162.203,-168.794 L 162.125,-168.849 L 162.035,-168.888 L 161.931,-168.912 L 161.815,-168.92 L 161.725,-168.915
 L 161.641,-168.899 L 161.562,-168.872 L 161.49,-168.835 L 161.424,-168.787 L 161.365,-168.729 L 161.311,-168.66
 L 161.264,-168.581 L 161.225,-168.494 L 161.193,-168.396 L 161.167,-168.29 L 161.149,-168.175 L 161.139,-168.05
 L 161.135,-167.916 L 161.139,-167.793 L 161.149,-167.678 L 161.166,-167.572 L 161.191,-167.474 L 161.222,-167.386
 L 161.26,-167.305 L 161.305,-167.234 L 161.357,-167.172 L 161.415,-167.119 L 161.479,-167.076 L 161.549,-167.043
 L 161.625,-167.019 L 161.707,-167.005 L 161.796,-167 z
M 161.741,-167.198 L 161.695,-167.206 L 161.653,-167.22 L 161.613,-167.239 L 161.575,-167.263 L 161.541,-167.293
 L 161.508,-167.329 L 161.479,-167.369 L 161.455,-167.412 L 161.435,-167.458 L 161.419,-167.507 L 161.408,-167.559
 L 161.401,-167.615 L 161.399,-167.673 L 161.401,-167.719 L 161.408,-167.762 L 161.418,-167.803 L 161.433,-167.84
 L 161.453,-167.874 L 161.476,-167.906 L 161.504,-167.934 L 161.535,-167.959 L 161.569,-167.981 L 161.606,-167.998
 L 161.645,-168.012 L 161.687,-168.021 L 161.732,-168.027 L 161.779,-168.029 L 161.829,-168.027 L 161.876,-168.02
 L 161.92,-168.009 L 161.961,-167.994 L 161.998,-167.974 L 162.032,-167.95 L 162.062,-167.922 L 162.089,-167.89
 L 162.112,-167.854 L 162.131,-167.814 L 162.145,-167.77 L 162.156,-167.723 L 162.162,-167.672 L 162.164,-167.618
 L 162.162,-167.563 L 162.156,-167.512 L 162.146,-167.465 L 162.131,-167.42 L 162.113,-167.379 L 162.091,-167.342
 L 162.064,-167.308 L 162.034,-167.278 L 162.001,-167.253 L 161.964,-167.232 L 161.925,-167.216 L 161.882,-167.204
 L 161.837,-167.197 L 161.788,-167.195 z
M 131.851,-167.003 L 131.931,-167.012 L 132.005,-167.026 L 132.073,-167.046 L 132.135,-167.072 L 132.191,-167.104
 L 132.242,-167.142 L 132.287,-167.185 L 132.324,-167.233 L 132.355,-167.286 L 132.379,-167.344 L 132.396,-167.406
 L 132.407,-167.474 L 132.41,-167.546 L 132.408,-167.596 L 132.4,-167.644 L 132.388,-167.689 L 132.371,-167.731
 L 132.349,-167.771 L 132.323,-167.809 L 132.291,-167.844 L 132.255,-167.876 L 132.215,-167.904 L 132.172,-167.928
 L 132.124,-167.949 L 132.073,-167.965 L 132.018,-167.977 L 131.959,-167.986 L 131.959,-167.991 L 132.013,-168.004
 L 132.062,-168.019 L 132.108,-168.038 L 132.151,-168.059 L 132.189,-168.083 L 132.224,-168.111 L 132.255,-168.141
 L 132.282,-168.174 L 132.305,-168.21 L 132.324,-168.248 L 132.338,-168.29 L 132.349,-168.334 L 132.355,-168.381
 L 132.357,-168.43 L 132.354,-168.494 L 132.344,-168.554 L 132.328,-168.609 L 132.305,-168.661 L 132.276,-168.708
 L 132.24,-168.751 L 132.198,-168.79 L 132.15,-168.824 L 132.097,-168.854 L 132.039,-168.878 L 131.976,-168.896
 L 131.907,-168.909 L 131.833,-168.917 L 131.754,-168.92 L 131.681,-168.917 L 131.613,-168.909 L 131.548,-168.896
 L 131.487,-168.877 L 131.429,-168.853 L 131.376,-168.824 L 131.326,-168.789 L 131.282,-168.75 L 131.243,-168.706
 L 131.209,-168.659 L 131.182,-168.607 L 131.16,-168.551 L 131.144,-168.491 L 131.133,-168.427 L 131.376,-168.408
 L 131.382,-168.449 L 131.392,-168.488 L 131.405,-168.523 L 131.421,-168.556 L 131.441,-168.587 L 131.465,-168.614
 L 131.491,-168.639 L 131.521,-168.661 L 131.553,-168.679 L 131.588,-168.694 L 131.625,-168.706 L 131.665,-168.714
 L 131.707,-168.719 L 131.752,-168.721 L 131.801,-168.719 L 131.846,-168.714 L 131.888,-168.705 L 131.926,-168.693
 L 131.961,-168.678 L 131.992,-168.659 L 132.019,-168.636 L 132.043,-168.61 L 132.063,-168.582 L 132.08,-168.552
 L 132.093,-168.519 L 132.102,-168.483 L 132.107,-168.445 L 132.109,-168.404 L 132.107,-168.363 L 132.1,-168.325
 L 132.089,-168.289 L 132.073,-168.256 L 132.053,-168.225 L 132.028,-168.197 L 131.999,-168.172 L 131.966,-168.15
 L 131.929,-168.131 L 131.888,-168.115 L 131.844,-168.103 L 131.796,-168.095 L 131.744,-168.09 L 131.689,-168.088
 L 131.556,-168.088 L 131.556,-167.878 L 131.694,-167.878 L 131.756,-167.876 L 131.814,-167.871 L 131.867,-167.862
 L 131.917,-167.85 L 131.961,-167.834 L 132.002,-167.815 L 132.038,-167.792 L 132.07,-167.766 L 132.097,-167.738
 L 132.119,-167.707 L 132.136,-167.673 L 132.148,-167.636 L 132.156,-167.596 L 132.158,-167.554 L 132.156,-167.505
 L 132.15,-167.461 L 132.139,-167.419 L 132.124,-167.381 L 132.105,-167.347 L 132.081,-167.316 L 132.053,-167.289
 L 132.022,-167.265 L 131.987,-167.245 L 131.949,-167.229 L 131.908,-167.216 L 131.864,-167.207 L 131.816,-167.202
 L 131.765,-167.2 L 131.667,-167.207 L 131.582,-167.227 L 131.51,-167.262 L 131.45,-167.31 L 131.404,-167.371
 L 131.371,-167.447 L 131.35,-167.536 L 131.1,-167.513 L 131.112,-167.443 L 131.13,-167.378 L 131.153,-167.318
 L 131.182,-167.263 L 131.217,-167.213 L 131.258,-167.169 L 131.304,-167.129 L 131.356,-167.095 L 131.412,-167.066
 L 131.473,-167.042 L 131.539,-167.024 L 131.61,-167.011 L 131.685,-167.003 L 131.765,-167 z
M 212.394,-167.206 L 211.933,-167.206 L 211.933,-168.92 L 211.71,-168.92 L 211.263,-168.637 L 211.263,-168.408
 L 211.69,-168.689 L 211.69,-167.206 L 211.208,-167.206 L 211.208,-167 L 212.394,-167 z
M 170.899,-167.206 L 170.438,-167.206 L 170.438,-168.92 L 170.215,-168.92 L 169.768,-168.637 L 169.768,-168.408
 L 170.195,-168.689 L 170.195,-167.206 L 169.713,-167.206 L 169.713,-167 L 170.899,-167 z
M 130.899,-167.206 L 130.438,-167.206 L 130.438,-168.92 L 130.215,-168.92 L 129.768,-168.637 L 129.768,-168.408
 L 130.195,-168.689 L 130.195,-167.206 L 129.713,-167.206 L 129.713,-167 L 130.899,-167 z
M 210.897,-167.206 L 209.905,-167.206 L 209.932,-167.26 L 209.968,-167.316 L 210.012,-167.372 L 210.065,-167.431
 L 210.127,-167.493 L 210.241,-167.593 L 210.43,-167.749 L 210.547,-167.85 L 210.634,-167.932 L 210.694,-167.996
 L 210.743,-168.058 L 210.783,-168.121 L 210.816,-168.183 L 210.841,-168.245 L 210.85,-168.277 L 210.858,-168.308
 L 210.863,-168.339 L 210.866,-168.371 L 210.867,-168.402 L 210.864,-168.471 L 210.854,-168.534 L 210.839,-168.594
 L 210.816,-168.649 L 210.788,-168.699 L 210.753,-168.744 L 210.712,-168.785 L 210.665,-168.821 L 210.613,-168.851
 L 210.556,-168.876 L 210.493,-168.895 L 210.424,-168.909 L 210.35,-168.917 L 210.271,-168.92 L 210.198,-168.917
 L 210.13,-168.909 L 210.065,-168.895 L 210.003,-168.876 L 209.946,-168.851 L 209.893,-168.821 L 209.843,-168.785
 L 209.798,-168.745 L 209.759,-168.701 L 209.726,-168.653 L 209.699,-168.601 L 209.677,-168.546 L 209.661,-168.487
 L 209.65,-168.424 L 209.897,-168.401 L 209.904,-168.443 L 209.914,-168.482 L 209.927,-168.519 L 209.944,-168.553
 L 209.965,-168.583 L 209.988,-168.612 L 210.015,-168.637 L 210.045,-168.659 L 210.077,-168.678 L 210.111,-168.694
 L 210.148,-168.706 L 210.187,-168.714 L 210.228,-168.719 L 210.271,-168.721 L 210.316,-168.719 L 210.358,-168.714
 L 210.398,-168.705 L 210.434,-168.693 L 210.468,-168.677 L 210.498,-168.658 L 210.526,-168.635 L 210.55,-168.609
 L 210.571,-168.58 L 210.588,-168.549 L 210.601,-168.514 L 210.61,-168.477 L 210.616,-168.437 L 210.618,-168.394
 L 210.617,-168.362 L 210.614,-168.33 L 210.608,-168.3 L 210.6,-168.27 L 210.59,-168.241 L 210.578,-168.214
 L 210.548,-168.161 L 210.512,-168.11 L 210.471,-168.061 L 210.4,-167.989 L 210.291,-167.894 L 210.077,-167.72
 L 209.984,-167.637 L 209.894,-167.547 L 209.807,-167.448 L 209.753,-167.376 L 209.704,-167.299 L 209.659,-167.215
 L 209.639,-167.171 L 209.639,-167 L 210.897,-167 z
M 171.741,-167.076 L 171.745,-167.151 L 171.751,-167.225 L 171.76,-167.298 L 171.771,-167.371 L 171.784,-167.443
 L 171.8,-167.514 L 171.818,-167.585 L 171.839,-167.657 L 171.863,-167.729 L 171.888,-167.801 L 171.916,-167.873
 L 171.947,-167.945 L 171.98,-168.018 L 172.018,-168.095 L 172.063,-168.18 L 172.115,-168.272 L 172.239,-168.482
 L 172.392,-168.723 L 172.392,-168.92 L 171.137,-168.92 L 171.137,-168.714 L 172.158,-168.714 L 172.059,-168.565
 L 171.968,-168.421 L 171.886,-168.281 L 171.812,-168.147 L 171.747,-168.018 L 171.69,-167.894 L 171.641,-167.775
 L 171.6,-167.66 L 171.566,-167.546 L 171.537,-167.433 L 171.515,-167.323 L 171.5,-167.213 L 171.49,-167.106
 L 171.487,-167 L 171.74,-167 z
M 180.899,-167.206 L 180.438,-167.206 L 180.438,-168.92 L 180.215,-168.92 L 179.768,-168.637 L 179.768,-168.408
 L 180.195,-168.689 L 180.195,-167.206 L 179.713,-167.206 L 179.713,-167 L 180.899,-167 z
M 50.3337,-167.003 L 50.4158,-167.014 L 50.4922,-167.031 L 50.5629,-167.055 L 50.6279,-167.086 L 50.6873,-167.124
 L 50.741,-167.169 L 50.7885,-167.22 L 50.8287,-167.276 L 50.8615,-167.338 L 50.8871,-167.404 L 50.9054,-167.476
 L 50.9163,-167.552 L 50.92,-167.634 L 50.9166,-167.706 L 50.9064,-167.774 L 50.8893,-167.838 L 50.8655,-167.898
 L 50.8348,-167.954 L 50.7973,-168.006 L 50.753,-168.054 L 50.7032,-168.097 L 50.6487,-168.133 L 50.5896,-168.163
 L 50.5257,-168.186 L 50.4572,-168.203 L 50.3839,-168.213 L 50.306,-168.216 L 50.2407,-168.214 L 50.1785,-168.206
 L 50.1194,-168.194 L 50.0634,-168.176 L 50.0105,-168.154 L 49.9607,-168.127 L 49.914,-168.095 L 49.95,-168.714
 L 50.809,-168.714 L 50.809,-168.92 L 49.729,-168.92 L 49.666,-167.882 L 49.903,-167.882 L 49.9516,-167.921
 L 50.0001,-167.953 L 50.0487,-167.977 L 50.0976,-167.995 L 50.1484,-168.008 L 50.2016,-168.015 L 50.257,-168.018
 L 50.3094,-168.016 L 50.3586,-168.009 L 50.4047,-167.998 L 50.4475,-167.983 L 50.4872,-167.963 L 50.5237,-167.939
 L 50.557,-167.91 L 50.5867,-167.878 L 50.6118,-167.843 L 50.6324,-167.806 L 50.6484,-167.766 L 50.6599,-167.722
 L 50.6667,-167.677 L 50.669,-167.628 L 50.6667,-167.573 L 50.6599,-167.521 L 50.6486,-167.472 L 50.6328,-167.427
 L 50.6124,-167.386 L 50.5874,-167.348 L 50.558,-167.313 L 50.5248,-167.282 L 50.4881,-167.257 L 50.4479,-167.236
 L 50.4042,-167.219 L 50.357,-167.207 L 50.3062,-167.2 L 50.252,-167.198 L 50.1658,-167.204 L 50.0895,-167.221
 L 50.023,-167.25 L 49.9664,-167.29 L 49.9198,-167.341 L 49.8829,-167.404 L 49.856,-167.479 L 49.611,-167.451
 L 49.6257,-167.39 L 49.6454,-167.334 L 49.6699,-167.282 L 49.6993,-167.234 L 49.7336,-167.19 L 49.7729,-167.15
 L 49.817,-167.115 L 49.8657,-167.084 L 49.9185,-167.059 L 49.9756,-167.038 L 50.0369,-167.021 L 50.1024,-167.009
 L 50.1721,-167.002 L 50.246,-167 z
M 181.851,-167.003 L 181.931,-167.012 L 182.006,-167.026 L 182.074,-167.047 L 182.137,-167.073 L 182.193,-167.105
 L 182.244,-167.143 L 182.288,-167.186 L 182.326,-167.234 L 182.357,-167.286 L 182.38,-167.343 L 182.397,-167.404
 L 182.408,-167.47 L 182.411,-167.541 L 182.409,-167.592 L 182.403,-167.64 L 182.393,-167.686 L 182.378,-167.729
 L 182.36,-167.77 L 182.337,-167.808 L 182.31,-167.844 L 182.28,-167.877 L 182.246,-167.906 L 182.209,-167.931
 L 182.168,-167.953 L 182.124,-167.971 L 182.077,-167.985 L 182.027,-167.995 L 182.027,-168 L 182.07,-168.011
 L 182.111,-168.025 L 182.149,-168.043 L 182.184,-168.064 L 182.216,-168.09 L 182.246,-168.119 L 182.273,-168.151
 L 182.297,-168.186 L 182.318,-168.223 L 182.334,-168.262 L 182.347,-168.303 L 182.357,-168.345 L 182.362,-168.389
 L 182.364,-168.434 L 182.361,-168.496 L 182.351,-168.554 L 182.334,-168.609 L 182.311,-168.66 L 182.281,-168.707
 L 182.244,-168.75 L 182.201,-168.789 L 182.152,-168.824 L 182.099,-168.853 L 182.041,-168.877 L 181.977,-168.896
 L 181.909,-168.909 L 181.837,-168.917 L 181.759,-168.92 L 181.683,-168.917 L 181.612,-168.909 L 181.545,-168.895
 L 181.482,-168.876 L 181.424,-168.852 L 181.371,-168.822 L 181.322,-168.786 L 181.279,-168.746 L 181.243,-168.703
 L 181.213,-168.656 L 181.19,-168.606 L 181.173,-168.553 L 181.163,-168.496 L 181.16,-168.436 L 181.162,-168.391
 L 181.167,-168.347 L 181.176,-168.305 L 181.189,-168.264 L 181.206,-168.225 L 181.225,-168.188 L 181.249,-168.153
 L 181.276,-168.12 L 181.306,-168.091 L 181.338,-168.065 L 181.373,-168.043 L 181.411,-168.024 L 181.451,-168.008
 L 181.494,-167.996 L 181.494,-167.991 L 181.448,-167.982 L 181.404,-167.968 L 181.363,-167.951 L 181.324,-167.93
 L 181.287,-167.904 L 181.253,-167.875 L 181.221,-167.842 L 181.193,-167.806 L 181.169,-167.767 L 181.15,-167.726
 L 181.135,-167.682 L 181.124,-167.637 L 181.117,-167.589 L 181.115,-167.538 L 181.119,-167.467 L 181.129,-167.4
 L 181.147,-167.339 L 181.171,-167.282 L 181.203,-167.23 L 181.241,-167.182 L 181.287,-167.14 L 181.339,-167.103
 L 181.396,-167.071 L 181.459,-167.046 L 181.527,-167.026 L 181.601,-167.011 L 181.68,-167.003 L 181.764,-167
 z
M 181.714,-168.09 L 181.671,-168.095 L 181.63,-168.104 L 181.593,-168.116 L 181.558,-168.131 L 181.527,-168.15
 L 181.499,-168.173 L 181.475,-168.199 L 181.454,-168.228 L 181.437,-168.26 L 181.424,-168.295 L 181.415,-168.334
 L 181.409,-168.375 L 181.407,-168.42 L 181.409,-168.464 L 181.414,-168.504 L 181.424,-168.542 L 181.436,-168.576
 L 181.453,-168.607 L 181.473,-168.635 L 181.497,-168.659 L 181.524,-168.68 L 181.555,-168.699 L 181.589,-168.714
 L 181.627,-168.725 L 181.668,-168.733 L 181.712,-168.738 L 181.759,-168.74 L 181.853,-168.733 L 181.932,-168.714
 L 181.998,-168.681 L 182.048,-168.635 L 182.084,-168.577 L 182.106,-168.505 L 182.113,-168.42 L 182.111,-168.372
 L 182.106,-168.328 L 182.097,-168.288 L 182.084,-168.251 L 182.067,-168.219 L 182.047,-168.191 L 182.023,-168.166
 L 181.996,-168.145 L 181.965,-168.128 L 181.931,-168.113 L 181.893,-168.102 L 181.853,-168.094 L 181.809,-168.09
 L 181.761,-168.088 z
M 181.66,-167.189 L 181.57,-167.212 L 181.496,-167.25 L 181.439,-167.304 L 181.398,-167.374 L 181.373,-167.459
 L 181.365,-167.559 L 181.367,-167.604 L 181.374,-167.646 L 181.384,-167.685 L 181.399,-167.722 L 181.418,-167.755
 L 181.442,-167.786 L 181.469,-167.814 L 181.5,-167.839 L 181.535,-167.86 L 181.573,-167.877 L 181.614,-167.89
 L 181.659,-167.899 L 181.707,-167.905 L 181.758,-167.907 L 181.811,-167.905 L 181.86,-167.9 L 181.906,-167.891
 L 181.948,-167.879 L 181.987,-167.863 L 182.022,-167.843 L 182.054,-167.82 L 182.082,-167.794 L 182.106,-167.764
 L 182.126,-167.731 L 182.141,-167.694 L 182.151,-167.654 L 182.158,-167.611 L 182.16,-167.564 L 182.158,-167.509
 L 182.152,-167.459 L 182.142,-167.412 L 182.128,-167.371 L 182.11,-167.333 L 182.088,-167.3 L 182.062,-167.272
 L 182.032,-167.248 L 181.998,-167.227 L 181.96,-167.211 L 181.918,-167.198 L 181.872,-167.188 L 181.822,-167.183
 L 181.767,-167.181 z
M 201.85,-167.005 L 201.934,-167.02 L 202.011,-167.045 L 202.082,-167.08 L 202.146,-167.126 L 202.204,-167.181
 L 202.255,-167.246 L 202.3,-167.321 L 202.337,-167.405 L 202.368,-167.498 L 202.392,-167.6 L 202.409,-167.711
 L 202.42,-167.831 L 202.423,-167.96 L 202.42,-168.091 L 202.41,-168.212 L 202.394,-168.324 L 202.371,-168.427
 L 202.341,-168.52 L 202.306,-168.603 L 202.263,-168.677 L 202.214,-168.741 L 202.157,-168.796 L 202.094,-168.841
 L 202.023,-168.875 L 201.945,-168.9 L 201.86,-168.915 L 201.768,-168.92 L 201.673,-168.915 L 201.586,-168.9
 L 201.506,-168.876 L 201.434,-168.842 L 201.37,-168.798 L 201.313,-168.744 L 201.263,-168.68 L 201.221,-168.607
 L 201.185,-168.524 L 201.155,-168.431 L 201.132,-168.328 L 201.116,-168.215 L 201.106,-168.092 L 201.103,-167.96
 L 201.106,-167.83 L 201.117,-167.71 L 201.133,-167.598 L 201.157,-167.496 L 201.187,-167.403 L 201.224,-167.32
 L 201.267,-167.245 L 201.318,-167.18 L 201.375,-167.125 L 201.438,-167.08 L 201.509,-167.045 L 201.586,-167.02
 L 201.67,-167.005 L 201.76,-167 z
M 201.703,-167.202 L 201.648,-167.213 L 201.598,-167.232 L 201.553,-167.258 L 201.513,-167.291 L 201.477,-167.332
 L 201.446,-167.381 L 201.42,-167.438 L 201.398,-167.503 L 201.379,-167.577 L 201.365,-167.66 L 201.355,-167.751
 L 201.349,-167.851 L 201.347,-167.96 L 201.349,-168.072 L 201.355,-168.174 L 201.365,-168.267 L 201.379,-168.351
 L 201.397,-168.426 L 201.419,-168.49 L 201.445,-168.546 L 201.476,-168.593 L 201.511,-168.633 L 201.552,-168.666
 L 201.598,-168.691 L 201.649,-168.709 L 201.706,-168.72 L 201.767,-168.724 L 201.827,-168.72 L 201.882,-168.709
 L 201.932,-168.691 L 201.977,-168.665 L 202.017,-168.632 L 202.051,-168.591 L 202.081,-168.543 L 202.107,-168.487
 L 202.128,-168.422 L 202.146,-168.348 L 202.159,-168.264 L 202.169,-168.172 L 202.175,-168.071 L 202.177,-167.96
 L 202.175,-167.853 L 202.169,-167.755 L 202.159,-167.665 L 202.144,-167.583 L 202.126,-167.509 L 202.104,-167.443
 L 202.077,-167.385 L 202.046,-167.335 L 202.011,-167.293 L 201.97,-167.259 L 201.925,-167.232 L 201.876,-167.213
 L 201.821,-167.202 L 201.762,-167.198 z
M 190.899,-167.206 L 190.438,-167.206 L 190.438,-168.92 L 190.215,-168.92 L 189.768,-168.637 L 189.768,-168.408
 L 190.195,-168.689 L 190.195,-167.206 L 189.713,-167.206 L 189.713,-167 L 190.899,-167 z
M 122.392,-167.206 L 121.4,-167.206 L 121.427,-167.26 L 121.463,-167.316 L 121.507,-167.372 L 121.56,-167.431
 L 121.623,-167.493 L 121.736,-167.593 L 121.925,-167.749 L 122.042,-167.85 L 122.129,-167.932 L 122.189,-167.996
 L 122.238,-168.058 L 122.278,-168.121 L 122.311,-168.183 L 122.336,-168.245 L 122.345,-168.277 L 122.353,-168.308
 L 122.358,-168.339 L 122.361,-168.371 L 122.362,-168.402 L 122.359,-168.471 L 122.349,-168.534 L 122.334,-168.594
 L 122.311,-168.649 L 122.283,-168.699 L 122.248,-168.744 L 122.207,-168.785 L 122.16,-168.821 L 122.108,-168.851
 L 122.051,-168.876 L 121.988,-168.895 L 121.919,-168.909 L 121.845,-168.917 L 121.766,-168.92 L 121.693,-168.917
 L 121.625,-168.909 L 121.56,-168.895 L 121.499,-168.876 L 121.441,-168.851 L 121.388,-168.821 L 121.338,-168.785
 L 121.294,-168.745 L 121.255,-168.701 L 121.221,-168.653 L 121.194,-168.601 L 121.172,-168.546 L 121.156,-168.487
 L 121.145,-168.424 L 121.392,-168.401 L 121.399,-168.443 L 121.409,-168.482 L 121.423,-168.519 L 121.439,-168.553
 L 121.46,-168.583 L 121.483,-168.612 L 121.51,-168.637 L 121.54,-168.659 L 121.572,-168.678 L 121.607,-168.694
 L 121.643,-168.706 L 121.682,-168.714 L 121.723,-168.719 L 121.766,-168.721 L 121.811,-168.719 L 121.853,-168.714
 L 121.893,-168.705 L 121.929,-168.693 L 121.963,-168.677 L 121.993,-168.658 L 122.021,-168.635 L 122.046,-168.609
 L 122.066,-168.58 L 122.083,-168.549 L 122.096,-168.514 L 122.106,-168.477 L 122.111,-168.437 L 122.113,-168.394
 L 122.112,-168.362 L 122.109,-168.33 L 122.103,-168.3 L 122.095,-168.27 L 122.086,-168.241 L 122.073,-168.214
 L 122.043,-168.161 L 122.008,-168.11 L 121.967,-168.061 L 121.895,-167.989 L 121.786,-167.894 L 121.572,-167.72
 L 121.479,-167.637 L 121.389,-167.547 L 121.302,-167.448 L 121.248,-167.376 L 121.199,-167.299 L 121.154,-167.215
 L 121.134,-167.171 L 121.134,-167 L 122.392,-167 z
M 200.897,-167.206 L 199.905,-167.206 L 199.932,-167.26 L 199.968,-167.316 L 200.012,-167.372 L 200.065,-167.431
 L 200.127,-167.493 L 200.241,-167.593 L 200.43,-167.749 L 200.547,-167.85 L 200.634,-167.932 L 200.694,-167.996
 L 200.743,-168.058 L 200.783,-168.121 L 200.816,-168.183 L 200.841,-168.245 L 200.85,-168.277 L 200.858,-168.308
 L 200.863,-168.339 L 200.866,-168.371 L 200.867,-168.402 L 200.864,-168.471 L 200.854,-168.534 L 200.839,-168.594
 L 200.816,-168.649 L 200.788,-168.699 L 200.753,-168.744 L 200.712,-168.785 L 200.665,-168.821 L 200.613,-168.851
 L 200.556,-168.876 L 200.493,-168.895 L 200.424,-168.909 L 200.35,-168.917 L 200.271,-168.92 L 200.198,-168.917
 L 200.13,-168.909 L 200.065,-168.895 L 200.003,-168.876 L 199.946,-168.851 L 199.893,-168.821 L 199.843,-168.785
 L 199.798,-168.745 L 199.759,-168.701 L 199.726,-168.653 L 199.699,-168.601 L 199.677,-168.546 L 199.661,-168.487
 L 199.65,-168.424 L 199.897,-168.401 L 199.904,-168.443 L 199.914,-168.482 L 199.927,-168.519 L 199.944,-168.553
 L 199.965,-168.583 L 199.988,-168.612 L 200.015,-168.637 L 200.045,-168.659 L 200.077,-168.678 L 200.111,-168.694
 L 200.148,-168.706 L 200.187,-168.714 L 200.228,-168.719 L 200.271,-168.721 L 200.316,-168.719 L 200.358,-168.714
 L 200.398,-168.705 L 200.434,-168.693 L 200.468,-168.677 L 200.498,-168.658 L 200.526,-168.635 L 200.55,-168.609
 L 200.571,-168.58 L 200.588,-168.549 L 200.601,-168.514 L 200.61,-168.477 L 200.616,-168.437 L 200.618,-168.394
 L 200.617,-168.362 L 200.614,-168.33 L 200.608,-168.3 L 200.6,-168.27 L 200.59,-168.241 L 200.578,-168.214
 L 200.548,-168.161 L 200.512,-168.11 L 200.471,-168.061 L 200.4,-167.989 L 200.291,-167.894 L 200.077,-167.72
 L 199.984,-167.637 L 199.894,-167.547 L 199.807,-167.448 L 199.753,-167.376 L 199.704,-167.299 L 199.659,-167.215
 L 199.639,-167.171 L 199.639,-167 L 200.897,-167 z
M 191.804,-167.005 L 191.889,-167.021 L 191.968,-167.047 L 192.041,-167.084 L 192.107,-167.132 L 192.167,-167.19
 L 192.221,-167.258 L 192.269,-167.336 L 192.309,-167.424 L 192.342,-167.52 L 192.367,-167.626 L 192.385,-167.74
 L 192.396,-167.864 L 192.4,-167.997 L 192.397,-168.124 L 192.387,-168.242 L 192.37,-168.35 L 192.347,-168.449
 L 192.317,-168.539 L 192.28,-168.619 L 192.237,-168.689 L 192.187,-168.75 L 192.131,-168.802 L 192.069,-168.845
 L 192.001,-168.878 L 191.926,-168.901 L 191.845,-168.915 L 191.757,-168.92 L 191.675,-168.917 L 191.597,-168.906
 L 191.526,-168.889 L 191.459,-168.864 L 191.398,-168.833 L 191.342,-168.794 L 191.291,-168.749 L 191.247,-168.698
 L 191.209,-168.641 L 191.179,-168.58 L 191.155,-168.513 L 191.138,-168.441 L 191.128,-168.364 L 191.124,-168.281
 L 191.127,-168.2 L 191.137,-168.125 L 191.152,-168.053 L 191.174,-167.987 L 191.203,-167.925 L 191.237,-167.868
 L 191.278,-167.815 L 191.324,-167.769 L 191.374,-167.729 L 191.429,-167.697 L 191.487,-167.672 L 191.55,-167.654
 L 191.617,-167.644 L 191.688,-167.64 L 191.732,-167.641 L 191.776,-167.646 L 191.818,-167.653 L 191.859,-167.664
 L 191.899,-167.677 L 191.938,-167.694 L 191.976,-167.713 L 192.012,-167.735 L 192.045,-167.759 L 192.074,-167.785
 L 192.101,-167.813 L 192.124,-167.843 L 192.144,-167.874 L 192.161,-167.908 L 192.157,-167.813 L 192.149,-167.725
 L 192.137,-167.643 L 192.119,-167.568 L 192.098,-167.499 L 192.072,-167.436 L 192.041,-167.38 L 192.006,-167.331
 L 191.968,-167.289 L 191.925,-167.255 L 191.879,-167.229 L 191.829,-167.21 L 191.775,-167.199 L 191.717,-167.195
 L 191.65,-167.2 L 191.589,-167.214 L 191.536,-167.238 L 191.49,-167.272 L 191.451,-167.315 L 191.42,-167.368
 L 191.395,-167.431 L 191.164,-167.395 L 191.182,-167.338 L 191.203,-167.285 L 191.228,-167.238 L 191.255,-167.195
 L 191.286,-167.156 L 191.319,-167.122 L 191.356,-167.093 L 191.396,-167.068 L 191.44,-167.047 L 191.487,-167.03
 L 191.538,-167.017 L 191.593,-167.008 L 191.651,-167.002 L 191.713,-167 z
M 191.698,-167.833 L 191.653,-167.841 L 191.611,-167.853 L 191.572,-167.87 L 191.535,-167.893 L 191.502,-167.92
 L 191.471,-167.952 L 191.444,-167.988 L 191.422,-168.028 L 191.403,-168.072 L 191.389,-168.119 L 191.378,-168.169
 L 191.372,-168.223 L 191.37,-168.281 L 191.372,-168.338 L 191.378,-168.391 L 191.389,-168.44 L 191.403,-168.486
 L 191.422,-168.529 L 191.444,-168.568 L 191.471,-168.604 L 191.502,-168.636 L 191.535,-168.663 L 191.572,-168.685
 L 191.612,-168.702 L 191.655,-168.714 L 191.7,-168.722 L 191.749,-168.724 L 191.798,-168.721 L 191.844,-168.713
 L 191.888,-168.698 L 191.928,-168.678 L 191.965,-168.653 L 192,-168.621 L 192.031,-168.584 L 192.059,-168.542
 L 192.083,-168.497 L 192.102,-168.448 L 192.118,-168.395 L 192.128,-168.339 L 192.135,-168.279 L 192.137,-168.215
 L 192.136,-168.183 L 192.133,-168.153 L 192.128,-168.123 L 192.12,-168.095 L 192.111,-168.067 L 192.099,-168.041
 L 192.085,-168.015 L 192.069,-167.991 L 192.052,-167.968 L 192.033,-167.947 L 192.013,-167.927 L 191.991,-167.91
 L 191.967,-167.894 L 191.916,-167.866 L 191.889,-167.855 L 191.862,-167.847 L 191.834,-167.84 L 191.805,-167.835
 L 191.776,-167.832 L 191.746,-167.831 z
M 10.899,-167.206 L 10.438,-167.206 L 10.438,-168.92 L 10.215,-168.92 L 9.76799,-168.637 L 9.76799,-168.408
 L 10.195,-168.689 L 10.195,-167.206 L 9.713,-167.206 L 9.713,-167 L 10.899,-167 z
M 101.85,-167.005 L 101.934,-167.02 L 102.011,-167.045 L 102.082,-167.08 L 102.146,-167.126 L 102.204,-167.181
 L 102.255,-167.246 L 102.3,-167.321 L 102.337,-167.405 L 102.368,-167.498 L 102.392,-167.6 L 102.409,-167.711
 L 102.42,-167.831 L 102.423,-167.96 L 102.42,-168.091 L 102.41,-168.212 L 102.394,-168.324 L 102.371,-168.427
 L 102.341,-168.52 L 102.306,-168.603 L 102.263,-168.677 L 102.214,-168.741 L 102.157,-168.796 L 102.094,-168.841
 L 102.023,-168.875 L 101.945,-168.9 L 101.86,-168.915 L 101.768,-168.92 L 101.673,-168.915 L 101.586,-168.9
 L 101.506,-168.876 L 101.434,-168.842 L 101.37,-168.798 L 101.313,-168.744 L 101.263,-168.68 L 101.221,-168.607
 L 101.185,-168.524 L 101.155,-168.431 L 101.132,-168.328 L 101.116,-168.215 L 101.106,-168.092 L 101.103,-167.96
 L 101.106,-167.83 L 101.117,-167.71 L 101.133,-167.598 L 101.157,-167.496 L 101.187,-167.403 L 101.224,-167.32
 L 101.267,-167.245 L 101.318,-167.18 L 101.375,-167.125 L 101.438,-167.08 L 101.509,-167.045 L 101.586,-167.02
 L 101.67,-167.005 L 101.76,-167 z
M 101.703,-167.202 L 101.648,-167.213 L 101.598,-167.232 L 101.553,-167.258 L 101.513,-167.291 L 101.477,-167.332
 L 101.446,-167.381 L 101.42,-167.438 L 101.398,-167.503 L 101.379,-167.577 L 101.365,-167.66 L 101.355,-167.751
 L 101.349,-167.851 L 101.347,-167.96 L 101.349,-168.072 L 101.355,-168.174 L 101.365,-168.267 L 101.379,-168.351
 L 101.397,-168.426 L 101.419,-168.49 L 101.445,-168.546 L 101.476,-168.593 L 101.511,-168.633 L 101.552,-168.666
 L 101.598,-168.691 L 101.649,-168.709 L 101.706,-168.72 L 101.767,-168.724 L 101.827,-168.72 L 101.882,-168.709
 L 101.932,-168.691 L 101.977,-168.665 L 102.017,-168.632 L 102.051,-168.591 L 102.081,-168.543 L 102.107,-168.487
 L 102.128,-168.422 L 102.146,-168.348 L 102.159,-168.264 L 102.169,-168.172 L 102.175,-168.071 L 102.177,-167.96
 L 102.175,-167.853 L 102.169,-167.755 L 102.159,-167.665 L 102.144,-167.583 L 102.126,-167.509 L 102.104,-167.443
 L 102.077,-167.385 L 102.046,-167.335 L 102.011,-167.293 L 101.97,-167.259 L 101.925,-167.232 L 101.876,-167.213
 L 101.821,-167.202 L 101.762,-167.198 z
M 30.3557,-167.003 L 30.4355,-167.012 L 30.5094,-167.026 L 30.5776,-167.046 L 30.6399,-167.072 L 30.6964,-167.104
 L 30.747,-167.142 L 30.7916,-167.185 L 30.8293,-167.233 L 30.8601,-167.286 L 30.8841,-167.344 L 30.9013,-167.406
 L 30.9116,-167.474 L 30.915,-167.546 L 30.9126,-167.596 L 30.9053,-167.644 L 30.8931,-167.689 L 30.8761,-167.731
 L 30.8543,-167.771 L 30.8276,-167.809 L 30.796,-167.844 L 30.7601,-167.876 L 30.7203,-167.904 L 30.6767,-167.928
 L 30.6293,-167.949 L 30.578,-167.965 L 30.5229,-167.977 L 30.464,-167.986 L 30.464,-167.991 L 30.5175,-168.004
 L 30.5673,-168.019 L 30.6134,-168.038 L 30.6557,-168.059 L 30.6942,-168.083 L 30.729,-168.111 L 30.76,-168.141
 L 30.787,-168.174 L 30.81,-168.21 L 30.8287,-168.248 L 30.8433,-168.29 L 30.8537,-168.334 L 30.8599,-168.381
 L 30.862,-168.43 L 30.8587,-168.494 L 30.849,-168.554 L 30.8328,-168.609 L 30.8101,-168.661 L 30.7809,-168.708
 L 30.7452,-168.751 L 30.703,-168.79 L 30.6552,-168.824 L 30.6023,-168.854 L 30.5441,-168.878 L 30.4806,-168.896
 L 30.412,-168.909 L 30.3381,-168.917 L 30.259,-168.92 L 30.1863,-168.917 L 30.1175,-168.909 L 30.0525,-168.896
 L 29.9914,-168.877 L 29.9341,-168.853 L 29.8806,-168.824 L 29.831,-168.789 L 29.7864,-168.75 L 29.7475,-168.706
 L 29.7142,-168.659 L 29.6867,-168.607 L 29.6648,-168.551 L 29.6485,-168.491 L 29.638,-168.427 L 29.881,-168.408
 L 29.8873,-168.449 L 29.8969,-168.488 L 29.91,-168.523 L 29.9264,-168.556 L 29.9462,-168.587 L 29.9694,-168.614
 L 29.996,-168.639 L 30.0258,-168.661 L 30.0581,-168.679 L 30.0929,-168.694 L 30.1302,-168.706 L 30.17,-168.714
 L 30.2122,-168.719 L 30.257,-168.721 L 30.3058,-168.719 L 30.351,-168.714 L 30.3927,-168.705 L 30.4309,-168.693
 L 30.4655,-168.678 L 30.4965,-168.659 L 30.524,-168.636 L 30.5479,-168.61 L 30.5681,-168.582 L 30.5846,-168.552
 L 30.5975,-168.519 L 30.6066,-168.483 L 30.6122,-168.445 L 30.614,-168.404 L 30.6117,-168.363 L 30.605,-168.325
 L 30.5938,-168.289 L 30.5781,-168.256 L 30.5579,-168.225 L 30.5332,-168.197 L 30.504,-168.172 L 30.4707,-168.15
 L 30.4338,-168.131 L 30.3932,-168.115 L 30.3489,-168.103 L 30.3009,-168.095 L 30.2493,-168.09 L 30.194,-168.088
 L 30.061,-168.088 L 30.061,-167.878 L 30.199,-167.878 L 30.2611,-167.876 L 30.3189,-167.871 L 30.3724,-167.862
 L 30.4215,-167.85 L 30.4663,-167.834 L 30.5068,-167.815 L 30.543,-167.792 L 30.5748,-167.766 L 30.6018,-167.738
 L 30.6238,-167.707 L 30.6409,-167.673 L 30.6532,-167.636 L 30.6605,-167.596 L 30.663,-167.554 L 30.6608,-167.505
 L 30.6544,-167.461 L 30.6437,-167.419 L 30.6287,-167.381 L 30.6094,-167.347 L 30.5858,-167.316 L 30.558,-167.289
 L 30.5266,-167.265 L 30.492,-167.245 L 30.4542,-167.229 L 30.413,-167.216 L 30.3686,-167.207 L 30.3209,-167.202
 L 30.27,-167.2 L 30.1719,-167.207 L 30.0867,-167.227 L 30.0145,-167.262 L 29.9552,-167.31 L 29.9089,-167.371
 L 29.8755,-167.447 L 29.855,-167.536 L 29.605,-167.513 L 29.617,-167.443 L 29.6347,-167.378 L 29.6581,-167.318
 L 29.6873,-167.263 L 29.7221,-167.213 L 29.7627,-167.169 L 29.809,-167.129 L 29.8605,-167.095 L 29.9168,-167.066
 L 29.9779,-167.042 L 30.0438,-167.024 L 30.1144,-167.011 L 30.1898,-167.003 L 30.27,-167 z
M 90.3092,-167.005 L 90.3941,-167.021 L 90.4729,-167.047 L 90.5455,-167.084 L 90.6119,-167.132 L 90.672,-167.19
 L 90.726,-167.258 L 90.7735,-167.336 L 90.8137,-167.424 L 90.8465,-167.52 L 90.8721,-167.626 L 90.8904,-167.74
 L 90.9013,-167.864 L 90.905,-167.997 L 90.9017,-168.124 L 90.8917,-168.242 L 90.8751,-168.35 L 90.8518,-168.449
 L 90.8218,-168.539 L 90.7852,-168.619 L 90.742,-168.689 L 90.6923,-168.75 L 90.6363,-168.802 L 90.574,-168.845
 L 90.5054,-168.878 L 90.4306,-168.901 L 90.3494,-168.915 L 90.262,-168.92 L 90.1795,-168.917 L 90.1023,-168.906
 L 90.0304,-168.889 L 89.9639,-168.864 L 89.9026,-168.833 L 89.8466,-168.794 L 89.796,-168.749 L 89.7517,-168.698
 L 89.7142,-168.641 L 89.6835,-168.58 L 89.6597,-168.513 L 89.6426,-168.441 L 89.6324,-168.364 L 89.629,-168.281
 L 89.6321,-168.2 L 89.6416,-168.125 L 89.6573,-168.053 L 89.6793,-167.987 L 89.7076,-167.925 L 89.7421,-167.868
 L 89.783,-167.815 L 89.8291,-167.769 L 89.8793,-167.729 L 89.9337,-167.697 L 89.9923,-167.672 L 90.055,-167.654
 L 90.1219,-167.644 L 90.193,-167.64 L 90.2373,-167.641 L 90.2806,-167.646 L 90.3228,-167.653 L 90.3639,-167.664
 L 90.404,-167.677 L 90.443,-167.694 L 90.481,-167.713 L 90.5168,-167.735 L 90.5496,-167.759 L 90.5791,-167.785
 L 90.6056,-167.813 L 90.6288,-167.843 L 90.649,-167.874 L 90.666,-167.908 L 90.6623,-167.813 L 90.6542,-167.725
 L 90.6415,-167.643 L 90.6244,-167.568 L 90.6027,-167.499 L 90.5766,-167.436 L 90.546,-167.38 L 90.5112,-167.331
 L 90.4726,-167.289 L 90.4302,-167.255 L 90.3839,-167.229 L 90.3337,-167.21 L 90.2798,-167.199 L 90.222,-167.195
 L 90.1544,-167.2 L 90.0941,-167.214 L 90.0409,-167.238 L 89.9949,-167.272 L 89.9561,-167.315 L 89.9244,-167.368
 L 89.9,-167.431 L 89.669,-167.395 L 89.6871,-167.338 L 89.7083,-167.285 L 89.7327,-167.238 L 89.7601,-167.195
 L 89.7906,-167.156 L 89.8243,-167.122 L 89.861,-167.093 L 89.9011,-167.068 L 89.9448,-167.047 L 89.9922,-167.03
 L 90.0432,-167.017 L 90.0978,-167.008 L 90.1561,-167.002 L 90.218,-167 z
M 90.203,-167.833 L 90.1579,-167.841 L 90.1158,-167.853 L 90.0765,-167.87 L 90.0401,-167.893 L 90.0066,-167.92
 L 89.976,-167.952 L 89.9492,-167.988 L 89.9265,-168.028 L 89.908,-168.072 L 89.8935,-168.119 L 89.8832,-168.169
 L 89.8771,-168.223 L 89.875,-168.281 L 89.8771,-168.338 L 89.8832,-168.391 L 89.8935,-168.44 L 89.908,-168.486
 L 89.9265,-168.529 L 89.9492,-168.568 L 89.976,-168.604 L 90.0067,-168.636 L 90.0403,-168.663 L 90.077,-168.685
 L 90.1167,-168.702 L 90.1595,-168.714 L 90.2052,-168.722 L 90.254,-168.724 L 90.3031,-168.721 L 90.3493,-168.713
 L 90.3925,-168.698 L 90.4328,-168.678 L 90.4701,-168.653 L 90.5045,-168.621 L 90.536,-168.584 L 90.5641,-168.542
 L 90.5879,-168.497 L 90.6074,-168.448 L 90.6225,-168.395 L 90.6333,-168.339 L 90.6398,-168.279 L 90.642,-168.215
 L 90.6409,-168.183 L 90.6377,-168.153 L 90.6324,-168.123 L 90.625,-168.095 L 90.6155,-168.067 L 90.6038,-168.041
 L 90.59,-168.015 L 90.5743,-167.991 L 90.5571,-167.968 L 90.5383,-167.947 L 90.5178,-167.927 L 90.4958,-167.91
 L 90.4722,-167.894 L 90.4209,-167.866 L 90.3943,-167.855 L 90.3669,-167.847 L 90.3389,-167.84 L 90.3103,-167.835
 L 90.2809,-167.832 L 90.251,-167.831 z
M 112.195,-167.206 L 111.734,-167.206 L 111.734,-168.92 L 111.511,-168.92 L 111.064,-168.637 L 111.064,-168.408
 L 111.491,-168.689 L 111.491,-167.206 L 111.009,-167.206 L 111.009,-167 L 112.195,-167 z
M 120.899,-167.206 L 120.438,-167.206 L 120.438,-168.92 L 120.215,-168.92 L 119.768,-168.637 L 119.768,-168.408
 L 120.195,-168.689 L 120.195,-167.206 L 119.713,-167.206 L 119.713,-167 L 120.899,-167 z
M 110.899,-167.206 L 110.438,-167.206 L 110.438,-168.92 L 110.215,-168.92 L 109.768,-168.637 L 109.768,-168.408
 L 110.195,-168.689 L 110.195,-167.206 L 109.713,-167.206 L 109.713,-167 L 110.899,-167 z
M 60.3805,-167.003 L 60.4549,-167.014 L 60.5242,-167.031 L 60.5885,-167.055 L 60.6477,-167.086 L 60.7019,-167.123
 L 60.751,-167.168 L 60.7945,-167.219 L 60.8313,-167.275 L 60.8614,-167.335 L 60.8849,-167.401 L 60.9016,-167.472
 L 60.9117,-167.547 L 60.915,-167.628 L 60.9118,-167.703 L 60.9023,-167.773 L 60.8865,-167.838 L 60.8644,-167.9
 L 60.8359,-167.956 L 60.8011,-168.008 L 60.76,-168.056 L 60.7137,-168.098 L 60.663,-168.134 L 60.6078,-168.164
 L 60.5481,-168.187 L 60.4839,-168.203 L 60.4152,-168.213 L 60.342,-168.216 L 60.2984,-168.215 L 60.2562,-168.211
 L 60.2154,-168.204 L 60.1759,-168.195 L 60.1379,-168.183 L 60.1013,-168.169 L 60.066,-168.152 L 60.0328,-168.133
 L 60.0018,-168.111 L 59.9731,-168.086 L 59.9465,-168.06 L 59.9221,-168.031 L 59.8999,-168 L 59.88,-167.966
 L 59.8823,-168.068 L 59.8893,-168.163 L 59.9009,-168.25 L 59.9172,-168.331 L 59.9382,-168.404 L 59.9637,-168.47
 L 59.994,-168.529 L 60.0287,-168.581 L 60.0673,-168.624 L 60.1096,-168.66 L 60.1558,-168.688 L 60.2057,-168.708
 L 60.2595,-168.72 L 60.317,-168.724 L 60.3827,-168.719 L 60.4414,-168.705 L 60.4932,-168.681 L 60.5381,-168.648
 L 60.576,-168.606 L 60.6069,-168.554 L 60.631,-168.492 L 60.862,-168.534 L 60.8235,-168.636 L 60.772,-168.723
 L 60.7076,-168.794 L 60.6302,-168.849 L 60.5397,-168.888 L 60.4364,-168.912 L 60.32,-168.92 L 60.2296,-168.915
 L 60.1454,-168.899 L 60.0673,-168.872 L 59.9953,-168.835 L 59.9294,-168.787 L 59.8696,-168.729 L 59.816,-168.66
 L 59.7693,-168.581 L 59.7298,-168.494 L 59.6975,-168.396 L 59.6723,-168.29 L 59.6544,-168.175 L 59.6436,-168.05
 L 59.64,-167.916 L 59.6435,-167.793 L 59.6539,-167.678 L 59.6712,-167.572 L 59.6955,-167.474 L 59.7267,-167.386
 L 59.7649,-167.305 L 59.81,-167.234 L 59.8616,-167.172 L 59.9195,-167.119 L 59.9834,-167.076 L 60.0536,-167.043
 L 60.1299,-167.019 L 60.2124,-167.005 L 60.301,-167 z
M 60.2454,-167.198 L 60.2003,-167.206 L 60.1578,-167.22 L 60.1178,-167.239 L 60.0803,-167.263 L 60.0454,-167.293
 L 60.013,-167.329 L 59.9841,-167.369 L 59.9596,-167.412 L 59.9396,-167.458 L 59.924,-167.507 L 59.9129,-167.559
 L 59.9062,-167.615 L 59.904,-167.673 L 59.9061,-167.719 L 59.9126,-167.762 L 59.9233,-167.803 L 59.9383,-167.84
 L 59.9576,-167.874 L 59.9811,-167.906 L 60.009,-167.934 L 60.0403,-167.959 L 60.0743,-167.981 L 60.1109,-167.998
 L 60.1502,-168.012 L 60.1922,-168.021 L 60.2367,-168.027 L 60.284,-168.029 L 60.3343,-168.027 L 60.3814,-168.02
 L 60.4251,-168.009 L 60.4655,-167.994 L 60.5027,-167.974 L 60.5365,-167.95 L 60.567,-167.922 L 60.5941,-167.89
 L 60.617,-167.854 L 60.6357,-167.814 L 60.6503,-167.77 L 60.6607,-167.723 L 60.6669,-167.672 L 60.669,-167.618
 L 60.6669,-167.563 L 60.6608,-167.512 L 60.6506,-167.465 L 60.6363,-167.42 L 60.618,-167.379 L 60.5955,-167.342
 L 60.569,-167.308 L 60.5389,-167.278 L 60.5056,-167.253 L 60.4693,-167.232 L 60.4299,-167.216 L 60.3874,-167.204
 L 60.3417,-167.197 L 60.293,-167.195 z
M 20.897,-167.206 L 19.905,-167.206 L 19.9321,-167.26 L 19.9677,-167.316 L 20.0118,-167.372 L 20.0646,-167.431
 L 20.1274,-167.493 L 20.241,-167.593 L 20.4303,-167.749 L 20.5468,-167.85 L 20.6337,-167.932 L 20.6935,-167.996
 L 20.7425,-168.058 L 20.7833,-168.121 L 20.816,-168.183 L 20.841,-168.245 L 20.8503,-168.277 L 20.8576,-168.308
 L 20.8628,-168.339 L 20.866,-168.371 L 20.867,-168.402 L 20.8638,-168.471 L 20.8543,-168.534 L 20.8385,-168.594
 L 20.8164,-168.649 L 20.7879,-168.699 L 20.7531,-168.744 L 20.712,-168.785 L 20.6653,-168.821 L 20.6131,-168.851
 L 20.5556,-168.876 L 20.4926,-168.895 L 20.4241,-168.909 L 20.3503,-168.917 L 20.271,-168.92 L 20.1983,-168.917
 L 20.1295,-168.909 L 20.0645,-168.895 L 20.0034,-168.876 L 19.9461,-168.851 L 19.8926,-168.821 L 19.843,-168.785
 L 19.7984,-168.745 L 19.7595,-168.701 L 19.7262,-168.653 L 19.6987,-168.601 L 19.6768,-168.546 L 19.6605,-168.487
 L 19.65,-168.424 L 19.897,-168.401 L 19.9038,-168.443 L 19.914,-168.482 L 19.9275,-168.519 L 19.9443,-168.553
 L 19.9645,-168.583 L 19.9881,-168.612 L 20.015,-168.637 L 20.045,-168.659 L 20.0771,-168.678 L 20.1115,-168.694
 L 20.1481,-168.706 L 20.1868,-168.714 L 20.2278,-168.719 L 20.271,-168.721 L 20.3161,-168.719 L 20.3583,-168.714
 L 20.3977,-168.705 L 20.4341,-168.693 L 20.4676,-168.677 L 20.4983,-168.658 L 20.526,-168.635 L 20.5504,-168.609
 L 20.5711,-168.58 L 20.588,-168.549 L 20.6011,-168.514 L 20.6105,-168.477 L 20.6161,-168.437 L 20.618,-168.394
 L 20.6169,-168.362 L 20.6136,-168.33 L 20.6081,-168.3 L 20.6004,-168.27 L 20.5904,-168.241 L 20.5783,-168.214
 L 20.5482,-168.161 L 20.5125,-168.11 L 20.4714,-168.061 L 20.4,-167.989 L 20.2909,-167.894 L 20.0771,-167.72
 L 19.9841,-167.637 L 19.8937,-167.547 L 19.807,-167.448 L 19.7529,-167.376 L 19.7036,-167.299 L 19.6593,-167.215
 L 19.639,-167.171 L 19.639,-167 L 20.897,-167 z
M 151.829,-167.003 L 151.911,-167.014 L 151.987,-167.031 L 152.058,-167.055 L 152.123,-167.086 L 152.182,-167.124
 L 152.236,-167.169 L 152.284,-167.22 L 152.324,-167.276 L 152.357,-167.338 L 152.382,-167.404 L 152.4,-167.476
 L 152.411,-167.552 L 152.415,-167.634 L 152.412,-167.706 L 152.401,-167.774 L 152.384,-167.838 L 152.361,-167.898
 L 152.33,-167.954 L 152.292,-168.006 L 152.248,-168.054 L 152.198,-168.097 L 152.144,-168.133 L 152.085,-168.163
 L 152.021,-168.186 L 151.952,-168.203 L 151.879,-168.213 L 151.801,-168.216 L 151.736,-168.214 L 151.674,-168.206
 L 151.615,-168.194 L 151.559,-168.176 L 151.506,-168.154 L 151.456,-168.127 L 151.409,-168.095 L 151.445,-168.714
 L 152.304,-168.714 L 152.304,-168.92 L 151.224,-168.92 L 151.161,-167.882 L 151.398,-167.882 L 151.447,-167.921
 L 151.495,-167.953 L 151.544,-167.977 L 151.593,-167.995 L 151.644,-168.008 L 151.697,-168.015 L 151.752,-168.018
 L 151.805,-168.016 L 151.854,-168.009 L 151.9,-167.998 L 151.943,-167.983 L 151.982,-167.963 L 152.019,-167.939
 L 152.052,-167.91 L 152.082,-167.878 L 152.107,-167.843 L 152.128,-167.806 L 152.144,-167.766 L 152.155,-167.722
 L 152.162,-167.677 L 152.164,-167.628 L 152.162,-167.573 L 152.155,-167.521 L 152.144,-167.472 L 152.128,-167.427
 L 152.107,-167.386 L 152.083,-167.348 L 152.053,-167.313 L 152.02,-167.282 L 151.983,-167.257 L 151.943,-167.236
 L 151.899,-167.219 L 151.852,-167.207 L 151.801,-167.2 L 151.747,-167.198 L 151.661,-167.204 L 151.585,-167.221
 L 151.518,-167.25 L 151.462,-167.29 L 151.415,-167.341 L 151.378,-167.404 L 151.351,-167.479 L 151.106,-167.451
 L 151.121,-167.39 L 151.14,-167.334 L 151.165,-167.282 L 151.194,-167.234 L 151.229,-167.19 L 151.268,-167.15
 L 151.312,-167.115 L 151.361,-167.084 L 151.414,-167.059 L 151.471,-167.038 L 151.532,-167.021 L 151.598,-167.009
 L 151.667,-167.002 L 151.741,-167 z
M 140.899,-167.206 L 140.438,-167.206 L 140.438,-168.92 L 140.215,-168.92 L 139.768,-168.637 L 139.768,-168.408
 L 140.195,-168.689 L 140.195,-167.206 L 139.713,-167.206 L 139.713,-167 L 140.899,-167 z
M 231.851,-167.003 L 231.931,-167.012 L 232.005,-167.026 L 232.073,-167.046 L 232.135,-167.072 L 232.191,-167.104
 L 232.242,-167.142 L 232.287,-167.185 L 232.324,-167.233 L 232.355,-167.286 L 232.379,-167.344 L 232.396,-167.406
 L 232.407,-167.474 L 232.41,-167.546 L 232.408,-167.596 L 232.4,-167.644 L 232.388,-167.689 L 232.371,-167.731
 L 232.349,-167.771 L 232.323,-167.809 L 232.291,-167.844 L 232.255,-167.876 L 232.215,-167.904 L 232.172,-167.928
 L 232.124,-167.949 L 232.073,-167.965 L 232.018,-167.977 L 231.959,-167.986 L 231.959,-167.991 L 232.013,-168.004
 L 232.062,-168.019 L 232.108,-168.038 L 232.151,-168.059 L 232.189,-168.083 L 232.224,-168.111 L 232.255,-168.141
 L 232.282,-168.174 L 232.305,-168.21 L 232.324,-168.248 L 232.338,-168.29 L 232.349,-168.334 L 232.355,-168.381
 L 232.357,-168.43 L 232.354,-168.494 L 232.344,-168.554 L 232.328,-168.609 L 232.305,-168.661 L 232.276,-168.708
 L 232.24,-168.751 L 232.198,-168.79 L 232.15,-168.824 L 232.097,-168.854 L 232.039,-168.878 L 231.976,-168.896
 L 231.907,-168.909 L 231.833,-168.917 L 231.754,-168.92 L 231.681,-168.917 L 231.613,-168.909 L 231.548,-168.896
 L 231.487,-168.877 L 231.429,-168.853 L 231.376,-168.824 L 231.326,-168.789 L 231.282,-168.75 L 231.243,-168.706
 L 231.209,-168.659 L 231.182,-168.607 L 231.16,-168.551 L 231.144,-168.491 L 231.133,-168.427 L 231.376,-168.408
 L 231.382,-168.449 L 231.392,-168.488 L 231.405,-168.523 L 231.421,-168.556 L 231.441,-168.587 L 231.465,-168.614
 L 231.491,-168.639 L 231.521,-168.661 L 231.553,-168.679 L 231.588,-168.694 L 231.625,-168.706 L 231.665,-168.714
 L 231.707,-168.719 L 231.752,-168.721 L 231.801,-168.719 L 231.846,-168.714 L 231.888,-168.705 L 231.926,-168.693
 L 231.961,-168.678 L 231.992,-168.659 L 232.019,-168.636 L 232.043,-168.61 L 232.063,-168.582 L 232.08,-168.552
 L 232.093,-168.519 L 232.102,-168.483 L 232.107,-168.445 L 232.109,-168.404 L 232.107,-168.363 L 232.1,-168.325
 L 232.089,-168.289 L 232.073,-168.256 L 232.053,-168.225 L 232.028,-168.197 L 231.999,-168.172 L 231.966,-168.15
 L 231.929,-168.131 L 231.888,-168.115 L 231.844,-168.103 L 231.796,-168.095 L 231.744,-168.09 L 231.689,-168.088
 L 231.556,-168.088 L 231.556,-167.878 L 231.694,-167.878 L 231.756,-167.876 L 231.814,-167.871 L 231.867,-167.862
 L 231.917,-167.85 L 231.961,-167.834 L 232.002,-167.815 L 232.038,-167.792 L 232.07,-167.766 L 232.097,-167.738
 L 232.119,-167.707 L 232.136,-167.673 L 232.148,-167.636 L 232.156,-167.596 L 232.158,-167.554 L 232.156,-167.505
 L 232.15,-167.461 L 232.139,-167.419 L 232.124,-167.381 L 232.105,-167.347 L 232.081,-167.316 L 232.053,-167.289
 L 232.022,-167.265 L 231.987,-167.245 L 231.949,-167.229 L 231.908,-167.216 L 231.864,-167.207 L 231.816,-167.202
 L 231.765,-167.2 L 231.667,-167.207 L 231.582,-167.227 L 231.51,-167.262 L 231.45,-167.31 L 231.404,-167.371
 L 231.371,-167.447 L 231.35,-167.536 L 231.1,-167.513 L 231.112,-167.443 L 231.13,-167.378 L 231.153,-167.318
 L 231.182,-167.263 L 231.217,-167.213 L 231.258,-167.169 L 231.304,-167.129 L 231.356,-167.095 L 231.412,-167.066
 L 231.473,-167.042 L 231.539,-167.024 L 231.61,-167.011 L 231.685,-167.003 L 231.765,-167 z
M 70.2462,-167.076 L 70.2499,-167.151 L 70.256,-167.225 L 70.2646,-167.298 L 70.2756,-167.371 L 70.2891,-167.443
 L 70.305,-167.514 L 70.3234,-167.585 L 70.3442,-167.657 L 70.3674,-167.729 L 70.3932,-167.801 L 70.4213,-167.873
 L 70.4519,-167.945 L 70.485,-168.018 L 70.5228,-168.095 L 70.5676,-168.18 L 70.6194,-168.272 L 70.7442,-168.482
 L 70.897,-168.723 L 70.897,-168.92 L 69.642,-168.92 L 69.642,-168.714 L 70.663,-168.714 L 70.5638,-168.565
 L 70.473,-168.421 L 70.3907,-168.281 L 70.3169,-168.147 L 70.2515,-168.018 L 70.1945,-167.894 L 70.146,-167.775
 L 70.1051,-167.66 L 70.0706,-167.546 L 70.0423,-167.433 L 70.0203,-167.323 L 70.0046,-167.213 L 69.9951,-167.106
 L 69.992,-167 L 70.245,-167 z
M 160.899,-167.206 L 160.438,-167.206 L 160.438,-168.92 L 160.215,-168.92 L 159.768,-168.637 L 159.768,-168.408
 L 160.195,-168.689 L 160.195,-167.206 L 159.713,-167.206 L 159.713,-167 L 160.899,-167 z
M 80.3554,-167.003 L 80.4359,-167.012 L 80.5105,-167.026 L 80.579,-167.047 L 80.6416,-167.073 L 80.6983,-167.105
 L 80.749,-167.143 L 80.7933,-167.186 L 80.8308,-167.234 L 80.8615,-167.286 L 80.8853,-167.343 L 80.9024,-167.404
 L 80.9126,-167.47 L 80.916,-167.541 L 80.9139,-167.592 L 80.9077,-167.64 L 80.8974,-167.686 L 80.883,-167.729
 L 80.8645,-167.77 L 80.8418,-167.808 L 80.815,-167.844 L 80.7845,-167.877 L 80.7507,-167.906 L 80.7135,-167.931
 L 80.6731,-167.953 L 80.6294,-167.971 L 80.5823,-167.985 L 80.532,-167.995 L 80.532,-168 L 80.5752,-168.011
 L 80.6158,-168.025 L 80.6536,-168.043 L 80.6887,-168.064 L 80.7212,-168.09 L 80.7509,-168.119 L 80.778,-168.151
 L 80.8021,-168.186 L 80.8226,-168.223 L 80.8393,-168.262 L 80.8523,-168.303 L 80.8616,-168.345 L 80.8671,-168.389
 L 80.869,-168.434 L 80.8657,-168.496 L 80.8557,-168.554 L 80.8391,-168.609 L 80.8158,-168.66 L 80.7858,-168.707
 L 80.7492,-168.75 L 80.706,-168.789 L 80.6573,-168.824 L 80.6038,-168.853 L 80.5455,-168.877 L 80.4823,-168.896
 L 80.4144,-168.909 L 80.3416,-168.917 L 80.264,-168.92 L 80.188,-168.917 L 80.1165,-168.909 L 80.0495,-168.895
 L 79.9871,-168.876 L 79.9292,-168.852 L 79.8758,-168.822 L 79.827,-168.786 L 79.784,-168.746 L 79.7477,-168.703
 L 79.7179,-168.656 L 79.6947,-168.606 L 79.6782,-168.553 L 79.6683,-168.496 L 79.665,-168.436 L 79.6668,-168.391
 L 79.6723,-168.347 L 79.6813,-168.305 L 79.694,-168.264 L 79.7104,-168.225 L 79.7304,-168.188 L 79.754,-168.153
 L 79.781,-168.12 L 79.8107,-168.091 L 79.8431,-168.065 L 79.8781,-168.043 L 79.9157,-168.024 L 79.956,-168.008
 L 79.999,-167.996 L 79.999,-167.991 L 79.9528,-167.982 L 79.909,-167.968 L 79.8675,-167.951 L 79.8285,-167.93
 L 79.7919,-167.904 L 79.7578,-167.875 L 79.726,-167.842 L 79.6979,-167.806 L 79.6741,-167.767 L 79.6546,-167.726
 L 79.6395,-167.682 L 79.6286,-167.637 L 79.6222,-167.589 L 79.62,-167.538 L 79.6235,-167.467 L 79.634,-167.4
 L 79.6516,-167.339 L 79.6762,-167.282 L 79.7077,-167.23 L 79.7464,-167.182 L 79.792,-167.14 L 79.8439,-167.103
 L 79.9011,-167.071 L 79.9639,-167.046 L 80.032,-167.026 L 80.1056,-167.011 L 80.1846,-167.003 L 80.269,-167
 z
M 80.2193,-168.09 L 80.1756,-168.095 L 80.1351,-168.104 L 80.0977,-168.116 L 80.0633,-168.131 L 80.0321,-168.15
 L 80.004,-168.173 L 79.9796,-168.199 L 79.9589,-168.228 L 79.942,-168.26 L 79.9289,-168.295 L 79.9195,-168.334
 L 79.9139,-168.375 L 79.912,-168.42 L 79.9138,-168.464 L 79.9193,-168.504 L 79.9285,-168.542 L 79.9414,-168.576
 L 79.9579,-168.607 L 79.9781,-168.635 L 80.002,-168.659 L 80.0294,-168.68 L 80.0601,-168.699 L 80.0942,-168.714
 L 80.1316,-168.725 L 80.1724,-168.733 L 80.2165,-168.738 L 80.264,-168.74 L 80.3579,-168.733 L 80.4374,-168.714
 L 80.5024,-168.681 L 80.553,-168.635 L 80.5891,-168.577 L 80.6108,-168.505 L 80.618,-168.42 L 80.6161,-168.372
 L 80.6106,-168.328 L 80.6015,-168.288 L 80.5886,-168.251 L 80.5721,-168.219 L 80.5519,-168.191 L 80.528,-168.166
 L 80.5006,-168.145 L 80.4699,-168.128 L 80.4358,-168.113 L 80.3984,-168.102 L 80.3576,-168.094 L 80.3135,-168.09
 L 80.266,-168.088 z
M 80.1653,-167.189 L 80.0751,-167.212 L 80.0013,-167.25 L 79.9438,-167.304 L 79.9028,-167.374 L 79.8782,-167.459
 L 79.87,-167.559 L 79.8721,-167.604 L 79.8785,-167.646 L 79.8891,-167.685 L 79.9039,-167.722 L 79.923,-167.755
 L 79.9464,-167.786 L 79.974,-167.814 L 80.0054,-167.839 L 80.04,-167.86 L 80.078,-167.877 L 80.1193,-167.89
 L 80.1639,-167.899 L 80.2118,-167.905 L 80.263,-167.907 L 80.3158,-167.905 L 80.3651,-167.9 L 80.4109,-167.891
 L 80.4532,-167.879 L 80.492,-167.863 L 80.5272,-167.843 L 80.559,-167.82 L 80.5871,-167.794 L 80.6109,-167.764
 L 80.6304,-167.731 L 80.6455,-167.694 L 80.6563,-167.654 L 80.6628,-167.611 L 80.665,-167.564 L 80.663,-167.509
 L 80.657,-167.459 L 80.647,-167.412 L 80.633,-167.371 L 80.615,-167.333 L 80.593,-167.3 L 80.567,-167.272
 L 80.5372,-167.248 L 80.5033,-167.227 L 80.4653,-167.211 L 80.4232,-167.198 L 80.3769,-167.188 L 80.3265,-167.183
 L 80.272,-167.181 z
M 230.897,-167.206 L 229.905,-167.206 L 229.932,-167.26 L 229.968,-167.316 L 230.012,-167.372 L 230.065,-167.431
 L 230.127,-167.493 L 230.241,-167.593 L 230.43,-167.749 L 230.547,-167.85 L 230.634,-167.932 L 230.694,-167.996
 L 230.743,-168.058 L 230.783,-168.121 L 230.816,-168.183 L 230.841,-168.245 L 230.85,-168.277 L 230.858,-168.308
 L 230.863,-168.339 L 230.866,-168.371 L 230.867,-168.402 L 230.864,-168.471 L 230.854,-168.534 L 230.839,-168.594
 L 230.816,-168.649 L 230.788,-168.699 L 230.753,-168.744 L 230.712,-168.785 L 230.665,-168.821 L 230.613,-168.851
 L 230.556,-168.876 L 230.493,-168.895 L 230.424,-168.909 L 230.35,-168.917 L 230.271,-168.92 L 230.198,-168.917
 L 230.13,-168.909 L 230.065,-168.895 L 230.003,-168.876 L 229.946,-168.851 L 229.893,-168.821 L 229.843,-168.785
 L 229.798,-168.745 L 229.759,-168.701 L 229.726,-168.653 L 229.699,-168.601 L 229.677,-168.546 L 229.661,-168.487
 L 229.65,-168.424 L 229.897,-168.401 L 229.904,-168.443 L 229.914,-168.482 L 229.927,-168.519 L 229.944,-168.553
 L 229.965,-168.583 L 229.988,-168.612 L 230.015,-168.637 L 230.045,-168.659 L 230.077,-168.678 L 230.111,-168.694
 L 230.148,-168.706 L 230.187,-168.714 L 230.228,-168.719 L 230.271,-168.721 L 230.316,-168.719 L 230.358,-168.714
 L 230.398,-168.705 L 230.434,-168.693 L 230.468,-168.677 L 230.498,-168.658 L 230.526,-168.635 L 230.55,-168.609
 L 230.571,-168.58 L 230.588,-168.549 L 230.601,-168.514 L 230.61,-168.477 L 230.616,-168.437 L 230.618,-168.394
 L 230.617,-168.362 L 230.614,-168.33 L 230.608,-168.3 L 230.6,-168.27 L 230.59,-168.241 L 230.578,-168.214
 L 230.548,-168.161 L 230.512,-168.11 L 230.471,-168.061 L 230.4,-167.989 L 230.291,-167.894 L 230.077,-167.72
 L 229.984,-167.637 L 229.894,-167.547 L 229.807,-167.448 L 229.753,-167.376 L 229.704,-167.299 L 229.659,-167.215
 L 229.639,-167.171 L 229.639,-167 L 230.897,-167 z
M 100.899,-167.206 L 100.438,-167.206 L 100.438,-168.92 L 100.215,-168.92 L 99.768,-168.637 L 99.768,-168.408
 L 100.195,-168.689 L 100.195,-167.206 L 99.713,-167.206 L 99.713,-167 L 100.899,-167 z
M 222.392,-167.206 L 221.4,-167.206 L 221.427,-167.26 L 221.463,-167.316 L 221.507,-167.372 L 221.56,-167.431
 L 221.623,-167.493 L 221.736,-167.593 L 221.925,-167.749 L 222.042,-167.85 L 222.129,-167.932 L 222.189,-167.996
 L 222.238,-168.058 L 222.278,-168.121 L 222.311,-168.183 L 222.336,-168.245 L 222.345,-168.277 L 222.353,-168.308
 L 222.358,-168.339 L 222.361,-168.371 L 222.362,-168.402 L 222.359,-168.471 L 222.349,-168.534 L 222.334,-168.594
 L 222.311,-168.649 L 222.283,-168.699 L 222.248,-168.744 L 222.207,-168.785 L 222.16,-168.821 L 222.108,-168.851
 L 222.051,-168.876 L 221.988,-168.895 L 221.919,-168.909 L 221.845,-168.917 L 221.766,-168.92 L 221.693,-168.917
 L 221.625,-168.909 L 221.56,-168.895 L 221.499,-168.876 L 221.441,-168.851 L 221.388,-168.821 L 221.338,-168.785
 L 221.294,-168.745 L 221.255,-168.701 L 221.221,-168.653 L 221.194,-168.601 L 221.172,-168.546 L 221.156,-168.487
 L 221.145,-168.424 L 221.392,-168.401 L 221.399,-168.443 L 221.409,-168.482 L 221.423,-168.519 L 221.439,-168.553
 L 221.46,-168.583 L 221.483,-168.612 L 221.51,-168.637 L 221.54,-168.659 L 221.572,-168.678 L 221.607,-168.694
 L 221.643,-168.706 L 221.682,-168.714 L 221.723,-168.719 L 221.766,-168.721 L 221.811,-168.719 L 221.853,-168.714
 L 221.893,-168.705 L 221.929,-168.693 L 221.963,-168.677 L 221.993,-168.658 L 222.021,-168.635 L 222.046,-168.609
 L 222.066,-168.58 L 222.083,-168.549 L 222.096,-168.514 L 222.106,-168.477 L 222.111,-168.437 L 222.113,-168.394
 L 222.112,-168.362 L 222.109,-168.33 L 222.103,-168.3 L 222.095,-168.27 L 222.086,-168.241 L 222.073,-168.214
 L 222.043,-168.161 L 222.008,-168.11 L 221.967,-168.061 L 221.895,-167.989 L 221.786,-167.894 L 221.572,-167.72
 L 221.479,-167.637 L 221.389,-167.547 L 221.302,-167.448 L 221.248,-167.376 L 221.199,-167.299 L 221.154,-167.215
 L 221.134,-167.171 L 221.134,-167 L 222.392,-167 z
M 142.183,-167.449 L 142.449,-167.449 L 142.449,-167.64 L 142.183,-167.64 L 142.183,-168.92 L 141.928,-168.92
 L 141.058,-167.638 L 141.058,-167.449 L 141.954,-167.449 L 141.954,-167 L 142.183,-167 z
M 141.281,-167.64 L 141.303,-167.667 L 141.376,-167.767 L 141.889,-168.529 L 141.954,-168.648 L 141.954,-167.64
 z
M 40.688,-167.449 L 40.954,-167.449 L 40.954,-167.64 L 40.688,-167.64 L 40.688,-168.92 L 40.433,-168.92
 L 39.563,-167.638 L 39.563,-167.449 L 40.459,-167.449 L 40.459,-167 L 40.688,-167 z
M 39.786,-167.64 L 39.808,-167.667 L 39.881,-167.767 L 40.3941,-168.529 L 40.459,-168.648 L 40.459,-167.64
 z
M 150.899,-167.206 L 150.438,-167.206 L 150.438,-168.92 L 150.215,-168.92 L 149.768,-168.637 L 149.768,-168.408
 L 150.195,-168.689 L 150.195,-167.206 L 149.713,-167.206 L 149.713,-167 L 150.899,-167 z
M 220.897,-167.206 L 219.905,-167.206 L 219.932,-167.26 L 219.968,-167.316 L 220.012,-167.372 L 220.065,-167.431
 L 220.127,-167.493 L 220.241,-167.593 L 220.43,-167.749 L 220.547,-167.85 L 220.634,-167.932 L 220.694,-167.996
 L 220.743,-168.058 L 220.783,-168.121 L 220.816,-168.183 L 220.841,-168.245 L 220.85,-168.277 L 220.858,-168.308
 L 220.863,-168.339 L 220.866,-168.371 L 220.867,-168.402 L 220.864,-168.471 L 220.854,-168.534 L 220.839,-168.594
 L 220.816,-168.649 L 220.788,-168.699 L 220.753,-168.744 L 220.712,-168.785 L 220.665,-168.821 L 220.613,-168.851
 L 220.556,-168.876 L 220.493,-168.895 L 220.424,-168.909 L 220.35,-168.917 L 220.271,-168.92 L 220.198,-168.917
 L 220.13,-168.909 L 220.065,-168.895 L 220.003,-168.876 L 219.946,-168.851 L 219.893,-168.821 L 219.843,-168.785
 L 219.798,-168.745 L 219.759,-168.701 L 219.726,-168.653 L 219.699,-168.601 L 219.677,-168.546 L 219.661,-168.487
 L 219.65,-168.424 L 219.897,-168.401 L 219.904,-168.443 L 219.914,-168.482 L 219.927,-168.519 L 219.944,-168.553
 L 219.965,-168.583 L 219.988,-168.612 L 220.015,-168.637 L 220.045,-168.659 L 220.077,-168.678 L 220.111,-168.694
 L 220.148,-168.706 L 220.187,-168.714 L 220.228,-168.719 L 220.271,-168.721 L 220.316,-168.719 L 220.358,-168.714
 L 220.398,-168.705 L 220.434,-168.693 L 220.468,-168.677 L 220.498,-168.658 L 220.526,-168.635 L 220.55,-168.609
 L 220.571,-168.58 L 220.588,-168.549 L 220.601,-168.514 L 220.61,-168.477 L 220.616,-168.437 L 220.618,-168.394
 L 220.617,-168.362 L 220.614,-168.33 L 220.608,-168.3 L 220.6,-168.27 L 220.59,-168.241 L 220.578,-168.214
 L 220.548,-168.161 L 220.512,-168.11 L 220.471,-168.061 L 220.4,-167.989 L 220.291,-167.894 L 220.077,-167.72
 L 219.984,-167.637 L 219.894,-167.547 L 219.807,-167.448 L 219.753,-167.376 L 219.704,-167.299 L 219.659,-167.215
 L 219.639,-167.171 L 219.639,-167 L 220.897,-167 z
M 232.181,-0.0718994 L 232.675,-0.1987 L 233.149,-0.386398 L 233.595,-0.632019 L 234.008,-0.931702 L 234.38,-1.28073
 L 234.705,-1.67357 L 234.978,-2.10406 L 235.195,-2.5654 L 235.352,-3.05031 L 235.448,-3.55113 L 235.48,-4.06
 L 235.48,-158.34 L 235.448,-158.849 L 235.352,-159.35 L 235.195,-159.835 L 234.978,-160.296 L 234.705,-160.726
 L 234.38,-161.119 L 234.008,-161.468 L 233.595,-161.768 L 233.149,-162.014 L 232.675,-162.201 L 232.181,-162.328
 L 231.675,-162.392 L 34.51,-162.392 L 34.51,-149.192 L 215.087,-149.192 L 215.909,-149.088 L 216.711,-148.882
 L 217.482,-148.577 L 218.208,-148.178 L 218.878,-147.691 L 219.482,-147.124 L 220.01,-146.485 L 220.454,-145.786
 L 220.807,-145.036 L 221.063,-144.248 L 221.218,-143.434 L 221.27,-142.607 L 221.27,-100.992 L 221.218,-100.166
 L 221.063,-99.3518 L 220.807,-98.5638 L 220.454,-97.8141 L 220.01,-97.1146 L 219.482,-96.4762 L 218.878,-95.909
 L 218.208,-95.422 L 217.482,-95.0229 L 216.711,-94.7179 L 215.909,-94.5118 L 215.087,-94.408 L 132.965,-94.408
 L 132.965,-78.5813 L 231.42,-78.5813 L 231.42,-5.075 L 5.075,-5.075 L 5.075,-78.5813 L 102.515,-78.5813
 L 102.515,-94.408 L 21.4082,-94.408 L 20.5862,-94.5118 L 19.7837,-94.7179 L 19.0134,-95.0229 L 18.2874,-95.422
 L 17.6171,-95.909 L 17.0131,-96.4762 L 16.485,-97.1146 L 16.041,-97.8141 L 15.6883,-98.5638 L 15.4323,-99.3518
 L 15.277,-100.166 L 15.225,-100.992 L 15.225,-142.607 L 15.277,-143.434 L 15.4323,-144.248 L 15.6883,-145.036
 L 16.041,-145.786 L 16.485,-146.485 L 17.0131,-147.124 L 17.6171,-147.691 L 18.2874,-148.178 L 19.0134,-148.577
 L 19.7837,-148.882 L 20.5862,-149.088 L 21.4082,-149.192 L 25.375,-149.192 L 25.375,-162.392 L 3.80505,-162.392
 L 3.29922,-162.328 L 2.80539,-162.201 L 2.33131,-162.014 L 1.88454,-161.768 L 1.47205,-161.468 L 1.10037,-161.119
 L 0.775375,-160.726 L 0.502182,-160.296 L 0.285095,-159.835 L 0.127533,-159.35 L 0.0320129,-158.849 L 0,-158.34
 L 0,-4.06 L 0.0320129,-3.55113 L 0.127533,-3.05031 L 0.285095,-2.5654 L 0.502182,-2.10406 L 0.775375,-1.67357
 L 1.10037,-1.28073 L 1.47205,-0.931702 L 1.88454,-0.632019 L 2.33131,-0.386398 L 2.80539,-0.1987 L 3.29922,-0.0718994
 L 3.80505,-0.00799561 L 231.675,-0.00799561 z
M 235.683,0.202988 L 245.63,0.202988 L 245.63,-0 L 235.48,-0 L 235.48,10.15 L 235.683,10.15
 z
M 0,-0 L -10.15,-0 L -10.15,0.202988 L -0.202988,0.202988 L -0.202988,10.15 L 0,10.15
 z
" stroke="black" fill="lightgray" stroke-width="0.5"/></svg>
