<!DOCTYPE svg PUBLIC "-//W3C//DTD SVG 20010904//EN" "http://www.w3.org/TR/2001/REC-SVG-20010904/DTD/svg10.dtd">
<svg version="1.0" xmlns="http://www.w3.org/2000/svg" width="500px" height="376px" viewBox="0 0 5000 3760" preserveAspectRatio="xMidYMid meet">
<g id="layer101" fill="#010101" stroke="none">
 <path d="M0 1880 l0 -1880 2500 0 2500 0 0 1880 0 1880 -2500 0 -2500 0 0 -1880z"/>
 </g>
<g id="layer102" fill="#ffffff" stroke="none">
 <path d="M0 1880 l0 -1880 2500 0 2500 0 0 1880 0 1880 -2500 0 -2500 0 0 -1880z m1946 1613 c4 -16 21 -64 39 -108 36 -88 64 -283 43 -296 -6 -4 -7 -12 -3 -19 4 -6 2 -22 -5 -35 -10 -18 -9 -28 5 -55 20 -39 14 -48 -21 -26 -25 17 -26 17 -22 0 3 -16 23 -33 84 -70 18 -11 17 -14 -11 -44 l-30 -33 40 6 c22 3 48 8 59 13 38 15 10 -21 -31 -41 -42 -20 -42 -20 -24 -44 17 -22 18 -22 25 -5 7 17 9 16 22 -9 11 -21 12 -32 4 -42 -8 -10 -4 -24 18 -59 17 -26 33 -67 37 -92 3 -25 15 -60 25 -77 11 -18 15 -34 10 -37 -6 -4 -2 -22 10 -45 11 -22 20 -46 20 -55 0 -9 4 -20 9 -25 5 -6 13 -39 19 -73 7 -51 6 -65 -5 -69 -8 -3 -12 -16 -11 -31 2 -18 -2 -27 -14 -30 -10 -2 -18 2 -18 8 0 22 -42 71 -82 96 -22 14 -74 34 -116 45 -42 10 -81 24 -86 29 -6 6 -26 10 -46 10 -32 0 -39 -5 -58 -39 -27 -48 -28 -63 -1 -87 17 -15 34 -19 83 -17 56 3 67 0 104 -28 24 -17 50 -45 59 -63 20 -37 35 -137 33 -223 -1 -34 4 -71 10 -82 14 -27 60 -50 96 -50 95 1 154 -15 154 -41 0 -4 -27 -10 -59 -13 -79 -7 -92 -16 -50 -34 18 -7 35 -15 36 -17 2 -2 -12 -19 -32 -39 -19 -19 -35 -42 -35 -51 0 -10 -7 -30 -15 -46 -14 -26 -14 -30 -1 -30 8 0 18 5 21 10 15 24 21 6 12 -38 -6 -26 -7 -65 -3 -86 l7 -39 19 30 c29 49 37 47 42 -12 3 -36 13 -66 26 -85 12 -16 22 -36 22 -45 0 -24 19 -18 32 10 6 14 14 25 18 25 10 0 70 -77 70 -89 0 -22 16 -10 41 32 15 23 30 53 34 67 l8 25 12 -28 11 -28 20 43 c10 23 19 61 19 84 0 33 3 40 12 32 16 -13 27 12 21 47 -5 25 5 34 17 15 15 -24 25 -7 19 33 -8 51 -29 105 -51 129 -14 16 -14 18 13 28 28 11 28 12 9 23 -11 6 -44 16 -74 22 l-54 11 29 27 c29 27 66 33 171 27 39 -2 69 13 85 43 7 14 12 70 12 153 l1 131 39 44 c22 24 52 49 67 56 15 7 30 17 34 23 10 16 36 12 54 -11 14 -17 21 -19 43 -10 15 6 34 24 43 40 15 29 14 32 -16 74 l-30 43 -77 -18 c-206 -49 -250 -83 -297 -225 -15 -47 -19 -52 -36 -43 -24 13 -24 28 0 54 19 22 51 132 44 153 -2 6 -14 13 -25 16 -16 5 -19 11 -14 29 3 13 6 33 6 46 0 12 8 30 18 40 11 11 18 35 19 70 1 30 8 61 15 69 7 9 12 24 10 35 -4 22 16 24 25 2 4 -11 8 -12 13 -4 4 7 -1 21 -12 32 -23 23 -14 42 18 34 13 -4 24 -2 24 3 0 5 3 16 6 25 4 10 1 16 -9 16 -9 0 -19 5 -22 11 -9 14 32 57 57 61 31 5 25 23 -9 26 -24 2 -33 8 -33 22 0 31 11 50 31 50 10 0 24 9 32 20 13 19 14 19 51 -7 29 -19 40 -22 46 -13 5 8 18 10 34 6 31 -8 34 4 7 21 -13 8 -21 26 -23 50 -3 34 -6 38 -27 35 l-24 -4 6 79 c5 69 4 80 -15 100 -20 21 -20 23 -4 148 11 85 24 141 38 169 12 22 24 58 27 80 l6 39 81 -84 c44 -46 126 -131 181 -189 56 -58 100 -106 98 -108 -2 -2 -21 6 -44 17 -49 26 -69 28 -50 5 12 -15 10 -15 -25 0 -22 9 -40 15 -42 13 -2 -1 62 -56 142 -121 80 -66 148 -124 151 -129 3 -6 -20 4 -53 22 l-59 32 128 -125 c105 -102 124 -125 107 -128 -20 -3 -19 -6 14 -45 45 -52 46 -62 2 -27 -19 15 -41 29 -49 30 -9 1 -36 16 -61 33 -24 17 -49 31 -55 31 -6 0 -18 8 -28 18 -44 42 -85 76 -78 62 5 -8 42 -67 83 -130 109 -168 127 -196 264 -405 152 -233 147 -224 122 -204 -10 9 -68 56 -129 104 -60 49 -130 106 -155 127 -24 20 -47 33 -50 27 -4 -5 -26 13 -49 41 -24 28 -45 49 -48 47 -2 -3 21 -53 52 -111 31 -58 53 -106 48 -106 -4 0 -35 27 -68 60 -32 32 -61 57 -64 55 -2 -3 2 -11 9 -20 15 -18 0 -21 -18 -3 -6 6 -14 10 -16 7 -3 -3 15 -31 40 -63 38 -48 42 -57 23 -51 l-22 7 20 -33 c19 -31 109 -191 121 -214 2 -5 -27 21 -67 60 -55 53 -71 65 -71 50 -1 -15 -12 -7 -50 34 -28 30 -50 50 -50 45 0 -5 25 -72 55 -148 59 -147 62 -157 43 -138 -31 31 -22 2 37 -124 36 -75 65 -139 65 -142 0 -3 -14 7 -32 24 -17 16 -29 22 -26 14 3 -8 47 -115 97 -238 50 -123 91 -226 91 -229 0 -8 -39 47 -139 195 -46 67 -85 121 -87 119 -3 -2 3 -20 11 -40 31 -74 13 -57 -87 81 -56 78 -104 140 -106 138 -3 -3 69 -260 85 -303 6 -16 5 -17 -12 -3 -17 13 -18 13 -13 -1 12 -30 88 -298 88 -306 -1 -4 -12 14 -26 40 -14 27 -27 47 -30 45 -2 -3 14 -80 36 -171 22 -92 40 -172 40 -178 0 -6 -9 -1 -20 12 -24 30 -24 29 -1 -54 11 -37 18 -67 15 -67 -2 0 -16 24 -29 52 -18 37 -24 45 -21 26 6 -50 -7 -31 -111 159 -19 35 -36 63 -39 63 -2 0 -2 -12 1 -27 3 -16 -20 23 -52 84 -58 113 -80 142 -62 81 19 -68 7 -70 -21 -4 -34 80 -45 94 -36 48 3 -17 8 -47 11 -65 l6 -32 -20 35 c-20 35 -30 25 -11 -11 13 -24 2 -25 -16 -1 -19 24 -18 6 6 -102 24 -108 24 -107 5 -100 -13 5 -13 0 0 -42 8 -27 15 -50 15 -51 0 -2 -7 -3 -15 -3 -19 0 -19 -14 -1 -73 18 -60 7 -53 -24 14 -25 52 -25 52 -31 23 l-5 -29 -19 38 c-10 20 -22 37 -27 37 -4 0 -25 32 -46 70 l-39 71 -6 -98 c-4 -54 -7 -142 -7 -196 0 -63 -4 -96 -10 -92 -6 4 -10 -39 -11 -122 -1 -145 3 -152 -60 81 -23 84 -34 114 -39 100 -6 -14 -12 -5 -24 41 -34 118 -32 115 -39 70 -4 -22 -12 -102 -18 -177 -11 -123 -20 -161 -31 -127 -2 6 -9 -42 -16 -107 -7 -66 -16 -139 -19 -164 l-6 -45 -13 50 c-6 28 -24 103 -39 169 -18 76 -30 114 -36 105 -4 -7 -10 -11 -12 -9 -2 3 -14 66 -27 140 -13 74 -26 140 -29 145 -3 6 -11 -12 -17 -40 -10 -44 -12 -47 -20 -28 -8 19 -15 2 -39 -95 l-30 -117 -3 113 c-2 69 -6 110 -12 107 -6 -4 -10 22 -10 64 0 41 -4 71 -10 71 -6 0 -10 38 -10 93 l-1 92 -29 -63 c-16 -35 -34 -61 -39 -58 -5 3 -19 -21 -31 -54 -23 -62 -40 -77 -40 -37 -1 12 -15 -12 -33 -55 -18 -43 -35 -78 -39 -78 -6 0 12 70 37 150 8 24 -2 22 -39 -9 -18 -15 -19 -15 -13 2 4 11 10 31 13 45 4 21 3 24 -5 12 -15 -21 -14 -13 15 138 17 89 23 141 17 154 -8 18 -10 17 -28 -16 -25 -46 -35 -46 -24 2 15 64 10 81 -12 37 l-19 -40 4 37 c3 21 3 38 0 38 -3 0 -29 -51 -59 -112 -48 -102 -54 -109 -55 -78 -1 31 -10 17 -76 -115 -41 -82 -72 -140 -70 -127 6 32 -9 18 -41 -38 -15 -28 -31 -50 -35 -50 -4 0 4 32 18 72 29 87 29 91 3 83 -17 -6 -20 -4 -15 12 25 80 81 311 74 307 -4 -3 -17 -22 -28 -42 -10 -20 -19 -32 -19 -27 -1 6 19 84 43 175 36 133 41 160 25 141 -10 -13 -19 -20 -19 -16 0 7 69 201 99 278 6 15 7 27 3 27 -4 0 -50 -56 -102 -125 -94 -122 -125 -154 -95 -94 9 17 15 34 13 39 -2 5 -50 -59 -106 -141 -57 -82 -105 -149 -108 -149 -2 0 1 12 7 28 10 26 130 356 144 397 7 20 6 20 -9 1 -25 -31 -20 -13 40 136 31 76 54 142 51 144 -3 3 -10 -4 -17 -15 -6 -12 -15 -21 -19 -21 -5 0 20 64 55 141 67 147 74 170 49 149 -12 -10 -15 -9 -15 5 0 11 -16 -6 -37 -38 -26 -38 -39 -51 -42 -40 -2 12 -20 -1 -63 -48 l-59 -64 42 80 c23 44 51 95 61 112 17 28 17 32 3 27 -11 -5 -7 9 16 47 17 30 36 60 43 68 8 11 8 15 -1 18 -9 3 -11 14 -6 31 5 21 -12 8 -76 -58 l-82 -85 33 55 c19 30 47 78 62 105 l29 50 -27 -24 c-14 -14 -26 -21 -26 -16 0 4 -10 0 -21 -11 -21 -19 -22 -19 -15 4 13 40 -9 24 -79 -58 -73 -85 -96 -101 -70 -47 l16 32 -23 -26 c-13 -14 -33 -39 -46 -55 -21 -27 -22 -24 -6 24 3 9 -26 -17 -66 -58 -52 -55 -66 -66 -52 -40 11 19 45 78 75 130 55 94 62 115 32 90 -27 -22 -25 -6 4 40 24 38 143 229 198 318 12 19 3 14 -30 -18 l-47 -44 0 28 0 28 -47 -27 -48 -27 65 67 c36 38 74 77 85 86 25 23 5 25 -38 3 -19 -10 44 61 163 180 107 108 190 196 185 196 -6 -1 -21 -7 -35 -15 -33 -19 -46 -19 -30 0 11 13 8 15 -20 15 -17 0 -30 4 -28 8 5 15 293 340 300 341 4 1 11 -11 14 -26z m331 -139 c66 -43 74 -55 27 -42 -20 5 -38 8 -40 6 -2 -2 30 -31 71 -63 41 -33 70 -62 65 -65 -5 -3 17 -20 50 -38 l59 -33 51 40 c42 33 47 40 30 43 -17 2 -9 13 44 58 36 30 66 58 66 62 0 4 -15 5 -32 1 -39 -7 -39 -6 67 79 112 90 126 98 159 98 30 0 30 0 -15 -28 -55 -35 -119 -106 -119 -131 0 -38 -67 -206 -86 -215 -11 -5 -30 -30 -43 -56 -18 -37 -22 -57 -17 -87 6 -32 3 -42 -13 -58 -12 -10 -21 -26 -21 -36 0 -10 -11 -31 -25 -48 -19 -21 -24 -37 -20 -54 6 -24 -19 -91 -51 -132 l-15 -20 -15 20 c-31 40 -64 115 -64 143 0 16 -7 35 -15 42 -8 7 -15 29 -15 49 0 20 -7 45 -15 55 -8 11 -15 41 -15 67 0 41 -4 51 -34 76 -45 40 -111 180 -131 278 -4 17 -25 48 -48 70 -78 74 -72 79 18 15 50 -34 113 -78 142 -96z"/>
 </g>

</svg>