<!DOCTYPE svg PUBLIC "-//W3C//DTD SVG 20010904//EN" "http://www.w3.org/TR/2001/REC-SVG-20010904/DTD/svg10.dtd">
<svg version="1.0" xmlns="http://www.w3.org/2000/svg" width="692px" height="1486px" viewBox="0 0 6920 14860" preserveAspectRatio="xMidYMid meet">
<g id="layer101" fill="#2b2b2b" stroke="none">
 <path d="M295 14660 c-11 -5 -41 -9 -66 -9 -28 -1 -51 -7 -59 -16 -6 -8 -23 -69 -37 -137 -27 -134 -27 -207 0 -333 8 -38 13 -73 11 -77 -9 -14 40 -164 63 -193 13 -16 49 -64 80 -105 31 -41 69 -85 84 -98 15 -12 44 -52 65 -89 20 -36 47 -81 60 -100 37 -55 182 -355 192 -398 5 -22 26 -93 46 -157 33 -110 36 -132 46 -325 7 -129 8 -230 2 -265 -8 -52 -4 -146 14 -303 3 -33 20 -105 36 -160 l30 -100 -6 -205 -7 -205 40 -158 c22 -86 45 -166 51 -177 5 -10 10 -26 10 -36 0 -17 37 -104 68 -159 9 -17 52 -80 95 -140 97 -138 170 -296 201 -436 9 -40 21 -92 26 -114 20 -83 49 -233 59 -306 6 -41 17 -102 26 -134 8 -33 15 -67 15 -77 0 -10 9 -44 19 -75 11 -32 24 -84 30 -115 6 -31 22 -80 36 -107 14 -28 32 -74 40 -103 23 -82 94 -296 122 -368 14 -36 43 -114 64 -175 86 -249 130 -348 283 -639 20 -38 36 -74 36 -80 0 -7 12 -32 28 -57 15 -24 35 -62 44 -84 86 -203 98 -237 113 -335 9 -58 24 -143 32 -190 8 -47 19 -120 23 -162 5 -43 11 -81 13 -85 28 -44 53 -504 33 -596 -8 -34 -10 -36 -21 -20 -7 10 -16 29 -20 43 -4 14 -23 64 -41 112 -19 49 -40 130 -49 185 -23 151 -78 358 -124 461 -41 93 -65 131 -154 252 -90 123 -117 165 -160 250 -45 87 -218 327 -266 367 -86 73 -242 115 -431 116 l-125 2 -75 -37 c-41 -21 -104 -62 -140 -91 -98 -80 -150 -170 -200 -344 -9 -35 -22 -69 -28 -76 -7 -8 -16 -46 -22 -85 -9 -67 -8 -77 15 -134 26 -66 79 -129 171 -204 59 -49 193 -134 211 -134 22 0 147 -90 160 -115 18 -32 40 -144 47 -235 8 -97 42 -196 117 -345 71 -143 118 -303 135 -460 2 -27 8 -75 13 -105 11 -78 3 -273 -16 -355 -26 -116 -38 -615 -17 -751 3 -24 16 -52 28 -64 36 -35 168 -140 176 -140 11 0 80 -72 80 -84 0 -15 91 -156 101 -156 5 0 30 -16 55 -35 49 -37 294 -161 398 -200 97 -37 158 -66 201 -95 22 -15 81 -44 130 -65 50 -21 98 -44 109 -51 17 -11 14 -14 -25 -23 -24 -6 -60 -16 -80 -21 -20 -6 -60 -15 -89 -20 -29 -5 -87 -26 -130 -45 -43 -19 -86 -35 -97 -35 -10 0 -23 -4 -28 -9 -6 -5 -43 -19 -83 -30 -129 -35 -163 -58 -259 -171 -51 -59 -66 -95 -53 -121 11 -19 20 -23 50 -20 16 2 6 -8 -160 -154 -152 -134 -340 -275 -367 -275 -17 0 -53 -46 -53 -68 0 -25 27 -42 69 -42 17 0 54 -9 83 -19 51 -19 183 -41 244 -42 140 0 364 -13 364 -21 0 -14 -357 -365 -420 -411 -30 -23 -79 -64 -110 -92 -72 -67 -134 -109 -249 -170 -139 -74 -143 -94 -32 -151 34 -17 69 -38 79 -46 9 -8 30 -20 45 -26 26 -11 196 -43 327 -62 30 -4 83 -15 116 -24 34 -9 78 -16 98 -16 20 0 59 -9 88 -20 52 -19 70 -20 195 -4 24 3 43 2 43 -1 0 -13 -88 -118 -182 -217 -27 -27 -48 -58 -48 -69 0 -23 54 -52 148 -80 148 -44 172 -52 172 -54 0 -5 -65 -100 -110 -160 -81 -108 -150 -227 -150 -258 0 -8 6 -20 14 -26 19 -16 260 -26 305 -13 20 6 89 18 154 27 65 8 127 20 137 25 10 6 26 10 36 10 22 0 185 82 228 115 18 14 36 25 41 25 15 0 187 103 236 142 37 29 49 35 46 22 -9 -31 -35 -183 -47 -276 -11 -90 -49 -230 -71 -266 -12 -19 -10 -25 16 -52 16 -16 35 -30 42 -30 32 0 242 201 299 286 48 73 124 225 124 251 1 10 12 36 25 58 26 43 77 146 102 207 8 20 27 45 41 54 56 36 309 252 391 334 88 88 189 198 227 247 l21 27 65 -12 c131 -24 503 10 683 63 44 12 91 25 105 29 23 5 191 82 230 105 8 5 26 14 40 20 65 30 110 66 110 87 0 19 -75 64 -136 83 -28 9 -66 28 -85 41 -19 14 -54 39 -79 55 -25 16 -61 43 -81 60 -20 16 -49 40 -64 53 l-27 22 53 -6 c30 -4 64 -10 77 -15 36 -14 267 -9 361 7 47 8 99 23 116 33 17 10 54 21 81 25 49 8 84 29 84 51 0 21 -40 49 -73 51 -90 6 -200 47 -462 174 -160 77 -255 119 -294 130 -22 6 -68 32 -102 57 l-63 47 32 8 c18 5 47 12 64 16 24 6 34 14 36 31 4 22 -22 61 -40 61 -22 0 -166 75 -279 146 -68 42 -144 88 -169 102 -68 38 -200 151 -200 171 0 9 66 41 84 41 7 0 41 11 75 25 40 16 92 28 144 32 66 5 92 12 132 36 27 16 106 59 175 94 69 35 139 72 155 83 17 10 62 37 101 59 39 22 116 73 170 114 104 77 317 270 355 322 12 17 39 48 60 70 20 22 52 69 70 104 l32 63 -12 87 c-7 47 -17 109 -21 136 -4 28 -15 106 -24 175 -9 69 -21 152 -27 185 -26 150 -4 416 42 506 10 21 26 60 35 86 38 114 101 208 229 341 68 71 161 158 207 193 80 62 166 136 258 223 25 23 67 74 93 113 100 148 110 373 24 533 -59 111 -212 244 -340 298 -131 55 -307 90 -390 79 -46 -6 -122 -43 -177 -86 -19 -14 -48 -35 -65 -45 -58 -37 -298 -282 -368 -376 -115 -154 -217 -299 -217 -309 0 -5 -7 -14 -15 -21 -8 -7 -29 -42 -46 -79 -33 -70 -92 -167 -147 -240 -18 -24 -44 -66 -58 -93 -14 -27 -55 -81 -93 -120 -73 -77 -86 -80 -117 -33 -15 24 -16 35 -4 111 6 46 13 137 15 202 2 64 13 167 24 227 12 61 28 151 37 200 9 50 22 122 30 160 8 39 19 104 25 145 9 72 61 295 95 410 71 243 105 355 116 380 13 31 83 228 103 290 8 25 22 81 31 125 9 44 22 98 29 120 7 22 18 67 24 100 21 113 112 374 197 562 8 17 14 35 14 41 0 5 14 42 30 82 19 47 41 133 59 239 16 91 34 178 40 193 5 15 19 75 31 135 11 59 34 149 50 198 17 50 37 113 46 140 9 28 34 100 56 160 22 61 55 153 74 205 53 149 95 349 94 450 -2 176 20 494 40 581 11 48 20 99 20 114 0 14 9 61 20 104 22 88 48 298 54 439 5 113 17 163 79 327 24 66 52 145 62 175 9 30 34 93 55 140 21 47 50 123 65 170 15 47 31 90 35 95 5 6 23 47 40 90 18 44 42 103 55 130 39 87 67 149 82 184 23 55 44 187 52 326 5 104 11 136 26 160 31 45 45 95 45 157 0 46 -5 62 -25 87 -42 49 -83 67 -209 91 -163 31 -172 29 -438 -62 -124 -43 -329 -245 -495 -490 -42 -62 -94 -137 -115 -167 -21 -30 -38 -58 -38 -63 0 -5 -11 -24 -24 -41 -14 -18 -37 -57 -52 -87 -15 -30 -35 -66 -44 -80 -37 -53 -136 -246 -205 -398 -26 -56 -64 -135 -85 -175 -21 -39 -48 -99 -61 -132 -39 -107 -101 -248 -136 -310 -18 -33 -56 -106 -82 -161 -64 -134 -111 -205 -185 -284 -132 -140 -164 -184 -202 -281 -20 -52 -50 -120 -65 -151 -44 -87 -77 -182 -105 -295 -37 -153 -43 -194 -44 -280 -2 -148 -40 -415 -80 -563 -11 -41 -22 -91 -25 -110 -4 -36 -50 -230 -83 -360 -31 -116 -149 -426 -212 -555 -16 -33 -38 -82 -49 -110 -32 -84 -130 -275 -141 -275 -5 0 -18 28 -29 63 -11 34 -24 76 -30 92 -25 73 -43 150 -56 227 -7 46 -23 121 -34 168 -51 201 -76 290 -102 372 -16 48 -36 122 -45 165 -9 43 -22 89 -29 103 -7 14 -25 63 -41 110 -15 47 -41 121 -59 165 -17 44 -46 130 -64 190 -18 61 -44 144 -58 185 -14 41 -31 100 -39 130 -14 61 -65 205 -113 319 -17 41 -31 79 -31 85 -1 28 -109 222 -210 376 -27 41 -63 102 -81 135 -17 33 -42 75 -56 93 -13 18 -44 79 -67 135 -24 56 -68 154 -99 217 -30 63 -67 148 -81 189 -14 40 -30 79 -35 85 -6 6 -24 48 -41 91 -17 44 -51 127 -75 185 -24 58 -51 129 -60 159 -19 63 -102 233 -143 294 -16 23 -43 67 -61 97 -31 53 -71 109 -126 177 -14 17 -39 57 -56 88 -16 31 -50 81 -75 111 -24 30 -51 66 -60 79 -29 45 -338 305 -410 346 -16 9 -69 42 -117 73 -49 31 -92 56 -96 56 -4 0 -26 13 -48 29 -41 30 -96 54 -188 85 -53 17 -185 21 -220 6z m245 -98 c77 -25 119 -47 133 -69 4 -6 24 -17 45 -23 20 -7 46 -20 57 -30 11 -9 61 -41 110 -70 92 -55 177 -121 340 -267 72 -65 110 -110 181 -215 49 -73 114 -164 144 -202 30 -37 61 -80 69 -95 8 -14 33 -55 56 -91 52 -81 130 -243 145 -301 14 -55 100 -268 150 -374 21 -44 51 -116 66 -160 16 -44 42 -105 59 -135 17 -30 48 -95 69 -144 72 -168 188 -392 256 -491 69 -103 144 -226 175 -290 30 -63 107 -262 121 -313 8 -30 19 -63 26 -75 6 -12 19 -51 28 -87 10 -36 24 -85 33 -110 9 -25 35 -105 58 -179 23 -74 71 -213 107 -310 35 -97 73 -207 83 -246 10 -38 30 -106 43 -150 52 -170 67 -225 90 -326 14 -57 30 -120 36 -139 6 -19 17 -78 26 -129 15 -103 75 -312 107 -376 51 -102 79 -117 121 -62 31 41 139 249 156 302 7 22 33 79 56 127 24 47 44 91 44 97 0 7 11 33 24 59 61 124 169 453 200 612 9 47 34 157 55 245 51 209 72 348 81 525 12 243 56 419 169 670 21 47 46 107 56 133 19 54 68 120 164 222 112 120 131 151 269 435 106 217 126 262 157 352 13 37 40 95 59 128 20 34 36 67 36 73 0 7 11 28 24 47 13 19 26 46 31 60 13 45 167 354 191 382 12 15 36 56 52 91 17 35 42 77 56 94 14 17 34 50 44 74 11 24 30 58 43 74 14 17 49 66 78 110 30 44 66 94 81 110 15 17 41 50 58 75 26 38 74 89 152 161 52 48 138 103 188 120 232 80 229 79 417 46 100 -18 135 -43 135 -97 0 -30 -37 -159 -51 -176 -9 -11 -14 -59 -24 -234 -4 -58 -11 -121 -17 -140 -26 -84 -62 -176 -74 -191 -8 -8 -14 -19 -14 -24 0 -4 -9 -26 -20 -49 -10 -23 -33 -75 -50 -116 -17 -41 -40 -93 -50 -116 -10 -22 -26 -68 -34 -102 -9 -33 -29 -89 -44 -124 -16 -35 -45 -110 -66 -168 -47 -129 -65 -176 -82 -217 -8 -17 -14 -34 -14 -38 0 -4 -6 -21 -14 -38 -19 -44 -36 -139 -36 -206 0 -75 -28 -337 -41 -381 -10 -35 -43 -208 -60 -310 -5 -30 -11 -125 -14 -210 -4 -85 -11 -186 -16 -225 -6 -38 -12 -113 -13 -165 -2 -95 -34 -290 -55 -328 -6 -11 -27 -67 -46 -124 -34 -102 -79 -227 -128 -363 -15 -38 -40 -126 -57 -195 -16 -69 -37 -150 -45 -180 -8 -30 -21 -93 -29 -140 -8 -47 -22 -121 -30 -165 -8 -44 -42 -152 -76 -240 -63 -164 -76 -198 -130 -345 -61 -166 -78 -224 -144 -515 -13 -55 -45 -161 -71 -235 -88 -247 -155 -463 -195 -624 -22 -87 -44 -173 -50 -191 -6 -17 -14 -60 -19 -96 -5 -35 -16 -100 -25 -144 -17 -86 -62 -329 -77 -410 -4 -27 -13 -124 -18 -215 -5 -91 -14 -178 -20 -193 -13 -35 -14 -137 -2 -170 12 -30 93 -87 124 -87 35 0 100 21 119 37 11 10 16 24 12 37 -3 15 5 34 25 59 16 21 44 61 62 90 67 108 161 247 171 253 5 4 20 27 32 53 12 25 29 57 37 71 108 172 169 263 204 305 23 27 57 73 76 100 91 135 390 394 498 431 79 27 319 -19 454 -88 55 -28 197 -163 228 -217 48 -85 70 -244 45 -326 -9 -27 -16 -59 -16 -69 0 -54 -166 -239 -315 -351 -84 -63 -317 -279 -364 -338 -18 -23 -47 -64 -63 -92 -16 -27 -40 -64 -52 -82 -22 -30 -87 -207 -119 -323 -19 -69 -29 -343 -14 -380 5 -14 18 -90 28 -170 26 -219 39 -301 49 -321 52 -97 -126 -346 -409 -569 -69 -55 -243 -170 -257 -170 -2 0 -33 -18 -69 -40 -36 -22 -68 -40 -71 -40 -2 0 -18 -10 -34 -21 -22 -17 -37 -20 -65 -16 -29 5 -44 0 -80 -24 -54 -37 -98 -55 -189 -79 -39 -11 -103 -31 -142 -44 -39 -14 -102 -28 -140 -32 l-69 -6 -15 34 c-17 38 -53 49 -68 21 -5 -10 -12 -35 -16 -55 -5 -29 -3 -39 12 -50 10 -7 32 -33 49 -58 58 -85 135 -146 388 -305 100 -63 206 -125 214 -125 5 0 14 -6 20 -14 15 -18 -13 -30 -39 -16 -27 14 -66 12 -80 -5 -17 -20 -3 -53 30 -70 16 -8 67 -43 114 -78 84 -63 131 -90 216 -123 25 -10 108 -48 185 -85 77 -36 180 -83 229 -103 134 -56 172 -77 155 -86 -67 -35 -401 -37 -539 -2 -47 11 -97 23 -112 26 -14 3 -50 31 -79 61 -54 57 -69 64 -87 43 -32 -41 -26 -56 60 -144 46 -47 103 -98 128 -112 59 -34 141 -94 160 -117 17 -20 188 -135 201 -135 5 0 9 -12 9 -26 0 -22 -10 -30 -76 -61 -113 -51 -264 -99 -394 -123 -155 -29 -469 -38 -550 -16 -49 13 -58 13 -78 0 -13 -8 -26 -23 -29 -32 -14 -42 -292 -345 -353 -386 -19 -13 -64 -49 -100 -81 -36 -31 -102 -81 -146 -111 -73 -48 -82 -58 -88 -91 -6 -35 -63 -163 -171 -388 -62 -128 -141 -240 -200 -283 -38 -29 -47 -32 -41 -17 8 19 40 207 52 305 3 25 9 54 14 65 8 22 25 105 42 204 9 59 8 65 -11 85 l-22 21 -80 -88 c-89 -96 -168 -157 -281 -216 -40 -21 -96 -52 -124 -67 -28 -16 -66 -37 -84 -48 -52 -29 -186 -63 -300 -77 -108 -14 -285 -17 -296 -6 -11 11 18 70 56 117 50 61 201 270 207 287 9 24 -18 43 -61 43 -22 1 -52 7 -66 15 -14 8 -36 15 -50 15 -14 0 -43 9 -65 20 -22 11 -48 19 -57 20 -33 0 -18 32 45 98 35 37 85 96 112 132 26 36 54 69 62 73 19 11 16 51 -5 70 -14 13 -25 15 -48 7 -16 -5 -76 -15 -134 -23 -88 -12 -112 -12 -150 -1 -25 7 -77 18 -115 24 -39 6 -104 17 -145 25 -41 8 -136 26 -210 39 -131 24 -270 74 -270 98 0 5 20 18 45 29 24 11 81 45 127 75 77 52 117 85 318 267 41 37 100 89 130 117 126 113 185 175 268 283 86 110 65 157 -49 109 -59 -24 -75 -26 -199 -26 -162 0 -390 18 -443 34 -21 6 -36 17 -34 23 2 6 24 22 49 35 24 13 74 50 109 82 35 33 69 60 75 60 6 0 36 26 66 58 66 70 180 170 259 228 66 49 80 80 55 119 -20 31 -24 31 -66 0 -56 -42 -65 -29 -19 26 45 54 87 78 179 99 49 11 196 66 242 91 43 22 349 89 410 89 70 0 88 10 88 50 0 34 -17 50 -53 50 -16 0 -66 19 -111 41 -44 23 -108 52 -141 64 -34 12 -89 40 -123 62 -34 23 -91 51 -125 63 -34 13 -105 43 -157 67 -312 145 -358 176 -396 262 -39 87 -92 148 -168 194 -38 22 -83 55 -101 72 -30 27 -34 38 -40 105 -12 134 2 636 20 720 32 144 7 497 -50 700 -14 50 -40 111 -131 305 -42 90 -61 155 -69 241 -13 139 -27 209 -51 258 -19 37 -53 76 -67 76 -5 0 -32 16 -58 35 -27 19 -71 43 -97 53 -111 43 -277 181 -312 259 -21 48 -26 107 -11 145 5 13 19 59 31 103 48 175 108 278 203 348 100 73 165 90 312 83 179 -8 319 -51 372 -114 13 -15 37 -49 55 -77 17 -27 47 -67 65 -87 18 -21 55 -84 83 -140 28 -56 61 -114 74 -128 13 -14 32 -41 41 -60 10 -19 38 -57 62 -85 55 -63 143 -215 143 -248 0 -7 4 -17 10 -23 23 -23 88 -268 110 -418 12 -83 75 -277 114 -355 13 -25 34 -55 46 -66 20 -18 24 -18 48 -4 15 8 38 35 52 59 24 44 25 51 27 265 2 215 -3 277 -32 400 -7 33 -26 141 -40 240 -37 259 -44 290 -75 374 -54 148 -68 181 -103 238 -19 32 -40 76 -47 97 -7 22 -49 108 -94 190 -106 197 -146 290 -236 551 -23 66 -60 172 -82 235 -22 63 -44 129 -49 145 -4 17 -24 73 -43 125 -75 206 -113 335 -126 435 -6 44 -15 91 -20 105 -4 14 -16 70 -25 125 -10 55 -23 120 -30 145 -7 25 -20 86 -30 135 -39 212 -116 390 -238 553 -100 136 -120 184 -217 534 -20 73 -21 91 -14 286 7 206 7 209 -20 298 -37 128 -66 375 -55 484 4 47 4 173 -1 280 -9 172 -13 204 -39 285 -16 49 -34 110 -41 135 -6 25 -17 59 -25 75 -7 17 -25 58 -39 92 -14 34 -37 78 -51 99 -14 20 -25 41 -25 46 0 17 -66 141 -109 205 -22 34 -41 66 -41 71 0 6 -23 34 -51 63 -28 30 -63 70 -77 90 -15 20 -46 59 -68 87 -45 55 -57 97 -90 309 -16 106 -16 118 1 228 17 114 18 116 41 111 18 -5 27 0 39 18 28 42 125 42 255 -2z"/>
 </g>
<g id="layer102" fill="#fdfdfd" stroke="none">
 <path d="M0 7430 l0 -7430 3460 0 3460 0 0 7430 0 7430 -3460 0 -3460 0 0 -7430z m515 7204 c92 -31 147 -55 188 -85 22 -16 44 -29 48 -29 4 0 47 -25 96 -56 48 -31 101 -64 117 -73 33 -19 165 -122 216 -169 19 -17 51 -45 70 -61 97 -81 189 -191 240 -287 16 -31 41 -70 55 -87 55 -68 95 -124 126 -177 18 -30 45 -74 61 -97 41 -61 124 -231 143 -294 9 -30 36 -101 60 -159 24 -58 58 -141 75 -185 17 -43 35 -85 41 -91 5 -6 21 -45 35 -85 14 -41 51 -126 81 -189 31 -63 75 -161 99 -217 23 -56 54 -117 67 -135 14 -18 39 -60 56 -93 18 -33 54 -94 81 -135 101 -154 209 -348 210 -376 0 -6 14 -44 31 -85 48 -114 99 -258 113 -319 8 -30 25 -89 39 -130 14 -41 40 -124 58 -185 18 -60 47 -146 64 -190 18 -44 44 -118 59 -165 16 -47 34 -96 41 -110 7 -14 20 -60 29 -103 9 -43 29 -117 45 -165 26 -82 51 -171 102 -372 11 -47 27 -122 34 -168 13 -77 31 -154 56 -227 6 -16 19 -58 30 -91 23 -73 41 -93 65 -73 17 14 113 202 145 284 11 28 33 77 49 110 63 129 181 439 212 555 33 130 79 324 83 360 3 19 14 69 25 110 40 148 78 415 80 563 2 159 68 414 149 575 15 31 45 99 65 151 38 97 70 141 202 281 74 79 121 150 185 284 26 55 64 128 82 161 35 62 97 203 136 310 13 33 40 93 61 132 21 40 59 119 85 175 69 152 168 345 205 398 9 14 29 50 44 80 15 30 38 69 52 87 13 17 24 36 24 41 0 5 17 33 38 63 21 30 72 105 114 166 106 156 203 268 316 366 77 67 110 88 162 106 36 12 99 33 140 47 111 38 159 40 296 14 175 -33 214 -63 214 -160 0 -60 -15 -110 -45 -155 -15 -24 -21 -56 -26 -160 -8 -139 -29 -271 -52 -326 -15 -35 -43 -97 -82 -184 -13 -27 -37 -86 -55 -130 -17 -43 -35 -84 -40 -90 -4 -5 -20 -48 -35 -95 -15 -47 -44 -123 -65 -170 -21 -47 -46 -110 -55 -140 -10 -30 -38 -109 -62 -175 -62 -164 -74 -214 -79 -327 -6 -141 -32 -351 -54 -439 -11 -43 -20 -90 -20 -104 0 -15 -9 -66 -20 -114 -20 -87 -42 -405 -40 -581 1 -101 -41 -301 -94 -450 -19 -52 -52 -144 -74 -205 -22 -60 -47 -132 -56 -160 -9 -27 -29 -90 -46 -140 -16 -49 -39 -139 -50 -198 -12 -60 -26 -120 -31 -135 -6 -15 -24 -102 -40 -193 -18 -106 -40 -192 -59 -239 -16 -40 -30 -77 -30 -82 0 -6 -6 -24 -14 -41 -85 -188 -176 -449 -197 -562 -6 -33 -17 -78 -24 -100 -7 -22 -20 -76 -29 -120 -9 -44 -23 -100 -31 -125 -20 -62 -90 -259 -103 -290 -11 -25 -45 -137 -116 -380 -34 -115 -86 -338 -95 -410 -6 -41 -17 -106 -25 -145 -8 -38 -21 -110 -30 -160 -9 -49 -25 -139 -37 -200 -12 -62 -22 -166 -25 -240 -2 -71 -8 -154 -14 -184 -5 -29 -10 -64 -10 -77 0 -25 54 -94 75 -94 21 0 162 155 189 208 14 27 40 69 58 93 55 73 114 170 147 240 17 37 38 72 46 79 8 7 15 16 15 21 0 10 102 154 217 309 70 94 290 319 348 355 17 11 46 32 65 46 55 43 131 80 177 86 80 11 255 -24 383 -76 169 -68 333 -238 368 -381 37 -152 13 -318 -63 -430 -26 -38 -63 -85 -83 -103 -89 -83 -173 -156 -241 -209 -76 -58 -269 -246 -332 -320 -43 -52 -111 -175 -133 -241 -9 -26 -25 -65 -35 -86 -46 -90 -68 -356 -42 -506 6 -33 18 -116 27 -185 9 -69 20 -147 24 -175 4 -27 14 -89 21 -136 l12 -87 -32 -63 c-18 -35 -50 -82 -70 -104 -21 -22 -48 -53 -60 -70 -12 -16 -70 -74 -128 -128 -95 -88 -134 -120 -278 -226 -22 -16 -69 -45 -105 -66 -36 -20 -78 -45 -95 -55 -16 -11 -86 -48 -155 -83 -69 -35 -148 -78 -175 -94 -40 -24 -66 -31 -132 -36 -52 -4 -104 -16 -144 -32 -34 -14 -68 -25 -74 -25 -20 0 -105 -40 -105 -50 0 -4 3 -15 6 -24 8 -22 159 -147 214 -178 25 -14 101 -60 169 -102 106 -67 222 -127 284 -149 32 -12 20 -41 -23 -55 -22 -6 -48 -12 -59 -12 -26 0 -36 -17 -20 -36 27 -33 133 -104 170 -114 39 -11 134 -53 294 -130 263 -127 372 -168 462 -174 75 -4 69 -51 -8 -61 -28 -4 -66 -16 -84 -26 -17 -10 -69 -25 -116 -33 -96 -17 -319 -21 -364 -7 -16 5 -48 12 -70 15 -22 3 -54 8 -71 12 -48 10 -50 -12 -3 -43 23 -15 52 -35 65 -44 13 -8 34 -26 47 -40 14 -13 46 -37 73 -53 27 -16 65 -42 84 -56 19 -15 49 -30 65 -34 53 -12 136 -59 133 -75 -3 -14 -40 -40 -88 -62 -14 -6 -32 -15 -40 -20 -39 -23 -207 -100 -230 -105 -14 -4 -61 -17 -105 -29 -175 -51 -563 -88 -675 -64 -67 14 -94 6 -120 -36 -25 -41 -103 -128 -211 -234 -78 -77 -324 -287 -386 -329 -24 -16 -44 -45 -65 -90 -52 -114 -67 -146 -93 -187 -13 -22 -24 -48 -25 -58 0 -26 -76 -178 -124 -251 -56 -84 -248 -266 -280 -266 -7 0 -21 9 -32 21 -15 17 -16 23 -5 41 22 36 60 176 71 266 6 48 20 135 31 195 11 59 17 112 14 117 -3 5 -30 -10 -59 -33 -49 -41 -224 -147 -241 -147 -5 0 -23 -11 -41 -25 -43 -33 -206 -115 -228 -115 -10 0 -26 -4 -36 -10 -10 -5 -72 -17 -137 -25 -65 -9 -134 -21 -153 -26 -21 -6 -84 -8 -150 -5 -63 3 -123 5 -132 6 -10 0 -18 7 -18 15 0 32 68 151 150 260 77 103 110 157 104 167 -8 12 -39 24 -154 57 -107 31 -160 56 -160 74 0 6 41 55 90 107 49 52 89 98 90 101 0 3 13 23 30 44 16 20 27 42 24 47 -5 8 -75 5 -173 -8 -20 -2 -56 4 -88 16 -29 11 -70 20 -89 20 -20 0 -64 7 -98 16 -33 9 -86 20 -116 24 -225 32 -359 64 -375 89 -3 6 -35 24 -70 42 -89 44 -87 58 18 110 101 51 186 108 252 169 28 26 81 70 118 99 104 80 439 417 435 438 -3 16 -23 19 -178 25 -96 4 -186 7 -200 7 -55 0 -205 24 -239 38 -20 9 -58 18 -86 22 -44 5 -50 9 -50 30 0 13 9 29 20 35 47 26 132 82 194 129 106 80 372 319 368 331 -2 6 -13 11 -25 11 -60 1 -47 46 40 146 64 72 110 100 220 130 40 11 77 25 83 30 5 5 18 9 28 9 11 0 54 16 97 35 43 19 100 39 126 45 94 18 219 52 229 61 16 16 -34 50 -137 93 -51 21 -111 51 -133 66 -43 29 -104 58 -201 95 -110 41 -348 162 -407 206 -36 27 -71 64 -93 100 -18 31 -34 60 -34 63 0 16 -58 79 -90 99 -19 11 -39 26 -45 32 -5 6 -40 35 -76 63 -60 46 -67 56 -73 96 -21 136 -9 635 17 751 19 82 27 277 16 355 -5 30 -11 78 -13 105 -17 157 -64 317 -135 460 -75 149 -109 248 -117 345 -8 95 -30 202 -49 240 -15 29 -154 130 -178 130 -18 0 -153 86 -211 134 -86 72 -125 119 -151 184 -23 57 -24 67 -15 134 6 39 15 77 22 85 6 7 19 41 28 76 28 95 62 177 97 234 37 60 146 147 238 189 56 26 68 28 185 27 221 -1 372 -50 454 -147 96 -113 181 -234 222 -315 44 -86 71 -128 161 -251 89 -121 113 -159 154 -252 46 -103 101 -310 124 -461 9 -55 30 -136 49 -185 18 -48 37 -98 41 -112 4 -14 16 -38 27 -53 24 -34 42 -24 54 31 20 91 -6 551 -33 595 -2 4 -8 42 -13 85 -4 42 -15 115 -23 162 -8 47 -23 132 -32 190 -15 98 -27 132 -113 335 -9 22 -29 60 -44 84 -16 25 -28 50 -28 57 0 6 -16 42 -36 80 -153 291 -197 390 -283 639 -21 61 -50 139 -64 175 -28 72 -99 286 -122 368 -8 29 -26 75 -40 103 -14 27 -30 76 -36 107 -6 31 -19 83 -30 115 -10 31 -19 65 -19 75 0 10 -7 44 -15 77 -9 32 -20 93 -26 134 -10 73 -39 223 -59 306 -5 22 -17 74 -26 114 -31 140 -104 298 -201 436 -43 60 -86 123 -95 140 -31 55 -68 142 -68 159 0 10 -5 26 -10 36 -6 11 -29 91 -51 177 l-40 158 7 205 6 205 -30 100 c-16 55 -33 127 -36 160 -18 157 -22 251 -14 303 6 35 5 136 -2 265 -10 193 -13 215 -46 325 -20 64 -41 135 -46 157 -10 46 -146 325 -194 400 -17 28 -50 82 -72 120 -22 39 -50 75 -61 82 -11 7 -45 45 -75 85 -31 40 -66 87 -79 103 -23 29 -72 179 -63 193 2 4 -3 39 -11 77 -31 148 -29 206 14 398 l15 67 46 1 c26 0 56 4 67 9 35 15 167 11 220 -6z"/>
 <path d="M335 14611 c-49 -8 -65 -17 -65 -37 0 -11 -6 -13 -20 -9 -36 11 -47 -12 -65 -131 -17 -109 -17 -121 -1 -227 33 -212 45 -254 90 -309 22 -28 55 -69 71 -92 17 -23 51 -63 78 -90 26 -26 47 -52 47 -57 0 -6 19 -38 41 -72 43 -64 109 -188 109 -205 0 -5 11 -26 25 -46 14 -21 37 -65 51 -99 14 -34 32 -75 39 -92 8 -16 19 -50 25 -75 7 -25 25 -86 41 -135 26 -81 30 -113 39 -285 5 -107 5 -233 1 -280 -11 -109 18 -356 55 -484 27 -89 27 -92 20 -298 -7 -195 -6 -213 14 -286 97 -350 117 -398 217 -534 122 -163 199 -341 238 -553 10 -49 23 -110 30 -135 7 -25 20 -90 30 -145 9 -55 21 -111 25 -125 5 -14 14 -61 20 -105 13 -100 51 -229 126 -435 19 -52 39 -108 43 -125 5 -16 27 -82 49 -145 22 -63 59 -169 82 -235 90 -261 130 -354 236 -551 45 -82 87 -168 94 -190 7 -21 28 -65 47 -97 35 -57 49 -90 103 -238 31 -84 38 -115 75 -374 14 -99 33 -207 40 -240 29 -123 34 -185 32 -400 -2 -206 -3 -223 -24 -262 -22 -41 -52 -61 -73 -48 -34 21 -132 289 -150 411 -22 150 -87 395 -110 418 -6 6 -10 16 -10 23 0 33 -88 185 -143 248 -24 28 -52 66 -62 85 -9 19 -28 46 -41 60 -13 14 -46 72 -74 128 -28 56 -65 119 -83 140 -18 20 -46 57 -61 82 -52 81 -94 126 -142 149 -76 38 -181 61 -309 67 -105 5 -128 3 -184 -15 -71 -23 -184 -102 -226 -156 -42 -56 -91 -163 -120 -265 -15 -52 -31 -105 -36 -118 -22 -57 -3 -142 47 -203 59 -75 222 -195 301 -223 22 -8 62 -30 89 -49 27 -18 57 -37 66 -40 43 -15 75 -123 93 -311 8 -86 27 -151 69 -241 91 -194 117 -255 131 -305 59 -209 82 -544 49 -705 -15 -76 -18 -142 -18 -415 -1 -179 2 -341 7 -361 8 -38 42 -68 155 -136 70 -43 95 -73 140 -164 54 -111 94 -139 422 -292 52 -24 123 -54 157 -67 34 -12 91 -40 125 -63 34 -22 89 -50 123 -62 33 -12 97 -41 141 -64 45 -22 95 -41 113 -41 28 0 31 -3 31 -30 l0 -30 -66 0 c-63 0 -368 -66 -412 -89 -46 -25 -193 -80 -242 -91 -93 -22 -134 -45 -186 -105 -27 -31 -49 -62 -49 -68 0 -23 37 -18 76 9 34 23 42 25 50 13 21 -34 8 -60 -56 -105 -59 -42 -181 -150 -245 -217 -30 -31 -60 -57 -66 -57 -6 0 -39 -27 -75 -60 -35 -33 -83 -69 -105 -80 -23 -11 -49 -29 -59 -40 -23 -25 -8 -45 44 -61 51 -15 281 -33 441 -33 124 0 140 2 199 26 36 15 68 25 73 22 17 -11 6 -46 -30 -92 -66 -85 -185 -222 -194 -222 -5 0 -34 -24 -66 -54 -311 -293 -457 -410 -586 -469 -82 -38 -76 -56 36 -109 41 -19 109 -38 198 -54 74 -13 169 -31 210 -39 41 -8 106 -19 145 -25 38 -6 91 -17 118 -25 26 -8 53 -12 60 -10 7 3 59 11 117 19 58 8 114 16 125 18 12 2 21 -4 23 -14 4 -19 -125 -193 -188 -253 -23 -22 -48 -52 -56 -67 -13 -25 -12 -28 5 -38 11 -5 26 -10 33 -10 7 -1 31 -9 53 -20 22 -11 51 -20 65 -20 14 0 36 -7 50 -15 14 -8 44 -14 68 -15 27 0 42 -5 42 -13 0 -13 -145 -218 -210 -297 -45 -54 -69 -115 -53 -131 16 -16 187 -16 313 0 114 14 248 48 300 77 18 11 56 32 84 48 28 15 84 46 124 67 112 59 191 120 281 215 95 102 109 102 92 3 -16 -99 -33 -182 -41 -204 -5 -11 -11 -40 -14 -65 -3 -25 -15 -101 -27 -170 -32 -195 -33 -193 51 -127 64 51 141 160 204 292 107 221 157 333 169 375 11 40 20 50 90 96 43 29 99 72 126 97 26 24 70 60 97 80 80 58 374 376 374 405 0 24 35 30 90 15 81 -21 396 -12 550 17 179 33 442 128 478 173 18 22 11 59 -13 72 -47 24 -191 123 -205 140 -19 23 -101 83 -160 117 -62 36 -194 173 -186 194 3 9 6 20 6 25 0 23 31 4 77 -45 30 -33 61 -57 79 -61 16 -3 67 -16 114 -27 100 -26 354 -34 460 -17 65 11 110 31 110 49 0 12 -69 47 -186 96 -49 20 -152 67 -229 103 -77 37 -160 75 -185 85 -84 33 -131 59 -213 120 -45 34 -94 69 -110 79 -15 9 -27 25 -27 33 0 13 7 15 38 10 97 -17 135 0 87 39 -17 13 -33 24 -37 25 -15 0 -202 115 -381 234 -86 57 -132 95 -168 140 -27 33 -60 74 -74 89 -20 24 -23 35 -17 65 10 49 38 55 50 10 l9 -33 75 2 c52 1 98 10 149 28 41 14 106 34 145 45 91 24 135 42 189 79 36 24 51 29 80 24 28 -4 43 -1 65 16 16 11 32 21 34 21 3 0 35 18 71 40 36 22 67 40 69 40 16 0 193 119 278 187 283 227 461 475 408 572 -10 20 -23 102 -49 321 -10 80 -23 157 -29 171 -10 25 -8 221 3 324 6 63 102 336 133 380 16 22 40 60 54 85 14 25 40 63 57 84 45 56 264 260 346 321 153 115 335 316 335 371 0 10 7 42 16 69 25 81 3 241 -44 325 -30 53 -169 190 -228 226 -77 45 -204 85 -322 100 -137 17 -153 12 -280 -72 -96 -64 -335 -296 -392 -379 -18 -27 -52 -73 -75 -100 -35 -42 -96 -133 -204 -305 -8 -14 -25 -46 -37 -71 -12 -26 -27 -49 -32 -53 -10 -6 -104 -145 -171 -253 -18 -29 -46 -69 -62 -90 -21 -26 -28 -44 -24 -60 6 -26 -18 -40 -89 -49 -57 -8 -123 34 -132 83 -7 36 -1 119 15 198 5 28 10 91 11 140 1 113 28 291 96 630 9 44 20 109 25 144 5 36 13 79 19 96 6 18 28 104 50 191 40 161 107 377 195 624 26 74 58 180 71 235 66 291 83 349 144 515 54 147 67 181 130 345 34 88 68 196 76 240 8 44 22 118 30 165 8 47 21 110 29 140 8 30 29 111 45 180 17 69 42 157 57 195 49 136 94 261 128 363 19 57 40 113 46 124 21 38 53 233 55 328 1 52 7 127 13 165 5 39 12 140 16 225 3 85 9 180 14 210 17 102 50 275 60 310 13 44 41 306 41 381 0 67 17 162 36 206 8 17 14 34 14 38 0 4 6 21 14 38 17 41 35 88 82 217 21 58 50 133 66 168 15 35 35 91 44 124 8 34 24 80 34 102 10 23 33 75 50 116 17 41 40 93 50 116 11 23 20 45 20 49 0 5 6 16 14 24 12 15 48 107 74 191 6 19 13 82 17 140 10 175 15 223 24 234 14 18 51 146 51 177 0 19 -11 42 -32 64 -30 32 -43 37 -123 52 -188 33 -185 34 -417 -46 -100 -34 -285 -189 -361 -301 -16 -25 -42 -58 -57 -75 -15 -16 -51 -66 -81 -110 -29 -44 -64 -93 -78 -110 -13 -16 -32 -50 -43 -74 -10 -24 -30 -57 -44 -74 -14 -17 -39 -59 -56 -94 -16 -35 -40 -76 -52 -91 -24 -28 -178 -337 -191 -382 -5 -14 -18 -41 -31 -60 -13 -19 -24 -40 -24 -47 0 -6 -16 -39 -36 -73 -19 -33 -46 -91 -59 -128 -31 -90 -51 -135 -157 -352 -138 -284 -157 -315 -269 -435 -96 -102 -145 -168 -164 -222 -10 -26 -35 -86 -56 -133 -113 -251 -157 -427 -169 -670 -9 -177 -30 -316 -81 -525 -21 -88 -46 -198 -55 -245 -31 -159 -139 -488 -200 -612 -13 -26 -24 -52 -24 -59 0 -6 -20 -50 -44 -97 -23 -48 -49 -105 -56 -127 -14 -42 -113 -240 -144 -287 -28 -43 -49 -35 -83 30 -40 75 -99 274 -117 393 -9 51 -20 110 -26 129 -6 19 -22 82 -36 139 -23 101 -38 156 -90 326 -13 44 -33 112 -43 150 -10 39 -48 149 -83 246 -36 97 -84 236 -107 310 -23 74 -49 154 -58 179 -9 25 -23 74 -33 110 -9 36 -22 75 -28 87 -7 12 -18 45 -26 75 -17 62 -97 265 -127 323 -53 100 -94 172 -111 195 -92 122 -222 362 -314 576 -21 49 -52 114 -69 144 -17 30 -43 91 -59 135 -15 44 -45 116 -66 160 -50 106 -136 319 -150 374 -15 58 -93 220 -145 301 -23 36 -48 77 -56 91 -8 15 -39 58 -69 95 -30 38 -95 129 -145 203 -73 109 -108 151 -191 225 -155 140 -253 218 -324 261 -36 21 -85 53 -110 70 -25 18 -56 36 -70 40 -14 4 -34 15 -45 24 -37 32 -69 48 -145 73 -88 30 -150 38 -205 29z"/>
 </g>

</svg>