<?xml version="1.0"?>
<!-- Generated by SVGo -->
<svg width="258.601mm" height="106.201mm"
     viewBox="0.000 0.000 258.601 106.201"
     xmlns="http://www.w3.org/2000/svg" 
     xmlns:xlink="http://www.w3.org/1999/xlink">
<polygon points="253.601,101.201 5.000,101.201 5.000,5.000 253.601,5.000" style="fill:none;stroke-width:0.050000mm;stroke:black"/>
<polygon points="248.137,94.774 247.719,94.987 247.387,95.319 247.174,95.737 247.101,96.201 247.174,96.664 247.387,97.082 247.719,97.414 248.137,97.627 248.601,97.701 249.064,97.627 249.482,97.414 249.814,97.082 250.027,96.664 250.101,96.201 250.027,95.737 249.814,95.319 249.482,94.987 249.064,94.774 248.601,94.701" style="fill:none;stroke-width:0.050000mm;stroke:black"/>
<polygon points="9.536,94.774 9.118,94.987 8.786,95.319 8.573,95.737 8.500,96.201 8.573,96.664 8.786,97.082 9.118,97.414 9.536,97.627 10.000,97.701 10.463,97.627 10.881,97.414 11.213,97.082 11.426,96.664 11.500,96.201 11.426,95.737 11.213,95.319 10.881,94.987 10.463,94.774 10.000,94.701" style="fill:none;stroke-width:0.050000mm;stroke:black"/>
<polygon points="122.300,74.675 122.300,75.675 121.500,75.675 121.500,78.774 122.300,78.774 122.300,79.375 120.775,79.375 120.775,76.145 114.025,76.145 114.025,79.375 113.200,79.375 113.200,82.175 114.025,82.175 114.025,88.445 115.750,88.445 115.750,89.645 119.050,89.645 119.050,88.445 120.775,88.445 120.775,83.975 122.300,83.975 122.300,84.575 121.500,84.575 121.500,87.675 122.300,87.675 122.300,88.675 136.300,88.675 136.300,87.675 137.100,87.675 137.100,84.575 136.300,84.575 136.300,83.975 137.825,83.975 137.825,88.445 139.550,88.445 139.550,89.645 142.850,89.645 142.850,88.445 144.575,88.445 144.575,82.175 145.400,82.175 145.400,79.375 144.575,79.375 144.575,76.145 137.825,76.145 137.825,79.375 136.300,79.375 136.300,78.774 137.100,78.774 137.100,75.675 136.300,75.675 136.300,74.675" style="fill:none;stroke-width:0.050000mm;stroke:black"/>
<polygon points="17.525,74.675 17.525,75.675 16.724,75.675 16.724,78.774 17.525,78.774 17.525,84.575 16.724,84.575 16.724,87.675 17.525,87.675 17.525,88.675 31.525,88.675 31.525,87.675 32.323,87.675 32.323,84.575 31.525,84.575 31.525,78.774 32.323,78.774 32.323,75.675 31.525,75.675 31.525,74.675" style="fill:none;stroke-width:0.050000mm;stroke:black"/>
<polygon points="36.575,74.675 36.575,75.675 35.775,75.675 35.775,78.774 36.575,78.774 36.575,84.575 35.775,84.575 35.775,87.675 36.575,87.675 36.575,88.675 50.575,88.675 50.575,87.675 51.375,87.675 51.375,84.575 50.575,84.575 50.575,78.774 51.375,78.774 51.375,75.675 50.575,75.675 50.575,74.675" style="fill:none;stroke-width:0.050000mm;stroke:black"/>
<polygon points="55.625,74.675 55.625,75.675 54.825,75.675 54.825,78.774 55.625,78.774 55.625,84.575 54.825,84.575 54.825,87.675 55.625,87.675 55.625,88.675 69.625,88.675 69.625,87.675 70.425,87.675 70.425,84.575 69.625,84.575 69.625,78.774 70.425,78.774 70.425,75.675 69.625,75.675 69.625,74.675" style="fill:none;stroke-width:0.050000mm;stroke:black"/>
<polygon points="74.675,74.675 74.675,75.675 73.875,75.675 73.875,78.774 74.675,78.774 74.675,84.575 73.875,84.575 73.875,87.675 74.675,87.675 74.675,88.675 88.675,88.675 88.675,87.675 89.475,87.675 89.475,84.575 88.675,84.575 88.675,78.774 89.475,78.774 89.475,75.675 88.675,75.675 88.675,74.675" style="fill:none;stroke-width:0.050000mm;stroke:black"/>
<polygon points="93.725,74.675 93.725,75.675 92.925,75.675 92.925,78.774 93.725,78.774 93.725,84.575 92.925,84.575 92.925,87.675 93.725,87.675 93.725,88.675 107.725,88.675 107.725,87.675 108.524,87.675 108.524,84.575 107.725,84.575 107.725,78.774 108.524,78.774 108.524,75.675 107.725,75.675 107.725,74.675" style="fill:none;stroke-width:0.050000mm;stroke:black"/>
<polygon points="150.875,74.675 150.875,75.675 150.075,75.675 150.075,78.774 150.875,78.774 150.875,84.575 150.075,84.575 150.075,87.675 150.875,87.675 150.875,88.675 164.875,88.675 164.875,87.675 165.675,87.675 165.675,84.575 164.875,84.575 164.875,78.774 165.675,78.774 165.675,75.675 164.875,75.675 164.875,74.675" style="fill:none;stroke-width:0.050000mm;stroke:black"/>
<polygon points="169.925,74.675 169.925,75.675 169.125,75.675 169.125,78.774 169.925,78.774 169.925,84.575 169.125,84.575 169.125,87.675 169.925,87.675 169.925,88.675 183.925,88.675 183.925,87.675 184.725,87.675 184.725,84.575 183.925,84.575 183.925,78.774 184.725,78.774 184.725,75.675 183.925,75.675 183.925,74.675" style="fill:none;stroke-width:0.050000mm;stroke:black"/>
<polygon points="188.975,74.675 188.975,75.675 188.175,75.675 188.175,78.774 188.975,78.774 188.975,84.575 188.175,84.575 188.175,87.675 188.975,87.675 188.975,88.675 202.975,88.675 202.975,87.675 203.775,87.675 203.775,84.575 202.975,84.575 202.975,78.774 203.775,78.774 203.775,75.675 202.975,75.675 202.975,74.675" style="fill:none;stroke-width:0.050000mm;stroke:black"/>
<polygon points="208.025,74.675 208.025,75.675 207.225,75.675 207.225,78.774 208.025,78.774 208.025,84.575 207.225,84.575 207.225,87.675 208.025,87.675 208.025,88.675 222.025,88.675 222.025,87.675 222.825,87.675 222.825,84.575 222.025,84.575 222.025,78.774 222.825,78.774 222.825,75.675 222.025,75.675 222.025,74.675" style="fill:none;stroke-width:0.050000mm;stroke:black"/>
<polygon points="227.075,74.675 227.075,75.675 226.275,75.675 226.275,78.774 227.075,78.774 227.075,84.575 226.275,84.575 226.275,87.675 227.075,87.675 227.075,88.675 241.075,88.675 241.075,87.675 241.875,87.675 241.875,84.575 241.075,84.575 241.075,78.774 241.875,78.774 241.875,75.675 241.075,75.675 241.075,74.675" style="fill:none;stroke-width:0.050000mm;stroke:black"/>
<polygon points="17.525,55.625 17.525,56.625 16.724,56.625 16.724,59.725 17.525,59.725 17.525,65.525 16.724,65.525 16.724,68.625 17.525,68.625 17.525,69.625 31.525,69.625 31.525,68.625 32.323,68.625 32.323,65.525 31.525,65.525 31.525,59.725 32.323,59.725 32.323,56.625 31.525,56.625 31.525,55.625" style="fill:none;stroke-width:0.050000mm;stroke:black"/>
<polygon points="36.575,55.625 36.575,56.625 35.775,56.625 35.775,59.725 36.575,59.725 36.575,65.525 35.775,65.525 35.775,68.625 36.575,68.625 36.575,69.625 50.575,69.625 50.575,68.625 51.375,68.625 51.375,65.525 50.575,65.525 50.575,59.725 51.375,59.725 51.375,56.625 50.575,56.625 50.575,55.625" style="fill:none;stroke-width:0.050000mm;stroke:black"/>
<polygon points="55.625,55.625 55.625,56.625 54.825,56.625 54.825,59.725 55.625,59.725 55.625,65.525 54.825,65.525 54.825,68.625 55.625,68.625 55.625,69.625 69.625,69.625 69.625,68.625 70.425,68.625 70.425,65.525 69.625,65.525 69.625,59.725 70.425,59.725 70.425,56.625 69.625,56.625 69.625,55.625" style="fill:none;stroke-width:0.050000mm;stroke:black"/>
<polygon points="74.675,55.625 74.675,56.625 73.875,56.625 73.875,59.725 74.675,59.725 74.675,65.525 73.875,65.525 73.875,68.625 74.675,68.625 74.675,69.625 88.675,69.625 88.675,68.625 89.475,68.625 89.475,65.525 88.675,65.525 88.675,59.725 89.475,59.725 89.475,56.625 88.675,56.625 88.675,55.625" style="fill:none;stroke-width:0.050000mm;stroke:black"/>
<polygon points="93.725,55.625 93.725,56.625 92.925,56.625 92.925,59.725 93.725,59.725 93.725,65.525 92.925,65.525 92.925,68.625 93.725,68.625 93.725,69.625 107.725,69.625 107.725,68.625 108.524,68.625 108.524,65.525 107.725,65.525 107.725,59.725 108.524,59.725 108.524,56.625 107.725,56.625 107.725,55.625" style="fill:none;stroke-width:0.050000mm;stroke:black"/>
<polygon points="112.774,55.625 112.774,56.625 111.975,56.625 111.975,59.725 112.774,59.725 112.774,65.525 111.975,65.525 111.975,68.625 112.774,68.625 112.774,69.625 126.774,69.625 126.774,68.625 127.574,68.625 127.574,65.525 126.774,65.525 126.774,59.725 127.574,59.725 127.574,56.625 126.774,56.625 126.774,55.625" style="fill:none;stroke-width:0.050000mm;stroke:black"/>
<polygon points="131.825,55.625 131.825,56.625 131.024,56.625 131.024,59.725 131.825,59.725 131.825,65.525 131.024,65.525 131.024,68.625 131.825,68.625 131.825,69.625 145.825,69.625 145.825,68.625 146.625,68.625 146.625,65.525 145.825,65.525 145.825,59.725 146.625,59.725 146.625,56.625 145.825,56.625 145.825,55.625" style="fill:none;stroke-width:0.050000mm;stroke:black"/>
<polygon points="150.875,55.625 150.875,56.625 150.075,56.625 150.075,59.725 150.875,59.725 150.875,65.525 150.075,65.525 150.075,68.625 150.875,68.625 150.875,69.625 164.875,69.625 164.875,68.625 165.675,68.625 165.675,65.525 164.875,65.525 164.875,59.725 165.675,59.725 165.675,56.625 164.875,56.625 164.875,55.625" style="fill:none;stroke-width:0.050000mm;stroke:black"/>
<polygon points="169.925,55.625 169.925,56.625 169.125,56.625 169.125,59.725 169.925,59.725 169.925,65.525 169.125,65.525 169.125,68.625 169.925,68.625 169.925,69.625 183.925,69.625 183.925,68.625 184.725,68.625 184.725,65.525 183.925,65.525 183.925,59.725 184.725,59.725 184.725,56.625 183.925,56.625 183.925,55.625" style="fill:none;stroke-width:0.050000mm;stroke:black"/>
<polygon points="188.975,55.625 188.975,56.625 188.175,56.625 188.175,59.725 188.975,59.725 188.975,65.525 188.175,65.525 188.175,68.625 188.975,68.625 188.975,69.625 202.975,69.625 202.975,68.625 203.775,68.625 203.775,65.525 202.975,65.525 202.975,59.725 203.775,59.725 203.775,56.625 202.975,56.625 202.975,55.625" style="fill:none;stroke-width:0.050000mm;stroke:black"/>
<polygon points="208.025,55.625 208.025,56.625 207.225,56.625 207.225,59.725 208.025,59.725 208.025,65.525 207.225,65.525 207.225,68.625 208.025,68.625 208.025,69.625 222.025,69.625 222.025,68.625 222.825,68.625 222.825,65.525 222.025,65.525 222.025,59.725 222.825,59.725 222.825,56.625 222.025,56.625 222.025,55.625" style="fill:none;stroke-width:0.050000mm;stroke:black"/>
<polygon points="227.075,55.625 227.075,56.625 226.275,56.625 226.275,59.725 227.075,59.725 227.075,65.525 226.275,65.525 226.275,68.625 227.075,68.625 227.075,69.625 241.075,69.625 241.075,68.625 241.875,68.625 241.875,65.525 241.075,65.525 241.075,59.725 241.875,59.725 241.875,56.625 241.075,56.625 241.075,55.625" style="fill:none;stroke-width:0.050000mm;stroke:black"/>
<polygon points="17.525,36.575 17.525,37.575 16.724,37.575 16.724,40.675 17.525,40.675 17.525,46.475 16.724,46.475 16.724,49.575 17.525,49.575 17.525,50.575 31.525,50.575 31.525,49.575 32.323,49.575 32.323,46.475 31.525,46.475 31.525,40.675 32.323,40.675 32.323,37.575 31.525,37.575 31.525,36.575" style="fill:none;stroke-width:0.050000mm;stroke:black"/>
<polygon points="36.575,36.575 36.575,37.575 35.775,37.575 35.775,40.675 36.575,40.675 36.575,46.475 35.775,46.475 35.775,49.575 36.575,49.575 36.575,50.575 50.575,50.575 50.575,49.575 51.375,49.575 51.375,46.475 50.575,46.475 50.575,40.675 51.375,40.675 51.375,37.575 50.575,37.575 50.575,36.575" style="fill:none;stroke-width:0.050000mm;stroke:black"/>
<polygon points="55.625,36.575 55.625,37.575 54.825,37.575 54.825,40.675 55.625,40.675 55.625,46.475 54.825,46.475 54.825,49.575 55.625,49.575 55.625,50.575 69.625,50.575 69.625,49.575 70.425,49.575 70.425,46.475 69.625,46.475 69.625,40.675 70.425,40.675 70.425,37.575 69.625,37.575 69.625,36.575" style="fill:none;stroke-width:0.050000mm;stroke:black"/>
<polygon points="74.675,36.575 74.675,37.575 73.875,37.575 73.875,40.675 74.675,40.675 74.675,46.475 73.875,46.475 73.875,49.575 74.675,49.575 74.675,50.575 88.675,50.575 88.675,49.575 89.475,49.575 89.475,46.475 88.675,46.475 88.675,40.675 89.475,40.675 89.475,37.575 88.675,37.575 88.675,36.575" style="fill:none;stroke-width:0.050000mm;stroke:black"/>
<polygon points="93.725,36.575 93.725,37.575 92.925,37.575 92.925,40.675 93.725,40.675 93.725,46.475 92.925,46.475 92.925,49.575 93.725,49.575 93.725,50.575 107.725,50.575 107.725,49.575 108.524,49.575 108.524,46.475 107.725,46.475 107.725,40.675 108.524,40.675 108.524,37.575 107.725,37.575 107.725,36.575" style="fill:none;stroke-width:0.050000mm;stroke:black"/>
<polygon points="112.774,36.575 112.774,37.575 111.975,37.575 111.975,40.675 112.774,40.675 112.774,46.475 111.975,46.475 111.975,49.575 112.774,49.575 112.774,50.575 126.774,50.575 126.774,49.575 127.574,49.575 127.574,46.475 126.774,46.475 126.774,40.675 127.574,40.675 127.574,37.575 126.774,37.575 126.774,36.575" style="fill:none;stroke-width:0.050000mm;stroke:black"/>
<polygon points="131.825,36.575 131.825,37.575 131.024,37.575 131.024,40.675 131.825,40.675 131.825,46.475 131.024,46.475 131.024,49.575 131.825,49.575 131.825,50.575 145.825,50.575 145.825,49.575 146.625,49.575 146.625,46.475 145.825,46.475 145.825,40.675 146.625,40.675 146.625,37.575 145.825,37.575 145.825,36.575" style="fill:none;stroke-width:0.050000mm;stroke:black"/>
<polygon points="150.875,36.575 150.875,37.575 150.075,37.575 150.075,40.675 150.875,40.675 150.875,46.475 150.075,46.475 150.075,49.575 150.875,49.575 150.875,50.575 164.875,50.575 164.875,49.575 165.675,49.575 165.675,46.475 164.875,46.475 164.875,40.675 165.675,40.675 165.675,37.575 164.875,37.575 164.875,36.575" style="fill:none;stroke-width:0.050000mm;stroke:black"/>
<polygon points="169.925,36.575 169.925,37.575 169.125,37.575 169.125,40.675 169.925,40.675 169.925,46.475 169.125,46.475 169.125,49.575 169.925,49.575 169.925,50.575 183.925,50.575 183.925,49.575 184.725,49.575 184.725,46.475 183.925,46.475 183.925,40.675 184.725,40.675 184.725,37.575 183.925,37.575 183.925,36.575" style="fill:none;stroke-width:0.050000mm;stroke:black"/>
<polygon points="188.975,36.575 188.975,37.575 188.175,37.575 188.175,40.675 188.975,40.675 188.975,46.475 188.175,46.475 188.175,49.575 188.975,49.575 188.975,50.575 202.975,50.575 202.975,49.575 203.775,49.575 203.775,46.475 202.975,46.475 202.975,40.675 203.775,40.675 203.775,37.575 202.975,37.575 202.975,36.575" style="fill:none;stroke-width:0.050000mm;stroke:black"/>
<polygon points="208.025,36.575 208.025,37.575 207.225,37.575 207.225,40.675 208.025,40.675 208.025,46.475 207.225,46.475 207.225,49.575 208.025,49.575 208.025,50.575 222.025,50.575 222.025,49.575 222.825,49.575 222.825,46.475 222.025,46.475 222.025,40.675 222.825,40.675 222.825,37.575 222.025,37.575 222.025,36.575" style="fill:none;stroke-width:0.050000mm;stroke:black"/>
<polygon points="227.075,36.575 227.075,37.575 226.275,37.575 226.275,40.675 227.075,40.675 227.075,46.475 226.275,46.475 226.275,49.575 227.075,49.575 227.075,50.575 241.075,50.575 241.075,49.575 241.875,49.575 241.875,46.475 241.075,46.475 241.075,40.675 241.875,40.675 241.875,37.575 241.075,37.575 241.075,36.575" style="fill:none;stroke-width:0.050000mm;stroke:black"/>
<polygon points="17.525,17.525 17.525,18.525 16.724,18.525 16.724,21.625 17.525,21.625 17.525,27.424 16.724,27.424 16.724,30.525 17.525,30.525 17.525,31.525 31.525,31.525 31.525,30.525 32.323,30.525 32.323,27.424 31.525,27.424 31.525,21.625 32.323,21.625 32.323,18.525 31.525,18.525 31.525,17.525" style="fill:none;stroke-width:0.050000mm;stroke:black"/>
<polygon points="36.575,17.525 36.575,18.525 35.775,18.525 35.775,21.625 36.575,21.625 36.575,27.424 35.775,27.424 35.775,30.525 36.575,30.525 36.575,31.525 50.575,31.525 50.575,30.525 51.375,30.525 51.375,27.424 50.575,27.424 50.575,21.625 51.375,21.625 51.375,18.525 50.575,18.525 50.575,17.525" style="fill:none;stroke-width:0.050000mm;stroke:black"/>
<polygon points="55.625,17.525 55.625,18.525 54.825,18.525 54.825,21.625 55.625,21.625 55.625,27.424 54.825,27.424 54.825,30.525 55.625,30.525 55.625,31.525 69.625,31.525 69.625,30.525 70.425,30.525 70.425,27.424 69.625,27.424 69.625,21.625 70.425,21.625 70.425,18.525 69.625,18.525 69.625,17.525" style="fill:none;stroke-width:0.050000mm;stroke:black"/>
<polygon points="74.675,17.525 74.675,18.525 73.875,18.525 73.875,21.625 74.675,21.625 74.675,27.424 73.875,27.424 73.875,30.525 74.675,30.525 74.675,31.525 88.675,31.525 88.675,30.525 89.475,30.525 89.475,27.424 88.675,27.424 88.675,21.625 89.475,21.625 89.475,18.525 88.675,18.525 88.675,17.525" style="fill:none;stroke-width:0.050000mm;stroke:black"/>
<polygon points="93.725,17.525 93.725,18.525 92.925,18.525 92.925,21.625 93.725,21.625 93.725,27.424 92.925,27.424 92.925,30.525 93.725,30.525 93.725,31.525 107.725,31.525 107.725,30.525 108.524,30.525 108.524,27.424 107.725,27.424 107.725,21.625 108.524,21.625 108.524,18.525 107.725,18.525 107.725,17.525" style="fill:none;stroke-width:0.050000mm;stroke:black"/>
<polygon points="112.774,17.525 112.774,18.525 111.975,18.525 111.975,21.625 112.774,21.625 112.774,27.424 111.975,27.424 111.975,30.525 112.774,30.525 112.774,31.525 126.774,31.525 126.774,30.525 127.574,30.525 127.574,27.424 126.774,27.424 126.774,21.625 127.574,21.625 127.574,18.525 126.774,18.525 126.774,17.525" style="fill:none;stroke-width:0.050000mm;stroke:black"/>
<polygon points="131.825,17.525 131.825,18.525 131.024,18.525 131.024,21.625 131.825,21.625 131.825,27.424 131.024,27.424 131.024,30.525 131.825,30.525 131.825,31.525 145.825,31.525 145.825,30.525 146.625,30.525 146.625,27.424 145.825,27.424 145.825,21.625 146.625,21.625 146.625,18.525 145.825,18.525 145.825,17.525" style="fill:none;stroke-width:0.050000mm;stroke:black"/>
<polygon points="150.875,17.525 150.875,18.525 150.075,18.525 150.075,21.625 150.875,21.625 150.875,27.424 150.075,27.424 150.075,30.525 150.875,30.525 150.875,31.525 164.875,31.525 164.875,30.525 165.675,30.525 165.675,27.424 164.875,27.424 164.875,21.625 165.675,21.625 165.675,18.525 164.875,18.525 164.875,17.525" style="fill:none;stroke-width:0.050000mm;stroke:black"/>
<polygon points="169.925,17.525 169.925,18.525 169.125,18.525 169.125,21.625 169.925,21.625 169.925,27.424 169.125,27.424 169.125,30.525 169.925,30.525 169.925,31.525 183.925,31.525 183.925,30.525 184.725,30.525 184.725,27.424 183.925,27.424 183.925,21.625 184.725,21.625 184.725,18.525 183.925,18.525 183.925,17.525" style="fill:none;stroke-width:0.050000mm;stroke:black"/>
<polygon points="188.975,17.525 188.975,18.525 188.175,18.525 188.175,21.625 188.975,21.625 188.975,27.424 188.175,27.424 188.175,30.525 188.975,30.525 188.975,31.525 202.975,31.525 202.975,30.525 203.775,30.525 203.775,27.424 202.975,27.424 202.975,21.625 203.775,21.625 203.775,18.525 202.975,18.525 202.975,17.525" style="fill:none;stroke-width:0.050000mm;stroke:black"/>
<polygon points="208.025,17.525 208.025,18.525 207.225,18.525 207.225,21.625 208.025,21.625 208.025,27.424 207.225,27.424 207.225,30.525 208.025,30.525 208.025,31.525 222.025,31.525 222.025,30.525 222.825,30.525 222.825,27.424 222.025,27.424 222.025,21.625 222.825,21.625 222.825,18.525 222.025,18.525 222.025,17.525" style="fill:none;stroke-width:0.050000mm;stroke:black"/>
<polygon points="227.075,17.525 227.075,18.525 226.275,18.525 226.275,21.625 227.075,21.625 227.075,27.424 226.275,27.424 226.275,30.525 227.075,30.525 227.075,31.525 241.075,31.525 241.075,30.525 241.875,30.525 241.875,27.424 241.075,27.424 241.075,21.625 241.875,21.625 241.875,18.525 241.075,18.525 241.075,17.525" style="fill:none;stroke-width:0.050000mm;stroke:black"/>
<polygon points="248.137,8.573 247.719,8.786 247.387,9.118 247.174,9.536 247.101,10.000 247.174,10.463 247.387,10.881 247.719,11.213 248.137,11.426 248.601,11.500 249.064,11.426 249.482,11.213 249.814,10.881 250.027,10.463 250.101,10.000 250.027,9.536 249.814,9.118 249.482,8.786 249.064,8.573 248.601,8.500" style="fill:none;stroke-width:0.050000mm;stroke:black"/>
<polygon points="9.536,8.573 9.118,8.786 8.786,9.118 8.573,9.536 8.500,10.000 8.573,10.463 8.786,10.881 9.118,11.213 9.536,11.426 10.000,11.500 10.463,11.426 10.881,11.213 11.213,10.881 11.426,10.463 11.500,10.000 11.426,9.536 11.213,9.118 10.881,8.786 10.463,8.573 10.000,8.500" style="fill:none;stroke-width:0.050000mm;stroke:black"/>
</svg>
