  0
SECTION
  2
HEADER
  9
$ACADVER
  1
AC1009
  9
$EXTMIN
 10
0.0
 20
0.0
 30
0.0
  9
$EXTMAX
 10
1000.0
 20
1000.0
 30
0.0
  9
$FILLMODE
 70
 0
  9
$SPLFRAME
 70
 1
  0
ENDSEC
  0
SECTION
  2
TABLES
  0
TABLE
  2
LAYER
 70
1
  0
LAYER
  2
0
 70
     0
 62
     7
  6
CONTINUOUS
  0
ENDTAB
  0
ENDSEC
  0
SECTION
  2
ENTITIES
  0
LINE
  8
0
 62
     0
 10
0.0937066
 20
96.2808
 30
0.0
 11
248.695
 21
96.2808
 31
0.0
  0
LINE
  8
0
 62
     0
 10
248.695
 20
96.2808
 30
0.0
 11
248.695
 21
0.0799264
 31
0.0
  0
LINE
  8
0
 62
     0
 10
248.695
 20
0.0799264
 30
0.0
 11
0.0937066
 21
0.0799264
 31
0.0
  0
LINE
  8
0
 62
     0
 10
0.0937066
 20
0.0799264
 30
0.0
 11
0.0937066
 21
96.2808
 31
0.0
  0
LINE
  8
0
 62
     0
 10
243.231
 20
6.50709
 30
0.0
 11
242.813
 21
6.29348
 31
0.0
  0
LINE
  8
0
 62
     0
 10
242.813
 20
6.29348
 30
0.0
 11
242.481
 21
5.96138
 31
0.0
  0
LINE
  8
0
 62
     0
 10
242.481
 20
5.96138
 30
0.0
 11
242.267
 21
5.54383
 31
0.0
  0
LINE
  8
0
 62
     0
 10
242.267
 20
5.54383
 30
0.0
 11
242.194
 21
5.07944
 31
0.0
  0
LINE
  8
0
 62
     0
 10
242.194
 20
5.07944
 30
0.0
 11
242.267
 21
4.61641
 31
0.0
  0
LINE
  8
0
 62
     0
 10
242.267
 20
4.61641
 30
0.0
 11
242.481
 21
4.19887
 31
0.0
  0
LINE
  8
0
 62
     0
 10
242.481
 20
4.19887
 30
0.0
 11
242.813
 21
3.86676
 31
0.0
  0
LINE
  8
0
 62
     0
 10
242.813
 20
3.86676
 30
0.0
 11
243.231
 21
3.65319
 31
0.0
  0
LINE
  8
0
 62
     0
 10
243.231
 20
3.65319
 30
0.0
 11
243.695
 21
3.58013
 31
0.0
  0
LINE
  8
0
 62
     0
 10
243.695
 20
3.58013
 30
0.0
 11
244.158
 21
3.65319
 31
0.0
  0
LINE
  8
0
 62
     0
 10
244.158
 20
3.65319
 30
0.0
 11
244.576
 21
3.86676
 31
0.0
  0
LINE
  8
0
 62
     0
 10
244.576
 20
3.86676
 30
0.0
 11
244.908
 21
4.19887
 31
0.0
  0
LINE
  8
0
 62
     0
 10
244.908
 20
4.19887
 30
0.0
 11
245.121
 21
4.61641
 31
0.0
  0
LINE
  8
0
 62
     0
 10
245.121
 20
4.61641
 30
0.0
 11
245.194
 21
5.07944
 31
0.0
  0
LINE
  8
0
 62
     0
 10
245.194
 20
5.07944
 30
0.0
 11
245.121
 21
5.54383
 31
0.0
  0
LINE
  8
0
 62
     0
 10
245.121
 20
5.54383
 30
0.0
 11
244.908
 21
5.96138
 31
0.0
  0
LINE
  8
0
 62
     0
 10
244.908
 20
5.96138
 30
0.0
 11
244.576
 21
6.29348
 31
0.0
  0
LINE
  8
0
 62
     0
 10
244.576
 20
6.29348
 30
0.0
 11
244.158
 21
6.50709
 31
0.0
  0
LINE
  8
0
 62
     0
 10
244.158
 20
6.50709
 30
0.0
 11
243.695
 21
6.58012
 31
0.0
  0
LINE
  8
0
 62
     0
 10
243.695
 20
6.58012
 30
0.0
 11
243.231
 21
6.50709
 31
0.0
  0
LINE
  8
0
 62
     0
 10
4.63021
 20
6.50709
 30
0.0
 11
4.21128
 21
6.29348
 31
0.0
  0
LINE
  8
0
 62
     0
 10
4.21128
 20
6.29348
 30
0.0
 11
3.87918
 21
5.96138
 31
0.0
  0
LINE
  8
0
 62
     0
 10
3.87918
 20
5.96138
 30
0.0
 11
3.66695
 21
5.54383
 31
0.0
  0
LINE
  8
0
 62
     0
 10
3.66695
 20
5.54383
 30
0.0
 11
3.59392
 21
5.07944
 31
0.0
  0
LINE
  8
0
 62
     0
 10
3.59392
 20
5.07944
 30
0.0
 11
3.66695
 21
4.61641
 31
0.0
  0
LINE
  8
0
 62
     0
 10
3.66695
 20
4.61641
 30
0.0
 11
3.87918
 21
4.19887
 31
0.0
  0
LINE
  8
0
 62
     0
 10
3.87918
 20
4.19887
 30
0.0
 11
4.21128
 21
3.86676
 31
0.0
  0
LINE
  8
0
 62
     0
 10
4.21128
 20
3.86676
 30
0.0
 11
4.63021
 21
3.65319
 31
0.0
  0
LINE
  8
0
 62
     0
 10
4.63021
 20
3.65319
 30
0.0
 11
5.09323
 21
3.58013
 31
0.0
  0
LINE
  8
0
 62
     0
 10
5.09323
 20
3.58013
 30
0.0
 11
5.55625
 21
3.65319
 31
0.0
  0
LINE
  8
0
 62
     0
 10
5.55625
 20
3.65319
 30
0.0
 11
5.97517
 21
3.86676
 31
0.0
  0
LINE
  8
0
 62
     0
 10
5.97517
 20
3.86676
 30
0.0
 11
6.30728
 21
4.19887
 31
0.0
  0
LINE
  8
0
 62
     0
 10
6.30728
 20
4.19887
 30
0.0
 11
6.51951
 21
4.61641
 31
0.0
  0
LINE
  8
0
 62
     0
 10
6.51951
 20
4.61641
 30
0.0
 11
6.59391
 21
5.07944
 31
0.0
  0
LINE
  8
0
 62
     0
 10
6.59391
 20
5.07944
 30
0.0
 11
6.51951
 21
5.54383
 31
0.0
  0
LINE
  8
0
 62
     0
 10
6.51951
 20
5.54383
 30
0.0
 11
6.30728
 21
5.96138
 31
0.0
  0
LINE
  8
0
 62
     0
 10
6.30728
 20
5.96138
 30
0.0
 11
5.97517
 21
6.29348
 31
0.0
  0
LINE
  8
0
 62
     0
 10
5.97517
 20
6.29348
 30
0.0
 11
5.55625
 21
6.50709
 31
0.0
  0
LINE
  8
0
 62
     0
 10
5.55625
 20
6.50709
 30
0.0
 11
5.09323
 21
6.58012
 31
0.0
  0
LINE
  8
0
 62
     0
 10
5.09323
 20
6.58012
 30
0.0
 11
4.63021
 21
6.50709
 31
0.0
  0
LINE
  8
0
 62
     0
 10
10.0914
 20
86.2831
 30
0.0
 11
238.694
 21
86.2831
 31
0.0
  0
LINE
  8
0
 62
     0
 10
238.694
 20
86.2831
 30
0.0
 11
238.694
 21
10.0803
 31
0.0
  0
LINE
  8
0
 62
     0
 10
238.694
 20
10.0803
 30
0.0
 11
10.0914
 21
10.0803
 31
0.0
  0
LINE
  8
0
 62
     0
 10
10.0914
 20
10.0803
 30
0.0
 11
10.0914
 21
86.2831
 31
0.0
  0
LINE
  8
0
 62
     0
 10
243.231
 20
92.7075
 30
0.0
 11
242.813
 21
92.4952
 31
0.0
  0
LINE
  8
0
 62
     0
 10
242.813
 20
92.4952
 30
0.0
 11
242.481
 21
92.1632
 31
0.0
  0
LINE
  8
0
 62
     0
 10
242.481
 20
92.1632
 30
0.0
 11
242.267
 21
91.7444
 31
0.0
  0
LINE
  8
0
 62
     0
 10
242.267
 20
91.7444
 30
0.0
 11
242.194
 21
91.2813
 31
0.0
  0
LINE
  8
0
 62
     0
 10
242.194
 20
91.2813
 30
0.0
 11
242.267
 21
90.8184
 31
0.0
  0
LINE
  8
0
 62
     0
 10
242.267
 20
90.8184
 30
0.0
 11
242.481
 21
90.3993
 31
0.0
  0
LINE
  8
0
 62
     0
 10
242.481
 20
90.3993
 30
0.0
 11
242.813
 21
90.0673
 31
0.0
  0
LINE
  8
0
 62
     0
 10
242.813
 20
90.0673
 30
0.0
 11
243.231
 21
89.855
 31
0.0
  0
LINE
  8
0
 62
     0
 10
243.231
 20
89.855
 30
0.0
 11
243.695
 21
89.7805
 31
0.0
  0
LINE
  8
0
 62
     0
 10
243.695
 20
89.7805
 30
0.0
 11
244.158
 21
89.855
 31
0.0
  0
LINE
  8
0
 62
     0
 10
244.158
 20
89.855
 30
0.0
 11
244.576
 21
90.0673
 31
0.0
  0
LINE
  8
0
 62
     0
 10
244.576
 20
90.0673
 30
0.0
 11
244.908
 21
90.3993
 31
0.0
  0
LINE
  8
0
 62
     0
 10
244.908
 20
90.3993
 30
0.0
 11
245.121
 21
90.8184
 31
0.0
  0
LINE
  8
0
 62
     0
 10
245.121
 20
90.8184
 30
0.0
 11
245.194
 21
91.2813
 31
0.0
  0
LINE
  8
0
 62
     0
 10
245.194
 20
91.2813
 30
0.0
 11
245.121
 21
91.7444
 31
0.0
  0
LINE
  8
0
 62
     0
 10
245.121
 20
91.7444
 30
0.0
 11
244.908
 21
92.1632
 31
0.0
  0
LINE
  8
0
 62
     0
 10
244.908
 20
92.1632
 30
0.0
 11
244.576
 21
92.4952
 31
0.0
  0
LINE
  8
0
 62
     0
 10
244.576
 20
92.4952
 30
0.0
 11
244.158
 21
92.7075
 31
0.0
  0
LINE
  8
0
 62
     0
 10
244.158
 20
92.7075
 30
0.0
 11
243.695
 21
92.7806
 31
0.0
  0
LINE
  8
0
 62
     0
 10
243.695
 20
92.7806
 30
0.0
 11
243.231
 21
92.7075
 31
0.0
  0
LINE
  8
0
 62
     0
 10
4.63021
 20
92.7075
 30
0.0
 11
4.21128
 21
92.4952
 31
0.0
  0
LINE
  8
0
 62
     0
 10
4.21128
 20
92.4952
 30
0.0
 11
3.87918
 21
92.1632
 31
0.0
  0
LINE
  8
0
 62
     0
 10
3.87918
 20
92.1632
 30
0.0
 11
3.66695
 21
91.7444
 31
0.0
  0
LINE
  8
0
 62
     0
 10
3.66695
 20
91.7444
 30
0.0
 11
3.59392
 21
91.2813
 31
0.0
  0
LINE
  8
0
 62
     0
 10
3.59392
 20
91.2813
 30
0.0
 11
3.66695
 21
90.8184
 31
0.0
  0
LINE
  8
0
 62
     0
 10
3.66695
 20
90.8184
 30
0.0
 11
3.87918
 21
90.3993
 31
0.0
  0
LINE
  8
0
 62
     0
 10
3.87918
 20
90.3993
 30
0.0
 11
4.21128
 21
90.0673
 31
0.0
  0
LINE
  8
0
 62
     0
 10
4.21128
 20
90.0673
 30
0.0
 11
4.63021
 21
89.855
 31
0.0
  0
LINE
  8
0
 62
     0
 10
4.63021
 20
89.855
 30
0.0
 11
5.09323
 21
89.7805
 31
0.0
  0
LINE
  8
0
 62
     0
 10
5.09323
 20
89.7805
 30
0.0
 11
5.55625
 21
89.855
 31
0.0
  0
LINE
  8
0
 62
     0
 10
5.55625
 20
89.855
 30
0.0
 11
5.97517
 21
90.0673
 31
0.0
  0
LINE
  8
0
 62
     0
 10
5.97517
 20
90.0673
 30
0.0
 11
6.30728
 21
90.3993
 31
0.0
  0
LINE
  8
0
 62
     0
 10
6.30728
 20
90.3993
 30
0.0
 11
6.51951
 21
90.8184
 31
0.0
  0
LINE
  8
0
 62
     0
 10
6.51951
 20
90.8184
 30
0.0
 11
6.59391
 21
91.2813
 31
0.0
  0
LINE
  8
0
 62
     0
 10
6.59391
 20
91.2813
 30
0.0
 11
6.51951
 21
91.7444
 31
0.0
  0
LINE
  8
0
 62
     0
 10
6.51951
 20
91.7444
 30
0.0
 11
6.30728
 21
92.1632
 31
0.0
  0
LINE
  8
0
 62
     0
 10
6.30728
 20
92.1632
 30
0.0
 11
5.97517
 21
92.4952
 31
0.0
  0
LINE
  8
0
 62
     0
 10
5.97517
 20
92.4952
 30
0.0
 11
5.55625
 21
92.7075
 31
0.0
  0
LINE
  8
0
 62
     0
 10
5.55625
 20
92.7075
 30
0.0
 11
5.09323
 21
92.7806
 31
0.0
  0
LINE
  8
0
 62
     0
 10
5.09323
 20
92.7806
 30
0.0
 11
4.63021
 21
92.7075
 31
0.0
  0
ENDSEC
  0
EOF
