  0
SECTION
  2
HEADER
  9
$ACADVER
  1
AC1009
  9
$EXTMIN
 10
0.0
 20
0.0
 30
0.0
  9
$EXTMAX
 10
1000.0
 20
1000.0
 30
0.0
  9
$FILLMODE
 70
 0
  9
$SPLFRAME
 70
 1
  0
ENDSEC
  0
SECTION
  2
TABLES
  0
TABLE
  2
LAYER
 70
1
  0
LAYER
  2
0
 70
     0
 62
     7
  6
CONTINUOUS
  0
ENDTAB
  0
ENDSEC
  0
SECTION
  2
ENTITIES
  0
LINE
  8
0
 62
     0
 10
0.0937066
 20
96.2808
 30
0.0
 11
248.695
 21
96.2808
 31
0.0
  0
LINE
  8
0
 62
     0
 10
248.695
 20
96.2808
 30
0.0
 11
248.695
 21
0.0799264
 31
0.0
  0
LINE
  8
0
 62
     0
 10
248.695
 20
0.0799264
 30
0.0
 11
0.0937066
 21
0.0799264
 31
0.0
  0
LINE
  8
0
 62
     0
 10
0.0937066
 20
0.0799264
 30
0.0
 11
0.0937066
 21
96.2808
 31
0.0
  0
LINE
  8
0
 62
     0
 10
243.231
 20
6.50709
 30
0.0
 11
242.813
 21
6.29348
 31
0.0
  0
LINE
  8
0
 62
     0
 10
242.813
 20
6.29348
 30
0.0
 11
242.481
 21
5.96138
 31
0.0
  0
LINE
  8
0
 62
     0
 10
242.481
 20
5.96138
 30
0.0
 11
242.267
 21
5.54383
 31
0.0
  0
LINE
  8
0
 62
     0
 10
242.267
 20
5.54383
 30
0.0
 11
242.194
 21
5.07944
 31
0.0
  0
LINE
  8
0
 62
     0
 10
242.194
 20
5.07944
 30
0.0
 11
242.267
 21
4.61641
 31
0.0
  0
LINE
  8
0
 62
     0
 10
242.267
 20
4.61641
 30
0.0
 11
242.481
 21
4.19887
 31
0.0
  0
LINE
  8
0
 62
     0
 10
242.481
 20
4.19887
 30
0.0
 11
242.813
 21
3.86676
 31
0.0
  0
LINE
  8
0
 62
     0
 10
242.813
 20
3.86676
 30
0.0
 11
243.231
 21
3.65319
 31
0.0
  0
LINE
  8
0
 62
     0
 10
243.231
 20
3.65319
 30
0.0
 11
243.695
 21
3.58013
 31
0.0
  0
LINE
  8
0
 62
     0
 10
243.695
 20
3.58013
 30
0.0
 11
244.158
 21
3.65319
 31
0.0
  0
LINE
  8
0
 62
     0
 10
244.158
 20
3.65319
 30
0.0
 11
244.576
 21
3.86676
 31
0.0
  0
LINE
  8
0
 62
     0
 10
244.576
 20
3.86676
 30
0.0
 11
244.908
 21
4.19887
 31
0.0
  0
LINE
  8
0
 62
     0
 10
244.908
 20
4.19887
 30
0.0
 11
245.121
 21
4.61641
 31
0.0
  0
LINE
  8
0
 62
     0
 10
245.121
 20
4.61641
 30
0.0
 11
245.194
 21
5.07944
 31
0.0
  0
LINE
  8
0
 62
     0
 10
245.194
 20
5.07944
 30
0.0
 11
245.121
 21
5.54383
 31
0.0
  0
LINE
  8
0
 62
     0
 10
245.121
 20
5.54383
 30
0.0
 11
244.908
 21
5.96138
 31
0.0
  0
LINE
  8
0
 62
     0
 10
244.908
 20
5.96138
 30
0.0
 11
244.576
 21
6.29348
 31
0.0
  0
LINE
  8
0
 62
     0
 10
244.576
 20
6.29348
 30
0.0
 11
244.158
 21
6.50709
 31
0.0
  0
LINE
  8
0
 62
     0
 10
244.158
 20
6.50709
 30
0.0
 11
243.695
 21
6.58012
 31
0.0
  0
LINE
  8
0
 62
     0
 10
243.695
 20
6.58012
 30
0.0
 11
243.231
 21
6.50709
 31
0.0
  0
LINE
  8
0
 62
     0
 10
4.63021
 20
6.50709
 30
0.0
 11
4.21128
 21
6.29348
 31
0.0
  0
LINE
  8
0
 62
     0
 10
4.21128
 20
6.29348
 30
0.0
 11
3.87918
 21
5.96138
 31
0.0
  0
LINE
  8
0
 62
     0
 10
3.87918
 20
5.96138
 30
0.0
 11
3.66695
 21
5.54383
 31
0.0
  0
LINE
  8
0
 62
     0
 10
3.66695
 20
5.54383
 30
0.0
 11
3.59392
 21
5.07944
 31
0.0
  0
LINE
  8
0
 62
     0
 10
3.59392
 20
5.07944
 30
0.0
 11
3.66695
 21
4.61641
 31
0.0
  0
LINE
  8
0
 62
     0
 10
3.66695
 20
4.61641
 30
0.0
 11
3.87918
 21
4.19887
 31
0.0
  0
LINE
  8
0
 62
     0
 10
3.87918
 20
4.19887
 30
0.0
 11
4.21128
 21
3.86676
 31
0.0
  0
LINE
  8
0
 62
     0
 10
4.21128
 20
3.86676
 30
0.0
 11
4.63021
 21
3.65319
 31
0.0
  0
LINE
  8
0
 62
     0
 10
4.63021
 20
3.65319
 30
0.0
 11
5.09323
 21
3.58013
 31
0.0
  0
LINE
  8
0
 62
     0
 10
5.09323
 20
3.58013
 30
0.0
 11
5.55625
 21
3.65319
 31
0.0
  0
LINE
  8
0
 62
     0
 10
5.55625
 20
3.65319
 30
0.0
 11
5.97517
 21
3.86676
 31
0.0
  0
LINE
  8
0
 62
     0
 10
5.97517
 20
3.86676
 30
0.0
 11
6.30728
 21
4.19887
 31
0.0
  0
LINE
  8
0
 62
     0
 10
6.30728
 20
4.19887
 30
0.0
 11
6.51951
 21
4.61641
 31
0.0
  0
LINE
  8
0
 62
     0
 10
6.51951
 20
4.61641
 30
0.0
 11
6.59391
 21
5.07944
 31
0.0
  0
LINE
  8
0
 62
     0
 10
6.59391
 20
5.07944
 30
0.0
 11
6.51951
 21
5.54383
 31
0.0
  0
LINE
  8
0
 62
     0
 10
6.51951
 20
5.54383
 30
0.0
 11
6.30728
 21
5.96138
 31
0.0
  0
LINE
  8
0
 62
     0
 10
6.30728
 20
5.96138
 30
0.0
 11
5.97517
 21
6.29348
 31
0.0
  0
LINE
  8
0
 62
     0
 10
5.97517
 20
6.29348
 30
0.0
 11
5.55625
 21
6.50709
 31
0.0
  0
LINE
  8
0
 62
     0
 10
5.55625
 20
6.50709
 30
0.0
 11
5.09323
 21
6.58012
 31
0.0
  0
LINE
  8
0
 62
     0
 10
5.09323
 20
6.58012
 30
0.0
 11
4.63021
 21
6.50709
 31
0.0
  0
LINE
  8
0
 62
     0
 10
117.394
 20
26.6058
 30
0.0
 11
117.394
 21
25.6053
 31
0.0
  0
LINE
  8
0
 62
     0
 10
117.394
 20
25.6053
 30
0.0
 11
116.593
 21
25.6053
 31
0.0
  0
LINE
  8
0
 62
     0
 10
116.593
 20
25.6053
 30
0.0
 11
116.593
 21
22.5061
 31
0.0
  0
LINE
  8
0
 62
     0
 10
116.593
 20
22.5061
 30
0.0
 11
117.394
 21
22.5061
 31
0.0
  0
LINE
  8
0
 62
     0
 10
117.394
 20
22.5061
 30
0.0
 11
117.394
 21
21.9053
 31
0.0
  0
LINE
  8
0
 62
     0
 10
117.394
 20
21.9053
 30
0.0
 11
115.868
 21
21.9053
 31
0.0
  0
LINE
  8
0
 62
     0
 10
115.868
 20
21.9053
 30
0.0
 11
115.868
 21
25.1354
 31
0.0
  0
LINE
  8
0
 62
     0
 10
115.868
 20
25.1354
 30
0.0
 11
109.119
 21
25.1354
 31
0.0
  0
LINE
  8
0
 62
     0
 10
109.119
 20
25.1354
 30
0.0
 11
109.119
 21
21.9053
 31
0.0
  0
LINE
  8
0
 62
     0
 10
109.119
 20
21.9053
 30
0.0
 11
108.293
 21
21.9053
 31
0.0
  0
LINE
  8
0
 62
     0
 10
108.293
 20
21.9053
 30
0.0
 11
108.293
 21
19.1051
 31
0.0
  0
LINE
  8
0
 62
     0
 10
108.293
 20
19.1051
 30
0.0
 11
109.119
 21
19.1051
 31
0.0
  0
LINE
  8
0
 62
     0
 10
109.119
 20
19.1051
 30
0.0
 11
109.119
 21
12.835
 31
0.0
  0
LINE
  8
0
 62
     0
 10
109.119
 20
12.835
 30
0.0
 11
110.844
 21
12.835
 31
0.0
  0
LINE
  8
0
 62
     0
 10
110.844
 20
12.835
 30
0.0
 11
110.844
 21
11.6362
 31
0.0
  0
LINE
  8
0
 62
     0
 10
110.844
 20
11.6362
 30
0.0
 11
114.144
 21
11.6362
 31
0.0
  0
LINE
  8
0
 62
     0
 10
114.144
 20
11.6362
 30
0.0
 11
114.144
 21
12.835
 31
0.0
  0
LINE
  8
0
 62
     0
 10
114.144
 20
12.835
 30
0.0
 11
115.868
 21
12.835
 31
0.0
  0
LINE
  8
0
 62
     0
 10
115.868
 20
12.835
 30
0.0
 11
115.868
 21
17.3054
 31
0.0
  0
LINE
  8
0
 62
     0
 10
115.868
 20
17.3054
 30
0.0
 11
117.394
 21
17.3054
 31
0.0
  0
LINE
  8
0
 62
     0
 10
117.394
 20
17.3054
 30
0.0
 11
117.394
 21
16.706
 31
0.0
  0
LINE
  8
0
 62
     0
 10
117.394
 20
16.706
 30
0.0
 11
116.593
 21
16.706
 31
0.0
  0
LINE
  8
0
 62
     0
 10
116.593
 20
16.706
 30
0.0
 11
116.593
 21
13.6054
 31
0.0
  0
LINE
  8
0
 62
     0
 10
116.593
 20
13.6054
 30
0.0
 11
117.394
 21
13.6054
 31
0.0
  0
LINE
  8
0
 62
     0
 10
117.394
 20
13.6054
 30
0.0
 11
117.394
 21
12.6063
 31
0.0
  0
LINE
  8
0
 62
     0
 10
117.394
 20
12.6063
 30
0.0
 11
131.393
 21
12.6063
 31
0.0
  0
LINE
  8
0
 62
     0
 10
131.393
 20
12.6063
 30
0.0
 11
131.393
 21
13.6054
 31
0.0
  0
LINE
  8
0
 62
     0
 10
131.393
 20
13.6054
 30
0.0
 11
132.194
 21
13.6054
 31
0.0
  0
LINE
  8
0
 62
     0
 10
132.194
 20
13.6054
 30
0.0
 11
132.194
 21
16.706
 31
0.0
  0
LINE
  8
0
 62
     0
 10
132.194
 20
16.706
 30
0.0
 11
131.393
 21
16.706
 31
0.0
  0
LINE
  8
0
 62
     0
 10
131.393
 20
16.706
 30
0.0
 11
131.393
 21
17.3054
 31
0.0
  0
LINE
  8
0
 62
     0
 10
131.393
 20
17.3054
 30
0.0
 11
132.919
 21
17.3054
 31
0.0
  0
LINE
  8
0
 62
     0
 10
132.919
 20
17.3054
 30
0.0
 11
132.919
 21
12.835
 31
0.0
  0
LINE
  8
0
 62
     0
 10
132.919
 20
12.835
 30
0.0
 11
134.644
 21
12.835
 31
0.0
  0
LINE
  8
0
 62
     0
 10
134.644
 20
12.835
 30
0.0
 11
134.644
 21
11.6362
 31
0.0
  0
LINE
  8
0
 62
     0
 10
134.644
 20
11.6362
 30
0.0
 11
137.944
 21
11.6362
 31
0.0
  0
LINE
  8
0
 62
     0
 10
137.944
 20
11.6362
 30
0.0
 11
137.944
 21
12.835
 31
0.0
  0
LINE
  8
0
 62
     0
 10
137.944
 20
12.835
 30
0.0
 11
139.668
 21
12.835
 31
0.0
  0
LINE
  8
0
 62
     0
 10
139.668
 20
12.835
 30
0.0
 11
139.668
 21
19.1051
 31
0.0
  0
LINE
  8
0
 62
     0
 10
139.668
 20
19.1051
 30
0.0
 11
140.494
 21
19.1051
 31
0.0
  0
LINE
  8
0
 62
     0
 10
140.494
 20
19.1051
 30
0.0
 11
140.494
 21
21.9053
 31
0.0
  0
LINE
  8
0
 62
     0
 10
140.494
 20
21.9053
 30
0.0
 11
139.668
 21
21.9053
 31
0.0
  0
LINE
  8
0
 62
     0
 10
139.668
 20
21.9053
 30
0.0
 11
139.668
 21
25.1354
 31
0.0
  0
LINE
  8
0
 62
     0
 10
139.668
 20
25.1354
 30
0.0
 11
132.919
 21
25.1354
 31
0.0
  0
LINE
  8
0
 62
     0
 10
132.919
 20
25.1354
 30
0.0
 11
132.919
 21
21.9053
 31
0.0
  0
LINE
  8
0
 62
     0
 10
132.919
 20
21.9053
 30
0.0
 11
131.393
 21
21.9053
 31
0.0
  0
LINE
  8
0
 62
     0
 10
131.393
 20
21.9053
 30
0.0
 11
131.393
 21
22.5061
 31
0.0
  0
LINE
  8
0
 62
     0
 10
131.393
 20
22.5061
 30
0.0
 11
132.194
 21
22.5061
 31
0.0
  0
LINE
  8
0
 62
     0
 10
132.194
 20
22.5061
 30
0.0
 11
132.194
 21
25.6053
 31
0.0
  0
LINE
  8
0
 62
     0
 10
132.194
 20
25.6053
 30
0.0
 11
131.393
 21
25.6053
 31
0.0
  0
LINE
  8
0
 62
     0
 10
131.393
 20
25.6053
 30
0.0
 11
131.393
 21
26.6058
 31
0.0
  0
LINE
  8
0
 62
     0
 10
131.393
 20
26.6058
 30
0.0
 11
117.394
 21
26.6058
 31
0.0
  0
LINE
  8
0
 62
     0
 10
12.6187
 20
26.6058
 30
0.0
 11
12.6187
 21
25.6053
 31
0.0
  0
LINE
  8
0
 62
     0
 10
12.6187
 20
25.6053
 30
0.0
 11
11.8181
 21
25.6053
 31
0.0
  0
LINE
  8
0
 62
     0
 10
11.8181
 20
25.6053
 30
0.0
 11
11.8181
 21
22.5061
 31
0.0
  0
LINE
  8
0
 62
     0
 10
11.8181
 20
22.5061
 30
0.0
 11
12.6187
 21
22.5061
 31
0.0
  0
LINE
  8
0
 62
     0
 10
12.6187
 20
22.5061
 30
0.0
 11
12.6187
 21
16.706
 31
0.0
  0
LINE
  8
0
 62
     0
 10
12.6187
 20
16.706
 30
0.0
 11
11.8181
 21
16.706
 31
0.0
  0
LINE
  8
0
 62
     0
 10
11.8181
 20
16.706
 30
0.0
 11
11.8181
 21
13.6054
 31
0.0
  0
LINE
  8
0
 62
     0
 10
11.8181
 20
13.6054
 30
0.0
 11
12.6187
 21
13.6054
 31
0.0
  0
LINE
  8
0
 62
     0
 10
12.6187
 20
13.6054
 30
0.0
 11
12.6187
 21
12.6063
 31
0.0
  0
LINE
  8
0
 62
     0
 10
12.6187
 20
12.6063
 30
0.0
 11
26.6182
 21
12.6063
 31
0.0
  0
LINE
  8
0
 62
     0
 10
26.6182
 20
12.6063
 30
0.0
 11
26.6182
 21
13.6054
 31
0.0
  0
LINE
  8
0
 62
     0
 10
26.6182
 20
13.6054
 30
0.0
 11
27.4161
 21
13.6054
 31
0.0
  0
LINE
  8
0
 62
     0
 10
27.4161
 20
13.6054
 30
0.0
 11
27.4161
 21
16.706
 31
0.0
  0
LINE
  8
0
 62
     0
 10
27.4161
 20
16.706
 30
0.0
 11
26.6182
 21
16.706
 31
0.0
  0
LINE
  8
0
 62
     0
 10
26.6182
 20
16.706
 30
0.0
 11
26.6182
 21
22.5061
 31
0.0
  0
LINE
  8
0
 62
     0
 10
26.6182
 20
22.5061
 30
0.0
 11
27.4161
 21
22.5061
 31
0.0
  0
LINE
  8
0
 62
     0
 10
27.4161
 20
22.5061
 30
0.0
 11
27.4161
 21
25.6053
 31
0.0
  0
LINE
  8
0
 62
     0
 10
27.4161
 20
25.6053
 30
0.0
 11
26.6182
 21
25.6053
 31
0.0
  0
LINE
  8
0
 62
     0
 10
26.6182
 20
25.6053
 30
0.0
 11
26.6182
 21
26.6058
 31
0.0
  0
LINE
  8
0
 62
     0
 10
26.6182
 20
26.6058
 30
0.0
 11
12.6187
 21
26.6058
 31
0.0
  0
LINE
  8
0
 62
     0
 10
31.6687
 20
26.6058
 30
0.0
 11
31.6687
 21
25.6053
 31
0.0
  0
LINE
  8
0
 62
     0
 10
31.6687
 20
25.6053
 30
0.0
 11
30.8694
 21
25.6053
 31
0.0
  0
LINE
  8
0
 62
     0
 10
30.8694
 20
25.6053
 30
0.0
 11
30.8694
 21
22.5061
 31
0.0
  0
LINE
  8
0
 62
     0
 10
30.8694
 20
22.5061
 30
0.0
 11
31.6687
 21
22.5061
 31
0.0
  0
LINE
  8
0
 62
     0
 10
31.6687
 20
22.5061
 30
0.0
 11
31.6687
 21
16.706
 31
0.0
  0
LINE
  8
0
 62
     0
 10
31.6687
 20
16.706
 30
0.0
 11
30.8694
 21
16.706
 31
0.0
  0
LINE
  8
0
 62
     0
 10
30.8694
 20
16.706
 30
0.0
 11
30.8694
 21
13.6054
 31
0.0
  0
LINE
  8
0
 62
     0
 10
30.8694
 20
13.6054
 30
0.0
 11
31.6687
 21
13.6054
 31
0.0
  0
LINE
  8
0
 62
     0
 10
31.6687
 20
13.6054
 30
0.0
 11
31.6687
 21
12.6063
 31
0.0
  0
LINE
  8
0
 62
     0
 10
31.6687
 20
12.6063
 30
0.0
 11
45.6681
 21
12.6063
 31
0.0
  0
LINE
  8
0
 62
     0
 10
45.6681
 20
12.6063
 30
0.0
 11
45.6681
 21
13.6054
 31
0.0
  0
LINE
  8
0
 62
     0
 10
45.6681
 20
13.6054
 30
0.0
 11
46.4689
 21
13.6054
 31
0.0
  0
LINE
  8
0
 62
     0
 10
46.4689
 20
13.6054
 30
0.0
 11
46.4689
 21
16.706
 31
0.0
  0
LINE
  8
0
 62
     0
 10
46.4689
 20
16.706
 30
0.0
 11
45.6681
 21
16.706
 31
0.0
  0
LINE
  8
0
 62
     0
 10
45.6681
 20
16.706
 30
0.0
 11
45.6681
 21
22.5061
 31
0.0
  0
LINE
  8
0
 62
     0
 10
45.6681
 20
22.5061
 30
0.0
 11
46.4689
 21
22.5061
 31
0.0
  0
LINE
  8
0
 62
     0
 10
46.4689
 20
22.5061
 30
0.0
 11
46.4689
 21
25.6053
 31
0.0
  0
LINE
  8
0
 62
     0
 10
46.4689
 20
25.6053
 30
0.0
 11
45.6681
 21
25.6053
 31
0.0
  0
LINE
  8
0
 62
     0
 10
45.6681
 20
25.6053
 30
0.0
 11
45.6681
 21
26.6058
 31
0.0
  0
LINE
  8
0
 62
     0
 10
45.6681
 20
26.6058
 30
0.0
 11
31.6687
 21
26.6058
 31
0.0
  0
LINE
  8
0
 62
     0
 10
50.7189
 20
26.6058
 30
0.0
 11
50.7189
 21
25.6053
 31
0.0
  0
LINE
  8
0
 62
     0
 10
50.7189
 20
25.6053
 30
0.0
 11
49.9195
 21
25.6053
 31
0.0
  0
LINE
  8
0
 62
     0
 10
49.9195
 20
25.6053
 30
0.0
 11
49.9195
 21
22.5061
 31
0.0
  0
LINE
  8
0
 62
     0
 10
49.9195
 20
22.5061
 30
0.0
 11
50.7189
 21
22.5061
 31
0.0
  0
LINE
  8
0
 62
     0
 10
50.7189
 20
22.5061
 30
0.0
 11
50.7189
 21
16.706
 31
0.0
  0
LINE
  8
0
 62
     0
 10
50.7189
 20
16.706
 30
0.0
 11
49.9195
 21
16.706
 31
0.0
  0
LINE
  8
0
 62
     0
 10
49.9195
 20
16.706
 30
0.0
 11
49.9195
 21
13.6054
 31
0.0
  0
LINE
  8
0
 62
     0
 10
49.9195
 20
13.6054
 30
0.0
 11
50.7189
 21
13.6054
 31
0.0
  0
LINE
  8
0
 62
     0
 10
50.7189
 20
13.6054
 30
0.0
 11
50.7189
 21
12.6063
 31
0.0
  0
LINE
  8
0
 62
     0
 10
50.7189
 20
12.6063
 30
0.0
 11
64.7181
 21
12.6063
 31
0.0
  0
LINE
  8
0
 62
     0
 10
64.7181
 20
12.6063
 30
0.0
 11
64.7181
 21
13.6054
 31
0.0
  0
LINE
  8
0
 62
     0
 10
64.7181
 20
13.6054
 30
0.0
 11
65.519
 21
13.6054
 31
0.0
  0
LINE
  8
0
 62
     0
 10
65.519
 20
13.6054
 30
0.0
 11
65.519
 21
16.706
 31
0.0
  0
LINE
  8
0
 62
     0
 10
65.519
 20
16.706
 30
0.0
 11
64.7181
 21
16.706
 31
0.0
  0
LINE
  8
0
 62
     0
 10
64.7181
 20
16.706
 30
0.0
 11
64.7181
 21
22.5061
 31
0.0
  0
LINE
  8
0
 62
     0
 10
64.7181
 20
22.5061
 30
0.0
 11
65.519
 21
22.5061
 31
0.0
  0
LINE
  8
0
 62
     0
 10
65.519
 20
22.5061
 30
0.0
 11
65.519
 21
25.6053
 31
0.0
  0
LINE
  8
0
 62
     0
 10
65.519
 20
25.6053
 30
0.0
 11
64.7181
 21
25.6053
 31
0.0
  0
LINE
  8
0
 62
     0
 10
64.7181
 20
25.6053
 30
0.0
 11
64.7181
 21
26.6058
 31
0.0
  0
LINE
  8
0
 62
     0
 10
64.7181
 20
26.6058
 30
0.0
 11
50.7189
 21
26.6058
 31
0.0
  0
LINE
  8
0
 62
     0
 10
69.7689
 20
26.6058
 30
0.0
 11
69.7689
 21
25.6053
 31
0.0
  0
LINE
  8
0
 62
     0
 10
69.7689
 20
25.6053
 30
0.0
 11
68.9695
 21
25.6053
 31
0.0
  0
LINE
  8
0
 62
     0
 10
68.9695
 20
25.6053
 30
0.0
 11
68.9695
 21
22.5061
 31
0.0
  0
LINE
  8
0
 62
     0
 10
68.9695
 20
22.5061
 30
0.0
 11
69.7689
 21
22.5061
 31
0.0
  0
LINE
  8
0
 62
     0
 10
69.7689
 20
22.5061
 30
0.0
 11
69.7689
 21
16.706
 31
0.0
  0
LINE
  8
0
 62
     0
 10
69.7689
 20
16.706
 30
0.0
 11
68.9695
 21
16.706
 31
0.0
  0
LINE
  8
0
 62
     0
 10
68.9695
 20
16.706
 30
0.0
 11
68.9695
 21
13.6054
 31
0.0
  0
LINE
  8
0
 62
     0
 10
68.9695
 20
13.6054
 30
0.0
 11
69.7689
 21
13.6054
 31
0.0
  0
LINE
  8
0
 62
     0
 10
69.7689
 20
13.6054
 30
0.0
 11
69.7689
 21
12.6063
 31
0.0
  0
LINE
  8
0
 62
     0
 10
69.7689
 20
12.6063
 30
0.0
 11
83.7681
 21
12.6063
 31
0.0
  0
LINE
  8
0
 62
     0
 10
83.7681
 20
12.6063
 30
0.0
 11
83.7681
 21
13.6054
 31
0.0
  0
LINE
  8
0
 62
     0
 10
83.7681
 20
13.6054
 30
0.0
 11
84.569
 21
13.6054
 31
0.0
  0
LINE
  8
0
 62
     0
 10
84.569
 20
13.6054
 30
0.0
 11
84.569
 21
16.706
 31
0.0
  0
LINE
  8
0
 62
     0
 10
84.569
 20
16.706
 30
0.0
 11
83.7681
 21
16.706
 31
0.0
  0
LINE
  8
0
 62
     0
 10
83.7681
 20
16.706
 30
0.0
 11
83.7681
 21
22.5061
 31
0.0
  0
LINE
  8
0
 62
     0
 10
83.7681
 20
22.5061
 30
0.0
 11
84.569
 21
22.5061
 31
0.0
  0
LINE
  8
0
 62
     0
 10
84.569
 20
22.5061
 30
0.0
 11
84.569
 21
25.6053
 31
0.0
  0
LINE
  8
0
 62
     0
 10
84.569
 20
25.6053
 30
0.0
 11
83.7681
 21
25.6053
 31
0.0
  0
LINE
  8
0
 62
     0
 10
83.7681
 20
25.6053
 30
0.0
 11
83.7681
 21
26.6058
 31
0.0
  0
LINE
  8
0
 62
     0
 10
83.7681
 20
26.6058
 30
0.0
 11
69.7689
 21
26.6058
 31
0.0
  0
LINE
  8
0
 62
     0
 10
88.8189
 20
26.6058
 30
0.0
 11
88.8189
 21
25.6053
 31
0.0
  0
LINE
  8
0
 62
     0
 10
88.8189
 20
25.6053
 30
0.0
 11
88.0195
 21
25.6053
 31
0.0
  0
LINE
  8
0
 62
     0
 10
88.0195
 20
25.6053
 30
0.0
 11
88.0195
 21
22.5061
 31
0.0
  0
LINE
  8
0
 62
     0
 10
88.0195
 20
22.5061
 30
0.0
 11
88.8189
 21
22.5061
 31
0.0
  0
LINE
  8
0
 62
     0
 10
88.8189
 20
22.5061
 30
0.0
 11
88.8189
 21
16.706
 31
0.0
  0
LINE
  8
0
 62
     0
 10
88.8189
 20
16.706
 30
0.0
 11
88.0195
 21
16.706
 31
0.0
  0
LINE
  8
0
 62
     0
 10
88.0195
 20
16.706
 30
0.0
 11
88.0195
 21
13.6054
 31
0.0
  0
LINE
  8
0
 62
     0
 10
88.0195
 20
13.6054
 30
0.0
 11
88.8189
 21
13.6054
 31
0.0
  0
LINE
  8
0
 62
     0
 10
88.8189
 20
13.6054
 30
0.0
 11
88.8189
 21
12.6063
 31
0.0
  0
LINE
  8
0
 62
     0
 10
88.8189
 20
12.6063
 30
0.0
 11
102.818
 21
12.6063
 31
0.0
  0
LINE
  8
0
 62
     0
 10
102.818
 20
12.6063
 30
0.0
 11
102.818
 21
13.6054
 31
0.0
  0
LINE
  8
0
 62
     0
 10
102.818
 20
13.6054
 30
0.0
 11
103.618
 21
13.6054
 31
0.0
  0
LINE
  8
0
 62
     0
 10
103.618
 20
13.6054
 30
0.0
 11
103.618
 21
16.706
 31
0.0
  0
LINE
  8
0
 62
     0
 10
103.618
 20
16.706
 30
0.0
 11
102.818
 21
16.706
 31
0.0
  0
LINE
  8
0
 62
     0
 10
102.818
 20
16.706
 30
0.0
 11
102.818
 21
22.5061
 31
0.0
  0
LINE
  8
0
 62
     0
 10
102.818
 20
22.5061
 30
0.0
 11
103.618
 21
22.5061
 31
0.0
  0
LINE
  8
0
 62
     0
 10
103.618
 20
22.5061
 30
0.0
 11
103.618
 21
25.6053
 31
0.0
  0
LINE
  8
0
 62
     0
 10
103.618
 20
25.6053
 30
0.0
 11
102.818
 21
25.6053
 31
0.0
  0
LINE
  8
0
 62
     0
 10
102.818
 20
25.6053
 30
0.0
 11
102.818
 21
26.6058
 31
0.0
  0
LINE
  8
0
 62
     0
 10
102.818
 20
26.6058
 30
0.0
 11
88.8189
 21
26.6058
 31
0.0
  0
LINE
  8
0
 62
     0
 10
145.969
 20
26.6058
 30
0.0
 11
145.969
 21
25.6053
 31
0.0
  0
LINE
  8
0
 62
     0
 10
145.969
 20
25.6053
 30
0.0
 11
145.168
 21
25.6053
 31
0.0
  0
LINE
  8
0
 62
     0
 10
145.168
 20
25.6053
 30
0.0
 11
145.168
 21
22.5061
 31
0.0
  0
LINE
  8
0
 62
     0
 10
145.168
 20
22.5061
 30
0.0
 11
145.969
 21
22.5061
 31
0.0
  0
LINE
  8
0
 62
     0
 10
145.969
 20
22.5061
 30
0.0
 11
145.969
 21
16.706
 31
0.0
  0
LINE
  8
0
 62
     0
 10
145.969
 20
16.706
 30
0.0
 11
145.168
 21
16.706
 31
0.0
  0
LINE
  8
0
 62
     0
 10
145.168
 20
16.706
 30
0.0
 11
145.168
 21
13.6054
 31
0.0
  0
LINE
  8
0
 62
     0
 10
145.168
 20
13.6054
 30
0.0
 11
145.969
 21
13.6054
 31
0.0
  0
LINE
  8
0
 62
     0
 10
145.969
 20
13.6054
 30
0.0
 11
145.969
 21
12.6063
 31
0.0
  0
LINE
  8
0
 62
     0
 10
145.969
 20
12.6063
 30
0.0
 11
159.968
 21
12.6063
 31
0.0
  0
LINE
  8
0
 62
     0
 10
159.968
 20
12.6063
 30
0.0
 11
159.968
 21
13.6054
 31
0.0
  0
LINE
  8
0
 62
     0
 10
159.968
 20
13.6054
 30
0.0
 11
160.769
 21
13.6054
 31
0.0
  0
LINE
  8
0
 62
     0
 10
160.769
 20
13.6054
 30
0.0
 11
160.769
 21
16.706
 31
0.0
  0
LINE
  8
0
 62
     0
 10
160.769
 20
16.706
 30
0.0
 11
159.968
 21
16.706
 31
0.0
  0
LINE
  8
0
 62
     0
 10
159.968
 20
16.706
 30
0.0
 11
159.968
 21
22.5061
 31
0.0
  0
LINE
  8
0
 62
     0
 10
159.968
 20
22.5061
 30
0.0
 11
160.769
 21
22.5061
 31
0.0
  0
LINE
  8
0
 62
     0
 10
160.769
 20
22.5061
 30
0.0
 11
160.769
 21
25.6053
 31
0.0
  0
LINE
  8
0
 62
     0
 10
160.769
 20
25.6053
 30
0.0
 11
159.968
 21
25.6053
 31
0.0
  0
LINE
  8
0
 62
     0
 10
159.968
 20
25.6053
 30
0.0
 11
159.968
 21
26.6058
 31
0.0
  0
LINE
  8
0
 62
     0
 10
159.968
 20
26.6058
 30
0.0
 11
145.969
 21
26.6058
 31
0.0
  0
LINE
  8
0
 62
     0
 10
165.019
 20
26.6058
 30
0.0
 11
165.019
 21
25.6053
 31
0.0
  0
LINE
  8
0
 62
     0
 10
165.019
 20
25.6053
 30
0.0
 11
164.218
 21
25.6053
 31
0.0
  0
LINE
  8
0
 62
     0
 10
164.218
 20
25.6053
 30
0.0
 11
164.218
 21
22.5061
 31
0.0
  0
LINE
  8
0
 62
     0
 10
164.218
 20
22.5061
 30
0.0
 11
165.019
 21
22.5061
 31
0.0
  0
LINE
  8
0
 62
     0
 10
165.019
 20
22.5061
 30
0.0
 11
165.019
 21
16.706
 31
0.0
  0
LINE
  8
0
 62
     0
 10
165.019
 20
16.706
 30
0.0
 11
164.218
 21
16.706
 31
0.0
  0
LINE
  8
0
 62
     0
 10
164.218
 20
16.706
 30
0.0
 11
164.218
 21
13.6054
 31
0.0
  0
LINE
  8
0
 62
     0
 10
164.218
 20
13.6054
 30
0.0
 11
165.019
 21
13.6054
 31
0.0
  0
LINE
  8
0
 62
     0
 10
165.019
 20
13.6054
 30
0.0
 11
165.019
 21
12.6063
 31
0.0
  0
LINE
  8
0
 62
     0
 10
165.019
 20
12.6063
 30
0.0
 11
179.018
 21
12.6063
 31
0.0
  0
LINE
  8
0
 62
     0
 10
179.018
 20
12.6063
 30
0.0
 11
179.018
 21
13.6054
 31
0.0
  0
LINE
  8
0
 62
     0
 10
179.018
 20
13.6054
 30
0.0
 11
179.819
 21
13.6054
 31
0.0
  0
LINE
  8
0
 62
     0
 10
179.819
 20
13.6054
 30
0.0
 11
179.819
 21
16.706
 31
0.0
  0
LINE
  8
0
 62
     0
 10
179.819
 20
16.706
 30
0.0
 11
179.018
 21
16.706
 31
0.0
  0
LINE
  8
0
 62
     0
 10
179.018
 20
16.706
 30
0.0
 11
179.018
 21
22.5061
 31
0.0
  0
LINE
  8
0
 62
     0
 10
179.018
 20
22.5061
 30
0.0
 11
179.819
 21
22.5061
 31
0.0
  0
LINE
  8
0
 62
     0
 10
179.819
 20
22.5061
 30
0.0
 11
179.819
 21
25.6053
 31
0.0
  0
LINE
  8
0
 62
     0
 10
179.819
 20
25.6053
 30
0.0
 11
179.018
 21
25.6053
 31
0.0
  0
LINE
  8
0
 62
     0
 10
179.018
 20
25.6053
 30
0.0
 11
179.018
 21
26.6058
 31
0.0
  0
LINE
  8
0
 62
     0
 10
179.018
 20
26.6058
 30
0.0
 11
165.019
 21
26.6058
 31
0.0
  0
LINE
  8
0
 62
     0
 10
184.069
 20
26.6058
 30
0.0
 11
184.069
 21
25.6053
 31
0.0
  0
LINE
  8
0
 62
     0
 10
184.069
 20
25.6053
 30
0.0
 11
183.268
 21
25.6053
 31
0.0
  0
LINE
  8
0
 62
     0
 10
183.268
 20
25.6053
 30
0.0
 11
183.268
 21
22.5061
 31
0.0
  0
LINE
  8
0
 62
     0
 10
183.268
 20
22.5061
 30
0.0
 11
184.069
 21
22.5061
 31
0.0
  0
LINE
  8
0
 62
     0
 10
184.069
 20
22.5061
 30
0.0
 11
184.069
 21
16.706
 31
0.0
  0
LINE
  8
0
 62
     0
 10
184.069
 20
16.706
 30
0.0
 11
183.268
 21
16.706
 31
0.0
  0
LINE
  8
0
 62
     0
 10
183.268
 20
16.706
 30
0.0
 11
183.268
 21
13.6054
 31
0.0
  0
LINE
  8
0
 62
     0
 10
183.268
 20
13.6054
 30
0.0
 11
184.069
 21
13.6054
 31
0.0
  0
LINE
  8
0
 62
     0
 10
184.069
 20
13.6054
 30
0.0
 11
184.069
 21
12.6063
 31
0.0
  0
LINE
  8
0
 62
     0
 10
184.069
 20
12.6063
 30
0.0
 11
198.068
 21
12.6063
 31
0.0
  0
LINE
  8
0
 62
     0
 10
198.068
 20
12.6063
 30
0.0
 11
198.068
 21
13.6054
 31
0.0
  0
LINE
  8
0
 62
     0
 10
198.068
 20
13.6054
 30
0.0
 11
198.869
 21
13.6054
 31
0.0
  0
LINE
  8
0
 62
     0
 10
198.869
 20
13.6054
 30
0.0
 11
198.869
 21
16.706
 31
0.0
  0
LINE
  8
0
 62
     0
 10
198.869
 20
16.706
 30
0.0
 11
198.068
 21
16.706
 31
0.0
  0
LINE
  8
0
 62
     0
 10
198.068
 20
16.706
 30
0.0
 11
198.068
 21
22.5061
 31
0.0
  0
LINE
  8
0
 62
     0
 10
198.068
 20
22.5061
 30
0.0
 11
198.869
 21
22.5061
 31
0.0
  0
LINE
  8
0
 62
     0
 10
198.869
 20
22.5061
 30
0.0
 11
198.869
 21
25.6053
 31
0.0
  0
LINE
  8
0
 62
     0
 10
198.869
 20
25.6053
 30
0.0
 11
198.068
 21
25.6053
 31
0.0
  0
LINE
  8
0
 62
     0
 10
198.068
 20
25.6053
 30
0.0
 11
198.068
 21
26.6058
 31
0.0
  0
LINE
  8
0
 62
     0
 10
198.068
 20
26.6058
 30
0.0
 11
184.069
 21
26.6058
 31
0.0
  0
LINE
  8
0
 62
     0
 10
203.119
 20
26.6058
 30
0.0
 11
203.119
 21
25.6053
 31
0.0
  0
LINE
  8
0
 62
     0
 10
203.119
 20
25.6053
 30
0.0
 11
202.318
 21
25.6053
 31
0.0
  0
LINE
  8
0
 62
     0
 10
202.318
 20
25.6053
 30
0.0
 11
202.318
 21
22.5061
 31
0.0
  0
LINE
  8
0
 62
     0
 10
202.318
 20
22.5061
 30
0.0
 11
203.119
 21
22.5061
 31
0.0
  0
LINE
  8
0
 62
     0
 10
203.119
 20
22.5061
 30
0.0
 11
203.119
 21
16.706
 31
0.0
  0
LINE
  8
0
 62
     0
 10
203.119
 20
16.706
 30
0.0
 11
202.318
 21
16.706
 31
0.0
  0
LINE
  8
0
 62
     0
 10
202.318
 20
16.706
 30
0.0
 11
202.318
 21
13.6054
 31
0.0
  0
LINE
  8
0
 62
     0
 10
202.318
 20
13.6054
 30
0.0
 11
203.119
 21
13.6054
 31
0.0
  0
LINE
  8
0
 62
     0
 10
203.119
 20
13.6054
 30
0.0
 11
203.119
 21
12.6063
 31
0.0
  0
LINE
  8
0
 62
     0
 10
203.119
 20
12.6063
 30
0.0
 11
217.118
 21
12.6063
 31
0.0
  0
LINE
  8
0
 62
     0
 10
217.118
 20
12.6063
 30
0.0
 11
217.118
 21
13.6054
 31
0.0
  0
LINE
  8
0
 62
     0
 10
217.118
 20
13.6054
 30
0.0
 11
217.919
 21
13.6054
 31
0.0
  0
LINE
  8
0
 62
     0
 10
217.919
 20
13.6054
 30
0.0
 11
217.919
 21
16.706
 31
0.0
  0
LINE
  8
0
 62
     0
 10
217.919
 20
16.706
 30
0.0
 11
217.118
 21
16.706
 31
0.0
  0
LINE
  8
0
 62
     0
 10
217.118
 20
16.706
 30
0.0
 11
217.118
 21
22.5061
 31
0.0
  0
LINE
  8
0
 62
     0
 10
217.118
 20
22.5061
 30
0.0
 11
217.919
 21
22.5061
 31
0.0
  0
LINE
  8
0
 62
     0
 10
217.919
 20
22.5061
 30
0.0
 11
217.919
 21
25.6053
 31
0.0
  0
LINE
  8
0
 62
     0
 10
217.919
 20
25.6053
 30
0.0
 11
217.118
 21
25.6053
 31
0.0
  0
LINE
  8
0
 62
     0
 10
217.118
 20
25.6053
 30
0.0
 11
217.118
 21
26.6058
 31
0.0
  0
LINE
  8
0
 62
     0
 10
217.118
 20
26.6058
 30
0.0
 11
203.119
 21
26.6058
 31
0.0
  0
LINE
  8
0
 62
     0
 10
222.169
 20
26.6058
 30
0.0
 11
222.169
 21
25.6053
 31
0.0
  0
LINE
  8
0
 62
     0
 10
222.169
 20
25.6053
 30
0.0
 11
221.368
 21
25.6053
 31
0.0
  0
LINE
  8
0
 62
     0
 10
221.368
 20
25.6053
 30
0.0
 11
221.368
 21
22.5061
 31
0.0
  0
LINE
  8
0
 62
     0
 10
221.368
 20
22.5061
 30
0.0
 11
222.169
 21
22.5061
 31
0.0
  0
LINE
  8
0
 62
     0
 10
222.169
 20
22.5061
 30
0.0
 11
222.169
 21
16.706
 31
0.0
  0
LINE
  8
0
 62
     0
 10
222.169
 20
16.706
 30
0.0
 11
221.368
 21
16.706
 31
0.0
  0
LINE
  8
0
 62
     0
 10
221.368
 20
16.706
 30
0.0
 11
221.368
 21
13.6054
 31
0.0
  0
LINE
  8
0
 62
     0
 10
221.368
 20
13.6054
 30
0.0
 11
222.169
 21
13.6054
 31
0.0
  0
LINE
  8
0
 62
     0
 10
222.169
 20
13.6054
 30
0.0
 11
222.169
 21
12.6063
 31
0.0
  0
LINE
  8
0
 62
     0
 10
222.169
 20
12.6063
 30
0.0
 11
236.168
 21
12.6063
 31
0.0
  0
LINE
  8
0
 62
     0
 10
236.168
 20
12.6063
 30
0.0
 11
236.168
 21
13.6054
 31
0.0
  0
LINE
  8
0
 62
     0
 10
236.168
 20
13.6054
 30
0.0
 11
236.969
 21
13.6054
 31
0.0
  0
LINE
  8
0
 62
     0
 10
236.969
 20
13.6054
 30
0.0
 11
236.969
 21
16.706
 31
0.0
  0
LINE
  8
0
 62
     0
 10
236.969
 20
16.706
 30
0.0
 11
236.168
 21
16.706
 31
0.0
  0
LINE
  8
0
 62
     0
 10
236.168
 20
16.706
 30
0.0
 11
236.168
 21
22.5061
 31
0.0
  0
LINE
  8
0
 62
     0
 10
236.168
 20
22.5061
 30
0.0
 11
236.969
 21
22.5061
 31
0.0
  0
LINE
  8
0
 62
     0
 10
236.969
 20
22.5061
 30
0.0
 11
236.969
 21
25.6053
 31
0.0
  0
LINE
  8
0
 62
     0
 10
236.969
 20
25.6053
 30
0.0
 11
236.168
 21
25.6053
 31
0.0
  0
LINE
  8
0
 62
     0
 10
236.168
 20
25.6053
 30
0.0
 11
236.168
 21
26.6058
 31
0.0
  0
LINE
  8
0
 62
     0
 10
236.168
 20
26.6058
 30
0.0
 11
222.169
 21
26.6058
 31
0.0
  0
LINE
  8
0
 62
     0
 10
12.6187
 20
45.6558
 30
0.0
 11
12.6187
 21
44.6553
 31
0.0
  0
LINE
  8
0
 62
     0
 10
12.6187
 20
44.6553
 30
0.0
 11
11.8181
 21
44.6553
 31
0.0
  0
LINE
  8
0
 62
     0
 10
11.8181
 20
44.6553
 30
0.0
 11
11.8181
 21
41.5562
 31
0.0
  0
LINE
  8
0
 62
     0
 10
11.8181
 20
41.5562
 30
0.0
 11
12.6187
 21
41.5562
 31
0.0
  0
LINE
  8
0
 62
     0
 10
12.6187
 20
41.5562
 30
0.0
 11
12.6187
 21
35.7558
 31
0.0
  0
LINE
  8
0
 62
     0
 10
12.6187
 20
35.7558
 30
0.0
 11
11.8181
 21
35.7558
 31
0.0
  0
LINE
  8
0
 62
     0
 10
11.8181
 20
35.7558
 30
0.0
 11
11.8181
 21
32.6554
 31
0.0
  0
LINE
  8
0
 62
     0
 10
11.8181
 20
32.6554
 30
0.0
 11
12.6187
 21
32.6554
 31
0.0
  0
LINE
  8
0
 62
     0
 10
12.6187
 20
32.6554
 30
0.0
 11
12.6187
 21
31.6563
 31
0.0
  0
LINE
  8
0
 62
     0
 10
12.6187
 20
31.6563
 30
0.0
 11
26.6182
 21
31.6563
 31
0.0
  0
LINE
  8
0
 62
     0
 10
26.6182
 20
31.6563
 30
0.0
 11
26.6182
 21
32.6554
 31
0.0
  0
LINE
  8
0
 62
     0
 10
26.6182
 20
32.6554
 30
0.0
 11
27.4161
 21
32.6554
 31
0.0
  0
LINE
  8
0
 62
     0
 10
27.4161
 20
32.6554
 30
0.0
 11
27.4161
 21
35.7558
 31
0.0
  0
LINE
  8
0
 62
     0
 10
27.4161
 20
35.7558
 30
0.0
 11
26.6182
 21
35.7558
 31
0.0
  0
LINE
  8
0
 62
     0
 10
26.6182
 20
35.7558
 30
0.0
 11
26.6182
 21
41.5562
 31
0.0
  0
LINE
  8
0
 62
     0
 10
26.6182
 20
41.5562
 30
0.0
 11
27.4161
 21
41.5562
 31
0.0
  0
LINE
  8
0
 62
     0
 10
27.4161
 20
41.5562
 30
0.0
 11
27.4161
 21
44.6553
 31
0.0
  0
LINE
  8
0
 62
     0
 10
27.4161
 20
44.6553
 30
0.0
 11
26.6182
 21
44.6553
 31
0.0
  0
LINE
  8
0
 62
     0
 10
26.6182
 20
44.6553
 30
0.0
 11
26.6182
 21
45.6558
 31
0.0
  0
LINE
  8
0
 62
     0
 10
26.6182
 20
45.6558
 30
0.0
 11
12.6187
 21
45.6558
 31
0.0
  0
LINE
  8
0
 62
     0
 10
31.6687
 20
45.6558
 30
0.0
 11
31.6687
 21
44.6553
 31
0.0
  0
LINE
  8
0
 62
     0
 10
31.6687
 20
44.6553
 30
0.0
 11
30.8694
 21
44.6553
 31
0.0
  0
LINE
  8
0
 62
     0
 10
30.8694
 20
44.6553
 30
0.0
 11
30.8694
 21
41.5562
 31
0.0
  0
LINE
  8
0
 62
     0
 10
30.8694
 20
41.5562
 30
0.0
 11
31.6687
 21
41.5562
 31
0.0
  0
LINE
  8
0
 62
     0
 10
31.6687
 20
41.5562
 30
0.0
 11
31.6687
 21
35.7558
 31
0.0
  0
LINE
  8
0
 62
     0
 10
31.6687
 20
35.7558
 30
0.0
 11
30.8694
 21
35.7558
 31
0.0
  0
LINE
  8
0
 62
     0
 10
30.8694
 20
35.7558
 30
0.0
 11
30.8694
 21
32.6554
 31
0.0
  0
LINE
  8
0
 62
     0
 10
30.8694
 20
32.6554
 30
0.0
 11
31.6687
 21
32.6554
 31
0.0
  0
LINE
  8
0
 62
     0
 10
31.6687
 20
32.6554
 30
0.0
 11
31.6687
 21
31.6563
 31
0.0
  0
LINE
  8
0
 62
     0
 10
31.6687
 20
31.6563
 30
0.0
 11
45.6681
 21
31.6563
 31
0.0
  0
LINE
  8
0
 62
     0
 10
45.6681
 20
31.6563
 30
0.0
 11
45.6681
 21
32.6554
 31
0.0
  0
LINE
  8
0
 62
     0
 10
45.6681
 20
32.6554
 30
0.0
 11
46.4689
 21
32.6554
 31
0.0
  0
LINE
  8
0
 62
     0
 10
46.4689
 20
32.6554
 30
0.0
 11
46.4689
 21
35.7558
 31
0.0
  0
LINE
  8
0
 62
     0
 10
46.4689
 20
35.7558
 30
0.0
 11
45.6681
 21
35.7558
 31
0.0
  0
LINE
  8
0
 62
     0
 10
45.6681
 20
35.7558
 30
0.0
 11
45.6681
 21
41.5562
 31
0.0
  0
LINE
  8
0
 62
     0
 10
45.6681
 20
41.5562
 30
0.0
 11
46.4689
 21
41.5562
 31
0.0
  0
LINE
  8
0
 62
     0
 10
46.4689
 20
41.5562
 30
0.0
 11
46.4689
 21
44.6553
 31
0.0
  0
LINE
  8
0
 62
     0
 10
46.4689
 20
44.6553
 30
0.0
 11
45.6681
 21
44.6553
 31
0.0
  0
LINE
  8
0
 62
     0
 10
45.6681
 20
44.6553
 30
0.0
 11
45.6681
 21
45.6558
 31
0.0
  0
LINE
  8
0
 62
     0
 10
45.6681
 20
45.6558
 30
0.0
 11
31.6687
 21
45.6558
 31
0.0
  0
LINE
  8
0
 62
     0
 10
50.7189
 20
45.6558
 30
0.0
 11
50.7189
 21
44.6553
 31
0.0
  0
LINE
  8
0
 62
     0
 10
50.7189
 20
44.6553
 30
0.0
 11
49.9195
 21
44.6553
 31
0.0
  0
LINE
  8
0
 62
     0
 10
49.9195
 20
44.6553
 30
0.0
 11
49.9195
 21
41.5562
 31
0.0
  0
LINE
  8
0
 62
     0
 10
49.9195
 20
41.5562
 30
0.0
 11
50.7189
 21
41.5562
 31
0.0
  0
LINE
  8
0
 62
     0
 10
50.7189
 20
41.5562
 30
0.0
 11
50.7189
 21
35.7558
 31
0.0
  0
LINE
  8
0
 62
     0
 10
50.7189
 20
35.7558
 30
0.0
 11
49.9195
 21
35.7558
 31
0.0
  0
LINE
  8
0
 62
     0
 10
49.9195
 20
35.7558
 30
0.0
 11
49.9195
 21
32.6554
 31
0.0
  0
LINE
  8
0
 62
     0
 10
49.9195
 20
32.6554
 30
0.0
 11
50.7189
 21
32.6554
 31
0.0
  0
LINE
  8
0
 62
     0
 10
50.7189
 20
32.6554
 30
0.0
 11
50.7189
 21
31.6563
 31
0.0
  0
LINE
  8
0
 62
     0
 10
50.7189
 20
31.6563
 30
0.0
 11
64.7181
 21
31.6563
 31
0.0
  0
LINE
  8
0
 62
     0
 10
64.7181
 20
31.6563
 30
0.0
 11
64.7181
 21
32.6554
 31
0.0
  0
LINE
  8
0
 62
     0
 10
64.7181
 20
32.6554
 30
0.0
 11
65.519
 21
32.6554
 31
0.0
  0
LINE
  8
0
 62
     0
 10
65.519
 20
32.6554
 30
0.0
 11
65.519
 21
35.7558
 31
0.0
  0
LINE
  8
0
 62
     0
 10
65.519
 20
35.7558
 30
0.0
 11
64.7181
 21
35.7558
 31
0.0
  0
LINE
  8
0
 62
     0
 10
64.7181
 20
35.7558
 30
0.0
 11
64.7181
 21
41.5562
 31
0.0
  0
LINE
  8
0
 62
     0
 10
64.7181
 20
41.5562
 30
0.0
 11
65.519
 21
41.5562
 31
0.0
  0
LINE
  8
0
 62
     0
 10
65.519
 20
41.5562
 30
0.0
 11
65.519
 21
44.6553
 31
0.0
  0
LINE
  8
0
 62
     0
 10
65.519
 20
44.6553
 30
0.0
 11
64.7181
 21
44.6553
 31
0.0
  0
LINE
  8
0
 62
     0
 10
64.7181
 20
44.6553
 30
0.0
 11
64.7181
 21
45.6558
 31
0.0
  0
LINE
  8
0
 62
     0
 10
64.7181
 20
45.6558
 30
0.0
 11
50.7189
 21
45.6558
 31
0.0
  0
LINE
  8
0
 62
     0
 10
69.7689
 20
45.6558
 30
0.0
 11
69.7689
 21
44.6553
 31
0.0
  0
LINE
  8
0
 62
     0
 10
69.7689
 20
44.6553
 30
0.0
 11
68.9695
 21
44.6553
 31
0.0
  0
LINE
  8
0
 62
     0
 10
68.9695
 20
44.6553
 30
0.0
 11
68.9695
 21
41.5562
 31
0.0
  0
LINE
  8
0
 62
     0
 10
68.9695
 20
41.5562
 30
0.0
 11
69.7689
 21
41.5562
 31
0.0
  0
LINE
  8
0
 62
     0
 10
69.7689
 20
41.5562
 30
0.0
 11
69.7689
 21
35.7558
 31
0.0
  0
LINE
  8
0
 62
     0
 10
69.7689
 20
35.7558
 30
0.0
 11
68.9695
 21
35.7558
 31
0.0
  0
LINE
  8
0
 62
     0
 10
68.9695
 20
35.7558
 30
0.0
 11
68.9695
 21
32.6554
 31
0.0
  0
LINE
  8
0
 62
     0
 10
68.9695
 20
32.6554
 30
0.0
 11
69.7689
 21
32.6554
 31
0.0
  0
LINE
  8
0
 62
     0
 10
69.7689
 20
32.6554
 30
0.0
 11
69.7689
 21
31.6563
 31
0.0
  0
LINE
  8
0
 62
     0
 10
69.7689
 20
31.6563
 30
0.0
 11
83.7681
 21
31.6563
 31
0.0
  0
LINE
  8
0
 62
     0
 10
83.7681
 20
31.6563
 30
0.0
 11
83.7681
 21
32.6554
 31
0.0
  0
LINE
  8
0
 62
     0
 10
83.7681
 20
32.6554
 30
0.0
 11
84.569
 21
32.6554
 31
0.0
  0
LINE
  8
0
 62
     0
 10
84.569
 20
32.6554
 30
0.0
 11
84.569
 21
35.7558
 31
0.0
  0
LINE
  8
0
 62
     0
 10
84.569
 20
35.7558
 30
0.0
 11
83.7681
 21
35.7558
 31
0.0
  0
LINE
  8
0
 62
     0
 10
83.7681
 20
35.7558
 30
0.0
 11
83.7681
 21
41.5562
 31
0.0
  0
LINE
  8
0
 62
     0
 10
83.7681
 20
41.5562
 30
0.0
 11
84.569
 21
41.5562
 31
0.0
  0
LINE
  8
0
 62
     0
 10
84.569
 20
41.5562
 30
0.0
 11
84.569
 21
44.6553
 31
0.0
  0
LINE
  8
0
 62
     0
 10
84.569
 20
44.6553
 30
0.0
 11
83.7681
 21
44.6553
 31
0.0
  0
LINE
  8
0
 62
     0
 10
83.7681
 20
44.6553
 30
0.0
 11
83.7681
 21
45.6558
 31
0.0
  0
LINE
  8
0
 62
     0
 10
83.7681
 20
45.6558
 30
0.0
 11
69.7689
 21
45.6558
 31
0.0
  0
LINE
  8
0
 62
     0
 10
88.8189
 20
45.6558
 30
0.0
 11
88.8189
 21
44.6553
 31
0.0
  0
LINE
  8
0
 62
     0
 10
88.8189
 20
44.6553
 30
0.0
 11
88.0195
 21
44.6553
 31
0.0
  0
LINE
  8
0
 62
     0
 10
88.0195
 20
44.6553
 30
0.0
 11
88.0195
 21
41.5562
 31
0.0
  0
LINE
  8
0
 62
     0
 10
88.0195
 20
41.5562
 30
0.0
 11
88.8189
 21
41.5562
 31
0.0
  0
LINE
  8
0
 62
     0
 10
88.8189
 20
41.5562
 30
0.0
 11
88.8189
 21
35.7558
 31
0.0
  0
LINE
  8
0
 62
     0
 10
88.8189
 20
35.7558
 30
0.0
 11
88.0195
 21
35.7558
 31
0.0
  0
LINE
  8
0
 62
     0
 10
88.0195
 20
35.7558
 30
0.0
 11
88.0195
 21
32.6554
 31
0.0
  0
LINE
  8
0
 62
     0
 10
88.0195
 20
32.6554
 30
0.0
 11
88.8189
 21
32.6554
 31
0.0
  0
LINE
  8
0
 62
     0
 10
88.8189
 20
32.6554
 30
0.0
 11
88.8189
 21
31.6563
 31
0.0
  0
LINE
  8
0
 62
     0
 10
88.8189
 20
31.6563
 30
0.0
 11
102.818
 21
31.6563
 31
0.0
  0
LINE
  8
0
 62
     0
 10
102.818
 20
31.6563
 30
0.0
 11
102.818
 21
32.6554
 31
0.0
  0
LINE
  8
0
 62
     0
 10
102.818
 20
32.6554
 30
0.0
 11
103.618
 21
32.6554
 31
0.0
  0
LINE
  8
0
 62
     0
 10
103.618
 20
32.6554
 30
0.0
 11
103.618
 21
35.7558
 31
0.0
  0
LINE
  8
0
 62
     0
 10
103.618
 20
35.7558
 30
0.0
 11
102.818
 21
35.7558
 31
0.0
  0
LINE
  8
0
 62
     0
 10
102.818
 20
35.7558
 30
0.0
 11
102.818
 21
41.5562
 31
0.0
  0
LINE
  8
0
 62
     0
 10
102.818
 20
41.5562
 30
0.0
 11
103.618
 21
41.5562
 31
0.0
  0
LINE
  8
0
 62
     0
 10
103.618
 20
41.5562
 30
0.0
 11
103.618
 21
44.6553
 31
0.0
  0
LINE
  8
0
 62
     0
 10
103.618
 20
44.6553
 30
0.0
 11
102.818
 21
44.6553
 31
0.0
  0
LINE
  8
0
 62
     0
 10
102.818
 20
44.6553
 30
0.0
 11
102.818
 21
45.6558
 31
0.0
  0
LINE
  8
0
 62
     0
 10
102.818
 20
45.6558
 30
0.0
 11
88.8189
 21
45.6558
 31
0.0
  0
LINE
  8
0
 62
     0
 10
107.867
 20
45.6558
 30
0.0
 11
107.867
 21
44.6553
 31
0.0
  0
LINE
  8
0
 62
     0
 10
107.867
 20
44.6553
 30
0.0
 11
107.068
 21
44.6553
 31
0.0
  0
LINE
  8
0
 62
     0
 10
107.068
 20
44.6553
 30
0.0
 11
107.068
 21
41.5562
 31
0.0
  0
LINE
  8
0
 62
     0
 10
107.068
 20
41.5562
 30
0.0
 11
107.867
 21
41.5562
 31
0.0
  0
LINE
  8
0
 62
     0
 10
107.867
 20
41.5562
 30
0.0
 11
107.867
 21
35.7558
 31
0.0
  0
LINE
  8
0
 62
     0
 10
107.867
 20
35.7558
 30
0.0
 11
107.068
 21
35.7558
 31
0.0
  0
LINE
  8
0
 62
     0
 10
107.068
 20
35.7558
 30
0.0
 11
107.068
 21
32.6554
 31
0.0
  0
LINE
  8
0
 62
     0
 10
107.068
 20
32.6554
 30
0.0
 11
107.867
 21
32.6554
 31
0.0
  0
LINE
  8
0
 62
     0
 10
107.867
 20
32.6554
 30
0.0
 11
107.867
 21
31.6563
 31
0.0
  0
LINE
  8
0
 62
     0
 10
107.867
 20
31.6563
 30
0.0
 11
121.868
 21
31.6563
 31
0.0
  0
LINE
  8
0
 62
     0
 10
121.868
 20
31.6563
 30
0.0
 11
121.868
 21
32.6554
 31
0.0
  0
LINE
  8
0
 62
     0
 10
121.868
 20
32.6554
 30
0.0
 11
122.668
 21
32.6554
 31
0.0
  0
LINE
  8
0
 62
     0
 10
122.668
 20
32.6554
 30
0.0
 11
122.668
 21
35.7558
 31
0.0
  0
LINE
  8
0
 62
     0
 10
122.668
 20
35.7558
 30
0.0
 11
121.868
 21
35.7558
 31
0.0
  0
LINE
  8
0
 62
     0
 10
121.868
 20
35.7558
 30
0.0
 11
121.868
 21
41.5562
 31
0.0
  0
LINE
  8
0
 62
     0
 10
121.868
 20
41.5562
 30
0.0
 11
122.668
 21
41.5562
 31
0.0
  0
LINE
  8
0
 62
     0
 10
122.668
 20
41.5562
 30
0.0
 11
122.668
 21
44.6553
 31
0.0
  0
LINE
  8
0
 62
     0
 10
122.668
 20
44.6553
 30
0.0
 11
121.868
 21
44.6553
 31
0.0
  0
LINE
  8
0
 62
     0
 10
121.868
 20
44.6553
 30
0.0
 11
121.868
 21
45.6558
 31
0.0
  0
LINE
  8
0
 62
     0
 10
121.868
 20
45.6558
 30
0.0
 11
107.867
 21
45.6558
 31
0.0
  0
LINE
  8
0
 62
     0
 10
126.919
 20
45.6558
 30
0.0
 11
126.919
 21
44.6553
 31
0.0
  0
LINE
  8
0
 62
     0
 10
126.919
 20
44.6553
 30
0.0
 11
126.118
 21
44.6553
 31
0.0
  0
LINE
  8
0
 62
     0
 10
126.118
 20
44.6553
 30
0.0
 11
126.118
 21
41.5562
 31
0.0
  0
LINE
  8
0
 62
     0
 10
126.118
 20
41.5562
 30
0.0
 11
126.919
 21
41.5562
 31
0.0
  0
LINE
  8
0
 62
     0
 10
126.919
 20
41.5562
 30
0.0
 11
126.919
 21
35.7558
 31
0.0
  0
LINE
  8
0
 62
     0
 10
126.919
 20
35.7558
 30
0.0
 11
126.118
 21
35.7558
 31
0.0
  0
LINE
  8
0
 62
     0
 10
126.118
 20
35.7558
 30
0.0
 11
126.118
 21
32.6554
 31
0.0
  0
LINE
  8
0
 62
     0
 10
126.118
 20
32.6554
 30
0.0
 11
126.919
 21
32.6554
 31
0.0
  0
LINE
  8
0
 62
     0
 10
126.919
 20
32.6554
 30
0.0
 11
126.919
 21
31.6563
 31
0.0
  0
LINE
  8
0
 62
     0
 10
126.919
 20
31.6563
 30
0.0
 11
140.918
 21
31.6563
 31
0.0
  0
LINE
  8
0
 62
     0
 10
140.918
 20
31.6563
 30
0.0
 11
140.918
 21
32.6554
 31
0.0
  0
LINE
  8
0
 62
     0
 10
140.918
 20
32.6554
 30
0.0
 11
141.719
 21
32.6554
 31
0.0
  0
LINE
  8
0
 62
     0
 10
141.719
 20
32.6554
 30
0.0
 11
141.719
 21
35.7558
 31
0.0
  0
LINE
  8
0
 62
     0
 10
141.719
 20
35.7558
 30
0.0
 11
140.918
 21
35.7558
 31
0.0
  0
LINE
  8
0
 62
     0
 10
140.918
 20
35.7558
 30
0.0
 11
140.918
 21
41.5562
 31
0.0
  0
LINE
  8
0
 62
     0
 10
140.918
 20
41.5562
 30
0.0
 11
141.719
 21
41.5562
 31
0.0
  0
LINE
  8
0
 62
     0
 10
141.719
 20
41.5562
 30
0.0
 11
141.719
 21
44.6553
 31
0.0
  0
LINE
  8
0
 62
     0
 10
141.719
 20
44.6553
 30
0.0
 11
140.918
 21
44.6553
 31
0.0
  0
LINE
  8
0
 62
     0
 10
140.918
 20
44.6553
 30
0.0
 11
140.918
 21
45.6558
 31
0.0
  0
LINE
  8
0
 62
     0
 10
140.918
 20
45.6558
 30
0.0
 11
126.919
 21
45.6558
 31
0.0
  0
LINE
  8
0
 62
     0
 10
145.969
 20
45.6558
 30
0.0
 11
145.969
 21
44.6553
 31
0.0
  0
LINE
  8
0
 62
     0
 10
145.969
 20
44.6553
 30
0.0
 11
145.168
 21
44.6553
 31
0.0
  0
LINE
  8
0
 62
     0
 10
145.168
 20
44.6553
 30
0.0
 11
145.168
 21
41.5562
 31
0.0
  0
LINE
  8
0
 62
     0
 10
145.168
 20
41.5562
 30
0.0
 11
145.969
 21
41.5562
 31
0.0
  0
LINE
  8
0
 62
     0
 10
145.969
 20
41.5562
 30
0.0
 11
145.969
 21
35.7558
 31
0.0
  0
LINE
  8
0
 62
     0
 10
145.969
 20
35.7558
 30
0.0
 11
145.168
 21
35.7558
 31
0.0
  0
LINE
  8
0
 62
     0
 10
145.168
 20
35.7558
 30
0.0
 11
145.168
 21
32.6554
 31
0.0
  0
LINE
  8
0
 62
     0
 10
145.168
 20
32.6554
 30
0.0
 11
145.969
 21
32.6554
 31
0.0
  0
LINE
  8
0
 62
     0
 10
145.969
 20
32.6554
 30
0.0
 11
145.969
 21
31.6563
 31
0.0
  0
LINE
  8
0
 62
     0
 10
145.969
 20
31.6563
 30
0.0
 11
159.968
 21
31.6563
 31
0.0
  0
LINE
  8
0
 62
     0
 10
159.968
 20
31.6563
 30
0.0
 11
159.968
 21
32.6554
 31
0.0
  0
LINE
  8
0
 62
     0
 10
159.968
 20
32.6554
 30
0.0
 11
160.769
 21
32.6554
 31
0.0
  0
LINE
  8
0
 62
     0
 10
160.769
 20
32.6554
 30
0.0
 11
160.769
 21
35.7558
 31
0.0
  0
LINE
  8
0
 62
     0
 10
160.769
 20
35.7558
 30
0.0
 11
159.968
 21
35.7558
 31
0.0
  0
LINE
  8
0
 62
     0
 10
159.968
 20
35.7558
 30
0.0
 11
159.968
 21
41.5562
 31
0.0
  0
LINE
  8
0
 62
     0
 10
159.968
 20
41.5562
 30
0.0
 11
160.769
 21
41.5562
 31
0.0
  0
LINE
  8
0
 62
     0
 10
160.769
 20
41.5562
 30
0.0
 11
160.769
 21
44.6553
 31
0.0
  0
LINE
  8
0
 62
     0
 10
160.769
 20
44.6553
 30
0.0
 11
159.968
 21
44.6553
 31
0.0
  0
LINE
  8
0
 62
     0
 10
159.968
 20
44.6553
 30
0.0
 11
159.968
 21
45.6558
 31
0.0
  0
LINE
  8
0
 62
     0
 10
159.968
 20
45.6558
 30
0.0
 11
145.969
 21
45.6558
 31
0.0
  0
LINE
  8
0
 62
     0
 10
165.019
 20
45.6558
 30
0.0
 11
165.019
 21
44.6553
 31
0.0
  0
LINE
  8
0
 62
     0
 10
165.019
 20
44.6553
 30
0.0
 11
164.218
 21
44.6553
 31
0.0
  0
LINE
  8
0
 62
     0
 10
164.218
 20
44.6553
 30
0.0
 11
164.218
 21
41.5562
 31
0.0
  0
LINE
  8
0
 62
     0
 10
164.218
 20
41.5562
 30
0.0
 11
165.019
 21
41.5562
 31
0.0
  0
LINE
  8
0
 62
     0
 10
165.019
 20
41.5562
 30
0.0
 11
165.019
 21
35.7558
 31
0.0
  0
LINE
  8
0
 62
     0
 10
165.019
 20
35.7558
 30
0.0
 11
164.218
 21
35.7558
 31
0.0
  0
LINE
  8
0
 62
     0
 10
164.218
 20
35.7558
 30
0.0
 11
164.218
 21
32.6554
 31
0.0
  0
LINE
  8
0
 62
     0
 10
164.218
 20
32.6554
 30
0.0
 11
165.019
 21
32.6554
 31
0.0
  0
LINE
  8
0
 62
     0
 10
165.019
 20
32.6554
 30
0.0
 11
165.019
 21
31.6563
 31
0.0
  0
LINE
  8
0
 62
     0
 10
165.019
 20
31.6563
 30
0.0
 11
179.018
 21
31.6563
 31
0.0
  0
LINE
  8
0
 62
     0
 10
179.018
 20
31.6563
 30
0.0
 11
179.018
 21
32.6554
 31
0.0
  0
LINE
  8
0
 62
     0
 10
179.018
 20
32.6554
 30
0.0
 11
179.819
 21
32.6554
 31
0.0
  0
LINE
  8
0
 62
     0
 10
179.819
 20
32.6554
 30
0.0
 11
179.819
 21
35.7558
 31
0.0
  0
LINE
  8
0
 62
     0
 10
179.819
 20
35.7558
 30
0.0
 11
179.018
 21
35.7558
 31
0.0
  0
LINE
  8
0
 62
     0
 10
179.018
 20
35.7558
 30
0.0
 11
179.018
 21
41.5562
 31
0.0
  0
LINE
  8
0
 62
     0
 10
179.018
 20
41.5562
 30
0.0
 11
179.819
 21
41.5562
 31
0.0
  0
LINE
  8
0
 62
     0
 10
179.819
 20
41.5562
 30
0.0
 11
179.819
 21
44.6553
 31
0.0
  0
LINE
  8
0
 62
     0
 10
179.819
 20
44.6553
 30
0.0
 11
179.018
 21
44.6553
 31
0.0
  0
LINE
  8
0
 62
     0
 10
179.018
 20
44.6553
 30
0.0
 11
179.018
 21
45.6558
 31
0.0
  0
LINE
  8
0
 62
     0
 10
179.018
 20
45.6558
 30
0.0
 11
165.019
 21
45.6558
 31
0.0
  0
LINE
  8
0
 62
     0
 10
184.069
 20
45.6558
 30
0.0
 11
184.069
 21
44.6553
 31
0.0
  0
LINE
  8
0
 62
     0
 10
184.069
 20
44.6553
 30
0.0
 11
183.268
 21
44.6553
 31
0.0
  0
LINE
  8
0
 62
     0
 10
183.268
 20
44.6553
 30
0.0
 11
183.268
 21
41.5562
 31
0.0
  0
LINE
  8
0
 62
     0
 10
183.268
 20
41.5562
 30
0.0
 11
184.069
 21
41.5562
 31
0.0
  0
LINE
  8
0
 62
     0
 10
184.069
 20
41.5562
 30
0.0
 11
184.069
 21
35.7558
 31
0.0
  0
LINE
  8
0
 62
     0
 10
184.069
 20
35.7558
 30
0.0
 11
183.268
 21
35.7558
 31
0.0
  0
LINE
  8
0
 62
     0
 10
183.268
 20
35.7558
 30
0.0
 11
183.268
 21
32.6554
 31
0.0
  0
LINE
  8
0
 62
     0
 10
183.268
 20
32.6554
 30
0.0
 11
184.069
 21
32.6554
 31
0.0
  0
LINE
  8
0
 62
     0
 10
184.069
 20
32.6554
 30
0.0
 11
184.069
 21
31.6563
 31
0.0
  0
LINE
  8
0
 62
     0
 10
184.069
 20
31.6563
 30
0.0
 11
198.068
 21
31.6563
 31
0.0
  0
LINE
  8
0
 62
     0
 10
198.068
 20
31.6563
 30
0.0
 11
198.068
 21
32.6554
 31
0.0
  0
LINE
  8
0
 62
     0
 10
198.068
 20
32.6554
 30
0.0
 11
198.869
 21
32.6554
 31
0.0
  0
LINE
  8
0
 62
     0
 10
198.869
 20
32.6554
 30
0.0
 11
198.869
 21
35.7558
 31
0.0
  0
LINE
  8
0
 62
     0
 10
198.869
 20
35.7558
 30
0.0
 11
198.068
 21
35.7558
 31
0.0
  0
LINE
  8
0
 62
     0
 10
198.068
 20
35.7558
 30
0.0
 11
198.068
 21
41.5562
 31
0.0
  0
LINE
  8
0
 62
     0
 10
198.068
 20
41.5562
 30
0.0
 11
198.869
 21
41.5562
 31
0.0
  0
LINE
  8
0
 62
     0
 10
198.869
 20
41.5562
 30
0.0
 11
198.869
 21
44.6553
 31
0.0
  0
LINE
  8
0
 62
     0
 10
198.869
 20
44.6553
 30
0.0
 11
198.068
 21
44.6553
 31
0.0
  0
LINE
  8
0
 62
     0
 10
198.068
 20
44.6553
 30
0.0
 11
198.068
 21
45.6558
 31
0.0
  0
LINE
  8
0
 62
     0
 10
198.068
 20
45.6558
 30
0.0
 11
184.069
 21
45.6558
 31
0.0
  0
LINE
  8
0
 62
     0
 10
203.119
 20
45.6558
 30
0.0
 11
203.119
 21
44.6553
 31
0.0
  0
LINE
  8
0
 62
     0
 10
203.119
 20
44.6553
 30
0.0
 11
202.318
 21
44.6553
 31
0.0
  0
LINE
  8
0
 62
     0
 10
202.318
 20
44.6553
 30
0.0
 11
202.318
 21
41.5562
 31
0.0
  0
LINE
  8
0
 62
     0
 10
202.318
 20
41.5562
 30
0.0
 11
203.119
 21
41.5562
 31
0.0
  0
LINE
  8
0
 62
     0
 10
203.119
 20
41.5562
 30
0.0
 11
203.119
 21
35.7558
 31
0.0
  0
LINE
  8
0
 62
     0
 10
203.119
 20
35.7558
 30
0.0
 11
202.318
 21
35.7558
 31
0.0
  0
LINE
  8
0
 62
     0
 10
202.318
 20
35.7558
 30
0.0
 11
202.318
 21
32.6554
 31
0.0
  0
LINE
  8
0
 62
     0
 10
202.318
 20
32.6554
 30
0.0
 11
203.119
 21
32.6554
 31
0.0
  0
LINE
  8
0
 62
     0
 10
203.119
 20
32.6554
 30
0.0
 11
203.119
 21
31.6563
 31
0.0
  0
LINE
  8
0
 62
     0
 10
203.119
 20
31.6563
 30
0.0
 11
217.118
 21
31.6563
 31
0.0
  0
LINE
  8
0
 62
     0
 10
217.118
 20
31.6563
 30
0.0
 11
217.118
 21
32.6554
 31
0.0
  0
LINE
  8
0
 62
     0
 10
217.118
 20
32.6554
 30
0.0
 11
217.919
 21
32.6554
 31
0.0
  0
LINE
  8
0
 62
     0
 10
217.919
 20
32.6554
 30
0.0
 11
217.919
 21
35.7558
 31
0.0
  0
LINE
  8
0
 62
     0
 10
217.919
 20
35.7558
 30
0.0
 11
217.118
 21
35.7558
 31
0.0
  0
LINE
  8
0
 62
     0
 10
217.118
 20
35.7558
 30
0.0
 11
217.118
 21
41.5562
 31
0.0
  0
LINE
  8
0
 62
     0
 10
217.118
 20
41.5562
 30
0.0
 11
217.919
 21
41.5562
 31
0.0
  0
LINE
  8
0
 62
     0
 10
217.919
 20
41.5562
 30
0.0
 11
217.919
 21
44.6553
 31
0.0
  0
LINE
  8
0
 62
     0
 10
217.919
 20
44.6553
 30
0.0
 11
217.118
 21
44.6553
 31
0.0
  0
LINE
  8
0
 62
     0
 10
217.118
 20
44.6553
 30
0.0
 11
217.118
 21
45.6558
 31
0.0
  0
LINE
  8
0
 62
     0
 10
217.118
 20
45.6558
 30
0.0
 11
203.119
 21
45.6558
 31
0.0
  0
LINE
  8
0
 62
     0
 10
222.169
 20
45.6558
 30
0.0
 11
222.169
 21
44.6553
 31
0.0
  0
LINE
  8
0
 62
     0
 10
222.169
 20
44.6553
 30
0.0
 11
221.368
 21
44.6553
 31
0.0
  0
LINE
  8
0
 62
     0
 10
221.368
 20
44.6553
 30
0.0
 11
221.368
 21
41.5562
 31
0.0
  0
LINE
  8
0
 62
     0
 10
221.368
 20
41.5562
 30
0.0
 11
222.169
 21
41.5562
 31
0.0
  0
LINE
  8
0
 62
     0
 10
222.169
 20
41.5562
 30
0.0
 11
222.169
 21
35.7558
 31
0.0
  0
LINE
  8
0
 62
     0
 10
222.169
 20
35.7558
 30
0.0
 11
221.368
 21
35.7558
 31
0.0
  0
LINE
  8
0
 62
     0
 10
221.368
 20
35.7558
 30
0.0
 11
221.368
 21
32.6554
 31
0.0
  0
LINE
  8
0
 62
     0
 10
221.368
 20
32.6554
 30
0.0
 11
222.169
 21
32.6554
 31
0.0
  0
LINE
  8
0
 62
     0
 10
222.169
 20
32.6554
 30
0.0
 11
222.169
 21
31.6563
 31
0.0
  0
LINE
  8
0
 62
     0
 10
222.169
 20
31.6563
 30
0.0
 11
236.168
 21
31.6563
 31
0.0
  0
LINE
  8
0
 62
     0
 10
236.168
 20
31.6563
 30
0.0
 11
236.168
 21
32.6554
 31
0.0
  0
LINE
  8
0
 62
     0
 10
236.168
 20
32.6554
 30
0.0
 11
236.969
 21
32.6554
 31
0.0
  0
LINE
  8
0
 62
     0
 10
236.969
 20
32.6554
 30
0.0
 11
236.969
 21
35.7558
 31
0.0
  0
LINE
  8
0
 62
     0
 10
236.969
 20
35.7558
 30
0.0
 11
236.168
 21
35.7558
 31
0.0
  0
LINE
  8
0
 62
     0
 10
236.168
 20
35.7558
 30
0.0
 11
236.168
 21
41.5562
 31
0.0
  0
LINE
  8
0
 62
     0
 10
236.168
 20
41.5562
 30
0.0
 11
236.969
 21
41.5562
 31
0.0
  0
LINE
  8
0
 62
     0
 10
236.969
 20
41.5562
 30
0.0
 11
236.969
 21
44.6553
 31
0.0
  0
LINE
  8
0
 62
     0
 10
236.969
 20
44.6553
 30
0.0
 11
236.168
 21
44.6553
 31
0.0
  0
LINE
  8
0
 62
     0
 10
236.168
 20
44.6553
 30
0.0
 11
236.168
 21
45.6558
 31
0.0
  0
LINE
  8
0
 62
     0
 10
236.168
 20
45.6558
 30
0.0
 11
222.169
 21
45.6558
 31
0.0
  0
LINE
  8
0
 62
     0
 10
12.6187
 20
64.7058
 30
0.0
 11
12.6187
 21
63.7053
 31
0.0
  0
LINE
  8
0
 62
     0
 10
12.6187
 20
63.7053
 30
0.0
 11
11.8181
 21
63.7053
 31
0.0
  0
LINE
  8
0
 62
     0
 10
11.8181
 20
63.7053
 30
0.0
 11
11.8181
 21
60.6062
 31
0.0
  0
LINE
  8
0
 62
     0
 10
11.8181
 20
60.6062
 30
0.0
 11
12.6187
 21
60.6062
 31
0.0
  0
LINE
  8
0
 62
     0
 10
12.6187
 20
60.6062
 30
0.0
 11
12.6187
 21
54.8058
 31
0.0
  0
LINE
  8
0
 62
     0
 10
12.6187
 20
54.8058
 30
0.0
 11
11.8181
 21
54.8058
 31
0.0
  0
LINE
  8
0
 62
     0
 10
11.8181
 20
54.8058
 30
0.0
 11
11.8181
 21
51.7052
 31
0.0
  0
LINE
  8
0
 62
     0
 10
11.8181
 20
51.7052
 30
0.0
 11
12.6187
 21
51.7052
 31
0.0
  0
LINE
  8
0
 62
     0
 10
12.6187
 20
51.7052
 30
0.0
 11
12.6187
 21
50.7062
 31
0.0
  0
LINE
  8
0
 62
     0
 10
12.6187
 20
50.7062
 30
0.0
 11
26.6182
 21
50.7062
 31
0.0
  0
LINE
  8
0
 62
     0
 10
26.6182
 20
50.7062
 30
0.0
 11
26.6182
 21
51.7052
 31
0.0
  0
LINE
  8
0
 62
     0
 10
26.6182
 20
51.7052
 30
0.0
 11
27.4161
 21
51.7052
 31
0.0
  0
LINE
  8
0
 62
     0
 10
27.4161
 20
51.7052
 30
0.0
 11
27.4161
 21
54.8058
 31
0.0
  0
LINE
  8
0
 62
     0
 10
27.4161
 20
54.8058
 30
0.0
 11
26.6182
 21
54.8058
 31
0.0
  0
LINE
  8
0
 62
     0
 10
26.6182
 20
54.8058
 30
0.0
 11
26.6182
 21
60.6062
 31
0.0
  0
LINE
  8
0
 62
     0
 10
26.6182
 20
60.6062
 30
0.0
 11
27.4161
 21
60.6062
 31
0.0
  0
LINE
  8
0
 62
     0
 10
27.4161
 20
60.6062
 30
0.0
 11
27.4161
 21
63.7053
 31
0.0
  0
LINE
  8
0
 62
     0
 10
27.4161
 20
63.7053
 30
0.0
 11
26.6182
 21
63.7053
 31
0.0
  0
LINE
  8
0
 62
     0
 10
26.6182
 20
63.7053
 30
0.0
 11
26.6182
 21
64.7058
 31
0.0
  0
LINE
  8
0
 62
     0
 10
26.6182
 20
64.7058
 30
0.0
 11
12.6187
 21
64.7058
 31
0.0
  0
LINE
  8
0
 62
     0
 10
31.6687
 20
64.7058
 30
0.0
 11
31.6687
 21
63.7053
 31
0.0
  0
LINE
  8
0
 62
     0
 10
31.6687
 20
63.7053
 30
0.0
 11
30.8694
 21
63.7053
 31
0.0
  0
LINE
  8
0
 62
     0
 10
30.8694
 20
63.7053
 30
0.0
 11
30.8694
 21
60.6062
 31
0.0
  0
LINE
  8
0
 62
     0
 10
30.8694
 20
60.6062
 30
0.0
 11
31.6687
 21
60.6062
 31
0.0
  0
LINE
  8
0
 62
     0
 10
31.6687
 20
60.6062
 30
0.0
 11
31.6687
 21
54.8058
 31
0.0
  0
LINE
  8
0
 62
     0
 10
31.6687
 20
54.8058
 30
0.0
 11
30.8694
 21
54.8058
 31
0.0
  0
LINE
  8
0
 62
     0
 10
30.8694
 20
54.8058
 30
0.0
 11
30.8694
 21
51.7052
 31
0.0
  0
LINE
  8
0
 62
     0
 10
30.8694
 20
51.7052
 30
0.0
 11
31.6687
 21
51.7052
 31
0.0
  0
LINE
  8
0
 62
     0
 10
31.6687
 20
51.7052
 30
0.0
 11
31.6687
 21
50.7062
 31
0.0
  0
LINE
  8
0
 62
     0
 10
31.6687
 20
50.7062
 30
0.0
 11
45.6681
 21
50.7062
 31
0.0
  0
LINE
  8
0
 62
     0
 10
45.6681
 20
50.7062
 30
0.0
 11
45.6681
 21
51.7052
 31
0.0
  0
LINE
  8
0
 62
     0
 10
45.6681
 20
51.7052
 30
0.0
 11
46.4689
 21
51.7052
 31
0.0
  0
LINE
  8
0
 62
     0
 10
46.4689
 20
51.7052
 30
0.0
 11
46.4689
 21
54.8058
 31
0.0
  0
LINE
  8
0
 62
     0
 10
46.4689
 20
54.8058
 30
0.0
 11
45.6681
 21
54.8058
 31
0.0
  0
LINE
  8
0
 62
     0
 10
45.6681
 20
54.8058
 30
0.0
 11
45.6681
 21
60.6062
 31
0.0
  0
LINE
  8
0
 62
     0
 10
45.6681
 20
60.6062
 30
0.0
 11
46.4689
 21
60.6062
 31
0.0
  0
LINE
  8
0
 62
     0
 10
46.4689
 20
60.6062
 30
0.0
 11
46.4689
 21
63.7053
 31
0.0
  0
LINE
  8
0
 62
     0
 10
46.4689
 20
63.7053
 30
0.0
 11
45.6681
 21
63.7053
 31
0.0
  0
LINE
  8
0
 62
     0
 10
45.6681
 20
63.7053
 30
0.0
 11
45.6681
 21
64.7058
 31
0.0
  0
LINE
  8
0
 62
     0
 10
45.6681
 20
64.7058
 30
0.0
 11
31.6687
 21
64.7058
 31
0.0
  0
LINE
  8
0
 62
     0
 10
50.7189
 20
64.7058
 30
0.0
 11
50.7189
 21
63.7053
 31
0.0
  0
LINE
  8
0
 62
     0
 10
50.7189
 20
63.7053
 30
0.0
 11
49.9195
 21
63.7053
 31
0.0
  0
LINE
  8
0
 62
     0
 10
49.9195
 20
63.7053
 30
0.0
 11
49.9195
 21
60.6062
 31
0.0
  0
LINE
  8
0
 62
     0
 10
49.9195
 20
60.6062
 30
0.0
 11
50.7189
 21
60.6062
 31
0.0
  0
LINE
  8
0
 62
     0
 10
50.7189
 20
60.6062
 30
0.0
 11
50.7189
 21
54.8058
 31
0.0
  0
LINE
  8
0
 62
     0
 10
50.7189
 20
54.8058
 30
0.0
 11
49.9195
 21
54.8058
 31
0.0
  0
LINE
  8
0
 62
     0
 10
49.9195
 20
54.8058
 30
0.0
 11
49.9195
 21
51.7052
 31
0.0
  0
LINE
  8
0
 62
     0
 10
49.9195
 20
51.7052
 30
0.0
 11
50.7189
 21
51.7052
 31
0.0
  0
LINE
  8
0
 62
     0
 10
50.7189
 20
51.7052
 30
0.0
 11
50.7189
 21
50.7062
 31
0.0
  0
LINE
  8
0
 62
     0
 10
50.7189
 20
50.7062
 30
0.0
 11
64.7181
 21
50.7062
 31
0.0
  0
LINE
  8
0
 62
     0
 10
64.7181
 20
50.7062
 30
0.0
 11
64.7181
 21
51.7052
 31
0.0
  0
LINE
  8
0
 62
     0
 10
64.7181
 20
51.7052
 30
0.0
 11
65.519
 21
51.7052
 31
0.0
  0
LINE
  8
0
 62
     0
 10
65.519
 20
51.7052
 30
0.0
 11
65.519
 21
54.8058
 31
0.0
  0
LINE
  8
0
 62
     0
 10
65.519
 20
54.8058
 30
0.0
 11
64.7181
 21
54.8058
 31
0.0
  0
LINE
  8
0
 62
     0
 10
64.7181
 20
54.8058
 30
0.0
 11
64.7181
 21
60.6062
 31
0.0
  0
LINE
  8
0
 62
     0
 10
64.7181
 20
60.6062
 30
0.0
 11
65.519
 21
60.6062
 31
0.0
  0
LINE
  8
0
 62
     0
 10
65.519
 20
60.6062
 30
0.0
 11
65.519
 21
63.7053
 31
0.0
  0
LINE
  8
0
 62
     0
 10
65.519
 20
63.7053
 30
0.0
 11
64.7181
 21
63.7053
 31
0.0
  0
LINE
  8
0
 62
     0
 10
64.7181
 20
63.7053
 30
0.0
 11
64.7181
 21
64.7058
 31
0.0
  0
LINE
  8
0
 62
     0
 10
64.7181
 20
64.7058
 30
0.0
 11
50.7189
 21
64.7058
 31
0.0
  0
LINE
  8
0
 62
     0
 10
69.7689
 20
64.7058
 30
0.0
 11
69.7689
 21
63.7053
 31
0.0
  0
LINE
  8
0
 62
     0
 10
69.7689
 20
63.7053
 30
0.0
 11
68.9695
 21
63.7053
 31
0.0
  0
LINE
  8
0
 62
     0
 10
68.9695
 20
63.7053
 30
0.0
 11
68.9695
 21
60.6062
 31
0.0
  0
LINE
  8
0
 62
     0
 10
68.9695
 20
60.6062
 30
0.0
 11
69.7689
 21
60.6062
 31
0.0
  0
LINE
  8
0
 62
     0
 10
69.7689
 20
60.6062
 30
0.0
 11
69.7689
 21
54.8058
 31
0.0
  0
LINE
  8
0
 62
     0
 10
69.7689
 20
54.8058
 30
0.0
 11
68.9695
 21
54.8058
 31
0.0
  0
LINE
  8
0
 62
     0
 10
68.9695
 20
54.8058
 30
0.0
 11
68.9695
 21
51.7052
 31
0.0
  0
LINE
  8
0
 62
     0
 10
68.9695
 20
51.7052
 30
0.0
 11
69.7689
 21
51.7052
 31
0.0
  0
LINE
  8
0
 62
     0
 10
69.7689
 20
51.7052
 30
0.0
 11
69.7689
 21
50.7062
 31
0.0
  0
LINE
  8
0
 62
     0
 10
69.7689
 20
50.7062
 30
0.0
 11
83.7681
 21
50.7062
 31
0.0
  0
LINE
  8
0
 62
     0
 10
83.7681
 20
50.7062
 30
0.0
 11
83.7681
 21
51.7052
 31
0.0
  0
LINE
  8
0
 62
     0
 10
83.7681
 20
51.7052
 30
0.0
 11
84.569
 21
51.7052
 31
0.0
  0
LINE
  8
0
 62
     0
 10
84.569
 20
51.7052
 30
0.0
 11
84.569
 21
54.8058
 31
0.0
  0
LINE
  8
0
 62
     0
 10
84.569
 20
54.8058
 30
0.0
 11
83.7681
 21
54.8058
 31
0.0
  0
LINE
  8
0
 62
     0
 10
83.7681
 20
54.8058
 30
0.0
 11
83.7681
 21
60.6062
 31
0.0
  0
LINE
  8
0
 62
     0
 10
83.7681
 20
60.6062
 30
0.0
 11
84.569
 21
60.6062
 31
0.0
  0
LINE
  8
0
 62
     0
 10
84.569
 20
60.6062
 30
0.0
 11
84.569
 21
63.7053
 31
0.0
  0
LINE
  8
0
 62
     0
 10
84.569
 20
63.7053
 30
0.0
 11
83.7681
 21
63.7053
 31
0.0
  0
LINE
  8
0
 62
     0
 10
83.7681
 20
63.7053
 30
0.0
 11
83.7681
 21
64.7058
 31
0.0
  0
LINE
  8
0
 62
     0
 10
83.7681
 20
64.7058
 30
0.0
 11
69.7689
 21
64.7058
 31
0.0
  0
LINE
  8
0
 62
     0
 10
88.8189
 20
64.7058
 30
0.0
 11
88.8189
 21
63.7053
 31
0.0
  0
LINE
  8
0
 62
     0
 10
88.8189
 20
63.7053
 30
0.0
 11
88.0195
 21
63.7053
 31
0.0
  0
LINE
  8
0
 62
     0
 10
88.0195
 20
63.7053
 30
0.0
 11
88.0195
 21
60.6062
 31
0.0
  0
LINE
  8
0
 62
     0
 10
88.0195
 20
60.6062
 30
0.0
 11
88.8189
 21
60.6062
 31
0.0
  0
LINE
  8
0
 62
     0
 10
88.8189
 20
60.6062
 30
0.0
 11
88.8189
 21
54.8058
 31
0.0
  0
LINE
  8
0
 62
     0
 10
88.8189
 20
54.8058
 30
0.0
 11
88.0195
 21
54.8058
 31
0.0
  0
LINE
  8
0
 62
     0
 10
88.0195
 20
54.8058
 30
0.0
 11
88.0195
 21
51.7052
 31
0.0
  0
LINE
  8
0
 62
     0
 10
88.0195
 20
51.7052
 30
0.0
 11
88.8189
 21
51.7052
 31
0.0
  0
LINE
  8
0
 62
     0
 10
88.8189
 20
51.7052
 30
0.0
 11
88.8189
 21
50.7062
 31
0.0
  0
LINE
  8
0
 62
     0
 10
88.8189
 20
50.7062
 30
0.0
 11
102.818
 21
50.7062
 31
0.0
  0
LINE
  8
0
 62
     0
 10
102.818
 20
50.7062
 30
0.0
 11
102.818
 21
51.7052
 31
0.0
  0
LINE
  8
0
 62
     0
 10
102.818
 20
51.7052
 30
0.0
 11
103.618
 21
51.7052
 31
0.0
  0
LINE
  8
0
 62
     0
 10
103.618
 20
51.7052
 30
0.0
 11
103.618
 21
54.8058
 31
0.0
  0
LINE
  8
0
 62
     0
 10
103.618
 20
54.8058
 30
0.0
 11
102.818
 21
54.8058
 31
0.0
  0
LINE
  8
0
 62
     0
 10
102.818
 20
54.8058
 30
0.0
 11
102.818
 21
60.6062
 31
0.0
  0
LINE
  8
0
 62
     0
 10
102.818
 20
60.6062
 30
0.0
 11
103.618
 21
60.6062
 31
0.0
  0
LINE
  8
0
 62
     0
 10
103.618
 20
60.6062
 30
0.0
 11
103.618
 21
63.7053
 31
0.0
  0
LINE
  8
0
 62
     0
 10
103.618
 20
63.7053
 30
0.0
 11
102.818
 21
63.7053
 31
0.0
  0
LINE
  8
0
 62
     0
 10
102.818
 20
63.7053
 30
0.0
 11
102.818
 21
64.7058
 31
0.0
  0
LINE
  8
0
 62
     0
 10
102.818
 20
64.7058
 30
0.0
 11
88.8189
 21
64.7058
 31
0.0
  0
LINE
  8
0
 62
     0
 10
107.867
 20
64.7058
 30
0.0
 11
107.867
 21
63.7053
 31
0.0
  0
LINE
  8
0
 62
     0
 10
107.867
 20
63.7053
 30
0.0
 11
107.068
 21
63.7053
 31
0.0
  0
LINE
  8
0
 62
     0
 10
107.068
 20
63.7053
 30
0.0
 11
107.068
 21
60.6062
 31
0.0
  0
LINE
  8
0
 62
     0
 10
107.068
 20
60.6062
 30
0.0
 11
107.867
 21
60.6062
 31
0.0
  0
LINE
  8
0
 62
     0
 10
107.867
 20
60.6062
 30
0.0
 11
107.867
 21
54.8058
 31
0.0
  0
LINE
  8
0
 62
     0
 10
107.867
 20
54.8058
 30
0.0
 11
107.068
 21
54.8058
 31
0.0
  0
LINE
  8
0
 62
     0
 10
107.068
 20
54.8058
 30
0.0
 11
107.068
 21
51.7052
 31
0.0
  0
LINE
  8
0
 62
     0
 10
107.068
 20
51.7052
 30
0.0
 11
107.867
 21
51.7052
 31
0.0
  0
LINE
  8
0
 62
     0
 10
107.867
 20
51.7052
 30
0.0
 11
107.867
 21
50.7062
 31
0.0
  0
LINE
  8
0
 62
     0
 10
107.867
 20
50.7062
 30
0.0
 11
121.868
 21
50.7062
 31
0.0
  0
LINE
  8
0
 62
     0
 10
121.868
 20
50.7062
 30
0.0
 11
121.868
 21
51.7052
 31
0.0
  0
LINE
  8
0
 62
     0
 10
121.868
 20
51.7052
 30
0.0
 11
122.668
 21
51.7052
 31
0.0
  0
LINE
  8
0
 62
     0
 10
122.668
 20
51.7052
 30
0.0
 11
122.668
 21
54.8058
 31
0.0
  0
LINE
  8
0
 62
     0
 10
122.668
 20
54.8058
 30
0.0
 11
121.868
 21
54.8058
 31
0.0
  0
LINE
  8
0
 62
     0
 10
121.868
 20
54.8058
 30
0.0
 11
121.868
 21
60.6062
 31
0.0
  0
LINE
  8
0
 62
     0
 10
121.868
 20
60.6062
 30
0.0
 11
122.668
 21
60.6062
 31
0.0
  0
LINE
  8
0
 62
     0
 10
122.668
 20
60.6062
 30
0.0
 11
122.668
 21
63.7053
 31
0.0
  0
LINE
  8
0
 62
     0
 10
122.668
 20
63.7053
 30
0.0
 11
121.868
 21
63.7053
 31
0.0
  0
LINE
  8
0
 62
     0
 10
121.868
 20
63.7053
 30
0.0
 11
121.868
 21
64.7058
 31
0.0
  0
LINE
  8
0
 62
     0
 10
121.868
 20
64.7058
 30
0.0
 11
107.867
 21
64.7058
 31
0.0
  0
LINE
  8
0
 62
     0
 10
126.919
 20
64.7058
 30
0.0
 11
126.919
 21
63.7053
 31
0.0
  0
LINE
  8
0
 62
     0
 10
126.919
 20
63.7053
 30
0.0
 11
126.118
 21
63.7053
 31
0.0
  0
LINE
  8
0
 62
     0
 10
126.118
 20
63.7053
 30
0.0
 11
126.118
 21
60.6062
 31
0.0
  0
LINE
  8
0
 62
     0
 10
126.118
 20
60.6062
 30
0.0
 11
126.919
 21
60.6062
 31
0.0
  0
LINE
  8
0
 62
     0
 10
126.919
 20
60.6062
 30
0.0
 11
126.919
 21
54.8058
 31
0.0
  0
LINE
  8
0
 62
     0
 10
126.919
 20
54.8058
 30
0.0
 11
126.118
 21
54.8058
 31
0.0
  0
LINE
  8
0
 62
     0
 10
126.118
 20
54.8058
 30
0.0
 11
126.118
 21
51.7052
 31
0.0
  0
LINE
  8
0
 62
     0
 10
126.118
 20
51.7052
 30
0.0
 11
126.919
 21
51.7052
 31
0.0
  0
LINE
  8
0
 62
     0
 10
126.919
 20
51.7052
 30
0.0
 11
126.919
 21
50.7062
 31
0.0
  0
LINE
  8
0
 62
     0
 10
126.919
 20
50.7062
 30
0.0
 11
140.918
 21
50.7062
 31
0.0
  0
LINE
  8
0
 62
     0
 10
140.918
 20
50.7062
 30
0.0
 11
140.918
 21
51.7052
 31
0.0
  0
LINE
  8
0
 62
     0
 10
140.918
 20
51.7052
 30
0.0
 11
141.719
 21
51.7052
 31
0.0
  0
LINE
  8
0
 62
     0
 10
141.719
 20
51.7052
 30
0.0
 11
141.719
 21
54.8058
 31
0.0
  0
LINE
  8
0
 62
     0
 10
141.719
 20
54.8058
 30
0.0
 11
140.918
 21
54.8058
 31
0.0
  0
LINE
  8
0
 62
     0
 10
140.918
 20
54.8058
 30
0.0
 11
140.918
 21
60.6062
 31
0.0
  0
LINE
  8
0
 62
     0
 10
140.918
 20
60.6062
 30
0.0
 11
141.719
 21
60.6062
 31
0.0
  0
LINE
  8
0
 62
     0
 10
141.719
 20
60.6062
 30
0.0
 11
141.719
 21
63.7053
 31
0.0
  0
LINE
  8
0
 62
     0
 10
141.719
 20
63.7053
 30
0.0
 11
140.918
 21
63.7053
 31
0.0
  0
LINE
  8
0
 62
     0
 10
140.918
 20
63.7053
 30
0.0
 11
140.918
 21
64.7058
 31
0.0
  0
LINE
  8
0
 62
     0
 10
140.918
 20
64.7058
 30
0.0
 11
126.919
 21
64.7058
 31
0.0
  0
LINE
  8
0
 62
     0
 10
145.969
 20
64.7058
 30
0.0
 11
145.969
 21
63.7053
 31
0.0
  0
LINE
  8
0
 62
     0
 10
145.969
 20
63.7053
 30
0.0
 11
145.168
 21
63.7053
 31
0.0
  0
LINE
  8
0
 62
     0
 10
145.168
 20
63.7053
 30
0.0
 11
145.168
 21
60.6062
 31
0.0
  0
LINE
  8
0
 62
     0
 10
145.168
 20
60.6062
 30
0.0
 11
145.969
 21
60.6062
 31
0.0
  0
LINE
  8
0
 62
     0
 10
145.969
 20
60.6062
 30
0.0
 11
145.969
 21
54.8058
 31
0.0
  0
LINE
  8
0
 62
     0
 10
145.969
 20
54.8058
 30
0.0
 11
145.168
 21
54.8058
 31
0.0
  0
LINE
  8
0
 62
     0
 10
145.168
 20
54.8058
 30
0.0
 11
145.168
 21
51.7052
 31
0.0
  0
LINE
  8
0
 62
     0
 10
145.168
 20
51.7052
 30
0.0
 11
145.969
 21
51.7052
 31
0.0
  0
LINE
  8
0
 62
     0
 10
145.969
 20
51.7052
 30
0.0
 11
145.969
 21
50.7062
 31
0.0
  0
LINE
  8
0
 62
     0
 10
145.969
 20
50.7062
 30
0.0
 11
159.968
 21
50.7062
 31
0.0
  0
LINE
  8
0
 62
     0
 10
159.968
 20
50.7062
 30
0.0
 11
159.968
 21
51.7052
 31
0.0
  0
LINE
  8
0
 62
     0
 10
159.968
 20
51.7052
 30
0.0
 11
160.769
 21
51.7052
 31
0.0
  0
LINE
  8
0
 62
     0
 10
160.769
 20
51.7052
 30
0.0
 11
160.769
 21
54.8058
 31
0.0
  0
LINE
  8
0
 62
     0
 10
160.769
 20
54.8058
 30
0.0
 11
159.968
 21
54.8058
 31
0.0
  0
LINE
  8
0
 62
     0
 10
159.968
 20
54.8058
 30
0.0
 11
159.968
 21
60.6062
 31
0.0
  0
LINE
  8
0
 62
     0
 10
159.968
 20
60.6062
 30
0.0
 11
160.769
 21
60.6062
 31
0.0
  0
LINE
  8
0
 62
     0
 10
160.769
 20
60.6062
 30
0.0
 11
160.769
 21
63.7053
 31
0.0
  0
LINE
  8
0
 62
     0
 10
160.769
 20
63.7053
 30
0.0
 11
159.968
 21
63.7053
 31
0.0
  0
LINE
  8
0
 62
     0
 10
159.968
 20
63.7053
 30
0.0
 11
159.968
 21
64.7058
 31
0.0
  0
LINE
  8
0
 62
     0
 10
159.968
 20
64.7058
 30
0.0
 11
145.969
 21
64.7058
 31
0.0
  0
LINE
  8
0
 62
     0
 10
165.019
 20
64.7058
 30
0.0
 11
165.019
 21
63.7053
 31
0.0
  0
LINE
  8
0
 62
     0
 10
165.019
 20
63.7053
 30
0.0
 11
164.218
 21
63.7053
 31
0.0
  0
LINE
  8
0
 62
     0
 10
164.218
 20
63.7053
 30
0.0
 11
164.218
 21
60.6062
 31
0.0
  0
LINE
  8
0
 62
     0
 10
164.218
 20
60.6062
 30
0.0
 11
165.019
 21
60.6062
 31
0.0
  0
LINE
  8
0
 62
     0
 10
165.019
 20
60.6062
 30
0.0
 11
165.019
 21
54.8058
 31
0.0
  0
LINE
  8
0
 62
     0
 10
165.019
 20
54.8058
 30
0.0
 11
164.218
 21
54.8058
 31
0.0
  0
LINE
  8
0
 62
     0
 10
164.218
 20
54.8058
 30
0.0
 11
164.218
 21
51.7052
 31
0.0
  0
LINE
  8
0
 62
     0
 10
164.218
 20
51.7052
 30
0.0
 11
165.019
 21
51.7052
 31
0.0
  0
LINE
  8
0
 62
     0
 10
165.019
 20
51.7052
 30
0.0
 11
165.019
 21
50.7062
 31
0.0
  0
LINE
  8
0
 62
     0
 10
165.019
 20
50.7062
 30
0.0
 11
179.018
 21
50.7062
 31
0.0
  0
LINE
  8
0
 62
     0
 10
179.018
 20
50.7062
 30
0.0
 11
179.018
 21
51.7052
 31
0.0
  0
LINE
  8
0
 62
     0
 10
179.018
 20
51.7052
 30
0.0
 11
179.819
 21
51.7052
 31
0.0
  0
LINE
  8
0
 62
     0
 10
179.819
 20
51.7052
 30
0.0
 11
179.819
 21
54.8058
 31
0.0
  0
LINE
  8
0
 62
     0
 10
179.819
 20
54.8058
 30
0.0
 11
179.018
 21
54.8058
 31
0.0
  0
LINE
  8
0
 62
     0
 10
179.018
 20
54.8058
 30
0.0
 11
179.018
 21
60.6062
 31
0.0
  0
LINE
  8
0
 62
     0
 10
179.018
 20
60.6062
 30
0.0
 11
179.819
 21
60.6062
 31
0.0
  0
LINE
  8
0
 62
     0
 10
179.819
 20
60.6062
 30
0.0
 11
179.819
 21
63.7053
 31
0.0
  0
LINE
  8
0
 62
     0
 10
179.819
 20
63.7053
 30
0.0
 11
179.018
 21
63.7053
 31
0.0
  0
LINE
  8
0
 62
     0
 10
179.018
 20
63.7053
 30
0.0
 11
179.018
 21
64.7058
 31
0.0
  0
LINE
  8
0
 62
     0
 10
179.018
 20
64.7058
 30
0.0
 11
165.019
 21
64.7058
 31
0.0
  0
LINE
  8
0
 62
     0
 10
184.069
 20
64.7058
 30
0.0
 11
184.069
 21
63.7053
 31
0.0
  0
LINE
  8
0
 62
     0
 10
184.069
 20
63.7053
 30
0.0
 11
183.268
 21
63.7053
 31
0.0
  0
LINE
  8
0
 62
     0
 10
183.268
 20
63.7053
 30
0.0
 11
183.268
 21
60.6062
 31
0.0
  0
LINE
  8
0
 62
     0
 10
183.268
 20
60.6062
 30
0.0
 11
184.069
 21
60.6062
 31
0.0
  0
LINE
  8
0
 62
     0
 10
184.069
 20
60.6062
 30
0.0
 11
184.069
 21
54.8058
 31
0.0
  0
LINE
  8
0
 62
     0
 10
184.069
 20
54.8058
 30
0.0
 11
183.268
 21
54.8058
 31
0.0
  0
LINE
  8
0
 62
     0
 10
183.268
 20
54.8058
 30
0.0
 11
183.268
 21
51.7052
 31
0.0
  0
LINE
  8
0
 62
     0
 10
183.268
 20
51.7052
 30
0.0
 11
184.069
 21
51.7052
 31
0.0
  0
LINE
  8
0
 62
     0
 10
184.069
 20
51.7052
 30
0.0
 11
184.069
 21
50.7062
 31
0.0
  0
LINE
  8
0
 62
     0
 10
184.069
 20
50.7062
 30
0.0
 11
198.068
 21
50.7062
 31
0.0
  0
LINE
  8
0
 62
     0
 10
198.068
 20
50.7062
 30
0.0
 11
198.068
 21
51.7052
 31
0.0
  0
LINE
  8
0
 62
     0
 10
198.068
 20
51.7052
 30
0.0
 11
198.869
 21
51.7052
 31
0.0
  0
LINE
  8
0
 62
     0
 10
198.869
 20
51.7052
 30
0.0
 11
198.869
 21
54.8058
 31
0.0
  0
LINE
  8
0
 62
     0
 10
198.869
 20
54.8058
 30
0.0
 11
198.068
 21
54.8058
 31
0.0
  0
LINE
  8
0
 62
     0
 10
198.068
 20
54.8058
 30
0.0
 11
198.068
 21
60.6062
 31
0.0
  0
LINE
  8
0
 62
     0
 10
198.068
 20
60.6062
 30
0.0
 11
198.869
 21
60.6062
 31
0.0
  0
LINE
  8
0
 62
     0
 10
198.869
 20
60.6062
 30
0.0
 11
198.869
 21
63.7053
 31
0.0
  0
LINE
  8
0
 62
     0
 10
198.869
 20
63.7053
 30
0.0
 11
198.068
 21
63.7053
 31
0.0
  0
LINE
  8
0
 62
     0
 10
198.068
 20
63.7053
 30
0.0
 11
198.068
 21
64.7058
 31
0.0
  0
LINE
  8
0
 62
     0
 10
198.068
 20
64.7058
 30
0.0
 11
184.069
 21
64.7058
 31
0.0
  0
LINE
  8
0
 62
     0
 10
203.119
 20
64.7058
 30
0.0
 11
203.119
 21
63.7053
 31
0.0
  0
LINE
  8
0
 62
     0
 10
203.119
 20
63.7053
 30
0.0
 11
202.318
 21
63.7053
 31
0.0
  0
LINE
  8
0
 62
     0
 10
202.318
 20
63.7053
 30
0.0
 11
202.318
 21
60.6062
 31
0.0
  0
LINE
  8
0
 62
     0
 10
202.318
 20
60.6062
 30
0.0
 11
203.119
 21
60.6062
 31
0.0
  0
LINE
  8
0
 62
     0
 10
203.119
 20
60.6062
 30
0.0
 11
203.119
 21
54.8058
 31
0.0
  0
LINE
  8
0
 62
     0
 10
203.119
 20
54.8058
 30
0.0
 11
202.318
 21
54.8058
 31
0.0
  0
LINE
  8
0
 62
     0
 10
202.318
 20
54.8058
 30
0.0
 11
202.318
 21
51.7052
 31
0.0
  0
LINE
  8
0
 62
     0
 10
202.318
 20
51.7052
 30
0.0
 11
203.119
 21
51.7052
 31
0.0
  0
LINE
  8
0
 62
     0
 10
203.119
 20
51.7052
 30
0.0
 11
203.119
 21
50.7062
 31
0.0
  0
LINE
  8
0
 62
     0
 10
203.119
 20
50.7062
 30
0.0
 11
217.118
 21
50.7062
 31
0.0
  0
LINE
  8
0
 62
     0
 10
217.118
 20
50.7062
 30
0.0
 11
217.118
 21
51.7052
 31
0.0
  0
LINE
  8
0
 62
     0
 10
217.118
 20
51.7052
 30
0.0
 11
217.919
 21
51.7052
 31
0.0
  0
LINE
  8
0
 62
     0
 10
217.919
 20
51.7052
 30
0.0
 11
217.919
 21
54.8058
 31
0.0
  0
LINE
  8
0
 62
     0
 10
217.919
 20
54.8058
 30
0.0
 11
217.118
 21
54.8058
 31
0.0
  0
LINE
  8
0
 62
     0
 10
217.118
 20
54.8058
 30
0.0
 11
217.118
 21
60.6062
 31
0.0
  0
LINE
  8
0
 62
     0
 10
217.118
 20
60.6062
 30
0.0
 11
217.919
 21
60.6062
 31
0.0
  0
LINE
  8
0
 62
     0
 10
217.919
 20
60.6062
 30
0.0
 11
217.919
 21
63.7053
 31
0.0
  0
LINE
  8
0
 62
     0
 10
217.919
 20
63.7053
 30
0.0
 11
217.118
 21
63.7053
 31
0.0
  0
LINE
  8
0
 62
     0
 10
217.118
 20
63.7053
 30
0.0
 11
217.118
 21
64.7058
 31
0.0
  0
LINE
  8
0
 62
     0
 10
217.118
 20
64.7058
 30
0.0
 11
203.119
 21
64.7058
 31
0.0
  0
LINE
  8
0
 62
     0
 10
222.169
 20
64.7058
 30
0.0
 11
222.169
 21
63.7053
 31
0.0
  0
LINE
  8
0
 62
     0
 10
222.169
 20
63.7053
 30
0.0
 11
221.368
 21
63.7053
 31
0.0
  0
LINE
  8
0
 62
     0
 10
221.368
 20
63.7053
 30
0.0
 11
221.368
 21
60.6062
 31
0.0
  0
LINE
  8
0
 62
     0
 10
221.368
 20
60.6062
 30
0.0
 11
222.169
 21
60.6062
 31
0.0
  0
LINE
  8
0
 62
     0
 10
222.169
 20
60.6062
 30
0.0
 11
222.169
 21
54.8058
 31
0.0
  0
LINE
  8
0
 62
     0
 10
222.169
 20
54.8058
 30
0.0
 11
221.368
 21
54.8058
 31
0.0
  0
LINE
  8
0
 62
     0
 10
221.368
 20
54.8058
 30
0.0
 11
221.368
 21
51.7052
 31
0.0
  0
LINE
  8
0
 62
     0
 10
221.368
 20
51.7052
 30
0.0
 11
222.169
 21
51.7052
 31
0.0
  0
LINE
  8
0
 62
     0
 10
222.169
 20
51.7052
 30
0.0
 11
222.169
 21
50.7062
 31
0.0
  0
LINE
  8
0
 62
     0
 10
222.169
 20
50.7062
 30
0.0
 11
236.168
 21
50.7062
 31
0.0
  0
LINE
  8
0
 62
     0
 10
236.168
 20
50.7062
 30
0.0
 11
236.168
 21
51.7052
 31
0.0
  0
LINE
  8
0
 62
     0
 10
236.168
 20
51.7052
 30
0.0
 11
236.969
 21
51.7052
 31
0.0
  0
LINE
  8
0
 62
     0
 10
236.969
 20
51.7052
 30
0.0
 11
236.969
 21
54.8058
 31
0.0
  0
LINE
  8
0
 62
     0
 10
236.969
 20
54.8058
 30
0.0
 11
236.168
 21
54.8058
 31
0.0
  0
LINE
  8
0
 62
     0
 10
236.168
 20
54.8058
 30
0.0
 11
236.168
 21
60.6062
 31
0.0
  0
LINE
  8
0
 62
     0
 10
236.168
 20
60.6062
 30
0.0
 11
236.969
 21
60.6062
 31
0.0
  0
LINE
  8
0
 62
     0
 10
236.969
 20
60.6062
 30
0.0
 11
236.969
 21
63.7053
 31
0.0
  0
LINE
  8
0
 62
     0
 10
236.969
 20
63.7053
 30
0.0
 11
236.168
 21
63.7053
 31
0.0
  0
LINE
  8
0
 62
     0
 10
236.168
 20
63.7053
 30
0.0
 11
236.168
 21
64.7058
 31
0.0
  0
LINE
  8
0
 62
     0
 10
236.168
 20
64.7058
 30
0.0
 11
222.169
 21
64.7058
 31
0.0
  0
LINE
  8
0
 62
     0
 10
12.6187
 20
83.7558
 30
0.0
 11
12.6187
 21
82.7553
 31
0.0
  0
LINE
  8
0
 62
     0
 10
12.6187
 20
82.7553
 30
0.0
 11
11.8181
 21
82.7553
 31
0.0
  0
LINE
  8
0
 62
     0
 10
11.8181
 20
82.7553
 30
0.0
 11
11.8181
 21
79.6562
 31
0.0
  0
LINE
  8
0
 62
     0
 10
11.8181
 20
79.6562
 30
0.0
 11
12.6187
 21
79.6562
 31
0.0
  0
LINE
  8
0
 62
     0
 10
12.6187
 20
79.6562
 30
0.0
 11
12.6187
 21
73.8572
 31
0.0
  0
LINE
  8
0
 62
     0
 10
12.6187
 20
73.8572
 30
0.0
 11
11.8181
 21
73.8572
 31
0.0
  0
LINE
  8
0
 62
     0
 10
11.8181
 20
73.8572
 30
0.0
 11
11.8181
 21
70.7552
 31
0.0
  0
LINE
  8
0
 62
     0
 10
11.8181
 20
70.7552
 30
0.0
 11
12.6187
 21
70.7552
 31
0.0
  0
LINE
  8
0
 62
     0
 10
12.6187
 20
70.7552
 30
0.0
 11
12.6187
 21
69.7562
 31
0.0
  0
LINE
  8
0
 62
     0
 10
12.6187
 20
69.7562
 30
0.0
 11
26.6182
 21
69.7562
 31
0.0
  0
LINE
  8
0
 62
     0
 10
26.6182
 20
69.7562
 30
0.0
 11
26.6182
 21
70.7552
 31
0.0
  0
LINE
  8
0
 62
     0
 10
26.6182
 20
70.7552
 30
0.0
 11
27.4161
 21
70.7552
 31
0.0
  0
LINE
  8
0
 62
     0
 10
27.4161
 20
70.7552
 30
0.0
 11
27.4161
 21
73.8572
 31
0.0
  0
LINE
  8
0
 62
     0
 10
27.4161
 20
73.8572
 30
0.0
 11
26.6182
 21
73.8572
 31
0.0
  0
LINE
  8
0
 62
     0
 10
26.6182
 20
73.8572
 30
0.0
 11
26.6182
 21
79.6562
 31
0.0
  0
LINE
  8
0
 62
     0
 10
26.6182
 20
79.6562
 30
0.0
 11
27.4161
 21
79.6562
 31
0.0
  0
LINE
  8
0
 62
     0
 10
27.4161
 20
79.6562
 30
0.0
 11
27.4161
 21
82.7553
 31
0.0
  0
LINE
  8
0
 62
     0
 10
27.4161
 20
82.7553
 30
0.0
 11
26.6182
 21
82.7553
 31
0.0
  0
LINE
  8
0
 62
     0
 10
26.6182
 20
82.7553
 30
0.0
 11
26.6182
 21
83.7558
 31
0.0
  0
LINE
  8
0
 62
     0
 10
26.6182
 20
83.7558
 30
0.0
 11
12.6187
 21
83.7558
 31
0.0
  0
LINE
  8
0
 62
     0
 10
31.6687
 20
83.7558
 30
0.0
 11
31.6687
 21
82.7553
 31
0.0
  0
LINE
  8
0
 62
     0
 10
31.6687
 20
82.7553
 30
0.0
 11
30.8694
 21
82.7553
 31
0.0
  0
LINE
  8
0
 62
     0
 10
30.8694
 20
82.7553
 30
0.0
 11
30.8694
 21
79.6562
 31
0.0
  0
LINE
  8
0
 62
     0
 10
30.8694
 20
79.6562
 30
0.0
 11
31.6687
 21
79.6562
 31
0.0
  0
LINE
  8
0
 62
     0
 10
31.6687
 20
79.6562
 30
0.0
 11
31.6687
 21
73.8572
 31
0.0
  0
LINE
  8
0
 62
     0
 10
31.6687
 20
73.8572
 30
0.0
 11
30.8694
 21
73.8572
 31
0.0
  0
LINE
  8
0
 62
     0
 10
30.8694
 20
73.8572
 30
0.0
 11
30.8694
 21
70.7552
 31
0.0
  0
LINE
  8
0
 62
     0
 10
30.8694
 20
70.7552
 30
0.0
 11
31.6687
 21
70.7552
 31
0.0
  0
LINE
  8
0
 62
     0
 10
31.6687
 20
70.7552
 30
0.0
 11
31.6687
 21
69.7562
 31
0.0
  0
LINE
  8
0
 62
     0
 10
31.6687
 20
69.7562
 30
0.0
 11
45.6681
 21
69.7562
 31
0.0
  0
LINE
  8
0
 62
     0
 10
45.6681
 20
69.7562
 30
0.0
 11
45.6681
 21
70.7552
 31
0.0
  0
LINE
  8
0
 62
     0
 10
45.6681
 20
70.7552
 30
0.0
 11
46.4689
 21
70.7552
 31
0.0
  0
LINE
  8
0
 62
     0
 10
46.4689
 20
70.7552
 30
0.0
 11
46.4689
 21
73.8572
 31
0.0
  0
LINE
  8
0
 62
     0
 10
46.4689
 20
73.8572
 30
0.0
 11
45.6681
 21
73.8572
 31
0.0
  0
LINE
  8
0
 62
     0
 10
45.6681
 20
73.8572
 30
0.0
 11
45.6681
 21
79.6562
 31
0.0
  0
LINE
  8
0
 62
     0
 10
45.6681
 20
79.6562
 30
0.0
 11
46.4689
 21
79.6562
 31
0.0
  0
LINE
  8
0
 62
     0
 10
46.4689
 20
79.6562
 30
0.0
 11
46.4689
 21
82.7553
 31
0.0
  0
LINE
  8
0
 62
     0
 10
46.4689
 20
82.7553
 30
0.0
 11
45.6681
 21
82.7553
 31
0.0
  0
LINE
  8
0
 62
     0
 10
45.6681
 20
82.7553
 30
0.0
 11
45.6681
 21
83.7558
 31
0.0
  0
LINE
  8
0
 62
     0
 10
45.6681
 20
83.7558
 30
0.0
 11
31.6687
 21
83.7558
 31
0.0
  0
LINE
  8
0
 62
     0
 10
50.7189
 20
83.7558
 30
0.0
 11
50.7189
 21
82.7553
 31
0.0
  0
LINE
  8
0
 62
     0
 10
50.7189
 20
82.7553
 30
0.0
 11
49.9195
 21
82.7553
 31
0.0
  0
LINE
  8
0
 62
     0
 10
49.9195
 20
82.7553
 30
0.0
 11
49.9195
 21
79.6562
 31
0.0
  0
LINE
  8
0
 62
     0
 10
49.9195
 20
79.6562
 30
0.0
 11
50.7189
 21
79.6562
 31
0.0
  0
LINE
  8
0
 62
     0
 10
50.7189
 20
79.6562
 30
0.0
 11
50.7189
 21
73.8572
 31
0.0
  0
LINE
  8
0
 62
     0
 10
50.7189
 20
73.8572
 30
0.0
 11
49.9195
 21
73.8572
 31
0.0
  0
LINE
  8
0
 62
     0
 10
49.9195
 20
73.8572
 30
0.0
 11
49.9195
 21
70.7552
 31
0.0
  0
LINE
  8
0
 62
     0
 10
49.9195
 20
70.7552
 30
0.0
 11
50.7189
 21
70.7552
 31
0.0
  0
LINE
  8
0
 62
     0
 10
50.7189
 20
70.7552
 30
0.0
 11
50.7189
 21
69.7562
 31
0.0
  0
LINE
  8
0
 62
     0
 10
50.7189
 20
69.7562
 30
0.0
 11
64.7181
 21
69.7562
 31
0.0
  0
LINE
  8
0
 62
     0
 10
64.7181
 20
69.7562
 30
0.0
 11
64.7181
 21
70.7552
 31
0.0
  0
LINE
  8
0
 62
     0
 10
64.7181
 20
70.7552
 30
0.0
 11
65.519
 21
70.7552
 31
0.0
  0
LINE
  8
0
 62
     0
 10
65.519
 20
70.7552
 30
0.0
 11
65.519
 21
73.8572
 31
0.0
  0
LINE
  8
0
 62
     0
 10
65.519
 20
73.8572
 30
0.0
 11
64.7181
 21
73.8572
 31
0.0
  0
LINE
  8
0
 62
     0
 10
64.7181
 20
73.8572
 30
0.0
 11
64.7181
 21
79.6562
 31
0.0
  0
LINE
  8
0
 62
     0
 10
64.7181
 20
79.6562
 30
0.0
 11
65.519
 21
79.6562
 31
0.0
  0
LINE
  8
0
 62
     0
 10
65.519
 20
79.6562
 30
0.0
 11
65.519
 21
82.7553
 31
0.0
  0
LINE
  8
0
 62
     0
 10
65.519
 20
82.7553
 30
0.0
 11
64.7181
 21
82.7553
 31
0.0
  0
LINE
  8
0
 62
     0
 10
64.7181
 20
82.7553
 30
0.0
 11
64.7181
 21
83.7558
 31
0.0
  0
LINE
  8
0
 62
     0
 10
64.7181
 20
83.7558
 30
0.0
 11
50.7189
 21
83.7558
 31
0.0
  0
LINE
  8
0
 62
     0
 10
69.7689
 20
83.7558
 30
0.0
 11
69.7689
 21
82.7553
 31
0.0
  0
LINE
  8
0
 62
     0
 10
69.7689
 20
82.7553
 30
0.0
 11
68.9695
 21
82.7553
 31
0.0
  0
LINE
  8
0
 62
     0
 10
68.9695
 20
82.7553
 30
0.0
 11
68.9695
 21
79.6562
 31
0.0
  0
LINE
  8
0
 62
     0
 10
68.9695
 20
79.6562
 30
0.0
 11
69.7689
 21
79.6562
 31
0.0
  0
LINE
  8
0
 62
     0
 10
69.7689
 20
79.6562
 30
0.0
 11
69.7689
 21
73.8572
 31
0.0
  0
LINE
  8
0
 62
     0
 10
69.7689
 20
73.8572
 30
0.0
 11
68.9695
 21
73.8572
 31
0.0
  0
LINE
  8
0
 62
     0
 10
68.9695
 20
73.8572
 30
0.0
 11
68.9695
 21
70.7552
 31
0.0
  0
LINE
  8
0
 62
     0
 10
68.9695
 20
70.7552
 30
0.0
 11
69.7689
 21
70.7552
 31
0.0
  0
LINE
  8
0
 62
     0
 10
69.7689
 20
70.7552
 30
0.0
 11
69.7689
 21
69.7562
 31
0.0
  0
LINE
  8
0
 62
     0
 10
69.7689
 20
69.7562
 30
0.0
 11
83.7681
 21
69.7562
 31
0.0
  0
LINE
  8
0
 62
     0
 10
83.7681
 20
69.7562
 30
0.0
 11
83.7681
 21
70.7552
 31
0.0
  0
LINE
  8
0
 62
     0
 10
83.7681
 20
70.7552
 30
0.0
 11
84.569
 21
70.7552
 31
0.0
  0
LINE
  8
0
 62
     0
 10
84.569
 20
70.7552
 30
0.0
 11
84.569
 21
73.8572
 31
0.0
  0
LINE
  8
0
 62
     0
 10
84.569
 20
73.8572
 30
0.0
 11
83.7681
 21
73.8572
 31
0.0
  0
LINE
  8
0
 62
     0
 10
83.7681
 20
73.8572
 30
0.0
 11
83.7681
 21
79.6562
 31
0.0
  0
LINE
  8
0
 62
     0
 10
83.7681
 20
79.6562
 30
0.0
 11
84.569
 21
79.6562
 31
0.0
  0
LINE
  8
0
 62
     0
 10
84.569
 20
79.6562
 30
0.0
 11
84.569
 21
82.7553
 31
0.0
  0
LINE
  8
0
 62
     0
 10
84.569
 20
82.7553
 30
0.0
 11
83.7681
 21
82.7553
 31
0.0
  0
LINE
  8
0
 62
     0
 10
83.7681
 20
82.7553
 30
0.0
 11
83.7681
 21
83.7558
 31
0.0
  0
LINE
  8
0
 62
     0
 10
83.7681
 20
83.7558
 30
0.0
 11
69.7689
 21
83.7558
 31
0.0
  0
LINE
  8
0
 62
     0
 10
88.8189
 20
83.7558
 30
0.0
 11
88.8189
 21
82.7553
 31
0.0
  0
LINE
  8
0
 62
     0
 10
88.8189
 20
82.7553
 30
0.0
 11
88.0195
 21
82.7553
 31
0.0
  0
LINE
  8
0
 62
     0
 10
88.0195
 20
82.7553
 30
0.0
 11
88.0195
 21
79.6562
 31
0.0
  0
LINE
  8
0
 62
     0
 10
88.0195
 20
79.6562
 30
0.0
 11
88.8189
 21
79.6562
 31
0.0
  0
LINE
  8
0
 62
     0
 10
88.8189
 20
79.6562
 30
0.0
 11
88.8189
 21
73.8572
 31
0.0
  0
LINE
  8
0
 62
     0
 10
88.8189
 20
73.8572
 30
0.0
 11
88.0195
 21
73.8572
 31
0.0
  0
LINE
  8
0
 62
     0
 10
88.0195
 20
73.8572
 30
0.0
 11
88.0195
 21
70.7552
 31
0.0
  0
LINE
  8
0
 62
     0
 10
88.0195
 20
70.7552
 30
0.0
 11
88.8189
 21
70.7552
 31
0.0
  0
LINE
  8
0
 62
     0
 10
88.8189
 20
70.7552
 30
0.0
 11
88.8189
 21
69.7562
 31
0.0
  0
LINE
  8
0
 62
     0
 10
88.8189
 20
69.7562
 30
0.0
 11
102.818
 21
69.7562
 31
0.0
  0
LINE
  8
0
 62
     0
 10
102.818
 20
69.7562
 30
0.0
 11
102.818
 21
70.7552
 31
0.0
  0
LINE
  8
0
 62
     0
 10
102.818
 20
70.7552
 30
0.0
 11
103.618
 21
70.7552
 31
0.0
  0
LINE
  8
0
 62
     0
 10
103.618
 20
70.7552
 30
0.0
 11
103.618
 21
73.8572
 31
0.0
  0
LINE
  8
0
 62
     0
 10
103.618
 20
73.8572
 30
0.0
 11
102.818
 21
73.8572
 31
0.0
  0
LINE
  8
0
 62
     0
 10
102.818
 20
73.8572
 30
0.0
 11
102.818
 21
79.6562
 31
0.0
  0
LINE
  8
0
 62
     0
 10
102.818
 20
79.6562
 30
0.0
 11
103.618
 21
79.6562
 31
0.0
  0
LINE
  8
0
 62
     0
 10
103.618
 20
79.6562
 30
0.0
 11
103.618
 21
82.7553
 31
0.0
  0
LINE
  8
0
 62
     0
 10
103.618
 20
82.7553
 30
0.0
 11
102.818
 21
82.7553
 31
0.0
  0
LINE
  8
0
 62
     0
 10
102.818
 20
82.7553
 30
0.0
 11
102.818
 21
83.7558
 31
0.0
  0
LINE
  8
0
 62
     0
 10
102.818
 20
83.7558
 30
0.0
 11
88.8189
 21
83.7558
 31
0.0
  0
LINE
  8
0
 62
     0
 10
107.867
 20
83.7558
 30
0.0
 11
107.867
 21
82.7553
 31
0.0
  0
LINE
  8
0
 62
     0
 10
107.867
 20
82.7553
 30
0.0
 11
107.068
 21
82.7553
 31
0.0
  0
LINE
  8
0
 62
     0
 10
107.068
 20
82.7553
 30
0.0
 11
107.068
 21
79.6562
 31
0.0
  0
LINE
  8
0
 62
     0
 10
107.068
 20
79.6562
 30
0.0
 11
107.867
 21
79.6562
 31
0.0
  0
LINE
  8
0
 62
     0
 10
107.867
 20
79.6562
 30
0.0
 11
107.867
 21
73.8572
 31
0.0
  0
LINE
  8
0
 62
     0
 10
107.867
 20
73.8572
 30
0.0
 11
107.068
 21
73.8572
 31
0.0
  0
LINE
  8
0
 62
     0
 10
107.068
 20
73.8572
 30
0.0
 11
107.068
 21
70.7552
 31
0.0
  0
LINE
  8
0
 62
     0
 10
107.068
 20
70.7552
 30
0.0
 11
107.867
 21
70.7552
 31
0.0
  0
LINE
  8
0
 62
     0
 10
107.867
 20
70.7552
 30
0.0
 11
107.867
 21
69.7562
 31
0.0
  0
LINE
  8
0
 62
     0
 10
107.867
 20
69.7562
 30
0.0
 11
121.868
 21
69.7562
 31
0.0
  0
LINE
  8
0
 62
     0
 10
121.868
 20
69.7562
 30
0.0
 11
121.868
 21
70.7552
 31
0.0
  0
LINE
  8
0
 62
     0
 10
121.868
 20
70.7552
 30
0.0
 11
122.668
 21
70.7552
 31
0.0
  0
LINE
  8
0
 62
     0
 10
122.668
 20
70.7552
 30
0.0
 11
122.668
 21
73.8572
 31
0.0
  0
LINE
  8
0
 62
     0
 10
122.668
 20
73.8572
 30
0.0
 11
121.868
 21
73.8572
 31
0.0
  0
LINE
  8
0
 62
     0
 10
121.868
 20
73.8572
 30
0.0
 11
121.868
 21
79.6562
 31
0.0
  0
LINE
  8
0
 62
     0
 10
121.868
 20
79.6562
 30
0.0
 11
122.668
 21
79.6562
 31
0.0
  0
LINE
  8
0
 62
     0
 10
122.668
 20
79.6562
 30
0.0
 11
122.668
 21
82.7553
 31
0.0
  0
LINE
  8
0
 62
     0
 10
122.668
 20
82.7553
 30
0.0
 11
121.868
 21
82.7553
 31
0.0
  0
LINE
  8
0
 62
     0
 10
121.868
 20
82.7553
 30
0.0
 11
121.868
 21
83.7558
 31
0.0
  0
LINE
  8
0
 62
     0
 10
121.868
 20
83.7558
 30
0.0
 11
107.867
 21
83.7558
 31
0.0
  0
LINE
  8
0
 62
     0
 10
126.919
 20
83.7558
 30
0.0
 11
126.919
 21
82.7553
 31
0.0
  0
LINE
  8
0
 62
     0
 10
126.919
 20
82.7553
 30
0.0
 11
126.118
 21
82.7553
 31
0.0
  0
LINE
  8
0
 62
     0
 10
126.118
 20
82.7553
 30
0.0
 11
126.118
 21
79.6562
 31
0.0
  0
LINE
  8
0
 62
     0
 10
126.118
 20
79.6562
 30
0.0
 11
126.919
 21
79.6562
 31
0.0
  0
LINE
  8
0
 62
     0
 10
126.919
 20
79.6562
 30
0.0
 11
126.919
 21
73.8572
 31
0.0
  0
LINE
  8
0
 62
     0
 10
126.919
 20
73.8572
 30
0.0
 11
126.118
 21
73.8572
 31
0.0
  0
LINE
  8
0
 62
     0
 10
126.118
 20
73.8572
 30
0.0
 11
126.118
 21
70.7552
 31
0.0
  0
LINE
  8
0
 62
     0
 10
126.118
 20
70.7552
 30
0.0
 11
126.919
 21
70.7552
 31
0.0
  0
LINE
  8
0
 62
     0
 10
126.919
 20
70.7552
 30
0.0
 11
126.919
 21
69.7562
 31
0.0
  0
LINE
  8
0
 62
     0
 10
126.919
 20
69.7562
 30
0.0
 11
140.918
 21
69.7562
 31
0.0
  0
LINE
  8
0
 62
     0
 10
140.918
 20
69.7562
 30
0.0
 11
140.918
 21
70.7552
 31
0.0
  0
LINE
  8
0
 62
     0
 10
140.918
 20
70.7552
 30
0.0
 11
141.719
 21
70.7552
 31
0.0
  0
LINE
  8
0
 62
     0
 10
141.719
 20
70.7552
 30
0.0
 11
141.719
 21
73.8572
 31
0.0
  0
LINE
  8
0
 62
     0
 10
141.719
 20
73.8572
 30
0.0
 11
140.918
 21
73.8572
 31
0.0
  0
LINE
  8
0
 62
     0
 10
140.918
 20
73.8572
 30
0.0
 11
140.918
 21
79.6562
 31
0.0
  0
LINE
  8
0
 62
     0
 10
140.918
 20
79.6562
 30
0.0
 11
141.719
 21
79.6562
 31
0.0
  0
LINE
  8
0
 62
     0
 10
141.719
 20
79.6562
 30
0.0
 11
141.719
 21
82.7553
 31
0.0
  0
LINE
  8
0
 62
     0
 10
141.719
 20
82.7553
 30
0.0
 11
140.918
 21
82.7553
 31
0.0
  0
LINE
  8
0
 62
     0
 10
140.918
 20
82.7553
 30
0.0
 11
140.918
 21
83.7558
 31
0.0
  0
LINE
  8
0
 62
     0
 10
140.918
 20
83.7558
 30
0.0
 11
126.919
 21
83.7558
 31
0.0
  0
LINE
  8
0
 62
     0
 10
145.969
 20
83.7558
 30
0.0
 11
145.969
 21
82.7553
 31
0.0
  0
LINE
  8
0
 62
     0
 10
145.969
 20
82.7553
 30
0.0
 11
145.168
 21
82.7553
 31
0.0
  0
LINE
  8
0
 62
     0
 10
145.168
 20
82.7553
 30
0.0
 11
145.168
 21
79.6562
 31
0.0
  0
LINE
  8
0
 62
     0
 10
145.168
 20
79.6562
 30
0.0
 11
145.969
 21
79.6562
 31
0.0
  0
LINE
  8
0
 62
     0
 10
145.969
 20
79.6562
 30
0.0
 11
145.969
 21
73.8572
 31
0.0
  0
LINE
  8
0
 62
     0
 10
145.969
 20
73.8572
 30
0.0
 11
145.168
 21
73.8572
 31
0.0
  0
LINE
  8
0
 62
     0
 10
145.168
 20
73.8572
 30
0.0
 11
145.168
 21
70.7552
 31
0.0
  0
LINE
  8
0
 62
     0
 10
145.168
 20
70.7552
 30
0.0
 11
145.969
 21
70.7552
 31
0.0
  0
LINE
  8
0
 62
     0
 10
145.969
 20
70.7552
 30
0.0
 11
145.969
 21
69.7562
 31
0.0
  0
LINE
  8
0
 62
     0
 10
145.969
 20
69.7562
 30
0.0
 11
159.968
 21
69.7562
 31
0.0
  0
LINE
  8
0
 62
     0
 10
159.968
 20
69.7562
 30
0.0
 11
159.968
 21
70.7552
 31
0.0
  0
LINE
  8
0
 62
     0
 10
159.968
 20
70.7552
 30
0.0
 11
160.769
 21
70.7552
 31
0.0
  0
LINE
  8
0
 62
     0
 10
160.769
 20
70.7552
 30
0.0
 11
160.769
 21
73.8572
 31
0.0
  0
LINE
  8
0
 62
     0
 10
160.769
 20
73.8572
 30
0.0
 11
159.968
 21
73.8572
 31
0.0
  0
LINE
  8
0
 62
     0
 10
159.968
 20
73.8572
 30
0.0
 11
159.968
 21
79.6562
 31
0.0
  0
LINE
  8
0
 62
     0
 10
159.968
 20
79.6562
 30
0.0
 11
160.769
 21
79.6562
 31
0.0
  0
LINE
  8
0
 62
     0
 10
160.769
 20
79.6562
 30
0.0
 11
160.769
 21
82.7553
 31
0.0
  0
LINE
  8
0
 62
     0
 10
160.769
 20
82.7553
 30
0.0
 11
159.968
 21
82.7553
 31
0.0
  0
LINE
  8
0
 62
     0
 10
159.968
 20
82.7553
 30
0.0
 11
159.968
 21
83.7558
 31
0.0
  0
LINE
  8
0
 62
     0
 10
159.968
 20
83.7558
 30
0.0
 11
145.969
 21
83.7558
 31
0.0
  0
LINE
  8
0
 62
     0
 10
165.019
 20
83.7558
 30
0.0
 11
165.019
 21
82.7553
 31
0.0
  0
LINE
  8
0
 62
     0
 10
165.019
 20
82.7553
 30
0.0
 11
164.218
 21
82.7553
 31
0.0
  0
LINE
  8
0
 62
     0
 10
164.218
 20
82.7553
 30
0.0
 11
164.218
 21
79.6562
 31
0.0
  0
LINE
  8
0
 62
     0
 10
164.218
 20
79.6562
 30
0.0
 11
165.019
 21
79.6562
 31
0.0
  0
LINE
  8
0
 62
     0
 10
165.019
 20
79.6562
 30
0.0
 11
165.019
 21
73.8572
 31
0.0
  0
LINE
  8
0
 62
     0
 10
165.019
 20
73.8572
 30
0.0
 11
164.218
 21
73.8572
 31
0.0
  0
LINE
  8
0
 62
     0
 10
164.218
 20
73.8572
 30
0.0
 11
164.218
 21
70.7552
 31
0.0
  0
LINE
  8
0
 62
     0
 10
164.218
 20
70.7552
 30
0.0
 11
165.019
 21
70.7552
 31
0.0
  0
LINE
  8
0
 62
     0
 10
165.019
 20
70.7552
 30
0.0
 11
165.019
 21
69.7562
 31
0.0
  0
LINE
  8
0
 62
     0
 10
165.019
 20
69.7562
 30
0.0
 11
179.018
 21
69.7562
 31
0.0
  0
LINE
  8
0
 62
     0
 10
179.018
 20
69.7562
 30
0.0
 11
179.018
 21
70.7552
 31
0.0
  0
LINE
  8
0
 62
     0
 10
179.018
 20
70.7552
 30
0.0
 11
179.819
 21
70.7552
 31
0.0
  0
LINE
  8
0
 62
     0
 10
179.819
 20
70.7552
 30
0.0
 11
179.819
 21
73.8572
 31
0.0
  0
LINE
  8
0
 62
     0
 10
179.819
 20
73.8572
 30
0.0
 11
179.018
 21
73.8572
 31
0.0
  0
LINE
  8
0
 62
     0
 10
179.018
 20
73.8572
 30
0.0
 11
179.018
 21
79.6562
 31
0.0
  0
LINE
  8
0
 62
     0
 10
179.018
 20
79.6562
 30
0.0
 11
179.819
 21
79.6562
 31
0.0
  0
LINE
  8
0
 62
     0
 10
179.819
 20
79.6562
 30
0.0
 11
179.819
 21
82.7553
 31
0.0
  0
LINE
  8
0
 62
     0
 10
179.819
 20
82.7553
 30
0.0
 11
179.018
 21
82.7553
 31
0.0
  0
LINE
  8
0
 62
     0
 10
179.018
 20
82.7553
 30
0.0
 11
179.018
 21
83.7558
 31
0.0
  0
LINE
  8
0
 62
     0
 10
179.018
 20
83.7558
 30
0.0
 11
165.019
 21
83.7558
 31
0.0
  0
LINE
  8
0
 62
     0
 10
184.069
 20
83.7558
 30
0.0
 11
184.069
 21
82.7553
 31
0.0
  0
LINE
  8
0
 62
     0
 10
184.069
 20
82.7553
 30
0.0
 11
183.268
 21
82.7553
 31
0.0
  0
LINE
  8
0
 62
     0
 10
183.268
 20
82.7553
 30
0.0
 11
183.268
 21
79.6562
 31
0.0
  0
LINE
  8
0
 62
     0
 10
183.268
 20
79.6562
 30
0.0
 11
184.069
 21
79.6562
 31
0.0
  0
LINE
  8
0
 62
     0
 10
184.069
 20
79.6562
 30
0.0
 11
184.069
 21
73.8572
 31
0.0
  0
LINE
  8
0
 62
     0
 10
184.069
 20
73.8572
 30
0.0
 11
183.268
 21
73.8572
 31
0.0
  0
LINE
  8
0
 62
     0
 10
183.268
 20
73.8572
 30
0.0
 11
183.268
 21
70.7552
 31
0.0
  0
LINE
  8
0
 62
     0
 10
183.268
 20
70.7552
 30
0.0
 11
184.069
 21
70.7552
 31
0.0
  0
LINE
  8
0
 62
     0
 10
184.069
 20
70.7552
 30
0.0
 11
184.069
 21
69.7562
 31
0.0
  0
LINE
  8
0
 62
     0
 10
184.069
 20
69.7562
 30
0.0
 11
198.068
 21
69.7562
 31
0.0
  0
LINE
  8
0
 62
     0
 10
198.068
 20
69.7562
 30
0.0
 11
198.068
 21
70.7552
 31
0.0
  0
LINE
  8
0
 62
     0
 10
198.068
 20
70.7552
 30
0.0
 11
198.869
 21
70.7552
 31
0.0
  0
LINE
  8
0
 62
     0
 10
198.869
 20
70.7552
 30
0.0
 11
198.869
 21
73.8572
 31
0.0
  0
LINE
  8
0
 62
     0
 10
198.869
 20
73.8572
 30
0.0
 11
198.068
 21
73.8572
 31
0.0
  0
LINE
  8
0
 62
     0
 10
198.068
 20
73.8572
 30
0.0
 11
198.068
 21
79.6562
 31
0.0
  0
LINE
  8
0
 62
     0
 10
198.068
 20
79.6562
 30
0.0
 11
198.869
 21
79.6562
 31
0.0
  0
LINE
  8
0
 62
     0
 10
198.869
 20
79.6562
 30
0.0
 11
198.869
 21
82.7553
 31
0.0
  0
LINE
  8
0
 62
     0
 10
198.869
 20
82.7553
 30
0.0
 11
198.068
 21
82.7553
 31
0.0
  0
LINE
  8
0
 62
     0
 10
198.068
 20
82.7553
 30
0.0
 11
198.068
 21
83.7558
 31
0.0
  0
LINE
  8
0
 62
     0
 10
198.068
 20
83.7558
 30
0.0
 11
184.069
 21
83.7558
 31
0.0
  0
LINE
  8
0
 62
     0
 10
203.119
 20
83.7558
 30
0.0
 11
203.119
 21
82.7553
 31
0.0
  0
LINE
  8
0
 62
     0
 10
203.119
 20
82.7553
 30
0.0
 11
202.318
 21
82.7553
 31
0.0
  0
LINE
  8
0
 62
     0
 10
202.318
 20
82.7553
 30
0.0
 11
202.318
 21
79.6562
 31
0.0
  0
LINE
  8
0
 62
     0
 10
202.318
 20
79.6562
 30
0.0
 11
203.119
 21
79.6562
 31
0.0
  0
LINE
  8
0
 62
     0
 10
203.119
 20
79.6562
 30
0.0
 11
203.119
 21
73.8572
 31
0.0
  0
LINE
  8
0
 62
     0
 10
203.119
 20
73.8572
 30
0.0
 11
202.318
 21
73.8572
 31
0.0
  0
LINE
  8
0
 62
     0
 10
202.318
 20
73.8572
 30
0.0
 11
202.318
 21
70.7552
 31
0.0
  0
LINE
  8
0
 62
     0
 10
202.318
 20
70.7552
 30
0.0
 11
203.119
 21
70.7552
 31
0.0
  0
LINE
  8
0
 62
     0
 10
203.119
 20
70.7552
 30
0.0
 11
203.119
 21
69.7562
 31
0.0
  0
LINE
  8
0
 62
     0
 10
203.119
 20
69.7562
 30
0.0
 11
217.118
 21
69.7562
 31
0.0
  0
LINE
  8
0
 62
     0
 10
217.118
 20
69.7562
 30
0.0
 11
217.118
 21
70.7552
 31
0.0
  0
LINE
  8
0
 62
     0
 10
217.118
 20
70.7552
 30
0.0
 11
217.919
 21
70.7552
 31
0.0
  0
LINE
  8
0
 62
     0
 10
217.919
 20
70.7552
 30
0.0
 11
217.919
 21
73.8572
 31
0.0
  0
LINE
  8
0
 62
     0
 10
217.919
 20
73.8572
 30
0.0
 11
217.118
 21
73.8572
 31
0.0
  0
LINE
  8
0
 62
     0
 10
217.118
 20
73.8572
 30
0.0
 11
217.118
 21
79.6562
 31
0.0
  0
LINE
  8
0
 62
     0
 10
217.118
 20
79.6562
 30
0.0
 11
217.919
 21
79.6562
 31
0.0
  0
LINE
  8
0
 62
     0
 10
217.919
 20
79.6562
 30
0.0
 11
217.919
 21
82.7553
 31
0.0
  0
LINE
  8
0
 62
     0
 10
217.919
 20
82.7553
 30
0.0
 11
217.118
 21
82.7553
 31
0.0
  0
LINE
  8
0
 62
     0
 10
217.118
 20
82.7553
 30
0.0
 11
217.118
 21
83.7558
 31
0.0
  0
LINE
  8
0
 62
     0
 10
217.118
 20
83.7558
 30
0.0
 11
203.119
 21
83.7558
 31
0.0
  0
LINE
  8
0
 62
     0
 10
222.169
 20
83.7558
 30
0.0
 11
222.169
 21
82.7553
 31
0.0
  0
LINE
  8
0
 62
     0
 10
222.169
 20
82.7553
 30
0.0
 11
221.368
 21
82.7553
 31
0.0
  0
LINE
  8
0
 62
     0
 10
221.368
 20
82.7553
 30
0.0
 11
221.368
 21
79.6562
 31
0.0
  0
LINE
  8
0
 62
     0
 10
221.368
 20
79.6562
 30
0.0
 11
222.169
 21
79.6562
 31
0.0
  0
LINE
  8
0
 62
     0
 10
222.169
 20
79.6562
 30
0.0
 11
222.169
 21
73.8572
 31
0.0
  0
LINE
  8
0
 62
     0
 10
222.169
 20
73.8572
 30
0.0
 11
221.368
 21
73.8572
 31
0.0
  0
LINE
  8
0
 62
     0
 10
221.368
 20
73.8572
 30
0.0
 11
221.368
 21
70.7552
 31
0.0
  0
LINE
  8
0
 62
     0
 10
221.368
 20
70.7552
 30
0.0
 11
222.169
 21
70.7552
 31
0.0
  0
LINE
  8
0
 62
     0
 10
222.169
 20
70.7552
 30
0.0
 11
222.169
 21
69.7562
 31
0.0
  0
LINE
  8
0
 62
     0
 10
222.169
 20
69.7562
 30
0.0
 11
236.168
 21
69.7562
 31
0.0
  0
LINE
  8
0
 62
     0
 10
236.168
 20
69.7562
 30
0.0
 11
236.168
 21
70.7552
 31
0.0
  0
LINE
  8
0
 62
     0
 10
236.168
 20
70.7552
 30
0.0
 11
236.969
 21
70.7552
 31
0.0
  0
LINE
  8
0
 62
     0
 10
236.969
 20
70.7552
 30
0.0
 11
236.969
 21
73.8572
 31
0.0
  0
LINE
  8
0
 62
     0
 10
236.969
 20
73.8572
 30
0.0
 11
236.168
 21
73.8572
 31
0.0
  0
LINE
  8
0
 62
     0
 10
236.168
 20
73.8572
 30
0.0
 11
236.168
 21
79.6562
 31
0.0
  0
LINE
  8
0
 62
     0
 10
236.168
 20
79.6562
 30
0.0
 11
236.969
 21
79.6562
 31
0.0
  0
LINE
  8
0
 62
     0
 10
236.969
 20
79.6562
 30
0.0
 11
236.969
 21
82.7553
 31
0.0
  0
LINE
  8
0
 62
     0
 10
236.969
 20
82.7553
 30
0.0
 11
236.168
 21
82.7553
 31
0.0
  0
LINE
  8
0
 62
     0
 10
236.168
 20
82.7553
 30
0.0
 11
236.168
 21
83.7558
 31
0.0
  0
LINE
  8
0
 62
     0
 10
236.168
 20
83.7558
 30
0.0
 11
222.169
 21
83.7558
 31
0.0
  0
LINE
  8
0
 62
     0
 10
243.231
 20
92.7075
 30
0.0
 11
242.813
 21
92.4952
 31
0.0
  0
LINE
  8
0
 62
     0
 10
242.813
 20
92.4952
 30
0.0
 11
242.481
 21
92.1632
 31
0.0
  0
LINE
  8
0
 62
     0
 10
242.481
 20
92.1632
 30
0.0
 11
242.267
 21
91.7444
 31
0.0
  0
LINE
  8
0
 62
     0
 10
242.267
 20
91.7444
 30
0.0
 11
242.194
 21
91.2813
 31
0.0
  0
LINE
  8
0
 62
     0
 10
242.194
 20
91.2813
 30
0.0
 11
242.267
 21
90.8184
 31
0.0
  0
LINE
  8
0
 62
     0
 10
242.267
 20
90.8184
 30
0.0
 11
242.481
 21
90.3993
 31
0.0
  0
LINE
  8
0
 62
     0
 10
242.481
 20
90.3993
 30
0.0
 11
242.813
 21
90.0673
 31
0.0
  0
LINE
  8
0
 62
     0
 10
242.813
 20
90.0673
 30
0.0
 11
243.231
 21
89.855
 31
0.0
  0
LINE
  8
0
 62
     0
 10
243.231
 20
89.855
 30
0.0
 11
243.695
 21
89.7805
 31
0.0
  0
LINE
  8
0
 62
     0
 10
243.695
 20
89.7805
 30
0.0
 11
244.158
 21
89.855
 31
0.0
  0
LINE
  8
0
 62
     0
 10
244.158
 20
89.855
 30
0.0
 11
244.576
 21
90.0673
 31
0.0
  0
LINE
  8
0
 62
     0
 10
244.576
 20
90.0673
 30
0.0
 11
244.908
 21
90.3993
 31
0.0
  0
LINE
  8
0
 62
     0
 10
244.908
 20
90.3993
 30
0.0
 11
245.121
 21
90.8184
 31
0.0
  0
LINE
  8
0
 62
     0
 10
245.121
 20
90.8184
 30
0.0
 11
245.194
 21
91.2813
 31
0.0
  0
LINE
  8
0
 62
     0
 10
245.194
 20
91.2813
 30
0.0
 11
245.121
 21
91.7444
 31
0.0
  0
LINE
  8
0
 62
     0
 10
245.121
 20
91.7444
 30
0.0
 11
244.908
 21
92.1632
 31
0.0
  0
LINE
  8
0
 62
     0
 10
244.908
 20
92.1632
 30
0.0
 11
244.576
 21
92.4952
 31
0.0
  0
LINE
  8
0
 62
     0
 10
244.576
 20
92.4952
 30
0.0
 11
244.158
 21
92.7075
 31
0.0
  0
LINE
  8
0
 62
     0
 10
244.158
 20
92.7075
 30
0.0
 11
243.695
 21
92.7806
 31
0.0
  0
LINE
  8
0
 62
     0
 10
243.695
 20
92.7806
 30
0.0
 11
243.231
 21
92.7075
 31
0.0
  0
LINE
  8
0
 62
     0
 10
4.63021
 20
92.7075
 30
0.0
 11
4.21128
 21
92.4952
 31
0.0
  0
LINE
  8
0
 62
     0
 10
4.21128
 20
92.4952
 30
0.0
 11
3.87918
 21
92.1632
 31
0.0
  0
LINE
  8
0
 62
     0
 10
3.87918
 20
92.1632
 30
0.0
 11
3.66695
 21
91.7444
 31
0.0
  0
LINE
  8
0
 62
     0
 10
3.66695
 20
91.7444
 30
0.0
 11
3.59392
 21
91.2813
 31
0.0
  0
LINE
  8
0
 62
     0
 10
3.59392
 20
91.2813
 30
0.0
 11
3.66695
 21
90.8184
 31
0.0
  0
LINE
  8
0
 62
     0
 10
3.66695
 20
90.8184
 30
0.0
 11
3.87918
 21
90.3993
 31
0.0
  0
LINE
  8
0
 62
     0
 10
3.87918
 20
90.3993
 30
0.0
 11
4.21128
 21
90.0673
 31
0.0
  0
LINE
  8
0
 62
     0
 10
4.21128
 20
90.0673
 30
0.0
 11
4.63021
 21
89.855
 31
0.0
  0
LINE
  8
0
 62
     0
 10
4.63021
 20
89.855
 30
0.0
 11
5.09323
 21
89.7805
 31
0.0
  0
LINE
  8
0
 62
     0
 10
5.09323
 20
89.7805
 30
0.0
 11
5.55625
 21
89.855
 31
0.0
  0
LINE
  8
0
 62
     0
 10
5.55625
 20
89.855
 30
0.0
 11
5.97517
 21
90.0673
 31
0.0
  0
LINE
  8
0
 62
     0
 10
5.97517
 20
90.0673
 30
0.0
 11
6.30728
 21
90.3993
 31
0.0
  0
LINE
  8
0
 62
     0
 10
6.30728
 20
90.3993
 30
0.0
 11
6.51951
 21
90.8184
 31
0.0
  0
LINE
  8
0
 62
     0
 10
6.51951
 20
90.8184
 30
0.0
 11
6.59391
 21
91.2813
 31
0.0
  0
LINE
  8
0
 62
     0
 10
6.59391
 20
91.2813
 30
0.0
 11
6.51951
 21
91.7444
 31
0.0
  0
LINE
  8
0
 62
     0
 10
6.51951
 20
91.7444
 30
0.0
 11
6.30728
 21
92.1632
 31
0.0
  0
LINE
  8
0
 62
     0
 10
6.30728
 20
92.1632
 30
0.0
 11
5.97517
 21
92.4952
 31
0.0
  0
LINE
  8
0
 62
     0
 10
5.97517
 20
92.4952
 30
0.0
 11
5.55625
 21
92.7075
 31
0.0
  0
LINE
  8
0
 62
     0
 10
5.55625
 20
92.7075
 30
0.0
 11
5.09323
 21
92.7806
 31
0.0
  0
LINE
  8
0
 62
     0
 10
5.09323
 20
92.7806
 30
0.0
 11
4.63021
 21
92.7075
 31
0.0
  0
ENDSEC
  0
EOF
