<?xml version="1.0"?>
<!-- Generated by SVGo -->
<svg width="258.601mm" height="106.201mm"
     viewBox="0.000 0.000 258.601 106.201"
     xmlns="http://www.w3.org/2000/svg" 
     xmlns:xlink="http://www.w3.org/1999/xlink">
<polygon points="253.601,101.201 5.000,101.201 5.000,5.000 124.300,5.000 124.300,15.000 15.000,15.000 15.000,91.201 243.601,91.201 243.601,15.000 134.300,15.000 134.300,5.000 253.601,5.000" style="fill:none;stroke-width:0.050000mm;stroke:black"/>
<polygon points="248.137,94.774 247.719,94.987 247.387,95.319 247.174,95.737 247.101,96.201 247.174,96.664 247.387,97.082 247.719,97.414 248.137,97.627 248.601,97.701 249.064,97.627 249.482,97.414 249.814,97.082 250.027,96.664 250.101,96.201 250.027,95.737 249.814,95.319 249.482,94.987 249.064,94.774 248.601,94.701" style="fill:none;stroke-width:0.050000mm;stroke:black"/>
<polygon points="9.536,94.774 9.118,94.987 8.786,95.319 8.573,95.737 8.500,96.201 8.573,96.664 8.786,97.082 9.118,97.414 9.536,97.627 10.000,97.701 10.463,97.627 10.881,97.414 11.213,97.082 11.426,96.664 11.500,96.201 11.426,95.737 11.213,95.319 10.881,94.987 10.463,94.774 10.000,94.701" style="fill:none;stroke-width:0.050000mm;stroke:black"/>
<polygon points="248.137,8.573 247.719,8.786 247.387,9.118 247.174,9.536 247.101,10.000 247.174,10.463 247.387,10.881 247.719,11.213 248.137,11.426 248.601,11.500 249.064,11.426 249.482,11.213 249.814,10.881 250.027,10.463 250.101,10.000 250.027,9.536 249.814,9.118 249.482,8.786 249.064,8.573 248.601,8.500" style="fill:none;stroke-width:0.050000mm;stroke:black"/>
<polygon points="9.536,8.573 9.118,8.786 8.786,9.118 8.573,9.536 8.500,10.000 8.573,10.463 8.786,10.881 9.118,11.213 9.536,11.426 10.000,11.500 10.463,11.426 10.881,11.213 11.213,10.881 11.426,10.463 11.500,10.000 11.426,9.536 11.213,9.118 10.881,8.786 10.463,8.573 10.000,8.500" style="fill:none;stroke-width:0.050000mm;stroke:black"/>
</svg>
